<svg width="246" height="56" viewBox="0 0 246 56" fill="none" xmlns="http://www.w3.org/2000/svg">
<g opacity="0.35">
<path opacity="0.35" d="M269.344 16.998C269.344 37.0154 252.977 53.3418 232.664 53.3418C212.351 53.3418 195.984 37.0154 195.984 16.998C195.984 -3.01927 212.351 -19.3457 232.664 -19.3457C252.977 -19.3457 269.344 -3.01927 269.344 16.998Z" stroke="white" stroke-width="15.3125"/>
<path opacity="0.35" d="M25.3879 8.65302C25.3879 18.2043 17.5825 25.9685 7.92766 25.9685C-1.72721 25.9685 -9.53256 18.2043 -9.53256 8.65302C-9.53256 -0.898243 -1.72721 -8.66245 7.92766 -8.66245C17.5825 -8.66245 25.3879 -0.898243 25.3879 8.65302Z" stroke="white" stroke-width="3.30011"/>
<path opacity="0.35" d="M40.7525 8.65322C40.7525 26.6096 26.0785 41.2063 7.92732 41.2063C-10.2238 41.2063 -24.8979 26.6096 -24.8979 8.65322C-24.8979 -9.30315 -10.2238 -23.8999 7.92732 -23.8999C26.0785 -23.8999 40.7525 -9.30315 40.7525 8.65322Z" stroke="white" stroke-width="6.2042"/>
</g>
</svg>
