<svg width="80" height="32" viewBox="0 0 107 32" fill="none" xmlns="http://www.w3.org/2000/svg">
<g clip-path="url(#clip0)">
<path d="M7.59859 31.9952H24.755C28.95 31.9952 32.3488 28.5965 32.3488 24.4016V7.59839C32.3488 3.39878 28.95 0 24.755 0H7.59859C3.40364 0 0 3.39878 0 7.59839V24.4016C0 28.5965 3.40364 31.9952 7.59859 31.9952Z" fill="#CAC0B6"/>
<path d="M0 16.9081C1.85913 12.575 5.07685 5.07195 7.24107 0H10.311C12.5086 5.13869 22.0331 27.338 22.3429 28.0387C23.2105 29.9979 24.5214 31.3755 25.8323 31.9952H15.9456C16.9276 31.4899 17.9287 30.3602 16.9848 28.0673C16.327 26.4657 7.41268 5.72024 7.08376 4.96708C5.24846 9.20959 1.63508 17.7089 0 21.5415V16.9081Z" fill="black"/>
<path d="M44.9243 31.9956H62.0808C66.2757 31.9956 69.6746 28.5968 69.6746 24.402V7.59876C69.6746 3.40391 66.2757 0.00513196 62.0808 0.00513196H44.9243C40.7294 0.000365091 37.3257 3.39914 37.3257 7.59876V24.402C37.3257 28.5968 40.7294 31.9956 44.9243 31.9956Z" fill="#CAC0B6"/>
<path d="M44.8624 16.2646C48.8476 15.9595 54.8349 13.2281 54.8349 7.40295C54.8349 4.33785 53.3572 1.4825 49.8486 0.00476687L43.6992 0C47.4651 0.743632 49.3624 3.71816 49.3624 7.42202C49.3624 13.1947 46.1733 15.54 40.9487 15.54C40.4005 15.54 37.9598 15.54 37.3257 15.54V16.8461C37.7023 16.8461 37.8978 16.8461 38.3554 16.8461C40.0668 16.8461 41.1346 16.8986 42.1452 18.1475C43.9948 20.4308 48.8237 27.6097 52.7565 32.0048H60.9796C55.0018 29.7739 50.3682 18.2094 44.8624 16.2646Z" fill="black"/>
<path d="M82.2498 32.0004H99.4062C103.601 32.0004 107 28.6016 107 24.4067V7.59875C107 3.40391 103.601 0.00512695 99.4062 0.00512695H82.2498C78.0548 0.00512695 74.6512 3.40391 74.6512 7.59875V24.402C74.6512 28.5968 78.0548 32.0004 82.2498 32.0004Z" fill="#CAC0B6"/>
<path d="M102.023 28.0769V3.98034C102.023 2.64561 102.333 1.60167 102.943 0.872337C101.885 0.314613 100.684 0 99.4063 0H97.018C94.7776 5.19112 86.2971 24.9021 85.8823 25.8889C85.6392 25.2978 79.3754 10.6111 76.0814 3.1652C75.1852 4.41412 74.6561 5.93952 74.6561 7.59362V12.0983C77.7117 19.1724 81.8685 28.811 83.3129 31.9952H85.1721C87.3124 27.2999 95.3639 8.34202 96.9608 4.66677C97.0848 4.37599 97.1897 4.08521 97.2326 4.00417C97.2326 4.06137 97.2135 4.45226 97.2135 4.67153V28.0769C97.2135 30.1171 96.4126 31.4041 94.9682 32H99.4158C100.703 32 101.914 31.6806 102.977 31.1134C102.352 30.4031 102.023 29.3973 102.023 28.0769Z" fill="black"/>
</g>
<defs>
<clipPath id="clip0">
<rect width="107" height="32" fill="white"/>
</clipPath>
</defs>
</svg>
