<svg xmlns="http://www.w3.org/2000/svg" fill="none" viewBox="0 0 40 40">
		<defs />
		<circle cx="20" cy="20" r="20" fill="#DEEBFF" />
		<circle cx="20" cy="20" r="16" fill="#0065FF" />
		<g clip-path="url(#clip0)">
			<path
				fill="#000"
				d="M29 22l-1-1v-1c3 2 3-3 3-3l-1 1c0 3-2 1-2 1 0-1-1-2-3-2l-4-2s-5-7-10-1l-1 2-3 1h2s-2 1-2 3l2-2 1 1v1l1 1 1-2h1s2 1 0 2c-1 0-4 0-3 1l2 1v-1h3s-3 1-3 3h2s-1-1 1-2c0 0 2 0 3-2 0 0 3-1 6 3l-2 2s-2 0-2 2h3v-1s4-1 3-2l1-1 2 3-1 1h3l-2-5v-1z"
			/>
		</g>
		<defs>
			<clipPath id="clip0">
				<path fill="#fff" d="M0 0h24v24H0z" transform="translate(7 8)" />
			</clipPath>
		</defs>
	</svg>
