<svg xmlns="http://www.w3.org/2000/svg" fill="none" viewBox="0 0 83 96">
  <defs/>
  <path fill="#473F91" fill-rule="evenodd" d="M68 42v-3l-1 1-1-1 4-7 4 2-2 2v10l-2 1-1 1h-1v-6z" clip-rule="evenodd"/>
  <path fill="#8D85D6" fill-rule="evenodd" d="M69 43v-5l-2 2 4-7 4 2-2 1v10l-4 2v-5z" clip-rule="evenodd"/>
  <path fill="#473F91" fill-rule="evenodd" d="M54 37v-6l-1 1-2-2 6-12 7 5-4 2v17l-4 3v2l-2-1v-9z" clip-rule="evenodd"/>
  <path fill="#8D85D6" fill-rule="evenodd" d="M56 38v-8l-3 2 6-12 7 4-4 2v18l-6 3v-9z" clip-rule="evenodd"/>
  <path fill="#F58208" fill-rule="evenodd" d="M71 62c-5 0-9 1-11 4v2c0 4 5 7 11 7 6 1 11-2 11-6a4 4 0 000-1v-1c-2-3-6-5-11-5z" clip-rule="evenodd"/>
  <path fill="#FFCA45" fill-rule="evenodd" d="M71 60c-6-1-11 2-11 6s5 7 11 7c6 1 11-2 11-6s-5-7-11-7z" clip-rule="evenodd"/>
  <path fill="#F58208" fill-rule="evenodd" d="M71 62c-4 0-8 2-8 4 0 3 4 5 8 5s8-2 8-4c0-3-4-5-8-5z" clip-rule="evenodd"/>
  <path fill="#fff" d="M72 68c2 0 1-1 0-2v-1h1v1l1 1c1-1 2-1 1-2l-1-1h-4v3h-1v-1l-1-1c-2 1-2 2-1 3l1 1v-1h4z"/>
  <path fill="#F58208" fill-rule="evenodd" d="M68 48c4 3 8 9 8 14 0 2 0 3-2 4l-1 1-5-1c-5-3-9-9-9-14l1-3 1-1h7z" clip-rule="evenodd"/>
  <path fill="#FFCA45" fill-rule="evenodd" d="M66 49c5 3 9 9 9 14s-4 6-9 3c-5-2-8-8-8-13s3-7 8-4z" clip-rule="evenodd"/>
  <path fill="#F58208" fill-rule="evenodd" d="M66 51c4 2 7 7 7 11 0 3-3 4-7 2-3-2-6-6-6-10 0-3 3-5 6-3z" clip-rule="evenodd"/>
  <path fill="#fff" d="M69 61l-2-4-2-1h1l1 1 2 1-2-4-2-1c-1 0-2 0-2 2l3 3 1 2h-1l-1-1-2-2 2 4v1l2 1v-1c1 1 2 0 2-1z"/>
  <path fill="#F58208" fill-rule="evenodd" d="M65 49c5 3 9 9 9 14l-2 5-2 1v-1c-1 1-3 0-5-1-5-3-9-9-9-14l1-3 1-1h7z" clip-rule="evenodd"/>
  <path fill="#FFCA45" fill-rule="evenodd" d="M64 50c5 3 9 9 9 14s-4 7-9 4-9-9-9-14 4-6 9-4z" clip-rule="evenodd"/>
  <path fill="#F58208" fill-rule="evenodd" d="M64 53c4 2 7 6 7 10s-3 5-7 3-7-7-7-11c0-3 3-5 7-2z" clip-rule="evenodd"/>
  <path fill="#fff" d="M67 62l-3-4-1-1h1l1 1 2 1-2-3v-1l-2-1v1c-1-1-2 0-2 1l2 4 2 1h-1l-1-1-2-1 2 4 2 1c1 0 2 0 2-2z"/>
  <path fill="#004A3F" fill-rule="evenodd" d="M57 91l13-8c6-3 6-6 0-9L35 54c-2-2-5-1-7 0L10 64c-3 2-3 4 0 6l36 20c5 3 7 3 11 1z" clip-rule="evenodd"/>
  <path fill="#00806D" fill-rule="evenodd" d="M57 90l13-8c6-3 6-6 0-10L35 53c-2-2-5-2-7 0L10 63c-3 2-3 3 0 5l36 20c5 3 7 4 11 2z" clip-rule="evenodd"/>
  <path fill="#004A3F" fill-rule="evenodd" d="M57 88l13-7c6-4 6-7 0-10L35 51h-7L10 61c-3 2-3 4 0 6l36 20c5 3 7 3 11 1z" clip-rule="evenodd"/>
  <path fill="#00806D" fill-rule="evenodd" d="M57 87l13-8c6-3 6-6 0-9L35 50c-2-2-5-2-7 0L10 60c-3 2-3 4 0 5l36 21c5 2 7 3 11 1z" clip-rule="evenodd"/>
  <path fill="#004A3F" fill-rule="evenodd" d="M57 85l13-7c6-3 6-6 0-10L35 48c-2-1-5-1-7 1L10 59c-3 1-3 3 0 5l36 20c5 3 7 3 11 1z" clip-rule="evenodd"/>
  <path fill="#00806D" fill-rule="evenodd" d="M57 84l13-8c6-3 6-6 0-9L35 47c-2-2-5-1-7 0L10 57c-3 2-3 4 0 6l36 20c5 3 7 3 11 1z" clip-rule="evenodd"/>
  <path fill="#004A3F" fill-rule="evenodd" d="M57 83l13-8c6-3 6-6 0-10L35 46c-2-2-5-2-7 0L10 56c-3 2-3 4 0 5l36 21c5 2 7 3 11 1z" clip-rule="evenodd"/>
  <path fill="#00806D" fill-rule="evenodd" d="M57 81l13-7c6-4 6-7 0-10L35 44h-7L10 55c-3 1-3 3 0 5l36 20c5 3 7 3 11 1z" clip-rule="evenodd"/>
  <path fill="#00A38B" fill-rule="evenodd" d="M57 80l13-8c6-3 6-6 0-9L35 43c-2-2-5-2-7 0L10 53c-3 2-3 4 0 5l36 21c5 3 7 3 11 1z" clip-rule="evenodd"/>
  <path fill="#4EE0BE" fill-rule="evenodd" d="M55 77l11-6c5-3 5-6 0-9L36 45c-2-1-4-1-6 1l-15 8c-3 2-3 3 0 5l30 17c4 3 7 3 10 1z" clip-rule="evenodd"/>
  <path fill="#00A38B" fill-rule="evenodd" d="M73 65l1 1-1 2v1l-1 1-3 1c-3 0-4-2-4-5 0-1 2-3 4-3l1 1 2 1h1zM52 75c2 0 4 1 4 3v2h-1-1-2a161 161 0 00-2-1h-1-2v-1c0-2 2-3 5-3zM32 48c3 0 5-2 5-3l-1-2h-4a206 206 0 01-2 1h-2-1v1c0 1 3 3 5 3zM12 52v4l-1 1 3 2c2 0 4-1 5-3s0-4-2-5l-1 1h-3-1zM40 54c6-1 11 2 11 5v1l8 5h-1l-8-4-2 3 4 2h-1l-4-2-5 2 8 5h-1l-9-4c-5 0-10-2-10-6l-6-4v-1l6 4 3-4-1-1 2 1 5-2-6-3v-1l7 4z" clip-rule="evenodd"/>
  <path fill="#4EE0BE" d="M42 63c2-2 1-3 0-3l-1-2h2v1l2 2v-3l1-1-2-1v1h-5c-2 1-1 2 0 3l1 1h-2v-1l-2-1c-2 1-2 2-1 3h-1l2 1h6z"/>
  <path fill="#00A38B" fill-rule="evenodd" d="M56 66c2 0 4 1 4 3 0 1-2 3-4 3-3 0-5-1-5-2 0-2 2-3 5-4z" clip-rule="evenodd"/>
  <path fill="#4EE0BE" d="M56 70v-1-1 1h1l1-1h-3v2l-1-1-1 1 1 1v-1h2z"/>
  <path fill="#00A38B" fill-rule="evenodd" d="M28 50l4 2c0 2-2 3-4 3-3 0-5-1-5-2 0-2 2-3 5-3z" clip-rule="evenodd"/>
  <path fill="#4EE0BE" d="M28 54v-2h1l1 1v-2h-3v2c-1 0-1 0 0 0l-1-1v1h-1l1 1h2z"/>
  <path fill="#CCC" fill-rule="evenodd" d="M36 73l4 2v12l-4-3V73z" clip-rule="evenodd"/>
  <path fill="#fff" fill-rule="evenodd" d="M36 73l4 2 26-15-4-2-26 15z" clip-rule="evenodd"/>
  <path fill="#F58208" fill-rule="evenodd" d="M17 64c4 3 8 9 8 14l-1 5h-1l-1 1v-1c-2 1-4 0-5-1-5-3-9-9-9-14l1-3H8l2-1h7z" clip-rule="evenodd"/>
  <path fill="#FFCA45" fill-rule="evenodd" d="M15 65c5 3 9 9 9 14s-4 7-9 4-9-9-9-14 4-6 9-4z" clip-rule="evenodd"/>
  <path fill="#F58208" fill-rule="evenodd" d="M15 68c4 2 7 6 7 10s-3 5-7 3-6-7-6-11c0-3 2-5 6-2z" clip-rule="evenodd"/>
  <path fill="#fff" d="M18 77l-2-3-2-2h1l1 1 2 1-2-3v-1l-2-1v1c-1-1-2 0-2 1 0 2 2 3 3 4l1 1h-1l-1-1-2-1 2 4 2 1c1 0 2 0 2-2z"/>
  <path fill="#1C176B" fill-rule="evenodd" d="M42 51l-1 3h8c2 0 3-1 3-3 1-2-2-8-6-16-4 2-5 7-4 8a16994 16994 0 015 7l-5 1z" clip-rule="evenodd"/>
  <path fill="#140F59" fill-rule="evenodd" d="M47 48c1 2 2 0 1-2l-2-3c0-2 2-3 1-5l-4-1v6l4 5z" clip-rule="evenodd"/>
  <path fill="#0F0A4A" fill-rule="evenodd" d="M43 44a16161 16161 0 012 2l-2-2z" clip-rule="evenodd"/>
  <path fill="#000" fill-rule="evenodd" d="M37 50h2l1 2a2856 2856 0 000 6h-1l-2-1v-2l-1-2v-2l1-1zM32 60h2l1 1a2570 2570 0 000 7h-2l-1-2-1-2v-3l1-1z" clip-rule="evenodd"/>
  <path fill="#28237A" fill-rule="evenodd" d="M32 60c0 2 1 3 3 2l6-6 2-5 1-13h-9l2 13-1 2-4 7z" clip-rule="evenodd"/>
  <path fill="#1C176B" fill-rule="evenodd" d="M37 54v2l2-2v-4l1-6c2-2 2-4 0-6h-4a662782 662782 0 001 16z" clip-rule="evenodd"/>
  <path fill="#140F59" fill-rule="evenodd" d="M36 39a1468 1468 0 014 2l-2 3v7l-2-12z" clip-rule="evenodd"/>
  <path fill="#CB8F66" fill-rule="evenodd" d="M44 6l3 1V6l1-3c1-2-2-4-2-1 0 2-1 2-1 1h-1-1l1 2v1z" clip-rule="evenodd"/>
  <path fill="#F1F0FF" fill-rule="evenodd" d="M44 6h3l-2 15-3 2a3 3 0 01-2-4c2-3 3-8 4-13z" clip-rule="evenodd"/>
  <path fill="#E2E1F7" fill-rule="evenodd" d="M46 10c0-1 1-2 1 0l-2 8-1 2v1h-1l-1 1-1-2 1-1c1 0 2 0 1-1 0-4 3-3 3-8z" clip-rule="evenodd"/>
  <path fill="#C7C5F0" fill-rule="evenodd" d="M44 18h1l-1 2c0 2-1 2-3 2a1 1 0 111-1 1 1 0 002-1v-2z" clip-rule="evenodd"/>
  <path fill="#EBEAFC" fill-rule="evenodd" d="M42 39c4-1 5-2 4-7l-2-9c0-2-1-3-3-3l-7 3c-3 2-4 3-2 5l2 6 2 4c1 2 3 1 6 1z" clip-rule="evenodd"/>
  <path fill="#DFDEF7" fill-rule="evenodd" d="M36 22l2 2 2 3c1 3-3 4-2 7l2 4v1l-4-2-4-9c0-2 2-4 4-6z" clip-rule="evenodd"/>
  <path fill="#D2D0F5" fill-rule="evenodd" d="M42 28l-1-1a4 4 0 000 7l1 2 2-4-2-4z" clip-rule="evenodd"/>
  <path fill="#D2D0F5" fill-rule="evenodd" d="M35 23h1a5 5 0 010 8 4 4 0 001 6l1 2-2-2-4-8 2-5 1-1z" clip-rule="evenodd"/>
  <path fill="#CB8F66" fill-rule="evenodd" d="M17 19v3l-2-1h-3c-2-1-2-5 0-3h3l-1-1h1l1 2h1z" clip-rule="evenodd"/>
  <path fill="#28237A" fill-rule="evenodd" d="M41 24l3 12c-1 2-3 2-4 0V25l-1-1c0-1 0-2 1-1l1 1z" clip-rule="evenodd"/>
  <path fill="#CB8F66" fill-rule="evenodd" d="M37 23l-2-2-1-2h2l4 1a3 3 0 01-3 3z" clip-rule="evenodd"/>
  <path fill="#fff" fill-rule="evenodd" d="M40 20c0 3-1 3-5 1a1 1 0 000 2l4 2v-2l1 1h1v-4h-1z" clip-rule="evenodd"/>
  <path fill="#A96E46" fill-rule="evenodd" d="M38 19l1 2h-2c-2 0-2-1-2-2h3z" clip-rule="evenodd"/>
  <path fill="#CB8F66" fill-rule="evenodd" d="M39 14a3 3 0 00-4 4l1 2c3 1 5 0 4-2l-1-4z" clip-rule="evenodd"/>
  <path fill="#A96E46" fill-rule="evenodd" d="M35 19c-1-2-1-3 1-4v2l2 3v1l-3-2z" clip-rule="evenodd"/>
  <path fill="#FFCC85" fill-rule="evenodd" d="M34 18h1l1 1-2 1v-2z" clip-rule="evenodd"/>
  <path fill="#28237A" fill-rule="evenodd" d="M36 15v-1h3c2-2-1-3-3-3l-2 2-2 1 1 2 3-1z" clip-rule="evenodd"/>
  <path fill="#EB763B" fill-rule="evenodd" d="M34 18h1v1l-1-1z" clip-rule="evenodd"/>
  <path fill="#140F59" fill-rule="evenodd" d="M34 19v-1h2v-1-2c-1-2-3 0-4-1l-1 1c-1 4 4 5 3 4z" clip-rule="evenodd"/>
  <path fill="#ADABDE" fill-rule="evenodd" d="M32 29l2-5a4 4 0 010 6v2l-2-3z" clip-rule="evenodd"/>
  <path fill="#F1F0FF" fill-rule="evenodd" d="M18 19l-2 3c6 4 12 5 16 6h3a3 3 0 00-2-5c-5 0-10-2-15-4z" clip-rule="evenodd"/>
  <path fill="#E2E1F7" fill-rule="evenodd" d="M22 24h-1l9 3h2a3 3 0 011 0l1-1-1-2-1 1-2 1c-3-3-4 0-8-2z" clip-rule="evenodd"/>
  <path fill="#C7C5F0" fill-rule="evenodd" d="M30 27h-1l3 1 2-2v-1a1 1 0 00-1 1 1 1 0 01-1 1h-2z" clip-rule="evenodd"/>
  <path fill="#F58208" fill-rule="evenodd" d="M25 82c-4 0-9 1-10 4h-1a1529 1529 0 010 2c0 4 5 7 11 7 6 1 11-2 12-6a4 4 0 000-1v-1h-1c-1-3-5-5-11-5z" clip-rule="evenodd"/>
  <path fill="#FFCA45" fill-rule="evenodd" d="M25 80c-6-1-11 2-11 6s5 7 11 7c7 1 12-2 12-6s-5-7-12-7z" clip-rule="evenodd"/>
  <path fill="#F58208" fill-rule="evenodd" d="M25 82c-4 0-7 2-7 4 0 3 3 5 7 5 5 0 8-2 8-4 0-3-3-5-8-5z" clip-rule="evenodd"/>
  <path fill="#fff" d="M24 88v-2l1-1h-1v1l-2 1v-2h-1l1-1h4c2 1 1 2 0 2v1h1v-1l2-1v3h1l-1 1-1-1h-4z"/>
  <path fill="#F58208" fill-rule="evenodd" d="M29 79c-5 0-10 2-11 5h-1v2c0 4 5 7 12 7 6 0 10-2 11-6a4 4 0 000-1v-1h-1c-1-3-5-5-10-6z" clip-rule="evenodd"/>
  <path fill="#FFCA45" fill-rule="evenodd" d="M29 77c-7 0-12 3-12 7s5 7 12 7c6 0 11-3 11-6 0-4-5-7-11-8z" clip-rule="evenodd"/>
  <path fill="#F58208" fill-rule="evenodd" d="M29 79c-5 0-8 2-8 5s3 5 8 5c4 0 7-2 7-5 0-2-3-4-7-5z" clip-rule="evenodd"/>
  <path fill="#fff" d="M28 86c-2-1-1-1 0-2v-1h-1v1l-2 1v-2l-1-1 2-1v1h4v2l-1 1h1v-1l2-1 1 2v1l-1 1-1-1h-3z"/>
  <path fill="#F58208" fill-rule="evenodd" d="M31 77c-5 0-9 2-11 5v2c0 4 5 7 11 7s11-2 11-6a4 4 0 000-1v-1c-2-3-6-5-11-6z" clip-rule="evenodd"/>
  <path fill="#FFCA45" fill-rule="evenodd" d="M31 75c-6 0-11 3-11 7s5 7 11 7 11-3 11-6c0-4-5-7-11-8z" clip-rule="evenodd"/>
  <path fill="#F58208" fill-rule="evenodd" d="M31 77c-4 0-8 2-8 5s4 5 8 5 8-2 8-5c0-2-4-4-8-5z" clip-rule="evenodd"/>
  <path fill="#fff" d="M30 84c-2-1-1-1 0-2v-1h-1v1l-1 1-1-2v-1l1-1v1h4v3h1v-1l1-1c2 1 2 2 1 2v1l-1 1-1-1h-3z"/>
  <path fill="#F58208" fill-rule="evenodd" d="M29 74c-5 0-10 2-11 5h-1v2c0 4 5 7 12 7 6 0 10-2 11-6a4 4 0 000-1v-2l-1 1c-1-3-5-6-10-6z" clip-rule="evenodd"/>
  <path fill="#FFCA45" fill-rule="evenodd" d="M29 72c-7 0-12 3-12 7s5 7 12 7c6 0 11-3 11-7 0-3-5-7-11-7z" clip-rule="evenodd"/>
  <path fill="#F58208" fill-rule="evenodd" d="M29 74c-5 0-8 2-8 5s3 5 8 5c4 0 7-2 7-5 0-2-3-5-7-5z" clip-rule="evenodd"/>
  <path fill="#fff" d="M30 81v-2l-1-1h1l1 1 1 1 1-2v-1l-1-1-1 1h-3c-2 0-1 1 0 2v1h-1v-1l-2-1v2l-1 1h6z"/>
  <path fill="#3A3182" fill-rule="evenodd" d="M21 33h1l1-2 1 1-1 2h3l-1 1-2 1v1l1 1-1 2h-2v3h-1v1h-1v-3l-1 1-2 2-1-1 2-2h-1v1l-1-1v-2h1v-1l-1-1 1-2h2l1-1v-2l2-1a1150 1150 0 010 2z" clip-rule="evenodd"/>
  <path fill="#8D85D6" fill-rule="evenodd" d="M22 34h1l1-2 1 1-1 1v1l2-1v2l-2 1v1l1 1-1 2-1-1-1 1v2l-2 1v-2h-1l-2 3-1-1 2-2-1-1-1 1v-2l1-1 1-1h-2l1-2h2l1-1v-2l2-1v2z" clip-rule="evenodd"/>
  <path fill="#3A3182" fill-rule="evenodd" d="M21 36l2 1-2 3c-1 1-2 0-2-1l2-3z" clip-rule="evenodd"/>
  <path fill="#B51C0B" fill-rule="evenodd" d="M6 51c3 2 5 5 5 8l-1 2-1 1-3-1c-3-1-5-5-5-8l1-1H1l1-1h4z" clip-rule="evenodd"/>
  <path fill="#F05A24" fill-rule="evenodd" d="M5 52c3 2 5 5 5 8 0 2-2 3-5 2-2-2-5-5-5-8s3-3 5-2z" clip-rule="evenodd"/>
  <path fill="#fff" d="M4 55H3l1 1v-1zm1 1H4a2 2 0 01-1-1v-1h1a2 2 0 011 1v1zm2 3v-1H6v1h1zm-3-1H3l3-3h1v1l-3 2zm4 1l-1 1H6a2 2 0 01-1-1v-1-1h1l1 1 1 1z"/>
</svg>
