<svg xmlns="http://www.w3.org/2000/svg" fill="none" viewBox="0 0 108 97">
  <defs/>
  <path fill="#FFECE5" d="M84 33H7c-2 0-3 1-3 3v52c0 2 1 3 3 3h77c1 0 3-1 3-3V36c0-2-2-3-3-3z"/>
  <path fill="#FFD8C5" d="M15 64a6 6 0 100-12 6 6 0 000 12z"/>
  <path fill="#3A3144" d="M84 33H7a3 3 0 00-3 3v2h83v-2a3 3 0 00-3-3z"/>
  <path fill="#FFA97F" d="M8 36a1 1 0 100-1 1 1 0 000 1z"/>
  <path fill="#FC8389" d="M11 36a1 1 0 100-1 1 1 0 000 1z"/>
  <path fill="#71D2C1" d="M15 36a1 1 0 100-1 1 1 0 000 1z"/>
  <path fill="#FFD8C5" d="M87 38H4v1h83v-1z"/>
  <path fill="#A96E46" d="M42 13c0-2 1-6-3-7s-5 5-5 5v7l6-3a4 4 0 002-2z"/>
  <path fill="#A96E46" d="M42 3c-2 4-2 7-1 10v1l1-1 1-9V3h-1z"/>
  <path fill="#A96E46" d="M39 2l-1 7 1 1 1-1 1-7h-2zM37 2l-1 5 1 1 1-1a59 59 0 010-5h-1zM34 3a201 201 0 010 8h1V6l1-2a1 1 0 00-1-1h-1zM43 8l-1 2-1 1v1l-1 1-1 1-1 1a1 1 0 002 1l2-2 1-2v-1c0 1 0 1 0 0l1-2V8h-1z"/>
  <path fill="#385A7D" d="M47 87a14 14 0 100-27 14 14 0 000 27z"/>
  <path fill="#385A7D" d="M59 73l-26 4-4 14h36l-6-18z"/>
  <path fill="#3A3144" d="M35 73c-3 3-5 15-5 15l30-11-25-4z"/>
  <path fill="#A96E46" d="M54 33l-2 3-1-3 1-1 2 1z"/>
  <path fill="#6C3917" d="M53 34a1 1 0 010-1c1 0 0-1 0 0a2 2 0 00-1 1h1z"/>
  <path stroke="#A96E46" stroke-miterlimit="10" stroke-width="9" d="M46 36v9"/>
  <path fill="#3A3144" d="M45 41l5 3 1-6-1 1"/>
  <path fill="#A96E46" d="M46 26a6 6 0 016 5l1 5a5 5 0 01-5 5 7 7 0 01-7-6l-1-3a6 6 0 016-6z"/>
  <path fill="#3A3144" d="M51 29v2l1 1v1l1-1s1-3-1-4"/>
  <path fill="#A96E46" d="M39 34l2 3v-4h-1l-1 1z"/>
  <path fill="#6C3917" d="M40 34v1h1v-1h-1z"/>
  <path fill="#D18C3D" d="M55 44H38c-6 0-8 0-8 6l-2 25a1 1 0 001 1h33a2 2 0 002-2c0-1-2-16-1-17 0-7-1-13-8-13z"/>
  <path fill="#3A3144" d="M48 36c0-1 0-1 0 0l1-1h-2l1 1zM48 37h-2l2 1v-1zM45 35v-1 1zM50 34zM44 33h2l-2-1v1zM49 33l1-1c1 0 1 0 0 0h-1v1z"/>
  <path fill="#F99192" d="M61 69c0-1 0-1 0 0z"/>
  <path fill="#3A3144" d="M40 33l1 1 1-1-1-1 2-2s9 0 10-2c0-3-9-4-12 0 0 0-2 2-1 5z"/>
  <path stroke="#D18C3D" stroke-miterlimit="10" stroke-width="12" d="M56 50s16 15 18 14c3-2-1-26-1-26"/>
  <path fill="#E7A54F" d="M30 62a8 8 0 003-3c-1 0-2 1-1 2 0 2 2 2 3 2l2-1 1-2v-1l-1 1c-1 1 0 2 1 2h2l3-1 1-1-1-1c-1-1-1 1-1 2l2 1 4-2 1-1h-1v3h4l2-1 1-1-1-1h-1l1 3 4-1h1l1-1 1-1h-2v2l2 1 2-1-3 1-1-1v-2h1l-1 1-3 2-3-1 1-2v1l-1 1-3 1-2-2a1 1 0 010-1h1v1l-3 1-3 1-1-2 1-1h1l-1 1-1 1-1 1-4-1v-1l1-1v2l-1 1h-4l-1-2 1-1-3 3s0 1 0 0zM30 69a8 8 0 003-4c-1 0-2 1-1 2 0 2 2 2 3 2l2-1 1-2v-1l-1 1c-1 1 0 2 1 2h2l3-1 1-1-1-1-1 2c0 1 1 2 2 1l4-1 1-2h-1v3h4l2-1 1-1-1-1-1 1 1 2c1 1 3 0 4-1h1l1-1 1-1h-2v2l2 1 2-1-3 1-1-1v-2h1l-1 1-3 2-3-1 1-2v1l-1 1-3 1-2-1a1 1 0 010-2h1v1l-3 1-3 1-1-2 1-1h1l-1 1-1 1-1 1h-4v-2h1v1l-1 1h-4l-1-2h1v-1l-3 3v1z"/>
  <path stroke="#D18C3D" stroke-miterlimit="10" stroke-width="12" d="M43 50c-12-1-22-11-21-17 2-5 15-20 15-20"/>
  <path fill="#B2D8D8" d="M72 8l-1-1c-2-2-5-2-9-2L45 7v4h18c3 0 6-1 8-3h1z"/>
  <path fill="#3A3144" d="M32 12a2 2 0 100-5 2 2 0 000 5z"/>
  <path fill="#3A3144" d="M45 3h-1a2 2 0 00-2 2 3 3 0 01-2 3h-8v2h8a3 3 0 013 3 2 2 0 002 2V3z"/>
  <path fill="#A96E46" d="M43 8l-1 2-1 1c0 1 0 0 0 0v1s-1 0 0 0h-1l-1 1h1c1 1 0 0 0 0 0-1 0 0 0 0v-1c0-1 0 0 0 0v-1c0 1 0 0 0 0h1a5 5 0 011 0l1-1-1-1c-1 0-3 0-3 2l-1 2 1 1h1l2-1 1-1v-1c0 1 0 0 0 0l1-2V8h-1z"/>
  <path fill="#4F8AE0" d="M81 13l-8-2a1 1 0 00-1 0l-6 5-7 1a1 1 0 00-1 2l4 20a15 15 0 0010 11l8 3a1 1 0 001 0l6-5a16 16 0 006-16l-4-19a1 1 0 00-1-1l-7 1z"/>
  <path fill="#AF7337" d="M30 52l3 1c0 1 0 0 0 0l-3-1zM61 51l2 6v1l-1-5-1-2zM27 38l2-3h-1l-1 2v1zM69 54z"/>
  <path fill="#FC8389" d="M84 10c4-1 7-3 7-6-1-2-5-3-9-2s-7 4-6 6c0 2 4 3 8 2z"/>
  <path fill="#3A3144" d="M82 10l1-3c0-2-1-3-2-3v3l1 3z"/>
  <path fill="#71D2C1" d="M101 14c4-1 6-3 6-5-1-1-4-2-7-1-4 0-7 2-6 4 0 2 4 3 7 2z"/>
  <path fill="#3A3144" d="M100 14v-3l-1-1-1 2 2 2z"/>
  <path fill="#FFA97F" d="M92 24c4-1 7-3 6-6 0-2-4-3-8-2s-7 4-7 6c1 2 5 3 9 2z"/>
  <path fill="#3A3144" d="M90 24l1-3c0-2-1-3-2-2l-1 2 2 3z"/>
  <path fill="#3E72CE" d="M66 16l-7 1a1 1 0 00-1 2l4 20a15 15 0 0010 11l8 3a1 1 0 001 0l6-5 1-1a3 3 0 00-1-4l-2-2a17 17 0 01-9-11l-4-19-6 5z"/>
  <path fill="#fff" d="M17 62a6 6 0 100-12 6 6 0 000 12z"/>
  <path fill="#FFECE5" d="M17 53a1 1 0 10-1 0v3a1 1 0 101 0v-3z"/>
  <path fill="#FC8389" d="M19 57a1 1 0 100-1h-2a1 1 0 100 1h2z"/>
  <path fill="#F97171" d="M12 96a11 11 0 100-22 11 11 0 000 22z"/>
  <path fill="#FFA97F" d="M12 88a4 4 0 100-9 4 4 0 000 9z"/>
  <path fill="#FFA97F" d="M12 96c5 0 9-2 9-4 0-3-4-5-9-5s-9 2-9 5c0 2 4 4 9 4z"/>
</svg>
