<svg xmlns="http://www.w3.org/2000/svg" fill="none" viewBox="0 0 98 71">
						<defs />
						<path fill="url(#paint0_radial)" fill-rule="evenodd" d="M22.4 70L24 .8l66.4 4L98 70H22.4z" clip-rule="evenodd" />
						<path fill="#09235D" fill-rule="evenodd" d="M22.4 70L0 68.7 7 5.8 24 .8 22.4 70z" clip-rule="evenodd" />
						<path
							fill="#071D4E"
							fill-rule="evenodd"
							d="M70.7 31.7h-16V34c0 1 0 2 .2 2.9h14L67.3 41H56.1c1.4 3 3 5.1 4.7 6.2 1.8 1.2 4.3 1.8 7.5 1.8a20 20 0 007.4-1.6l.3 5c-2.6 1.1-5.6 1.7-9.2 1.7-9.4 0-15.5-4.4-18.4-13.1h-4.5l1.6-4.2h2a54 54 0 01-.3-5.1h-3.7l1.6-4.2h2.8C50 19.2 55.9 15 65.3 15c3 0 6 .5 8.8 1.3l.3 5.4c-2.7-1-5.4-1.6-8.4-1.6-5.6 0-9 2.4-10.4 7.3h16.7l-1.6 4.2z"
							clip-rule="evenodd"
						/>
						<path
							fill="#FBCE0C"
							fill-rule="evenodd"
							d="M69.7 32.7h-16v2.2c0 1 .1 2 .3 2.8h14L66.4 42H55c1.4 3 3 5.1 4.8 6.3 1.7 1.2 4.2 1.8 7.4 1.8a20 20 0 007.5-1.6l.2 5c-2.5 1-5.6 1.6-9.1 1.6-9.4 0-15.5-4.4-18.5-13.1H43l1.6-4.2h1.9a54.2 54.2 0 01-.2-5h-3.8l1.6-4.3H47c2.3-8.2 8.1-12.3 17.5-12.3 3 0 6 .4 8.8 1.2l.3 5.5C70.8 21.7 68 21 65 21c-5.6 0-9.1 2.5-10.5 7.3h16.7l-1.6 4.3z"
							clip-rule="evenodd"
						/>
						<defs>
							<radialGradient
								id="paint0_radial"
								cx="0"
								cy="0"
								r="1"
								gradientTransform="translate(60.2 35.4) scale(51.2872)"
								gradientUnits="userSpaceOnUse"
							>
								<stop stop-color="#103FAB" />
								<stop offset="1" stop-color="#0D2F7B" />
							</radialGradient>
						</defs>
					</svg>
