<svg xmlns="http://www.w3.org/2000/svg" fill="none" viewBox="0 0 96 91">
  <defs/>
  <path fill="#F4B9A7" d="M47 21l-2 4s4 3 6 1c1-3-4-5-4-5z"/>
  <path fill="#F4B9A7" d="M51 22h-4l1 1h3v-1z"/>
  <path fill="#F4B9A7" d="M48 22l4 3 1-1-5-2c0-1-1 0 0 0zM49 25l3 1v-1l-3-1v1z"/>
  <path fill="#3EB7B2" d="M48 25l2 2h2v-1h-2l-1-1h-1z"/>
  <path fill="#3EB7B2" d="M47 26l3 2 1-1-4-2v1z"/>
  <path stroke="#8AD6CC" stroke-miterlimit="10" stroke-width="6.8" d="M26 15c1 0 8 6 10 6l11 3"/>
  <path fill="#8AD6CC" d="M28 80c-1-2 0-3 2-4l-4-6-7 5 6 9s3-1 3-4z"/>
  <path fill="#70C4B6" d="M26 70l-2 2 1 2 3 3 2-1-4-6z"/>
  <path fill="#3EB7B2" d="M19 75l6 9 2-1-7-9-1 1zM26 78h2l-1-1-1 1zM26 79h2-2zM27 80l1 1v-1h-1z"/>
  <path fill="#8AD6CC" d="M28 87c-3-1-3-2-3-5h-6v9h10s2-3-1-4z"/>
  <path fill="#70C4B6" d="M19 82v3h2l4-1v-2h-6z"/>
  <path fill="#3EB7B2" d="M19 91h10l1-2H19v2zM25 86h1v-1l-1 1zM26 87l1-1-1 1zM27 88l1-1c1 0 0 0 0 0h-1v1z"/>
  <path stroke="#F79F84" stroke-miterlimit="10" stroke-width="10.8" d="M22 29s18 11 17 23c0 12-12 19-12 19"/>
  <path stroke="#FFA97F" stroke-miterlimit="10" stroke-width="10.8" d="M19 22l4 61"/>
  <path fill="#3A3144" d="M27 2s2 2 1 3-3-1-3-1"/>
  <path fill="#FFA97F" d="M20 34a7 7 0 100-14 7 7 0 000 14z"/>
  <path fill="#F79F84" d="M27 26l-14 2s0-4 2-6"/>
  <path stroke="#3EB7B2" stroke-miterlimit="10" stroke-width="4.1" d="M23 8l-2 4"/>
  <path fill="#3A3144" d="M25 9l-1 2-2-3 3 1z"/>
  <path fill="#F4B9A7" d="M26 10a5 5 0 01-5-4V5a3 3 0 012-4h1a3 3 0 013 3l1 4a2 2 0 01-2 2z"/>
  <path fill="#3A3144" d="M26 6V5v1zM27 5h-1 1z"/>
  <path fill="#F4B9A7" d="M28 7h-1V6l1 1z"/>
  <path fill="#8AD6CC" d="M18 10l8 2a5 5 0 014 5l-2 8a1 1 0 01-1 1l-14-1a1 1 0 01-1-2v-8a5 5 0 016-5z"/>
  <path stroke="#2E60B8" stroke-miterlimit="10" stroke-width="4.6" d="M15 24h-2c-3 1-4 3-4 6l2 9c1 2 3 4 5 4l3-1c2-1 4-3 4-5l-2-10c-1-2-3-4-6-3z"/>
  <path fill="#3A3144" d="M27 4l-2-1-1 1v1h-1V4l-1 2h1l-1 1a1 1 0 01-1 1s-4-4 1-6c0 0 4-3 6 1l-1 1zM27 7h-2l1 1 1-1z"/>
  <path fill="#BE816E" d="M26 8l-1-1 1 1z"/>
  <path fill="#3A3144" d="M19 27l-2 2v1l2-2v-1z"/>
  <path fill="#8AD6CC" d="M18 11l1-2a1 1 0 011 0l4 2h1l-1 1"/>
  <path fill="#3EB7B2" d="M30 17a9 9 0 00-1 4l1-4z"/>
  <path fill="#F4B9A7" d="M9 29l-4 3s2 5 5 3c2-2-1-6-1-6z"/>
  <path fill="#F4B9A7" d="M12 31h-2l-2-1c0 1 0 2 1 1l1 1h2v-1z"/>
  <path fill="#F4B9A7" d="M9 31l3 4v-1l-3-4v1zM8 33l3 3v-1l-2-2H8zM7 33l1 2 2 2v-1l-1-1-1-2H7z"/>
  <path fill="#F4B9A7" d="M6 33l2 4h1l-2-4H6z"/>
  <path stroke="#8AD6CC" stroke-miterlimit="10" stroke-width="6.8" d="M17 13S5 13 4 19s3 12 3 12"/>
  <path fill="#3EB7B2" d="M12 17z"/>
  <path stroke="#2E60B8" stroke-miterlimit="10" stroke-width="4.6" d="M22 33l34-8 1 5M46 28l1 4"/>
  <path stroke="#FFECE5" stroke-miterlimit="10" stroke-width="4.3" d="M67 40v-8a12 12 0 0112-12v0a12 12 0 0111 12v8"/>
  <path fill="#FFD8C5" d="M93 39H65c-2 0-3 1-3 3v19c0 2 1 3 3 3h28c1 0 2-1 2-3V42c0-2-1-3-2-3z"/>
  <path fill="#4F8AE0" d="M79 52a2 2 0 100-4 2 2 0 000 4z"/>
  <path fill="#4F8AE0" d="M80 51h-2v4h2v-4z"/>
</svg>
