<svg xmlns="http://www.w3.org/2000/svg" fill="none" viewBox="0 0 140 104">
  <defs/>
  <path fill="#8FD6E2" fill-rule="evenodd" d="M122 58h3l-4 1 1-1zM120 55l1 2-2 1 1-3z" clip-rule="evenodd"/>
  <path fill="#8FD6E2" fill-rule="evenodd" d="M120 57v-1l-1 2 1-1z" clip-rule="evenodd"/>
  <path fill="#fff" fill-rule="evenodd" d="M125 57v1l1 2 1-2-2-1z" clip-rule="evenodd"/>
  <path fill="#232323" fill-rule="evenodd" d="M59 119H40l-2-2v-13l2-1h19l1 1v13l-1 2z" clip-rule="evenodd"/>
  <path fill="#269264" fill-rule="evenodd" d="M57 104v13l-1 2H37l-1-2v-13l1-1h19l1 1z" clip-rule="evenodd"/>
  <path fill="#36B37E" fill-rule="evenodd" d="M57 104v3l-2 2H38l-2-2v-3l1-1h19l1 1z" clip-rule="evenodd"/>
  <path fill="#232323" fill-rule="evenodd" d="M52 100l-1 1-1-1 1-1 1 1z" clip-rule="evenodd"/>
  <path fill="#232323" fill-rule="evenodd" d="M52 104c-1-3-2-4-5-4-5 0-5 4-5 4h-2s1-5 7-5c4 0 5 1 7 4l-2 1z" clip-rule="evenodd"/>
  <path fill="#FFAB00" fill-rule="evenodd" d="M51 101h-6l-1-1 1-1h6v2zM41 107l-1-1v-3h3v3l-2 1z" clip-rule="evenodd"/>
  <path fill="#212121" fill-rule="evenodd" d="M42 106l-3-3h1l2 3z" clip-rule="evenodd"/>
  <path fill="#212121" fill-rule="evenodd" d="M39 106l3-3-2 3h-1z" clip-rule="evenodd"/>
  <path fill="#FFAB00" fill-rule="evenodd" d="M52 107l-1-1v-3h3v3l-2 1z" clip-rule="evenodd"/>
  <path fill="#212121" fill-rule="evenodd" d="M54 106h-1l-2-3 3 3z" clip-rule="evenodd"/>
  <path fill="#212121" fill-rule="evenodd" d="M51 106l2-3h1l-3 3z" clip-rule="evenodd"/>
  <path fill="#232323" fill-rule="evenodd" d="M43 50l-1 1-1-2 2-2v3z" clip-rule="evenodd"/>
  <path fill="#8BEAC5" fill-rule="evenodd" d="M81 73c-17 6-24-4-24-4 7-4 20 1 20 1l4 3z" clip-rule="evenodd"/>
  <path fill="#269264" fill-rule="evenodd" d="M86 111v8c30-19 18-29 18-29-13 6-18 21-18 21z" clip-rule="evenodd"/>
  <path fill="#8BEAC5" fill-rule="evenodd" d="M86 117v2c30-19 18-29 18-29l-18 27z" clip-rule="evenodd"/>
  <path fill="#269264" fill-rule="evenodd" d="M86 111v8c-31-19-19-29-19-29 13 6 19 21 19 21z" clip-rule="evenodd"/>
  <path fill="#8BEAC5" fill-rule="evenodd" d="M86 117v2c-31-19-19-29-19-29l19 27z" clip-rule="evenodd"/>
  <path fill="#00797D" fill-rule="evenodd" d="M86 96v-1l16-23 1 1-17 23zM85 79L64 58l22 20-1 1z" clip-rule="evenodd"/>
  <path fill="#8BEAC5" fill-rule="evenodd" d="M86 60v8h-1C69 54 74 43 74 43c8 5 12 17 12 17z" clip-rule="evenodd"/>
  <path fill="#269264" fill-rule="evenodd" d="M86 66l-1 1v1C69 54 74 43 74 43l11 23h1z" clip-rule="evenodd"/>
  <path fill="#8BEAC5" fill-rule="evenodd" d="M86 60v8c16-14 11-25 11-25-8 5-11 17-11 17z" clip-rule="evenodd"/>
  <path fill="#269264" fill-rule="evenodd" d="M86 66v2c16-14 11-25 11-25L86 66z" clip-rule="evenodd"/>
  <path fill="#00797D" fill-rule="evenodd" d="M86 119V39v80z" clip-rule="evenodd"/>
  <path fill="#232323" fill-rule="evenodd" d="M88 39a3 3 0 11-5 0 3 3 0 015 0zM68 59a3 3 0 11-5 0 3 3 0 015 0zM105 73a3 3 0 11-6 0 3 3 0 016 0z" clip-rule="evenodd"/>
  <path stroke="#36B37E" stroke-width=".7" d="M119 62a12 12 0 11-23 0 12 12 0 0123 0"/>
  <path fill="#232323" fill-rule="evenodd" d="M36 28l2 13 10 7 7-3-11-9-1-12c0-1-1-2-3-1l-4 5z" clip-rule="evenodd"/>
  <path stroke="#3077FF" stroke-width=".7" d="M71 50a12 12 0 11-24 0 12 12 0 0124 0"/>
  <path fill="#36B37E" fill-rule="evenodd" d="M120 63a12 12 0 11-24 0 12 12 0 0124 0z" clip-rule="evenodd"/>
  <path fill="#278E62" fill-rule="evenodd" d="M108 54a9 9 0 100 19 9 9 0 000-19zm0 19a10 10 0 110-19 10 10 0 010 19z" clip-rule="evenodd"/>
  <path fill="#269264" fill-rule="evenodd" d="M81 73c-17 6-24-3-24-3l22 1 2 2z" clip-rule="evenodd"/>
  <path fill="#232323" fill-rule="evenodd" d="M15 57s5 2 9 1c3-1 2-4 2-4l-3-2-8 5zM40 43v12c0 2-2 5-4 5h-9l7-34 2-4c2-2 6 2 7 5l-3 16z" clip-rule="evenodd"/>
  <path fill="#36B37E" fill-rule="evenodd" d="M36 53l3 61-9 1-3-56 9-6z" clip-rule="evenodd"/>
  <path fill="#232323" fill-rule="evenodd" d="M39 20l1 1 3 3v4l-1 4-6-5 3-7z" clip-rule="evenodd"/>
  <path fill="#36B37E" fill-rule="evenodd" d="M37 53c0 4-4 8-9 8s-9-4-9-8c0-5 4-9 9-9s9 4 9 9z" clip-rule="evenodd"/>
  <path fill="#FFAB00" fill-rule="evenodd" d="M103 23a17 17 0 11-34 0 17 17 0 0134 0z" clip-rule="evenodd"/>
  <path fill="#C48504" fill-rule="evenodd" d="M86 10a13 13 0 100 26 13 13 0 000-26zm0 26a13 13 0 110-26 13 13 0 010 26z" clip-rule="evenodd"/>
  <path fill="#fff" fill-rule="evenodd" d="M80 4l-2-2 1-1 1 3zM76 7l-2-2V4l2 2v1zM50 40l-3-2h1l2 2zM53 38l-1-3 2 2-1 1zM58 37l-1-3h1v3zM64 38h-1l1-3h1l-1 3zM86 3V0v3zM91 4l1-3 1 1-2 2zM95 6l2-3v1l-2 2z" clip-rule="evenodd"/>
  <path fill="#282828" fill-rule="evenodd" d="M42 9c-1 2-3 4-6 3-3 0-4-4-5-6 0-1 0-2 2-2l2-1h4l3 6z" clip-rule="evenodd"/>
  <path fill="#fff" fill-rule="evenodd" d="M34 11s2 8-2 8l7 2s-1-4 1-5l-6-5z" clip-rule="evenodd"/>
  <path fill="#8FD6E2" fill-rule="evenodd" d="M35 13s0 4 4 5l1-2-5-3z" clip-rule="evenodd"/>
  <path fill="#fff" fill-rule="evenodd" d="M43 9v4c-1 1-1 4-4 4l-4-4-1-1s-1-8 4-9c2 0 5 3 5 6z" clip-rule="evenodd"/>
  <path fill="#fff" fill-rule="evenodd" d="M35 11v1h-1l-1-2c1-1 2 0 2 1z" clip-rule="evenodd"/>
  <path fill="#282828" fill-rule="evenodd" d="M34 6l-2-1 1-1 2-2 4-1c2 0 3 2 3 3l-1 2s-5-2-7 1V6z" clip-rule="evenodd"/>
  <path fill="#8FD6E2" fill-rule="evenodd" d="M33 10h1-1 0zM34 11c0-1 0-1 0 0z" clip-rule="evenodd"/>
  <path fill="#282828" fill-rule="evenodd" d="M35 6l-1 4-1-1 2-3z" clip-rule="evenodd"/>
  <path fill="#EFEFEF" fill-rule="evenodd" d="M41 33l-2 7v2l-3 8-14-3 3-22c0-4 8-6 8-6l5 1c2 0 3 2 4 4l-1 9z" clip-rule="evenodd"/>
  <path fill="#36B37E" fill-rule="evenodd" d="M19 52l-6 63h9l6-55-9-8z" clip-rule="evenodd"/>
  <path fill="#90BABA" fill-rule="evenodd" d="M41 33l-2 7-2-6c-2-4-1-13-1-13h1a443 443 0 004 12z" clip-rule="evenodd"/>
  <path fill="#3077FF" fill-rule="evenodd" d="M71 50a12 12 0 01-23 3 12 12 0 010-7 12 12 0 0123 4z" clip-rule="evenodd"/>
  <path fill="#285CC0" fill-rule="evenodd" d="M59 41a10 10 0 100 19 10 10 0 000-19zm0 19a10 10 0 110-20 10 10 0 010 20z" clip-rule="evenodd"/>
  <path fill="#262626" fill-rule="evenodd" d="M48 55l-1-2 1 2zM49 48l-2 1 1-1h1zM52 53l-4-1 3 2-3-1a12 12 0 01-1-3l4 1v1l-3-1 4 2z" clip-rule="evenodd"/>
  <path fill="#fff" fill-rule="evenodd" d="M104 75l-1-1h4v1h-3zm-7 3l-1-1 4-1-3 2zm-6 5h-1l3-3-2 3zm-5 6h-1l3-4v1l-2 3zm-4 6l1-3h1l-2 3zm-3 7h-1l2-4v1l-1 3zM101 79v-1l3-1h1l-4 2zm-6 4l2-3 1 1-3 2zm-4 6h-1l2-3h1l-2 3zm-3 7h-1l2-3-1 3zm-2 8h-1l1-4h1l-1 4zm-2 7v-4l1 1-1 3zM101 83l-1-1 3-3 1 1-3 3zm-5 6l2-3-2 3zm-4 8v-1l2-3-2 4zm-2 7h-1l1-4h1l-1 4zm-2 8h-1l1-4h1l-1 4z" clip-rule="evenodd"/>
  <path fill="#90BABA" fill-rule="evenodd" d="M32 19l3 5 1-1-1-3-3-1z" clip-rule="evenodd"/>
  <path fill="#fff" fill-rule="evenodd" d="M34 18l3 1-2 4-3-4 2-1z" clip-rule="evenodd"/>
  <path fill="#90BABA" fill-rule="evenodd" d="M40 21l-1 3-1-1 1-1 1-1z" clip-rule="evenodd"/>
  <path fill="#FFAB00" fill-rule="evenodd" d="M38 22l2 9c1 4 5 7 5 7l-1 3h-3l-3-6c-2-4-2-13-2-13h2z" clip-rule="evenodd"/>
  <path fill="#fff" fill-rule="evenodd" d="M39 19h-2l2 4 1-2-1-2z" clip-rule="evenodd"/>
  <path fill="#FFE888" fill-rule="evenodd" d="M37 19l-1 3v1h2v-1l-1-3z" clip-rule="evenodd"/>
  <path fill="#fff" fill-rule="evenodd" d="M43 47h5l-1 1h-1l4 2v1l-3-1 4 2-5-1 4 2-4-1 2 2s-5-2-6-4l1-3z" clip-rule="evenodd"/>
  <path fill="#fff" fill-rule="evenodd" d="M42 47h2l-2 3-2-1 2-2z" clip-rule="evenodd"/>
  <path fill="#269264" fill-rule="evenodd" d="M32 19l-1 11-2 19c-1 5-8 9-13 9h-1c1-7 7-17 7-17l1-15c1-2 1-5 5-6l3-1h1z" clip-rule="evenodd"/>
  <path fill="#232323" fill-rule="evenodd" d="M26 28l4 16v3s-4-5-4-12v-7z" clip-rule="evenodd"/>
  <path fill="#269264" fill-rule="evenodd" d="M25 32l5 13 12 5v-2l2-2-9-6-3-18-4 2c-3 1-4 5-3 8z" clip-rule="evenodd"/>
  <path fill="#fff" fill-rule="evenodd" d="M140 110V93l-2-15-6 2 4 30h4z" clip-rule="evenodd"/>
  <path fill="#8FD6E2" fill-rule="evenodd" d="M133 80l7 11v-3l-6-8h-1z" clip-rule="evenodd"/>
  <path fill="#fff" fill-rule="evenodd" d="M152 107l3-2-9-17c0-2-3-7-8-12l-4 4 17 28 1-1z" clip-rule="evenodd"/>
  <path fill="#232323" fill-rule="evenodd" d="M129 36l-3 11-9 8 3 1 8-6 2-2 4-9-5-3z" clip-rule="evenodd"/>
  <path fill="#282828" fill-rule="evenodd" d="M128 13a5 5 0 1010 4 5 5 0 00-10-4z" clip-rule="evenodd"/>
  <path fill="#fff" fill-rule="evenodd" d="M127 22h1a3 3 0 010 1v1c1 2-1 5-1 5l8-1-3-6a8 8 0 010-1v-1h1-1l-5 2z" clip-rule="evenodd"/>
  <path fill="#8FD6E2" fill-rule="evenodd" d="M127 22l1 1v1l4-4h-1v-1l-4 3z" clip-rule="evenodd"/>
  <path fill="#fff" fill-rule="evenodd" d="M124 16c-1 4 1 8 4 8 2 0 5-3 6-7 0-4-2-7-5-7-2-1-5 2-5 6z" clip-rule="evenodd"/>
  <path fill="#fff" fill-rule="evenodd" d="M132 17v2l2-1v-2l-2 1z" clip-rule="evenodd"/>
  <path fill="#282828" fill-rule="evenodd" d="M125 11l3 2h1l4 4 2-5-5-3-2-1h-2l-1 1v2z" clip-rule="evenodd"/>
  <path fill="#EFEFEF" fill-rule="evenodd" d="M139 48l4-2-5-13c-1-2-2-7-4-8-2 0-5 0-7 3s0 9 2 15l1 8 9-3z" clip-rule="evenodd"/>
  <path fill="#269264" fill-rule="evenodd" d="M144 48l-4 1-9 4 2 5-2 22h12s4-15 3-25l-2-7z" clip-rule="evenodd"/>
  <path fill="#036D6D" fill-rule="evenodd" d="M123 58l-1 1v-1c-4-2-7-1-8 1l-1 7 1 1v1l-2-2 1-8c1-2 4-3 9-1v1h1z" clip-rule="evenodd"/>
  <path fill="#00797D" fill-rule="evenodd" d="M129 67l-7 8a1 1 0 01-2 0v-1h-1v-1l-2-2-3-3-1-1 1-1 7-7v-1h1l2 1 6 6-1 2z" clip-rule="evenodd"/>
  <path fill="#282828" fill-rule="evenodd" d="M133 55l1-6-1-1-5-12c-1-4-1-9 2-11h2c3 0 4 2 5 4a3432 3432 0 008 25l-12 4v-3z" clip-rule="evenodd"/>
  <path fill="#161616" fill-rule="evenodd" d="M140 48l-6 7v-7l2-3s-5-9-5-13v-2c1-2 4 2 5 4l5 10-1 4z" clip-rule="evenodd"/>
  <path fill="#269264" fill-rule="evenodd" d="M128 29l-2 2v7l4 6-1-6-2-6 1-3z" clip-rule="evenodd"/>
  <path fill="#232323" fill-rule="evenodd" d="M108 74v2l-1-2v-1l1 1z" clip-rule="evenodd"/>
  <path fill="#00797D" fill-rule="evenodd" d="M120 73l-12 3v-2a3 3 0 00-1-1l10-3 2 1v1l1 1z" clip-rule="evenodd"/>
  <path fill="#1E1E1E" fill-rule="evenodd" d="M130 65l-6-6-2-1h-1v1l4 3 1 2v4l-5 3-5 2-8 1v2l11-2 1 1h2l7-7 1-3z" clip-rule="evenodd"/>
  <path fill="#1E1E1E" fill-rule="evenodd" d="M117 70h-1l-3-3 1-1 3 4z" clip-rule="evenodd"/>
  <path fill="#fff" fill-rule="evenodd" d="M118 57l-1 1v-1h1zM117 58l-1-1h1v1zM117 57l-1-1h1v1zM119 58l-1 1v-1h1z" clip-rule="evenodd"/>
  <path fill="#fff" fill-rule="evenodd" d="M116 57c-1-1 0-2 1-3l3 2v2l-1 1a3 3 0 01-1-1 5 5 0 01-1 0 3 3 0 01-1 0v-1z" clip-rule="evenodd"/>
  <path fill="#8FD6E2" fill-rule="evenodd" d="M118 58l1-1v1h-1zM117 58l1-1v1h-1zM116 58l1-1v1h-1z" clip-rule="evenodd"/>
  <path fill="#fff" fill-rule="evenodd" d="M124 59l-3 2v1l2-1-3 2 3-1-2 1h2l-1 1 4-3c1-1-2-2-2-2z" clip-rule="evenodd"/>
  <path fill="#282828" fill-rule="evenodd" d="M130 28c1-2 4-2 4 0l6 14-1 4-12 14-2-2 10-15s-5-9-5-12v-3z" clip-rule="evenodd"/>
  <path fill="#8FD6E2" fill-rule="evenodd" d="M133 18l1-1h-1v1zM133 19v-1 1z" clip-rule="evenodd"/>
  <path fill="#C48504" fill-rule="evenodd" d="M89 17v9h-1l-4-5v5h-2v-9h1l4 5v-5h2z" clip-rule="evenodd"/>
  <path fill="#C48504" fill-rule="evenodd" d="M80 21h12v-1H80v1zM80 23h12v-2H80v2z" clip-rule="evenodd"/>
  <path fill="#285CC0" fill-rule="evenodd" d="M57 46l6 3-1 1h-4l3 2-1 1-5-3v-1h5l-4-2 1-1z" clip-rule="evenodd"/>
  <path fill="#285CC0" fill-rule="evenodd" d="M61 46l-4 7h-1l4-8 1 1z" clip-rule="evenodd"/>
  <path fill="#285CC0" fill-rule="evenodd" d="M62 46l-5 8-1-1 5-7h1z" clip-rule="evenodd"/>
  <path fill="#278E62" fill-rule="evenodd" d="M112 64l-6 3v-1l1-4-3 2v-1l5-3h1l-2 4 3-2 1 2z" clip-rule="evenodd"/>
  <path fill="#278E62" fill-rule="evenodd" d="M110 68l-5-8h2l4 7-1 1z" clip-rule="evenodd"/>
  <path fill="#278E62" fill-rule="evenodd" d="M109 68l-4-8h1l4 7-1 1z" clip-rule="evenodd"/>
</svg>
