<svg xmlns="http://www.w3.org/2000/svg" fill="none" viewBox="0 0 411 362">
  <defs/>
  <path fill="#E0E0E0" d="M380 362v-86h-71v-75h-10v43h-28v-12h-49v-41h-9v-51h-8v50h-17v73h-33v-73H95v73H66v99h314z"/>
  <path fill="#F0F0F0" d="M182 137h-73v225h73V137z"/>
  <path fill="#E6E6E6" d="M182 151h-73v2h73v-2zM182 166h-73v2h73v-2zM182 181h-73v1h73v-1zM182 195h-73v2h73v-2zM182 210h-73v2h73v-2zM182 225h-73v1h73v-1zM182 239h-73v2h73v-2zM182 254h-73v2h73v-2zM182 269h-73v1h73v-1zM182 283h-73v2h73v-2zM182 298h-73v2h73v-2zM182 313h-73v1h73v-1zM182 327h-73v2h73v-2zM182 342h-73v2h73v-2zM182 357h-73v1h73v-1zM287 263h-73v2h73v-2z"/>
  <path fill="#F0F0F0" d="M287 204h-73v158h73V204z"/>
  <path fill="#E6E6E6" d="M287 219h-73v2h73v-2zM287 234h-73v2h73v-2zM287 248h-73v2h73v-2zM287 278h-73v2h73v-2zM287 292h-73v2h73v-2zM287 307h-73v2h73v-2zM287 322h-73v2h73v-2zM287 336h-73v2h73v-2zM287 351h-73v2h73v-2z"/>
  <path fill="#F0F0F0" d="M392 177h-73v185h73V177z"/>
  <path fill="#E6E6E6" d="M392 192h-73v1h73v-1zM392 206h-73v2h73v-2zM392 221h-73v2h73v-2zM392 236h-73v1h73v-1zM392 250h-73v2h73v-2zM392 265h-73v2h73v-2zM392 280h-73v1h73v-1zM392 294h-73v2h73v-2zM392 309h-73v2h73v-2zM392 324h-73v1h73v-1zM392 338h-73v2h73v-2zM392 353h-73v2h73v-2z"/>
  <path fill="#fff" d="M261 51a25 25 0 100-51 25 25 0 000 51z"/>
  <path fill="#EBECF0" d="M248 25c0-2-2-4-4-4h-2v-1a9 9 0 00-11-10 8 8 0 00-15 5c-4 0-7 3-7 7s3 8 7 8h28c2 0 4-2 4-5zM411 148c0-3-2-5-4-5h-1v-1a9 9 0 00-11-9 8 8 0 00-15 4h-1c-4 0-7 3-7 7 0 5 3 8 7 8h28c2 0 4-2 4-4zM313 95c0-2 2-4 5-4h1v-1a9 9 0 0111-10 8 8 0 0115 5c5 0 8 3 8 7s-4 8-8 8h-27c-3 0-5-2-5-5zM304 38l-3-2h-1v-1c0-3-2-6-6-6h-1l-4-2c-3 0-5 2-5 5-3 0-5 2-5 4 0 3 2 5 5 5h17c1 0 3-1 3-3zM286 166l3-2h1v-1a6 6 0 017-6l4-2c3 0 5 2 5 5 3 0 5 2 5 4 0 3-2 5-5 5h-17c-1 0-3-1-3-3z"/>
  <path fill="#fff" d="M317 122s1-2-3-4l-4 1c-3 1 2 6 5 6s2-3 2-3z"/>
  <path fill="#EBECF0" d="M317 123s0-4 7-5l10-2s1 8-9 9l9-1s-1 2-5 3h-4s-8 2-12-2l-3-1 1-1v-1c3-2 4 1 6 1z"/>
  <path fill="#fff" d="M267 104s0-2-2-3l-3 1 3 3 2-1z"/>
  <path fill="#EBECF0" d="M266 104l4-3 6-1s0 4-5 5h5l-3 2-2-1s-5 1-7-1h-2l1-1v-1c1-1 2 1 3 1z"/>
  <path fill="#fff" d="M232 129l-1-2h-2c-1 1 1 2 2 3l1-1z"/>
  <path fill="#EBECF0" d="M232 129s0-2 3-2l3-1s1 3-3 3h3l-1 1h-2-5l-1-1v-1l3 1z"/>
  <path stroke="#1E1609" stroke-linecap="round" stroke-linejoin="round" stroke-miterlimit="10" stroke-width=".8" d="M1 322l344-71"/>
  <path fill="#000302" d="M207 231s-17 79-13 81c4 3 24-77 24-77l-11-4zM89 272s-9 82-4 85c4 2 15-81 15-81l-11-4zM43 263s-17 79-13 82c5 2 24-78 24-78l-11-4z"/>
  <path fill="#677AE3" d="M260 132c14 7 33 89 24 108-12 22-220 46-233 41-22-10-25-79-19-102 3-11 11-21 40-27 36-7 165-31 188-20z"/>
  <path fill="#B48E56" d="M219 163l18 1 8 43h-22l-4-44z"/>
  <path fill="#fff" d="M214 124l16 3c2 2 7 37 7 37l-18-1-5-39z"/>
  <path stroke="#1E1609" stroke-linecap="round" stroke-linejoin="round" stroke-miterlimit="10" stroke-width=".8" d="M219 156l17 1"/>
  <path fill="#fff" d="M157 129s-11 2-13 7-5 36-5 36l20-5-2-38z"/>
  <path stroke="#1E1609" stroke-linecap="round" stroke-linejoin="round" stroke-miterlimit="10" stroke-width=".8" d="M140 164l19-4"/>
  <path fill="#B45041" d="M159 207l66-1-11-82-18-2-15-1-24 8 3 58c0 1-2 15-1 20z"/>
  <path fill="#B48E56" d="M308 322l-11-20-18 11 18 28 19-10c-1-4 1-7 1-7l-9-2z"/>
  <path fill="#fff" d="M317 324s11-5 15 4l-33 19-2-6 19-10s-1-3 1-7z"/>
  <path fill="#B48E56" d="M228 332c0-3 8-21 8-21l-20-7-10 33 21 8c2-4 6-5 6-5s-5-6-5-8z"/>
  <path fill="#fff" d="M233 340s11 5 6 14l-35-12 2-5 21 8s1-4 6-5z"/>
  <path fill="#AECAFC" d="M159 207s-4 44 9 46c31 5 76-15 76-15l31 85 27-20s-29-91-43-99c-10-5-100 3-100 3z"/>
  <path stroke="#1E1609" stroke-linecap="round" stroke-linejoin="round" stroke-miterlimit="10" stroke-width=".8" d="M299 292l-29 18"/>
  <path fill="#AECAFC" d="M229 233l-20 76 29 7 22-79s-20-18-31-4z"/>
  <path stroke="#1E1609" stroke-linecap="round" stroke-linejoin="round" stroke-miterlimit="10" stroke-width=".8" d="M213 296l28 8M226 245l18-7 9 25"/>
  <path fill="#DB6250" d="M159 171l60-8 1 8-60 10-1-10zM160 186l62-9v3l-62 9v-3z"/>
  <path fill="#fff" d="M199 93l2-11c1-1 11 2 12 4s0 13-3 13l-11-6z"/>
  <path fill="#B48E56" d="M182 96l-1 22c-1 4 5 8 8 8 4 1 8-4 8-9V98l-15-2z"/>
  <path fill="#1E1609" d="M197 117v-6s-5 0-10-6c0 0 1 12 10 12z"/>
  <path fill="#B48E56" d="M211 97a20 20 0 01-2 7c-2 4-5 7-9 7-5 1-10-2-13-6-5-8-8-14-3-23 3-6 20-7 25 0 2 5 2 9 2 15z"/>
  <path fill="#fff" d="M189 93l1 7c0 2 2 4 4 4l2-3 1-1h4l4 1 2 1v3l1-1 2-2c-1 4-4 8-8 10-4 1-16 0-21-9-1-2-2-10 0-11l8 1z"/>
  <path fill="#fff" d="M175 93s0-10 2-11c1-1 10 2 12 4 1 2 0 13-3 13l-11-6zM194 93l1-2 4-1 2 2-7 1zM211 91l-1-1h-4c-1 0-3 0-2 2l7-1z"/>
  <path fill="#1E1609" d="M199 95l-1 1-1-1 1-1 1 1zM208 95l-1 1-1-1 1-1 1 1z"/>
  <path stroke="#1E1609" stroke-linecap="round" stroke-linejoin="round" stroke-miterlimit="10" stroke-width=".8" d="M204 95s-1 5 1 6c1 1-1 2-1 2M198 101a5 5 0 100-10 5 5 0 000 10z"/>
  <path stroke="#1E1609" stroke-linecap="round" stroke-linejoin="round" stroke-miterlimit="10" stroke-width=".8" d="M209 101a5 5 0 100-10 5 5 0 000 10zM203 96h1M196 105l4 1"/>
  <path fill="#B48E56" d="M187 98a6 6 0 11-13-1 6 6 0 0113 1z"/>
  <path stroke="#1E1609" stroke-linecap="round" stroke-linejoin="round" stroke-miterlimit="10" stroke-width=".8" d="M181 95s-3 0-3 2c0 3 3 2 3 2"/>
  <path fill="#fff" d="M181 118l8 4 8-5v10l-5 22-11-22v-9z"/>
  <path stroke="#1E1609" stroke-linecap="round" stroke-linejoin="round" stroke-miterlimit="10" stroke-width=".8" d="M181 127l8-5 8 5"/>
  <path fill="#B48E56" d="M159 126l3 10 11 3 2-8-3-8c-1-1-1 4-1 4l-1-1c-1-1 5-9 3-9-2-1-6 6-6 6l4-9c-3-1-6 8-6 8s3-9 1-9c-3 0-4 9-3 9l-2-6c-1-1-3 9-2 10z"/>
  <path fill="#B48E56" d="M162 136l-7 31-14 4s-1 27 14 27c11 0 18-59 18-59l-11-3z"/>
  <path stroke="#1E1609" stroke-linecap="round" stroke-linejoin="round" stroke-miterlimit="10" stroke-width=".8" d="M155 167l-4 10M204 123l-11 35-19-34M163 219l2 7M165 218l3 7"/>
  <path fill="#0C0C0C" d="M294 203l-72 6 10-45 2-2 70-6 2 2-10 42-2 3z"/>
  <path fill="#fff" d="M309 158l-9 42-3 2-72 7 10-45 2-2 70-6c1 0 2 0 2 2z"/>
  <path fill="#fff" d="M298 205l-79 7v-3h6l75-9-2 5z"/>
  <path fill="#0C0C0C" d="M225 209l-58 5v3l58-5v-3z"/>
  <path fill="#B48E56" d="M165 219s24 3 28 12c4 7-48 78-48 78l-14-8 26-60-22-6s8-17 30-16z"/>
  <path fill="#B48E56" d="M138 256l-18 63 17 8s36-78 36-86c0-7-29-20-29-20s-12 18-6 35z"/>
  <path stroke="#1E1609" stroke-linecap="round" stroke-linejoin="round" stroke-miterlimit="10" stroke-width=".8" d="M145 309s28-60 28-68c0-7-29-20-29-20"/>
  <path fill="#2D2D2D" d="M91 205s-14 23-13 33c1 11 13 20 16 22 2 1 44-4 44-4s-4-28 27-37l-26-4 1-12-49 2z"/>
  <path stroke="#1E1609" stroke-linecap="round" stroke-linejoin="round" stroke-miterlimit="10" stroke-width=".8" d="M88 210l52-1"/>
  <path fill="#fff" d="M138 344s6 11 0 18c-5 5-28-21-28-24s5-6 7-7l21 13z"/>
  <path fill="#B48E56" d="M138 344l-7 4s-14-15-14-17l3-12 17 8s-1 10 1 17z"/>
  <path fill="#FFB76F" d="M144 136l-26 2-19 1-22 8c-6 1-11 34-11 34l20-3 5 27 49-2-4-38 4-1 4-28z"/>
  <path fill="#fff" d="M66 181s-2-8-1-9c1-2 4 3 4 3s1-4 3-4c2-1 2 2 2 2s1-2 3-2c2-1 4 6 4 6l-15 4z"/>
  <path fill="#E3596B" d="M121 140s9 3 13 13 0 64 4 73l14-4s-6-33-7-50-10-35-19-37h-8l3 5zM99 138s-21 3-24 11c-3 7 8 22 14 34s-9 40-9 40l15 9s13-31 12-43c0-11-19-43-19-43l11-8z"/>
  <path fill="#fff" d="M109 136s-17 0-18-3c-2-4-2-5-1-8 0 0-4 5-1 8 0 0-4 2-5-4s4-10 4-10-4-19 14-27c11-5 27-5 24 11 0 0-2 13 0 17 3 3 6 10 4 14l-3-5s2 9-18 7z"/>
  <path fill="#FFB76F" d="M102 132l-6 6c-1 1 5 11 5 11l9-6 9 5s3-8 2-10l-6-6h-13z"/>
  <path stroke="#1E1609" stroke-linecap="round" stroke-linejoin="round" stroke-miterlimit="10" stroke-width=".8" d="M96 138c-1 1 5 11 5 11l9-6 9 5s3-8 2-10"/>
  <path fill="#fff" d="M118 111l1-12c1-1 9 1 11 3 1 3-2 15-4 15l-8-6z"/>
  <path fill="#B48E56" d="M103 114l-1 18c0 4 4 7 7 7 4 0 7-3 6-7v-17l-12-1z"/>
  <path fill="#1E1609" d="M115 132v-6s-4 0-8-5c0 0 1 10 8 11z"/>
  <path fill="#B48E56" d="M127 114a17 17 0 01-1 7c-2 3-4 5-8 6-4 0-8-2-10-6-5-6-8-11-4-19 3-5 18-6 21 0 2 4 2 8 2 12z"/>
  <path fill="#fff" d="M119 110l-3 1-1-1h4zM122 110l3 1 2-1-3-1-2 1zM107 111l5-4c1-2 1-5 3-6 2-2 4-1 9 0 0-7-8-7-12-7-3 0-7 3-10 6-2 3-4 8-1 11 1 2 4 1 6 0z"/>
  <path stroke="#1E1609" stroke-linecap="round" stroke-linejoin="round" stroke-miterlimit="10" stroke-width=".8" d="M121 117l2 1-2 2M120 114a4 4 0 11-8 0 4 4 0 018 0zM130 114a4 4 0 11-8 0 4 4 0 018 0zM120 114h2M115 121l3 1"/>
  <path fill="#B48E56" d="M107 115a5 5 0 11-11 0 5 5 0 0111 0z"/>
  <path stroke="#1E1609" stroke-linecap="round" stroke-linejoin="round" stroke-miterlimit="10" stroke-width=".8" d="M102 113s-3 0-3 2 3 2 3 2M115 116l1-4 2 3M123 115l1-3 2 3"/>
  <path fill="#B48E56" d="M84 134l2 8 9 2 1-5-2-7-1 3-1-1 3-6c-2-1-5 4-5 4s4-6 3-7c-2 0-4 7-4 7s2-7 0-7l-2 6-1-4-2 7z"/>
  <path fill="#B48E56" d="M86 142l-9 36-9 3s-2 20 9 20c14 0 18-57 18-57l-9-2z"/>
  <path stroke="#1E1609" stroke-linecap="round" stroke-linejoin="round" stroke-miterlimit="10" stroke-width=".8" d="M110 143l1 5M77 178l-2 7M105 172c4 1 8 0 12-1l16-2M80 223l-5 7M84 226l-5 5M88 228l-5 5M91 230l-4 5M95 232l-3 5M138 226l2 7M141 225l3 7M145 224l3 7M42 172s9 1 9 13-1 60 5 74c4 10 39 1 39 1"/>
</svg>
