<svg fill="none" xmlns="http://www.w3.org/2000/svg" viewBox="0 0 299 200">
  <path fill-rule="evenodd" clip-rule="evenodd" d="M178 38a34 34 0 11-69 0 34 34 0 0169 0z" fill="#1B365D"/>
  <path fill-rule="evenodd" clip-rule="evenodd" d="M174 34a34 34 0 11-68 0 34 34 0 0168 0z" fill="#FFB54A"/>
  <path fill-rule="evenodd" clip-rule="evenodd" d="M140 9a26 26 0 100 51 26 26 0 000-51zm0 53a28 28 0 110-55 28 28 0 010 55z" fill="#FCF0E3"/>
  <path fill-rule="evenodd" clip-rule="evenodd" d="M142 42c2-1 3-1 3-3l-1-2-2-1v6zm-4-18l-2 1-1 1 1 2 2 1v-5zm0 23a20 20 0 01-9-4l3-5 3 2 3 2v-7l-4-1-2-2-2-2v-3-3l2-3 3-1 3-1v-2h4v2a17 17 0 018 3l-3 5-3-2-2-1v6l6 3 3 6a7 7 0 01-3 5l-2 2-4 1v4h-4v-4z" fill="#1B1B25"/>
  <path fill-rule="evenodd" clip-rule="evenodd" d="M174 34a34 34 0 11-68 0 34 34 0 0168 0z" fill="#FFB54A"/>
  <path fill-rule="evenodd" clip-rule="evenodd" d="M140 9a26 26 0 100 51 26 26 0 000-51zm0 53a28 28 0 110-55 28 28 0 010 55z" fill="#C48504"/>
  <path fill-rule="evenodd" clip-rule="evenodd" d="M149 32v-4h-4v4h-4l-4-4h-3v4h-5v5h5v6h4v-6h2l6 6h3v-6h5v-5h-5z" fill="#C48504"/>
  <path d="M149 28h1l-1-1v1zm0 4h-1l1 1v-1zm-4-4v-1l-1 1h1zm0 4v0zm-4 0v1-1zm-4-4l1-1h-1v1zm-3 0v-1l-1 1h1zm0 4v0zm-5 0v-1l-1 1h1zm0 5h-1 1zm5 0v-1 1zm0 6h-1 1zm4 0h1-1zm0-6v-1 1zm2 0l1-1h-1v1zm6 6h-1 1zm3 0h1-1zm0-6v-1l-1 1h1zm5 0h1-1zm0-5h1l-1-1v1zm-6-4v4h2v-4h-2zm-3 0h4v-1h-4v1zm0 4v-4h-1v4h1zm0-1h-4v2h4v-2zm-8-3l4 4h1l-4-5-1 1zm-3 0h3v-1h-3v1zm0 4v-4h-1v4h1zm0-1h-5v2h5v-2zm-6 1v5h1v-5h-1zm1 5h5v-1h-5v1zm5 6v-6h-1v6h1zm4-1h-4v1h4v-1zm0-5v6h1v-6h-1zm0 0h2v-1h-2v1zm8 5l-5-6-1 1 5 6 1-1zm3 0h-3v1h3v-1zm-1-5v6h2v-6h-2zm1 0h5v-1h-5v1zm6 0v-5h-2v5h2zm-1-6h-5v2h5v-2z" fill="#C48504"/>
  <path fill-rule="evenodd" clip-rule="evenodd" d="M121 18a15 15 0 11-31 0 15 15 0 0131 0z" fill="#1B365D"/>
  <path fill-rule="evenodd" clip-rule="evenodd" d="M120 17a15 15 0 11-31 0 15 15 0 0131 0z" fill="#FFB54A"/>
  <path fill-rule="evenodd" clip-rule="evenodd" d="M107 16v-2h-2v2h-1l-2-2h-1v2h-2v2h2v2h2v-2h1l2 2h1v-2h2v-2h-2z" fill="#C48504"/>
  <path d="M107 14zm0 2zm-2-2zm0 2h1-1zm-1 0zm-2-2h1-1zm-1 0zm0 2zm-2 0zm0 2zm2 0v-1 1zm0 2zm2 0zm0-2v-1 1zm1 0v-1 1zm2 2h-1 1zm1 0zm0-2v-1 1zm2 0zm0-2zm-2-2v2-2zm-2 1h2v-1h-2v1zm1 1v-2h-1v2h1zm-1 0h-1 1zm-3-1l2 1-1-2-1 1zm-1 0h1v-1h-1v1zm0 1v-2 2zm0 0h-2 2zm-2 0v2-2zm0 2h2v-1h-2v1zm2 2v-2 2zm2 0h-2 2zm0-2v2-2zm0 0h1v-1h-1v1zm3 2l-2-3-1 1 2 2h1zm1 0h-1 1zm0-2v2-2zm0 0h2v-1h-2v1zm2 0v-2 2zm0-2h-2 2z" fill="#C48504"/>
  <path fill-rule="evenodd" clip-rule="evenodd" d="M104 5a12 12 0 100 23 12 12 0 000-23zm0 24a12 12 0 110-25 12 12 0 010 25z" fill="#C48504"/>
  <path fill-rule="evenodd" clip-rule="evenodd" d="M87 45c0-4-3-7-7-7 4 0 7-3 7-7 0 4 3 7 7 7-4 0-7 3-7 7zM166 78c0-2-2-5-5-5 3 0 5-2 5-5 0 3 2 5 5 5-3 0-5 3-5 5zM134 102c0-5-5-9-10-9 5 0 10-4 10-9 0 5 4 9 9 9-5 0-9 4-9 9z" fill="#FFB54A"/>
  <path fill-rule="evenodd" clip-rule="evenodd" d="M165 32c0-5-4-8-9-8 5 0 9-4 9-9 0 5 4 9 8 9-4 0-8 3-8 8z" fill="#FCF0E3"/>
  <path fill-rule="evenodd" clip-rule="evenodd" d="M193 38c0-3-2-5-4-5 2 0 4-2 4-5 0 3 2 5 5 5-3 0-5 2-5 5z" fill="#FFB54A"/>
  <path fill-rule="evenodd" clip-rule="evenodd" d="M208 146h-59v-1h59v1zM208 159h-50 50zM208 153h-36v-1h36v1zM167 153h-18v-1h18v1zM142 168H83v-1h59v1zM133 181H83h50zM119 175H83v-1h36v1zM142 175h-18v-1h18v1z" fill="#fff"/>
  <path fill-rule="evenodd" clip-rule="evenodd" d="M186 112l8-30 4-4c3-2 4-6 4-6l6-5v-1-1c-1-1-3-2-5-1l-2 2-2 1 7-14c1-2 0-3-1-4h-2l-1 1c-8-7-18 16-18 16l-2 7-24 44c-4 6-1 14 6 18l6 1h47l10-24h-41z" fill="#B48E56"/>
  <path fill-rule="evenodd" clip-rule="evenodd" d="M178 136c-2 0-1 0 0 0zM178 136z" fill="#FF887C"/>
  <path fill-rule="evenodd" clip-rule="evenodd" d="M186 112l-2 5-1 4-2 6v2l-3 7 17-24h-9zM192 69v-1c3-4 7-2 7-2v1s-4-2-6 2h-1zM203 50a46 46 0 00-5 8l-1 2v-3l2-2a46 46 0 014-5zM200 49l-2 2a18 18 0 00-3 5v2l-1 1v-1l1-2a22 22 0 013-5l2-2zM197 49a29 29 0 00-4 6l-1 3v-3l2-2 3-4z" fill="#734E17"/>
  <path fill-rule="evenodd" clip-rule="evenodd" d="M294 156l-12-32c-1-6-8-12-15-12h-69v24h11l-5 63 79 1v-43l11-1z" fill="#4E69FF"/>
  <path fill-rule="evenodd" clip-rule="evenodd" d="M234 112h-36v24h12c0-13 11-23 24-24z" fill="#1B1B25"/>
  <path fill-rule="evenodd" clip-rule="evenodd" d="M189 77l2 17 3-12-5-5z" fill="#734E17"/>
  <path fill-rule="evenodd" clip-rule="evenodd" d="M236 165l-3-15-2-12c-1-2-2-3-3-2l-12 2-2 3 2 12 2 9 1 6c1 2 2 3 3 2l7-1 5-1 2-3z" fill="#1B1B25"/>
  <mask id="a" maskUnits="userSpaceOnUse" x="214" y="149" width="85" height="46">
    <path fill-rule="evenodd" clip-rule="evenodd" d="M214 150h85v45h-85v-45z" fill="#fff"/>
  </mask>
  <g mask="url(#a)">
    <path fill-rule="evenodd" clip-rule="evenodd" d="M299 179l-6-23-24 3 2 6h-1l-26-7-3-3c-2-3-6-3-6-3l-2-2 1 3h-1l-5 1-11-1-2 1c-4 7 11 13 14 15h1l6 2 44 22 2 1 7 1c7-2 11-9 10-16z" fill="#B48E56"/>
  </g>
  <path fill-rule="evenodd" clip-rule="evenodd" d="M297 172l-28-13 1 6h2c8 1 25 7 25 7z" fill="#734E17"/>
  <path fill-rule="evenodd" clip-rule="evenodd" d="M267 159l-4-17h1l3 17 12-2v1l-12 1z" fill="#1B1B25"/>
  <path fill-rule="evenodd" clip-rule="evenodd" d="M297 173zM297 173zM297 172zM297 172v0z" fill="#FF887C"/>
  <path fill-rule="evenodd" clip-rule="evenodd" d="M242 39c-29-2-19 19-17 21l-2 12c-1 3 1 7 5 7l26 5c4 1 7-1 8-5l4-23c0-2 5-14-24-17z" fill="#1B1B25"/>
  <path fill-rule="evenodd" clip-rule="evenodd" d="M260 74h-1l-5-13-4-2a7 7 0 01-10 1 11 11 0 01-14 1l-4 22c0 3 0 6 2 8 1 4 4 6 8 7v15c0 5 4 9 9 9h3c5 0 9-4 9-9V96c2-1 3-3 3-6l1-3h1c3 0 6-2 7-5v-1c1-3-2-7-5-7z" fill="#B48E56"/>
  <path fill-rule="evenodd" clip-rule="evenodd" d="M256 86l-1 3c-1 6-7 11-14 9l-9-1c-4-1-7-3-8-6 1 4 4 7 9 8 2 3 5 5 8 5h3c4 0 8-3 9-7 2-2 3-4 3-7l1-3-1-1z" fill="#734E17"/>
  <path fill-rule="evenodd" clip-rule="evenodd" d="M135 122l-24-44-3-7S98 48 90 55h-1-1c-1 0-2 2-1 3l7 15-2-2-3-2-4 1v2l6 5s1 4 4 7l4 3 8 30-12 1v24h27l7-2c7-3 9-11 6-18z" fill="#B48E56"/>
  <path fill-rule="evenodd" clip-rule="evenodd" d="M115 142c3 0 0 0 0 0s-7-18-8-25l-9 1 17 24z" fill="#734E17"/>
  <path fill-rule="evenodd" clip-rule="evenodd" d="M100 74c-3-4-6-2-6-2h-1 1s4-2 7 2h-1zM91 55a25 25 0 015 8v3l-1-3a18 18 0 00-3-5l-2-3h1zM93 54l2 2 2 3 1 2v2l1 1h-1v-1l-1-1a26 26 0 00-2-6l-3-2h1zM96 54a15 15 0 013 4 16 16 0 012 5 16 16 0 00-5-8v-1z" fill="#91BABA"/>
  <path fill-rule="evenodd" clip-rule="evenodd" d="M97 86l10-1-6 11s-2-8-4-10z" fill="#734E17"/>
  <path fill-rule="evenodd" clip-rule="evenodd" d="M60 118H31c-6 0-12 4-14 9L5 161l11 2v37h63l4-58h11v-24H60z" fill="#269264"/>
  <path fill-rule="evenodd" clip-rule="evenodd" d="M95 118H61c13 0 23 10 23 23v1h11v-24zM83 143l-12-2-3 2-2 12-3 15c-1 2 0 3 2 3l5 1 7 1c1 1 2 0 3-2l1-5 2-10 2-12-2-3z" fill="#1B1B25"/>
  <mask id="b" maskUnits="userSpaceOnUse" x="0" y="154" width="85" height="47">
    <path fill-rule="evenodd" clip-rule="evenodd" d="M0 155h85v45H0v-45z" fill="#fff"/>
  </mask>
  <g mask="url(#b)">
    <path fill-rule="evenodd" clip-rule="evenodd" d="M84 159v-1h-1-1l-11 1-5-1h-1l1-3-2 2a8 8 0 00-6 3l-2 3h-1l-26 7h-1l2-6-24-3-6 23c-1 7 3 14 10 16l7-1 2-1 44-21 6-3h1c2-1 18-8 14-15z" fill="#B48E56"/>
  </g>
  <path fill-rule="evenodd" clip-rule="evenodd" d="M2 178z" fill="#FF887C"/>
  <path fill-rule="evenodd" clip-rule="evenodd" d="M28 170l2-6-28 13 6-2h1l19-5z" fill="#734E17"/>
  <path fill-rule="evenodd" clip-rule="evenodd" d="M2 177v0zM2 178zM2 177z" fill="#FF887C"/>
  <path fill-rule="evenodd" clip-rule="evenodd" d="M32 164h-5v-1l5 1 2-18h1l-3 18z" fill="#1B1B25"/>
  <path fill-rule="evenodd" clip-rule="evenodd" d="M38 167h12c2 0 6-2 5-4l-17 4z" fill="#734E17"/>
  <path fill-rule="evenodd" clip-rule="evenodd" d="M75 110l-4-27-2-9h2s-1-23-27-17h-7c-12 2-21 13-19 25l2 16c2 12 14 21 26 19l27-4c2 0 3-2 2-3z" fill="#1B1B25"/>
  <path fill-rule="evenodd" clip-rule="evenodd" d="M67 74l-22 4-6-8c1 9-5 15-5 15v-1h-1c-3 1-5 4-5 8 1 3 4 6 8 5l5 8v14c0 5 4 9 9 9s9-4 9-9v-11c4-2 7-4 8-8 2-3 3-7 2-11l-2-15z" fill="#B48E56"/>
  <path fill-rule="evenodd" clip-rule="evenodd" d="M56 108c-8 1-16-4-18-11h-2l5 8c0 5 4 8 9 8 4 0 7-2 8-4 4-2 7-5 9-9-2 4-6 7-11 8z" fill="#734E17"/>
</svg>
