<svg xmlns="http://www.w3.org/2000/svg" fill="none" viewBox="0 0 202 313">
  <defs/>
  <path fill="#4F5253" d="M40 90l8-3 10 23-9 4-9-24z"/>
  <path fill="#858686" d="M64 85l-37 15v19l43-16-6-18z"/>
  <path fill="#6F7173" d="M27 119l11 3 39-15-4-5h-5l-41 17z"/>
  <path fill="#4F5253" d="M66 129l-8-19-9 4 8 19 6 2 3-6z"/>
  <path fill="#6F7173" d="M64 85h10l3 22-9-5-4-17z"/>
  <path fill="#000" fill-opacity=".1" d="M23 295l68-16 110 15-89 18-89-17z"/>
  <path fill="#856400" d="M147 220l2 48-10 5-17 5-15-35 13-13 27-10z"/>
  <path fill="#8D7C2F" d="M118 269l31-9v8l-11 8-16 2-4-9z"/>
  <path fill="#755800" d="M149 268l18 21-21 2-24-2v-11l27-10z"/>
  <path fill="#BC8F2D" d="M167 288h-45v5h45v-5z"/>
  <path fill="#9E7700" d="M107 243l-16 36-7 1-24 1 5-59 27 2 15 19z"/>
  <path fill="#BF8F00" d="M147 220l-40 23-42-21 26-2h56z"/>
  <path fill="#E5C828" d="M83 121l37 4 18 70 5 12H81l-14 3v-12l16-77z"/>
  <path fill="#BF8F00" d="M66 129l17-8 7 46h-9l-10-22-5-16zM67 198l46-27 26 7 6 30-41 4-38-6 1-8z"/>
  <path fill="#CCAD14" d="M150 159l-3 7-8 12-9-17-4-24 3-9 9 3 12 28z"/>
  <path fill="#856400" d="M145 208h-20l-5 3-6-4-48-1-1 16 50-1 5-4 6 3h21l-2-12z"/>
  <path fill="#CCAD14" d="M114 207l1 14 11-1-1-12-11-1z"/>
  <path fill="#DFBDA5" d="M152 51l1 29-4 28-23 6-12 11-17-1-14-3-8-22-7-14-6-17-2-25 23 10 34-1 8-11 9 9 18 1z"/>
  <path fill="#C3987B" d="M91 54l1 29-6 5-7-4-2-12h6V54h8zM119 82l-9-17-19-11 28-4v32zM135 77l15-26-20-3 5 29z"/>
  <path fill="#C09C84" d="M153 80l-85 5 26 39 10 3 23-12 27-2-1-33z"/>
  <path fill="#A77E62" d="M92 83l3 33 8 4 7 19-27-18-11-26v-5l-4-5 11-1 13-1z"/>
  <path fill="#8B6651" d="M127 115l-36 2 19 22 17-24zM79 84l-7 11-4-10 11-1zM139 92h-31l9 12h15l7-12zM119 82l8 5 8-6h-8l-8 1z"/>
  <path fill="#474747" d="M91 54l27 6v-7l-11-1-16 2zM134 60v-9l7-1 9 1-16 9zM83 54v18h-6l-2-8-13 4-11-24 19 2 13 8z"/>
  <path fill="#8B6651" d="M66 71l6-1 2 10-8-9z"/>
  <path fill="#9E7700" d="M82 22H71l-11 2-5 8-4 12 20-13 11-9z"/>
  <path fill="#856400" d="M60 24L91 9l27-9 32 20-37 3-31-1-9 1-13 1z"/>
  <path fill="#BF8F00" d="M118 0L71 1 60 24l58-24z"/>
  <path fill="#9E7700" d="M60 24L47 9 28 24l15 1 17-1z"/>
  <path fill="#BF8F00" d="M28 24L0 47l40-15 20-8H28z"/>
  <path fill="#755800" d="M0 47l51-3 9-20L0 47z"/>
  <path fill="#E5C828" d="M82 22l84-3 1 31-33 1-9-10-7 12-35 1-2-18 1-14z"/>
  <path fill="#474747" d="M91 29l31-1-10 17H92l-1-16zM159 27l-31 1 11 15h20V27z"/>
  <path fill="#CCAD14" d="M83 54L51 44l31-22 1 32z"/>
  <path fill="#2B2B2B" d="M144 62a4 4 0 11-1 7 4 4 0 011-7z"/>
  <path fill="#E8CAB6" d="M125 41l9 10 1 30-16 1-1-29 7-12z"/>
  <path fill="#CCAD14" d="M55 169l-12-29 23-11 15 38-9 7-17-5z"/>
  <path fill="#E5C828" d="M90 188l-23 10-12-29 26-2 8 10 1 11z"/>
  <path fill="#DFBDA5" d="M110 164l-29 3 9 21 25-10 1-7-6-7z"/>
  <path fill="#B58B00" d="M129 128l-9-3v23l5 4 7-2-3-22z"/>
  <path fill="#8B6651" d="M110 164l28-14-18-2-10 16z"/>
  <path fill="#C3987B" d="M115 178h24l-2-19 9-11-3-6-33 22 5 14z"/>
  <path fill="#755800" d="M91 279l5 12-39 1 3-11 21-6 10 4z"/>
  <path fill="#CCAD14" d="M57 297h39v-6l-39 1v5z"/>
  <path fill="#BF8F00" d="M95 270l-34-1-1 12 31-2 4-9z"/>
  <path fill="#C3987B" d="M184 162l7-18-6-12-10 12-2 9 11 9zM139 178l14-28 14-1-1 10-7 29-20-10z"/>
  <path fill="#8B6651" d="M153 150l22-6 9 18-18-3-13-9z"/>
  <path fill="#9E7700" d="M139 240l9 5v8l-11 3-5-18 7 2z"/>
  <path fill="#B58B00" d="M148 234v11l-16-7 16-4z"/>
  <path fill="#2B2B2B" d="M111 64a4 4 0 110 8 4 4 0 010-8z"/>
  <path fill="#fff" d="M136 94h-24l7 8h12l5-8z"/>
  <path fill="#C4C4C4" d="M158 107l-3 12-11 7 9 24 22-6 10-12-3-18h-11l-13-7z"/>
  <path fill="#A3A3A3" d="M153 150l12-6h10l-22 6z"/>
  <path fill="#F4D75D" d="M148 136l11-5v-8l13-5 5 7 7-3 1 5-7 3 1 9-14 5-4-8-11 5-2-5z"/>
  <path fill="#B58B00" d="M164 126v7l4 6 8-2-2-9-3-5-7 3z"/>
  <path fill="#A3A3A3" d="M144 126l15-3-1-16-4 6-10 13z"/>
  <path fill="#DDDDDC" d="M158 107l14 11 10-4-24-7z"/>
</svg>
