<svg xmlns="http://www.w3.org/2000/svg" fill="none" viewBox="0 0 129 306">
  <defs/>
  <path fill="#2B2B2B" fill-opacity=".1" d="M5 285l64 20 53-14-43-16-74 10z"/>
  <path fill="#C4C4C4" d="M19 165l12-32 13 31-10 24-13-10-2-13z"/>
  <path fill="#A3A3A3" d="M6 191l-6-7 1-8 18-11 15 23-28 3z"/>
  <path fill="#B58B00" d="M35 211l4 35 14 8 13-8 5-20-7-15-19-4-10 4z"/>
  <path fill="#856400" d="M35 211l28-4 46 7-19 12H71l-36-15z"/>
  <path fill="#B58B00" d="M109 214l-2 33-12 6-17-6-7-21 38-12z"/>
  <path fill="#DDDDDC" d="M59 123l-5 7v14l4 8 5 1 11-23-10-9-5 2z"/>
  <path fill="#8F8F8F" d="M60 132l-2-7 6-4 6 5-6 6 4 10-6 10-4-1-2-10 4-9z"/>
  <path fill="#C4C4C4" d="M49 120l4 3 3 7 5 21-9-3-14-16 11-12z"/>
  <path fill="#CECECD" d="M35 211l28 1 6-26-8-35-20-19 8-12-18 13 4 78z"/>
  <path fill="#C4C4C4" d="M110 169l-1 45-46-2-1-9-1-52 19-17 9-13 23 8-12 25 10 15z"/>
  <path fill="#CECECD" d="M97 176l13-7 2-40-38 33 6 11 17 3z"/>
  <path fill="#A3A3A3" d="M52 163l21 26 24-13-36-25-6 2-3 10z"/>
  <path fill="#ECECEB" d="M46 156l6 7 9-12-5-5-5 2-5 8z"/>
  <path fill="#7F5D4E" d="M41 132l2 9 13 5-7-15-8 1z"/>
  <path fill="#A27E6E" d="M41 132l15 14-10 10-10-2-5-14-12 1v-6l22-3z"/>
  <path fill="#CECECD" d="M89 121l-4 17-24 13 10-19 7-8 11-3z"/>
  <path fill="#ECECEB" d="M64 122l7 10 18-11-4-5H73l-9 6zM56 130l8-8-7-6h-5l-3 4 5 8 2 2z"/>
  <path fill="#858686" d="M59 199l3-4 5 4-5 4-3-4zM58 183l4-4 4 4-4 4-4-4z"/>
  <path fill="#593E35" d="M48 102l4 14 12 6 13-4 5-3-5-9-29-4z"/>
  <path fill="#7F5D4E" d="M73 109l4 9 8-2 15-25-3-19 2-31-5-6-4 4-5 4-13 56 1 10z"/>
  <path fill="#593E35" d="M100 91l-6-11h10l2 3-6 8z"/>
  <path fill="#A27E6E" d="M22 95l51 14 17-70-15-7-43 4-10 59z"/>
  <path fill="#4F5253" d="M129 50l-23 33-2-6-15-4 1-34 23 3 16 8z"/>
  <path fill="#737373" d="M90 39l39 11-17-33-17 10-5 12z"/>
  <path fill="#4F5253" d="M25 15l7 21 58 3-38-16-27-8z"/>
  <path fill="#8F8F8F" d="M112 17L90 39 62 18 50 1l62 16z"/>
  <path fill="#737373" d="M50 1l40 38-65-24L50 1z"/>
  <path fill="#A27E6E" d="M99 63l-5 17 12 3 5-16-12-4z"/>
  <path fill="#593E35" d="M101 69l5 1-7 6 2-7z"/>
  <path fill="#7F5D4E" d="M33 47l9 2 4 2 2 7-6 13-9-24zM53 74l1-15 4-6h8l9 3-22 18z"/>
  <path fill="#AA8D80" d="M42 71l4 3h7l5-21-12-2-4 20z"/>
  <path fill="#593E35" d="M46 76l-4-5 11 3-7 2z"/>
  <path fill="#474747" d="M33 47l8-1 5 5-13-4zM58 53l8-2 9 5-17-3z"/>
  <path fill="#593E35" d="M38 80l3 12 12 3 11-10-26-5z"/>
  <path fill="#fff" d="M41 83l17 3-2 3-14-3-1-3z"/>
  <path fill="#4F5253" d="M107 288l-1-11-10-6-8 5-7 12 13 1 13-1zM61 283v-11l-10-5-8 4-15 12 16 2 17-2z"/>
  <path fill="#474747" d="M61 283H28v4h33v-4zM107 288H81v4h26v-4z"/>
  <path fill="#9E7700" d="M106 277l-18-1-10-29h29l-1 30zM61 272l-18-1-4-25h27l-5 26z"/>
  <path fill="#2B2B2B" d="M36 59a3 3 0 013 2 3 3 0 01-3 3 3 3 0 01-3-3 3 3 0 013-2zM61 64a3 3 0 013 3 3 3 0 01-3 3 3 3 0 01-3-3 3 3 0 013-3z"/>
</svg>
