<svg width="8" height="8" viewBox="0 0 8 8" fill="none" xmlns="http://www.w3.org/2000/svg">
<path d="M1.0001 4.75C0.585891 4.75 0.250104 4.41421 0.250104 4C0.250104 3.58579 0.585891 3.25 1.0001 3.25V4.75ZM6.57153 3.25C6.98575 3.25 7.32153 3.58579 7.32153 4C7.32153 4.41421 6.98575 4.75 6.57153 4.75V3.25ZM3.46977 1.53033C3.17688 1.23744 3.17688 0.762563 3.46977 0.46967C3.76267 0.176777 4.23754 0.176777 4.53043 0.46967L3.46977 1.53033ZM4.53043 7.53033C4.23754 7.82322 3.76267 7.82322 3.46977 7.53033C3.17688 7.23744 3.17688 6.76256 3.46977 6.46967L4.53043 7.53033ZM1.0001 3.25H6.57153V4.75H1.0001V3.25ZM4.53043 0.46967L5.40911 1.34835L4.34845 2.40901L3.46977 1.53033L4.53043 0.46967ZM5.40911 6.65165L4.53043 7.53033L3.46977 6.46967L4.34845 5.59099L5.40911 6.65165ZM5.40911 1.34835C6.87358 2.81281 6.87358 5.18718 5.40911 6.65165L4.34845 5.59099C5.22713 4.71231 5.22713 3.28769 4.34845 2.40901L5.40911 1.34835Z" fill="white"/>
</svg>
