<svg width="19" height="19" viewBox="0 0 19 19" fill="none" xmlns="http://www.w3.org/2000/svg">
<path d="M9.5 0C4.26179 0 0 4.26179 0 9.5C0 14.7382 4.26179 19 9.5 19C14.7382 19 19 14.7382 19 9.5C19 4.26179 14.7382 0 9.5 0ZM9.5 17.8125C4.91641 17.8125 1.18751 14.0836 1.18751 9.5C1.18751 4.91641 4.91641 1.18751 9.5 1.18751C14.0836 1.18751 17.8125 4.91641 17.8125 9.5C17.8125 14.0836 14.0836 17.8125 9.5 17.8125Z" fill="#172B4D"/>
<path d="M10.0938 3.5625H8.90625V9.74583L12.6427 13.4823L13.4823 12.6427L10.0938 9.25413V3.5625Z" fill="#172B4D"/>
</svg>
