<svg width="56" height="56" viewBox="0 0 56 56" fill="none" xmlns="http://www.w3.org/2000/svg">
<circle cx="28" cy="28" r="28" fill="#FFB730" fill-opacity="0.2"/>
<path fill-rule="evenodd" clip-rule="evenodd" d="M35.5763 20.0744C37.4546 22.6307 39.5833 25.5277 39.9345 30.1501C39.9345 30.1501 40 31.0525 40 31.3748C40 37.7728 34.859 42.9807 28.5337 42.999H28.5256C28.5181 43.0009 28.5087 42.9996 28.5 42.999C22.1591 42.999 17 37.7841 17 31.3748C17 31.1547 17.0006 30.9346 17.0137 30.7151C17.2009 24.1178 20.4178 22.4655 20.5545 22.3987C20.7385 22.3066 20.9519 22.3135 21.1335 22.4094C21.3132 22.5065 21.4367 22.6843 21.466 22.8887C21.4722 22.9316 22.0625 26.8713 24.6679 27.4338C24.6785 25.7374 24.7541 23.1687 25.3249 20.8839C26.1472 17.602 28.5013 14.1624 31.3226 12.1216C31.5166 11.979 31.773 11.9608 31.9864 12.0724C32.1992 12.1834 32.3333 12.4048 32.3333 12.6469C32.3333 15.6617 33.8354 17.7056 35.5747 20.0722L35.5752 20.0729L35.5763 20.0744ZM24.6667 37.5798C24.6667 39.8559 26.3862 41.7074 28.5 41.7074C30.6138 41.7074 32.3333 39.8558 32.3335 37.5798C32.3335 37.4602 32.3253 37.3487 32.3173 37.2378L32.3172 37.2374C32.1831 35.365 31.4188 34.267 30.6794 33.205C30.1628 32.4627 29.6337 31.7021 29.3623 30.7624C28.7521 31.4864 28.2705 32.3895 28.0689 33.2384C27.8425 34.1958 27.8237 35.2565 27.8237 36.176C27.8237 36.5329 27.538 36.8218 27.1848 36.8218C26.1085 36.8218 25.446 36.082 25.0753 35.2773C24.8776 35.7131 24.6972 36.3684 24.6716 37.3282C24.6666 37.4156 24.6666 37.4883 24.6667 37.5593C24.6667 37.5661 24.6667 37.573 24.6667 37.5798Z" fill="#FFB730"/>
</svg>
