<svg width="56" height="56" viewBox="0 0 56 56" fill="none" xmlns="http://www.w3.org/2000/svg">
<circle cx="28" cy="28" r="28" fill="#36B37E" fill-opacity="0.2"/>
<path fill-rule="evenodd" clip-rule="evenodd" d="M37.8196 25.7853L39.7526 27.4569C40.0837 27.7419 40.0837 28.2581 39.7449 28.5431L37.8119 30.2147C37.5885 30.4073 37.5115 30.7155 37.6039 30.9928L38.4434 33.4039C38.5897 33.8199 38.3356 34.259 37.9043 34.3438L35.3937 34.8291C35.101 34.883 34.8777 35.1141 34.8238 35.3991L34.3386 37.9104C34.2539 38.3341 33.8149 38.5961 33.3991 38.4497L30.9886 37.61C30.7113 37.5099 30.4033 37.5946 30.2107 37.818L28.5396 39.7516C28.2546 40.0828 27.7386 40.0828 27.4537 39.7516L25.7825 37.818C25.59 37.5946 25.2819 37.5176 25.0047 37.61L22.5942 38.4497C22.1783 38.5961 21.7394 38.3418 21.6546 37.9104L21.1695 35.3991C21.1156 35.1064 20.8845 34.883 20.5996 34.8291L18.089 34.3438C17.6654 34.259 17.4036 33.8199 17.5499 33.4039L18.3893 30.9928C18.4894 30.7155 18.4047 30.4073 18.1814 30.2147L16.2484 28.5431C15.9172 28.2581 15.9172 27.7419 16.2484 27.4569L18.1814 25.7853C18.4047 25.5927 18.4817 25.2845 18.3893 25.0072L17.5499 22.5961C17.4036 22.1801 17.6577 21.741 18.089 21.6562L20.5996 21.1709C20.8922 21.117 21.1156 20.8859 21.1695 20.6009L21.6546 18.0896C21.7394 17.6659 22.1783 17.4039 22.5942 17.5503L25.0047 18.39C25.2819 18.4901 25.59 18.4054 25.7825 18.182L27.4537 16.2484C27.7386 15.9172 28.2546 15.9172 28.5396 16.2484L30.2184 18.182C30.411 18.4054 30.719 18.4824 30.9963 18.39L33.4068 17.5503C33.8226 17.4039 34.2616 17.6582 34.3463 18.0896L34.8238 20.6009C34.8777 20.8936 35.1087 21.117 35.3937 21.1709L37.912 21.6562C38.3356 21.741 38.5974 22.1801 38.4511 22.5961L37.6116 25.0072C37.5115 25.2845 37.5962 25.5927 37.8196 25.7853ZM30.8576 29.4136L33.2219 27.4184C33.6609 27.0409 33.4299 26.3168 32.8369 26.2706L29.7564 26.0472L28.5935 23.1815C28.3701 22.6423 27.6077 22.6423 27.3921 23.1815L26.2292 26.0472L23.1487 26.2706C22.5711 26.3091 22.3324 27.0332 22.779 27.4107L25.1433 29.4059L24.404 32.4102C24.2654 32.9803 24.8815 33.4271 25.3743 33.1189L28.0005 31.4858L30.6266 33.1266C31.1195 33.4271 31.7356 32.9803 31.597 32.4179L30.8576 29.4136Z" fill="#36B37E"/>
</svg>
