<svg width="40" height="40" fill="none" xmlns="http://www.w3.org/2000/svg"><circle cx="20" cy="20" r="20" fill="#A8005B" fill-opacity=".1"/><mask id="a" maskUnits="userSpaceOnUse" x="0" y="0" width="40" height="40"><circle cx="20" cy="20" r="20" fill="#fff"/></mask><g mask="url(#a)"><path fill-rule="evenodd" clip-rule="evenodd" d="M21 9.5v-.4a.4.4 0 00-.2-.8c-.2 0-.4.2-.4.4l.2.4v.4h.5z" fill="#A8005B" fill-opacity=".5"/><path fill-rule="evenodd" clip-rule="evenodd" d="M29.9 15.8c.7 0 1.3.2 1.8.6-1.2-3.9-5.5-6.8-10.6-6.9h-.3-.2c-5.1.1-9.4 3-10.6 7a2.7 2.7 0 014 .5 2.7 2.7 0 014.6 0 2.7 2.7 0 012.2-1.2h.4c.8.1 1.5.5 1.9 1.2a2.7 2.7 0 014.5 0c.5-.8 1.4-1.2 2.3-1.2z" fill="#A8005B"/><path fill-rule="evenodd" clip-rule="evenodd" d="M21 27.4h.2V15.8a2.8 2.8 0 00-.8 0v11.6h.7z" fill="#A8005B" fill-opacity=".5"/><mask id="b" maskUnits="userSpaceOnUse" x="20" y="27" width="2" height="3"><path fill-rule="evenodd" clip-rule="evenodd" d="M20.2 27.4h1.3V30h-1.3v-2.6z" fill="#fff"/></mask><g mask="url(#b)"><path fill-rule="evenodd" clip-rule="evenodd" d="M21.2 27.4h-.6a.4.4 0 00-.4.4v1.7c0 .3.2.5.4.5h.5c.2 0 .4-.2.4-.5v-1.7c0-.2-.1-.3-.3-.4z" fill="#A8005B"/></g></g></svg>
