<svg width="60" height="60" viewBox="0 0 60 60" fill="none" xmlns="http://www.w3.org/2000/svg">
<circle cx="30" cy="30" r="30" fill="#FFAB00" fill-opacity="0.1"/>
<path fill-rule="evenodd" clip-rule="evenodd" d="M16.7291 25.4473C16.933 26.1805 17.6075 26.6824 18.3682 26.667H41.633C42.394 26.683 43.0691 26.1813 43.2733 25.448C43.4776 24.7147 43.1591 23.9362 42.4995 23.5563C41.9676 23.2497 37.8015 20.9537 30.0013 16.667C22.2024 20.9537 18.0349 23.2497 17.503 23.5563C16.8437 23.936 16.5252 24.7142 16.7291 25.4473ZM34.9987 29.167V40.0003H32.4991V29.167H27.4998V40.0003H25.0001V29.167H20.0008V40.0003H18.0011C17.2648 40.0003 16.668 40.5973 16.668 41.3337V43.3337H43.3309V41.3337C43.3309 40.5973 42.7341 40.0003 41.9978 40.0003H39.9981V29.167H34.9987Z" fill="#FFAB00"/>
</svg>
