<svg width="20" height="20" viewBox="0 0 20 20" fill="none" xmlns="http://www.w3.org/2000/svg">
<rect width="20" height="20" fill="white" fill-opacity="0.01"/>
<path d="M12.3526 13.2357C11.4271 13.9373 10.2698 14.2615 9.11448 14.1426C7.95919 14.0237 6.89211 13.4707 6.12889 12.5953C5.36567 11.7199 4.96324 10.5874 5.00292 9.42673C5.04261 8.26602 5.52145 7.16365 6.34267 6.34243C7.1639 5.5212 8.26626 5.04236 9.42697 5.00268C10.5877 4.96299 11.7202 5.36543 12.5956 6.12865C13.471 6.89187 14.024 7.95895 14.1428 9.11424C14.2617 10.2695 13.9376 11.4269 13.2359 12.3523L15.4418 14.5582C15.6859 14.8023 15.8834 15.0498 15.4418 15.4415C15.0001 15.8332 14.8026 15.6857 14.5584 15.4415L12.3526 13.2357ZM9.58342 12.9165C10.4675 12.9165 11.3153 12.5653 11.9404 11.9402C12.5656 11.3151 12.9167 10.4672 12.9167 9.58317C12.9167 8.69912 12.5656 7.85127 11.9404 7.22615C11.3153 6.60103 10.4675 6.24984 9.58342 6.24984C8.69936 6.24984 7.85152 6.60103 7.22639 7.22615C6.60127 7.85127 6.25008 8.69912 6.25008 9.58317C6.25008 10.4672 6.60127 11.3151 7.22639 11.9402C7.85152 12.5653 8.69936 12.9165 9.58342 12.9165Z" fill="#42526E"/>
</svg>
