<svg width="32" height="32" viewBox="0 0 32 32" fill="none" xmlns="http://www.w3.org/2000/svg">
<circle cx="16" cy="16" r="16" fill="#D1CDFF"/>
<mask id="mask0" mask-type="alpha" maskUnits="userSpaceOnUse" x="0" y="0" width="32" height="32">
<circle cx="16" cy="16" r="16" fill="white"/>
</mask>
<g mask="url(#mask0)">
<circle cx="16" cy="16" r="12" fill="#6236FF" fill-opacity="0.1"/>
<path fill-rule="evenodd" clip-rule="evenodd" d="M21.456 14.7695L22.5299 15.6982C22.7138 15.8565 22.7138 16.1433 22.5256 16.3016L21.4517 17.2303C21.3276 17.3373 21.2848 17.5085 21.3362 17.6626L21.8025 19.0021C21.8838 19.2332 21.7426 19.4772 21.503 19.5242L20.1083 19.7939C19.9457 19.8238 19.8216 19.9522 19.7916 20.1105L19.5221 21.5057C19.475 21.7411 19.2312 21.8866 19.0001 21.8053L17.661 21.3388C17.5069 21.2832 17.3358 21.3303 17.2288 21.4544L16.3004 22.5286C16.1421 22.7126 15.8554 22.7126 15.6971 22.5286L14.7687 21.4544C14.6618 21.3303 14.4906 21.2875 14.3366 21.3388L12.9974 21.8053C12.7664 21.8866 12.5225 21.7454 12.4755 21.5057L12.2059 20.1105C12.176 19.9479 12.0476 19.8238 11.8893 19.7939L10.4945 19.5242C10.2592 19.4772 10.1137 19.2332 10.195 19.0021L10.6614 17.6626C10.717 17.5085 10.6699 17.3373 10.5459 17.2303L9.47197 16.3016C9.28799 16.1433 9.28799 15.8565 9.47197 15.6982L10.5459 14.7695C10.6699 14.6625 10.7127 14.4913 10.6614 14.3373L10.195 12.9977C10.1137 12.7666 10.2549 12.5227 10.4945 12.4756L11.8893 12.206C12.0519 12.176 12.176 12.0476 12.2059 11.8893L12.4755 10.4941C12.5225 10.2587 12.7664 10.1132 12.9974 10.1945L14.3366 10.661C14.4906 10.7167 14.6618 10.6696 14.7687 10.5455L15.6971 9.47127C15.8554 9.28725 16.1421 9.28725 16.3004 9.47127L17.2331 10.5455C17.3401 10.6696 17.5112 10.7124 17.6652 10.661L19.0044 10.1945C19.2354 10.1132 19.4793 10.2545 19.5264 10.4941L19.7916 11.8893C19.8216 12.0519 19.9499 12.176 20.1083 12.206L21.5073 12.4756C21.7426 12.5227 21.8881 12.7666 21.8068 12.9977L21.3405 14.3373C21.2848 14.4913 21.3319 14.6625 21.456 14.7695ZM17.5882 16.7852L18.9017 15.6768C19.1456 15.4671 19.0172 15.0648 18.6878 15.0391L16.9764 14.915L16.3304 13.323C16.2063 13.0234 15.7827 13.0234 15.6629 13.323L15.0169 14.915L13.3055 15.0391C12.9846 15.0605 12.852 15.4628 13.1001 15.6725L14.4136 16.781L14.0029 18.45C13.9259 18.7667 14.2681 19.015 14.542 18.8438L16.0009 17.9365L17.4599 18.848C17.7337 19.015 18.076 18.7667 17.999 18.4543L17.5882 16.7852Z" fill="#6236FF"/>
</g>
</svg>
