<svg width="425" height="263" viewBox="0 0 495 333" fill="none" xmlns="http://www.w3.org/2000/svg">
<path fill-rule="evenodd" clip-rule="evenodd" d="M102.044 332.882H44.3656C43.3523 332.882 42.5317 332.063 42.5317 331.052V330.046C42.5317 329.034 43.3523 328.216 44.3656 328.216H102.044C103.058 328.216 103.878 329.034 103.878 330.046V331.052C103.878 332.063 103.058 332.882 102.044 332.882Z" fill="#ADBEC4"/>
<path fill-rule="evenodd" clip-rule="evenodd" d="M467.525 332.882H451.744C450.73 332.882 449.909 332.063 449.909 331.052V330.046C449.909 329.034 450.73 328.216 451.744 328.216H467.525C468.538 328.216 469.359 329.034 469.359 330.046V331.052C469.359 332.063 468.538 332.882 467.525 332.882Z" fill="#ADBEC4"/>
<path fill-rule="evenodd" clip-rule="evenodd" d="M210.589 332.882H152.91C151.898 332.882 151.076 332.063 151.076 331.052V330.046C151.076 329.034 151.898 328.216 152.91 328.216H210.589C211.602 328.216 212.424 329.034 212.424 330.046V331.052C212.424 332.063 211.602 332.882 210.589 332.882Z" fill="#ADBEC4"/>
<path fill-rule="evenodd" clip-rule="evenodd" d="M295.279 332.882H237.602C236.588 332.882 235.767 332.063 235.767 331.052V330.046C235.767 329.034 236.588 328.216 237.602 328.216H295.279C296.293 328.216 297.114 329.034 297.114 330.046V331.052C297.114 332.063 296.293 332.882 295.279 332.882Z" fill="#ADBEC4"/>
<path fill-rule="evenodd" clip-rule="evenodd" d="M399.003 332.882H320.376C319.362 332.882 318.541 332.063 318.541 331.052V330.046C318.541 329.034 319.362 328.216 320.376 328.216H399.003C400.016 328.216 400.838 329.034 400.838 330.046V331.052C400.838 332.063 400.016 332.882 399.003 332.882Z" fill="#ADBEC4"/>
<path fill-rule="evenodd" clip-rule="evenodd" d="M121.377 71.476C121.377 71.476 115.285 67.3409 106.375 70.5256C97.4651 73.7113 95.4647 85.6853 97.6587 95.4012C99.8538 105.118 87.5868 138.293 87.5868 138.293C87.5868 138.293 93.9626 147.24 116.246 143.815C116.246 143.815 132.861 113.686 131.627 92.0557C130.393 70.4263 121.377 71.476 121.377 71.476Z" fill="#0E3944"/>
<path fill-rule="evenodd" clip-rule="evenodd" d="M128.411 108.852C136.785 106.179 141.91 113.137 146.708 126.087C151.506 139.036 153.12 140.335 153.12 140.335L171.64 152.209L170.102 159.128C170.102 159.128 152.475 152.242 148.213 147.861C143.952 143.482 131.693 121.295 131.693 121.295L128.411 108.852Z" fill="#EF6E4B"/>
<path fill-rule="evenodd" clip-rule="evenodd" d="M87.5951 192.51C87.5951 192.51 83.9618 210.871 84.5606 238.51C84.5606 238.51 70.243 259.576 82.0588 319.686H88.2577C88.2577 319.686 93.3209 268.544 97.195 254.686C101.069 240.829 115.374 236.577 116.149 194.443L87.5951 192.51Z" fill="#FF8B66"/>
<path fill-rule="evenodd" clip-rule="evenodd" d="M59.2687 246.5C55.6668 234.656 46.4103 214.82 22.6645 187.933C22.6645 187.933 21.2482 187.204 19.3337 188.373C17.3124 189.604 17.3124 191.053 17.3124 191.053C17.3124 191.053 29.2193 216.946 36.8125 235.917C39.3687 242.303 45.553 246.5 52.4448 246.5H59.2687Z" fill="#FF8B66"/>
<path fill-rule="evenodd" clip-rule="evenodd" d="M102.501 269.401C102.501 269.401 102.583 278.238 96.7713 278.388C88.5668 278.608 88.2643 269.69 78.968 269.981C69.6696 270.27 50.494 272.59 44.3924 258.094C41.2437 250.602 45.5553 240.99 35.3861 233.741C25.2168 226.493 30.1564 218.376 35.3861 214.027C40.6157 209.691 33.1313 204.935 38.5818 202.721C39.8829 202.199 41.1621 202.257 42.347 202.652C43.0442 202.894 43.6952 203.23 44.3223 203.648C47.205 205.562 49.2274 208.89 49.2274 208.89C64.6263 166.806 92.042 161.251 92.042 161.251L119.155 170.587C119.806 236.061 102.501 269.401 102.501 269.401Z" fill="#164353"/>
<path fill-rule="evenodd" clip-rule="evenodd" d="M128.411 108.852C128.411 108.852 122.086 110.982 113.088 109.617C104.091 108.254 101.165 102.617 94.8405 106.246C85.3453 111.693 89.7888 130.44 92.1723 140.189C93.061 143.823 94.1884 153.372 92.0436 161.253C92.0436 161.253 104.686 171.069 119.157 170.581L127.051 153.448C127.051 153.448 144.22 132.95 128.411 108.852Z" fill="#CFD8DC"/>
<path fill-rule="evenodd" clip-rule="evenodd" d="M112.345 93.1258C112.345 93.1258 113.398 101.995 110.109 110.062C110.109 110.062 114.804 116.978 119.284 112.427C119.284 112.427 119.694 104.3 124.726 95.104C128.095 88.9457 112.345 93.1258 112.345 93.1258Z" fill="#EF6E4B"/>
<path fill-rule="evenodd" clip-rule="evenodd" d="M105.151 93.4273C105.151 93.4273 101.191 90.9278 101.638 94.7841C102.156 99.2534 106.524 100.124 106.989 98.562C107.454 96.9994 105.151 93.4273 105.151 93.4273Z" fill="#FF8B66"/>
<path fill-rule="evenodd" clip-rule="evenodd" d="M127.868 88.5902C127.868 88.5902 130.382 84.6441 131.626 88.3228C133.067 92.5854 129.488 95.2311 128.4 94.0163C127.311 92.8016 127.868 88.5902 127.868 88.5902Z" fill="#FF8B66"/>
<path fill-rule="evenodd" clip-rule="evenodd" d="M119.692 106.783C112.509 108.388 107.405 104.613 104.254 90.5727C102.629 83.3302 105.325 78.0628 113.369 76.2663C121.415 74.4687 125.799 78.1526 127.425 85.3951C130.81 100.482 127.111 105.126 119.692 106.783Z" fill="#FF8B66"/>
<path fill-rule="evenodd" clip-rule="evenodd" d="M126.169 90.9349C126.457 91.6274 125.987 92.4797 125.12 92.838C124.252 93.1973 123.315 92.9268 123.028 92.2343C122.74 91.5428 123.21 90.6905 124.078 90.3312C124.946 89.9729 125.883 90.2424 126.169 90.9349Z" fill="#DB614D"/>
<path fill-rule="evenodd" clip-rule="evenodd" d="M111.485 94.6277C111.601 95.3672 110.943 96.0859 110.015 96.23C109.087 96.3752 108.241 95.8926 108.125 95.1521C108.01 94.4115 108.667 93.694 109.595 93.5498C110.523 93.4047 111.369 93.8872 111.485 94.6277Z" fill="#DB614D"/>
<path fill-rule="evenodd" clip-rule="evenodd" d="M121.169 84.3926C121.099 84.3926 121.028 84.3727 120.966 84.331C119.738 83.5131 117.997 83.9487 117.978 83.9518C117.778 84.004 117.581 83.8839 117.53 83.6875C117.48 83.4912 117.598 83.2917 117.795 83.2405C117.879 83.2196 119.875 82.7214 121.374 83.7199C121.542 83.8327 121.588 84.0615 121.475 84.2296C121.404 84.3351 121.288 84.3926 121.169 84.3926Z" fill="#0E3944"/>
<path fill-rule="evenodd" clip-rule="evenodd" d="M107.646 87.4143C107.581 87.4143 107.516 87.3965 107.456 87.361C107.282 87.2576 107.226 87.032 107.332 86.8575C108.259 85.3169 110.278 84.9169 110.364 84.9012C110.56 84.8699 110.755 84.9931 110.793 85.1926C110.831 85.3911 110.7 85.5833 110.502 85.6219C110.483 85.6261 108.719 85.9802 107.961 87.2367C107.892 87.3505 107.77 87.4143 107.646 87.4143Z" fill="#0E3944"/>
<path fill-rule="evenodd" clip-rule="evenodd" d="M121.483 88.3247C121.682 89.2156 121.443 90.0262 120.948 90.1369C120.451 90.2476 119.888 89.6157 119.688 88.7258C119.488 87.8359 119.729 87.0243 120.224 86.9136C120.719 86.8029 121.284 87.4348 121.483 88.3247Z" fill="#1A4850"/>
<path fill-rule="evenodd" clip-rule="evenodd" d="M111.505 90.4681C111.704 91.358 111.465 92.1685 110.969 92.2793C110.473 92.39 109.91 91.7591 109.71 90.8692C109.51 89.9782 109.75 89.1677 110.246 89.056C110.741 88.9463 111.305 89.5772 111.505 90.4681Z" fill="#1A4850"/>
<path fill-rule="evenodd" clip-rule="evenodd" d="M114.731 98.8965C114.731 98.8965 119.344 98.5216 121.377 96.8086C121.377 96.8086 120.817 100.405 118.308 100.654C115.798 100.903 114.731 98.8965 114.731 98.8965Z" fill="#1A4850"/>
<path fill-rule="evenodd" clip-rule="evenodd" d="M118.969 88.4225C118.969 88.4225 119.132 86.0839 120.03 86.0484C120.928 86.0129 122.004 87.7447 122.004 87.7447L123.127 86.7858L121.89 87.237C121.89 87.237 120.787 85.4269 119.932 85.6139C118.716 85.8792 118.969 88.4225 118.969 88.4225Z" fill="#1A4850"/>
<path fill-rule="evenodd" clip-rule="evenodd" d="M112.056 90.2489C112.056 90.2489 110.91 88.2027 110.082 88.5526C109.255 88.9025 109.021 90.9267 109.021 90.9267L107.595 90.5371L108.907 90.4191C108.907 90.4191 109.132 88.3124 109.984 88.1181C111.199 87.8413 112.056 90.2489 112.056 90.2489Z" fill="#1A4850"/>
<path fill-rule="evenodd" clip-rule="evenodd" d="M117.058 94.7445L116.688 94.0447C117.286 93.7293 117.337 93.3063 117.274 93.0055C117.187 92.5824 116.84 92.2451 116.591 92.2263C116.448 92.219 116.323 92.3412 116.228 92.596L115.484 92.3203C115.802 91.4659 116.404 91.4189 116.651 91.4366C117.282 91.4847 117.896 92.103 118.052 92.8446C118.213 93.6217 117.842 94.332 117.058 94.7445Z" fill="#DB614D"/>
<path fill-rule="evenodd" clip-rule="evenodd" d="M105.72 95.9549C105.72 95.9549 103.505 87.8225 104.82 82.0715C104.82 82.0715 111.068 73.3897 123.127 77.6826C123.127 77.6826 126.703 83.4283 128.475 91.4719C128.475 91.4719 128.926 88.5818 127.726 82.1478C126.526 75.7147 120.806 71.7164 112.96 73.0043C105.116 74.2911 96.7208 82.0788 105.72 95.9549Z" fill="#0E3944"/>
<path fill-rule="evenodd" clip-rule="evenodd" d="M118.364 75.8775C118.364 75.8775 118.843 77.9999 116.773 83.4657C116.773 83.4657 115.286 81.9136 113.542 83.4657C111.799 85.0178 108.259 84.4997 107.051 85.3385C105.843 86.1772 105.843 88.0959 105.843 88.0959C105.843 88.0959 104.797 85.7082 105.843 82.8432C105.843 82.8432 103.491 85.8263 103.803 89.5112C103.803 89.5112 100.613 88.9973 100.758 83.7456C100.903 78.495 108.383 70.0012 116.773 70.5516C125.164 71.1021 127.161 84.3598 127.161 84.3598C127.161 84.3598 126.396 83.7582 125.199 84.0255C125.199 84.0255 125.014 81.218 123.127 77.6823C123.127 77.6823 123.997 80.234 123.127 82.9884C123.127 82.9884 120.79 81.7653 118.947 82.1476C118.947 82.1476 120.085 79.927 118.364 75.8775Z" fill="#0E3944"/>
<path fill-rule="evenodd" clip-rule="evenodd" d="M92.7103 107.921C96.7937 104.709 99.9738 108.795 100.754 114.446C101.532 120.098 94.1485 153.438 88.4542 152.208C86.256 151.734 85.3599 143 85.3599 143C85.3599 143 87.5864 133.627 89.0278 119.518C89.6904 113.034 90.5812 109.596 92.7103 107.921Z" fill="#FF8B66"/>
<path fill-rule="evenodd" clip-rule="evenodd" d="M80.829 147.497C75.3314 142.268 65.4741 124.924 62.9692 116.089L67.1426 114.413C67.1426 114.413 79.7058 132.347 85.4327 136.87C91.1595 141.391 93.1735 146.428 90.6162 150.741C88.058 155.053 81.9857 148.596 80.829 147.497Z" fill="#FF8B66"/>
<path fill-rule="evenodd" clip-rule="evenodd" d="M64.6834 104.519C64.3955 110.19 69.0285 111.535 66.9726 115.888C66.5487 116.787 65.9039 117.265 65.2319 117.502C63.96 117.951 62.5448 117.527 61.5954 116.569C59.3941 114.349 55.989 111.995 54.177 110.963C52.117 109.778 53.2841 109.454 53.2841 109.454C53.0842 109.36 52.8895 109.283 52.6958 109.203C51.2262 108.589 50.0507 108.357 51.1173 107.705C52.3159 106.961 56.5689 108.511 56.5689 108.511C51.0336 104.833 49.5315 105.729 50.5427 104.948C51.9212 103.879 57.1823 106.339 57.3403 106.412C54.4167 103.654 52.296 103.029 53.4558 102.613C54.6313 102.191 60.4168 106.372 62.5281 107.942C63.0044 108.294 63.2954 108.52 63.2954 108.52C63.2231 103.884 64.6834 104.519 64.6834 104.519Z" fill="#FF8B66"/>
<path fill-rule="evenodd" clip-rule="evenodd" d="M62.5285 107.941C63.0047 108.293 63.2957 108.52 63.2957 108.52C63.2957 108.52 62.3055 110.183 63.5878 112.337C63.5878 112.337 61.2336 110.794 62.5285 107.941Z" fill="#EF6E4B"/>
<path fill-rule="evenodd" clip-rule="evenodd" d="M57.6765 111.198C57.1867 110.93 54.3949 109.361 53.2843 109.454C53.0844 109.36 52.8897 109.283 52.696 109.203C53.4424 108.221 57.1207 110.796 57.6765 111.198Z" fill="#EF6E4B"/>
<path fill-rule="evenodd" clip-rule="evenodd" d="M79.6208 195.358C79.6208 195.975 79.1204 196.473 78.5039 196.473C77.8863 196.473 77.3859 195.975 77.3859 195.358C77.3859 194.742 77.8863 194.244 78.5039 194.244C79.1204 194.244 79.6208 194.742 79.6208 195.358Z" fill="#6097B2"/>
<path fill-rule="evenodd" clip-rule="evenodd" d="M99.5511 203.031C99.5511 203.646 99.0507 204.145 98.4342 204.145C97.8166 204.145 97.3162 203.646 97.3162 203.031C97.3162 202.415 97.8166 201.917 98.4342 201.917C99.0507 201.917 99.5511 202.415 99.5511 203.031Z" fill="#6097B2"/>
<path fill-rule="evenodd" clip-rule="evenodd" d="M116.534 207.145C116.534 207.761 116.033 208.259 115.417 208.259C114.799 208.259 114.299 207.761 114.299 207.145C114.299 206.528 114.799 206.03 115.417 206.03C116.033 206.03 116.534 206.528 116.534 207.145Z" fill="#6097B2"/>
<path fill-rule="evenodd" clip-rule="evenodd" d="M90.44 180.803C90.44 181.419 89.9396 181.917 89.3231 181.917C88.7055 181.917 88.2051 181.419 88.2051 180.803C88.2051 180.187 88.7055 179.688 89.3231 179.688C89.9396 179.688 90.44 180.187 90.44 180.803Z" fill="#6097B2"/>
<path fill-rule="evenodd" clip-rule="evenodd" d="M94.2023 191.395C94.2023 192.011 93.702 192.509 93.0844 192.509C92.4678 192.509 91.9675 192.011 91.9675 191.395C91.9675 190.779 92.4678 190.28 93.0844 190.28C93.702 190.28 94.2023 190.779 94.2023 191.395Z" fill="#6097B2"/>
<path fill-rule="evenodd" clip-rule="evenodd" d="M111.874 197.433C111.874 198.048 111.374 198.547 110.757 198.547C110.14 198.547 109.639 198.048 109.639 197.433C109.639 196.817 110.14 196.319 110.757 196.319C111.374 196.319 111.874 196.817 111.874 197.433Z" fill="#6097B2"/>
<path fill-rule="evenodd" clip-rule="evenodd" d="M114.299 179.161C114.299 179.777 113.799 180.275 113.182 180.275C112.565 180.275 112.064 179.777 112.064 179.161C112.064 178.544 112.565 178.046 113.182 178.046C113.799 178.046 114.299 178.544 114.299 179.161Z" fill="#6097B2"/>
<path fill-rule="evenodd" clip-rule="evenodd" d="M102.72 175.358C102.72 175.974 102.22 176.473 101.603 176.473C100.985 176.473 100.485 175.974 100.485 175.358C100.485 174.742 100.985 174.244 101.603 174.244C102.22 174.244 102.72 174.742 102.72 175.358Z" fill="#6097B2"/>
<path fill-rule="evenodd" clip-rule="evenodd" d="M69.7353 217.104C69.7353 217.72 69.2349 218.218 68.6184 218.218C68.0008 218.218 67.5004 217.72 67.5004 217.104C67.5004 216.488 68.0008 215.99 68.6184 215.99C69.2349 215.99 69.7353 216.488 69.7353 217.104Z" fill="#6097B2"/>
<path fill-rule="evenodd" clip-rule="evenodd" d="M53.8131 212.364C53.8131 212.98 53.3128 213.478 52.6962 213.478C52.0787 213.478 51.5783 212.98 51.5783 212.364C51.5783 211.748 52.0787 211.25 52.6962 211.25C53.3128 211.25 53.8131 211.748 53.8131 212.364Z" fill="#6097B2"/>
<path fill-rule="evenodd" clip-rule="evenodd" d="M44.3227 203.648C44.1259 203.95 43.7773 204.147 43.3817 204.147C42.7662 204.147 42.2658 203.648 42.2658 203.034C42.2658 202.894 42.2888 202.767 42.3475 202.652C43.0446 202.894 43.6957 203.231 44.3227 203.648Z" fill="#6097B2"/>
<path fill-rule="evenodd" clip-rule="evenodd" d="M75.4398 231.642C75.4398 232.259 74.9394 232.757 74.3229 232.757C73.7053 232.757 73.205 232.259 73.205 231.642C73.205 231.026 73.7053 230.528 74.3229 230.528C74.9394 230.528 75.4398 231.026 75.4398 231.642Z" fill="#6097B2"/>
<path fill-rule="evenodd" clip-rule="evenodd" d="M46.8639 247.442C46.8639 248.058 46.3636 248.557 45.747 248.557C45.1294 248.557 44.6291 248.058 44.6291 247.442C44.6291 246.827 45.1294 246.328 45.747 246.328C46.3636 246.328 46.8639 246.827 46.8639 247.442Z" fill="#6097B2"/>
<path fill-rule="evenodd" clip-rule="evenodd" d="M58.5382 237.865C58.5382 238.481 58.0378 238.98 57.4202 238.98C56.8037 238.98 56.3033 238.481 56.3033 237.865C56.3033 237.249 56.8037 236.751 57.4202 236.751C58.0378 236.751 58.5382 237.249 58.5382 237.865Z" fill="#6097B2"/>
<path fill-rule="evenodd" clip-rule="evenodd" d="M41.1518 229.391C41.1518 230.007 40.6514 230.506 40.0349 230.506C39.4173 230.506 38.9169 230.007 38.9169 229.391C38.9169 228.775 39.4173 228.277 40.0349 228.277C40.6514 228.277 41.1518 228.775 41.1518 229.391Z" fill="#6097B2"/>
<path fill-rule="evenodd" clip-rule="evenodd" d="M55.1864 262.76C55.1864 263.376 54.686 263.874 54.0695 263.874C53.4519 263.874 52.9515 263.376 52.9515 262.76C52.9515 262.143 53.4519 261.645 54.0695 261.645C54.686 261.645 55.1864 262.143 55.1864 262.76Z" fill="#6097B2"/>
<path fill-rule="evenodd" clip-rule="evenodd" d="M65.8227 204.146C65.8227 204.761 65.3223 205.26 64.7058 205.26C64.0882 205.26 63.5878 204.761 63.5878 204.146C63.5878 203.53 64.0882 203.031 64.7058 203.031C65.3223 203.031 65.8227 203.53 65.8227 204.146Z" fill="#6097B2"/>
<path fill-rule="evenodd" clip-rule="evenodd" d="M76.5571 185.371C76.5571 185.987 76.0567 186.486 75.4402 186.486C74.8226 186.486 74.3223 185.987 74.3223 185.371C74.3223 184.755 74.8226 184.257 75.4402 184.257C76.0567 184.257 76.5571 184.755 76.5571 185.371Z" fill="#6097B2"/>
<path fill-rule="evenodd" clip-rule="evenodd" d="M88.7043 169.746C88.7043 170.362 88.2039 170.861 87.5874 170.861C86.9698 170.861 86.4694 170.362 86.4694 169.746C86.4694 169.13 86.9698 168.632 87.5874 168.632C88.2039 168.632 88.7043 169.13 88.7043 169.746Z" fill="#6097B2"/>
<path fill-rule="evenodd" clip-rule="evenodd" d="M64.0869 192.51C64.0869 193.126 63.5866 193.624 62.9701 193.624C62.3525 193.624 61.8521 193.126 61.8521 192.51C61.8521 191.894 62.3525 191.395 62.9701 191.395C63.5866 191.395 64.0869 191.894 64.0869 192.51Z" fill="#6097B2"/>
<path fill-rule="evenodd" clip-rule="evenodd" d="M77.6745 174.243C77.6745 174.86 77.1741 175.358 76.5576 175.358C75.94 175.358 75.4396 174.86 75.4396 174.243C75.4396 173.627 75.94 173.129 76.5576 173.129C77.1741 173.129 77.6745 173.627 77.6745 174.243Z" fill="#6097B2"/>
<path fill-rule="evenodd" clip-rule="evenodd" d="M56.3032 224.439C56.3032 225.055 55.8028 225.553 55.1863 225.553C54.5687 225.553 54.0694 225.055 54.0694 224.439C54.0694 223.824 54.5687 223.324 55.1863 223.324C55.8028 223.324 56.3032 223.824 56.3032 224.439Z" fill="#6097B2"/>
<path fill-rule="evenodd" clip-rule="evenodd" d="M42.269 214.594C42.269 215.21 41.7687 215.708 41.1521 215.708C40.5345 215.708 40.0342 215.21 40.0342 214.594C40.0342 213.978 40.5345 213.479 41.1521 213.479C41.7687 213.479 42.269 213.978 42.269 214.594Z" fill="#6097B2"/>
<path fill-rule="evenodd" clip-rule="evenodd" d="M82.9726 211.249C82.9726 211.865 82.4722 212.364 81.8557 212.364C81.2381 212.364 80.7377 211.865 80.7377 211.249C80.7377 210.633 81.2381 210.135 81.8557 210.135C82.4722 210.135 82.9726 210.633 82.9726 211.249Z" fill="#6097B2"/>
<path fill-rule="evenodd" clip-rule="evenodd" d="M106.072 217.104C106.072 217.72 105.572 218.218 104.955 218.218C104.337 218.218 103.837 217.72 103.837 217.104C103.837 216.488 104.337 215.99 104.955 215.99C105.572 215.99 106.072 216.488 106.072 217.104Z" fill="#6097B2"/>
<path fill-rule="evenodd" clip-rule="evenodd" d="M104.955 185.371C104.955 185.987 104.454 186.486 103.838 186.486C103.22 186.486 102.72 185.987 102.72 185.371C102.72 184.755 103.22 184.257 103.838 184.257C104.454 184.257 104.955 184.755 104.955 185.371Z" fill="#6097B2"/>
<path fill-rule="evenodd" clip-rule="evenodd" d="M118.383 187.708C118.383 188.325 117.883 188.823 117.266 188.823C116.649 188.823 116.148 188.325 116.148 187.708C116.148 187.093 116.649 186.594 117.266 186.594C117.883 186.594 118.383 187.093 118.383 187.708Z" fill="#6097B2"/>
<path fill-rule="evenodd" clip-rule="evenodd" d="M91.5568 225.554C91.5568 226.17 91.0564 226.668 90.4399 226.668C89.8223 226.668 89.323 226.17 89.323 225.554C89.323 224.939 89.8223 224.439 90.4399 224.439C91.0564 224.439 91.5568 224.939 91.5568 225.554Z" fill="#6097B2"/>
<path fill-rule="evenodd" clip-rule="evenodd" d="M81.8553 245.385C81.8553 246.001 81.355 246.499 80.7384 246.499C80.1208 246.499 79.6205 246.001 79.6205 245.385C79.6205 244.769 80.1208 244.271 80.7384 244.271C81.355 244.271 81.8553 244.769 81.8553 245.385Z" fill="#6097B2"/>
<path fill-rule="evenodd" clip-rule="evenodd" d="M64.7054 248.557C64.7054 249.173 64.2051 249.672 63.5885 249.672C62.9709 249.672 62.4706 249.173 62.4706 248.557C62.4706 247.942 62.9709 247.443 63.5885 247.443C64.2051 247.443 64.7054 247.942 64.7054 248.557Z" fill="#6097B2"/>
<path fill-rule="evenodd" clip-rule="evenodd" d="M111.874 231.642C111.874 232.259 111.374 232.757 110.757 232.757C110.14 232.757 109.639 232.259 109.639 231.642C109.639 231.026 110.14 230.528 110.757 230.528C111.374 230.528 111.874 231.026 111.874 231.642Z" fill="#6097B2"/>
<path fill-rule="evenodd" clip-rule="evenodd" d="M96.4364 240.095C96.4364 240.71 95.936 241.21 95.3195 241.21C94.7019 241.21 94.2026 240.71 94.2026 240.095C94.2026 239.479 94.7019 238.981 95.3195 238.981C95.936 238.981 96.4364 239.479 96.4364 240.095Z" fill="#6097B2"/>
<path fill-rule="evenodd" clip-rule="evenodd" d="M73.2047 264.989C73.2047 265.606 72.7044 266.104 72.0878 266.104C71.4703 266.104 70.9709 265.606 70.9709 264.989C70.9709 264.373 71.4703 263.875 72.0878 263.875C72.7044 263.875 73.2047 264.373 73.2047 264.989Z" fill="#6097B2"/>
<path fill-rule="evenodd" clip-rule="evenodd" d="M90.44 259.185C90.44 259.8 89.9396 260.299 89.3231 260.299C88.7055 260.299 88.2051 259.8 88.2051 259.185C88.2051 258.568 88.7055 258.07 89.3231 258.07C89.9396 258.07 90.44 258.568 90.44 259.185Z" fill="#6097B2"/>
<path fill-rule="evenodd" clip-rule="evenodd" d="M107.043 252.617C107.043 253.232 106.543 253.731 105.925 253.731C105.309 253.731 104.808 253.232 104.808 252.617C104.808 252.001 105.309 251.502 105.925 251.502C106.543 251.502 107.043 252.001 107.043 252.617Z" fill="#6097B2"/>
<path fill-rule="evenodd" clip-rule="evenodd" d="M99.5511 271.795C99.5511 272.411 99.0507 272.909 98.4342 272.909C97.8166 272.909 97.3162 272.411 97.3162 271.795C97.3162 271.18 97.8166 270.681 98.4342 270.681C99.0507 270.681 99.5511 271.18 99.5511 271.795Z" fill="#6097B2"/>
<path fill-rule="evenodd" clip-rule="evenodd" d="M98.3289 330.503H79.9782C78.7817 327.092 80.9893 323.673 80.6177 320.669C79.9782 315.589 82.9415 318.396 82.9415 318.396C83.4649 312.934 91.1586 311.901 91.077 314.337C90.9493 317.921 91.6464 320.135 92.6691 321.619C94.7375 324.6 98.1321 324.576 98.7131 326.71C98.7707 326.919 98.8167 327.129 98.8523 327.314C99.4207 329.98 98.3289 330.503 98.3289 330.503Z" fill="#164353"/>
<path fill-rule="evenodd" clip-rule="evenodd" d="M98.8519 327.314C95.0522 328.196 86.2887 327.047 85.9401 324.844C85.6031 322.71 90.3219 321.713 92.6697 321.62C94.7381 324.6 98.1317 324.577 98.7127 326.71C98.7703 326.919 98.8174 327.128 98.8519 327.314Z" fill="#205260"/>
<path fill-rule="evenodd" clip-rule="evenodd" d="M22.8927 188.666C20.9405 186.892 17.7677 189.825 17.7677 189.825C17.7677 189.825 19.4761 192.353 18.3717 193.374C17.2674 194.394 15.9893 192.064 13.8162 193.083C13.6414 193.166 13.4551 193.269 13.2813 193.386C11.5845 194.394 9.8176 196.517 8.38877 198.129C8.09777 198.453 7.81933 198.755 7.56287 199.021C5.90166 200.76 1.61308 201.782 0.811259 197.142C0.00944006 192.505 5.23906 187.066 10.9805 182.068C16.721 177.069 20.4286 180.038 20.4286 180.038C20.4286 180.038 21.7308 182.137 21.7308 183.448C21.7308 184.746 22.8927 185.395 23.5438 186.637C24.1938 187.865 22.8927 188.666 22.8927 188.666Z" fill="#164353"/>
<path fill-rule="evenodd" clip-rule="evenodd" d="M13.2812 193.386C11.5844 194.395 9.81746 196.516 8.38863 198.129C6.23858 198.638 4.3094 198.488 4.00688 196.47C3.2752 191.6 13.0143 185.407 12.2355 188.828C11.8408 190.544 12.5139 192.179 13.2812 193.386Z" fill="#205260"/>
<path fill-rule="evenodd" clip-rule="evenodd" d="M353.093 322.585C352.189 322.11 351.355 321.068 350.605 319.75C350.605 319.749 349.96 315.851 350.605 311.755C351.25 307.659 349.463 304.314 343.652 303.058C338.003 301.837 334.651 304.552 335.956 315.885C335.956 315.886 335.957 315.887 335.957 315.889C335.097 320.597 334.919 325.973 336.88 330.503H354.269C354.269 330.503 357.01 324.638 353.093 322.585Z" fill="#CFD8DC"/>
<path fill-rule="evenodd" clip-rule="evenodd" d="M368.348 261.503C368.348 261.503 368.348 272.81 361.956 284.407C355.448 296.215 347.4 312.422 347.4 312.422C347.4 312.422 342.039 317.641 338.633 308.997C338.633 308.997 341.037 278.898 346.558 267.881C352.078 256.865 368.348 261.503 368.348 261.503Z" fill="#FF8B66"/>
<path fill-rule="evenodd" clip-rule="evenodd" d="M451.734 224.685C451.734 224.685 462.092 268.145 468.679 279.61C468.679 279.61 467.163 284.407 460.031 285.855C460.031 285.855 437.497 252.807 436.045 238.891C434.592 224.974 451.734 224.685 451.734 224.685Z" fill="#FF8B66"/>
<path fill-rule="evenodd" clip-rule="evenodd" d="M456.743 234.901C453.989 241.522 432.709 241.883 432.709 241.883L431.082 239.493L430.653 238.867L427.328 233.973C427.328 233.973 392.068 199.462 385.199 202.361H385.189C384.991 202.454 384.794 202.559 384.608 202.698C379.889 206.061 379.447 224.487 373.869 255.416C373.334 258.349 372.149 261.771 371.254 264.136C371.148 264.39 371.056 264.635 370.963 264.866C370.451 266.177 370.092 267.012 370.092 267.012C348.568 275.709 341.467 258.522 341.467 258.522C341.467 258.522 341.723 258.025 342.096 257.224C342.176 257.051 342.269 256.853 342.362 256.644C343.49 254.163 345.29 249.861 345.268 247.588C345.244 245.095 345.221 242.694 345.21 240.386C345.21 240.178 345.21 239.98 345.197 239.783C345.163 232.351 345.175 225.89 345.221 220.277V219.687C345.244 217.24 345.28 214.955 345.326 212.821V212.218C345.511 202.443 345.825 195.914 346.162 191.565C346.174 191.367 346.198 191.159 346.208 190.973C346.802 183.656 347.429 182.937 347.429 182.937L343.117 153.03H390.163C390.163 153.03 397.228 160.092 406.398 169.416C406.596 169.601 406.782 169.787 406.968 169.984C410.291 173.358 413.882 177.023 417.485 180.745C417.636 180.896 417.775 181.036 417.904 181.175C419.321 182.636 420.739 184.096 422.145 185.546C422.319 185.72 422.483 185.906 422.657 186.08C427.375 190.963 431.954 195.775 435.871 199.984C436.01 200.123 436.138 200.263 436.266 200.402C441.624 206.188 445.703 210.814 447.109 212.972C450.839 218.666 453.745 226.076 455.349 230.658V230.668C455.429 230.877 455.501 231.063 455.57 231.26C456.325 233.487 456.743 234.901 456.743 234.901Z" fill="#8B383E"/>
<path fill-rule="evenodd" clip-rule="evenodd" d="M354.472 187.414C352.555 189.675 349.765 191.066 346.163 191.565C346.174 191.367 346.198 191.159 346.208 190.973C349.603 190.485 352.229 189.164 354.031 187.03C357.261 183.226 356.739 178.089 356.726 178.042L357.308 177.973C357.331 178.194 357.865 183.412 354.472 187.414Z" fill="#662C33"/>
<path fill-rule="evenodd" clip-rule="evenodd" d="M406.968 169.984C406.781 169.995 406.607 170.007 406.421 170.007C401.191 170.007 395.73 164.302 395.45 164.011L395.868 163.606C395.938 163.686 401.377 169.369 406.398 169.415C406.596 169.601 406.781 169.787 406.968 169.984Z" fill="#662C33"/>
<path fill-rule="evenodd" clip-rule="evenodd" d="M371.254 264.136C371.148 264.391 371.056 264.635 370.963 264.866C367.477 266.142 364.281 266.665 361.364 266.665C352.066 266.665 345.628 261.295 342.096 257.224C342.176 257.051 342.269 256.853 342.361 256.645C346.883 261.933 356.541 269.736 371.254 264.136Z" fill="#662C33"/>
<path fill-rule="evenodd" clip-rule="evenodd" d="M383.887 191.588C384.665 194.916 385.165 198.546 385.188 202.36C384.991 202.453 384.793 202.559 384.607 202.698C384.584 185.187 374.426 171.526 374.311 171.375L374.775 171.027C374.868 171.144 380.889 179.26 383.735 190.985C384.921 190.209 385.723 189.094 386.06 187.656C387.524 181.511 380.865 171.468 380.807 171.364L381.284 171.039C381.562 171.468 388.14 181.394 386.629 187.784C386.234 189.455 385.304 190.719 383.887 191.588Z" fill="#662C33"/>
<path fill-rule="evenodd" clip-rule="evenodd" d="M436.266 200.401C434.534 202.28 432.907 203.88 432.755 204.019L432.443 204.333L432.291 203.915C430.012 197.965 415.369 185.07 415.22 184.943L415.045 184.781L417.486 180.746C417.636 180.895 417.776 181.035 417.904 181.174L415.858 184.56C418.705 185.545 420.728 185.72 422.145 185.545C422.32 185.72 422.482 185.906 422.657 186.079C422.181 186.161 421.669 186.207 421.134 186.207C419.821 186.207 418.321 185.94 416.637 185.431C419.96 188.422 430.292 197.978 432.664 203.3C433.582 202.395 434.744 201.201 435.87 199.984C436.01 200.122 436.138 200.262 436.266 200.401Z" fill="#662C33"/>
<path fill-rule="evenodd" clip-rule="evenodd" d="M355.914 240.282L355.68 240.328C355.459 240.386 352.821 240.932 349.788 240.932C348.266 240.932 346.662 240.792 345.209 240.386C345.209 240.177 345.209 239.98 345.198 239.783C349.033 240.885 354.158 240.039 355.321 239.818L354.344 215.685C353.798 217.007 352.717 218.817 350.695 219.814C349.73 220.301 348.65 220.534 347.464 220.534C346.755 220.534 346.011 220.452 345.221 220.278V219.687C347.232 220.15 348.975 220.023 350.427 219.292C352.892 218.074 353.868 215.465 354.17 214.433C352.229 214.723 348.312 213.737 345.326 212.821V212.219C348.545 213.192 352.903 214.318 354.472 213.772L354.845 213.644L355.914 240.282Z" fill="#662C33"/>
<path fill-rule="evenodd" clip-rule="evenodd" d="M455.57 231.26C452.187 234.589 445.26 239.679 434.604 239.679C433.477 239.679 432.302 239.621 431.082 239.493L430.652 238.867C443.61 240.351 451.734 234.286 455.349 230.669C455.429 230.877 455.5 231.063 455.57 231.26Z" fill="#662C33"/>
<path fill-rule="evenodd" clip-rule="evenodd" d="M398.855 25.8765C398.855 25.8765 397.563 22.906 392.101 22.9049C387.891 22.9039 386.281 25.2237 386.281 25.2237C383.762 32.5685 381.056 60.6904 380.087 61.6911C379.597 62.1987 348.374 83.1804 348.374 83.1804C365.318 83.4969 375.889 104.337 375.889 104.337C376.437 97.4889 395.571 70.352 395.777 67.9329C396.164 63.3685 404.259 42.9811 398.855 25.8765Z" fill="#CE364C"/>
<path fill-rule="evenodd" clip-rule="evenodd" d="M344.654 172.914C344.654 172.914 344.498 178.781 346.399 179.167C348.301 179.554 363.796 184.123 381.617 176.041C399.437 167.958 402.536 161.967 397.306 157.521C392.076 153.076 344.654 172.914 344.654 172.914Z" fill="#CE364C"/>
<path fill-rule="evenodd" clip-rule="evenodd" d="M337.515 87.2403C337.515 87.2403 321.301 85.3237 312.004 89.3387C312.004 89.3387 309.41 100.819 322.184 126.513C334.957 152.207 331.994 168.388 346.398 174.479C359.169 179.879 396.821 163.81 398.004 158.48C400.982 145.061 377.957 121.513 376.504 107.869C375.051 94.2238 361.686 73.709 337.515 87.2403Z" fill="#F24052"/>
<path fill-rule="evenodd" clip-rule="evenodd" d="M312.004 89.3389C300.673 93.354 287.925 106.049 287.906 112.167C287.889 118.286 298.538 120.645 298.538 120.645L315.999 112.167C315.999 112.167 320.994 108.687 317.814 98.5461C314.635 88.4041 312.004 89.3389 312.004 89.3389Z" fill="#CE364C"/>
<path fill-rule="evenodd" clip-rule="evenodd" d="M358.562 100.652C355.177 100.652 350.977 99.4356 348.368 97.5806C346.931 96.558 346.071 95.4038 345.887 94.2445C345.246 90.2284 349.165 88.1864 349.334 88.1018L349.86 89.1338C349.725 89.2048 346.53 90.8854 347.035 94.0617C347.169 94.9077 347.863 95.7976 349.042 96.6353C351.963 98.7138 357.015 99.9328 360.306 99.3541C361.788 99.093 362.759 98.5613 363.189 97.7738C363.715 96.8097 363.266 95.7182 363.261 95.7078L364.33 95.2493C364.358 95.3151 365.007 96.8494 364.217 98.3138C363.612 99.4345 362.364 100.169 360.508 100.496C359.906 100.601 359.251 100.652 358.562 100.652Z" fill="#CFD8DC"/>
<path fill-rule="evenodd" clip-rule="evenodd" d="M344.193 112.889C341.685 112.889 337.523 111.845 336.939 107.738C336.641 105.647 336.834 103.905 337.001 102.367C337.25 100.103 337.446 98.3137 336.124 96.1704C333.941 92.6327 330.968 92.3945 330.842 92.3862L330.912 91.2289C331.061 91.2372 334.598 91.4869 337.113 95.5625C338.645 98.0452 338.408 100.205 338.156 102.494C337.988 104.034 337.813 105.628 338.09 107.575C338.719 112.006 344.381 111.729 344.62 111.717L344.69 112.874C344.533 112.883 344.366 112.889 344.193 112.889Z" fill="#CFD8DC"/>
<path fill-rule="evenodd" clip-rule="evenodd" d="M347.719 92.0757C347.719 92.0757 356.29 86.2506 354.256 79.945C352.224 73.6405 324.622 74.075 317.504 81.612C310.385 89.1501 332.902 94.1532 332.902 94.1532C334.645 90.6479 345.783 90.2615 347.719 92.0757Z" fill="#CE364C"/>
<path fill-rule="evenodd" clip-rule="evenodd" d="M332.31 91.0893C328.243 89.7116 325.833 86.7819 326.704 83.3998C327.576 80.0177 345.06 79.9279 348.375 82.63C351.691 85.3331 347.021 96.0726 332.31 91.0893Z" fill="#A02E44"/>
<path fill-rule="evenodd" clip-rule="evenodd" d="M330.374 81.583C330.374 81.583 333.972 87.7173 332.311 91.0899C332.311 91.0899 344.654 95.342 344.654 88.4505C344.654 88.4505 342.327 83.2844 343.204 79.9452L330.374 81.583Z" fill="#EF6E4B"/>
<path fill-rule="evenodd" clip-rule="evenodd" d="M326.258 76.2262C326.258 76.2262 320.193 66.5344 320.755 57.276C321.038 52.6468 323.423 50.8336 323.423 50.8336C323.423 50.8336 321.496 48.1618 323.561 44.0789C323.561 44.0789 326.417 47.3774 336.443 46.336C346.111 45.3333 347.075 52.2102 347.075 52.2102C353.984 53.2349 349.324 74.0944 344.502 76.2262H326.258Z" fill="#FFB878"/>
<path fill-rule="evenodd" clip-rule="evenodd" d="M323.685 67.2766C323.685 67.2766 320.199 63.8058 319.77 67.8636C319.273 72.5638 323.552 74.4575 324.388 72.9628C325.225 71.4671 323.685 67.2766 323.685 67.2766Z" fill="#FF8B66"/>
<path fill-rule="evenodd" clip-rule="evenodd" d="M348.095 67.5215C348.095 67.5215 351.58 64.0507 352.009 68.1085C352.507 72.8087 348.228 74.7024 347.391 73.2077C346.555 71.712 348.095 67.5215 348.095 67.5215Z" fill="#FF8B66"/>
<path fill-rule="evenodd" clip-rule="evenodd" d="M335.523 84.3047C327.788 84.3047 323.423 79.2629 323.423 64.1439C323.423 56.3447 327.399 51.5609 336.063 51.5609C344.726 51.5609 348.374 56.3436 348.374 64.1439C348.374 80.3899 343.513 84.3047 335.523 84.3047Z" fill="#FF8B66"/>
<path fill-rule="evenodd" clip-rule="evenodd" d="M345.814 69.536C345.949 70.312 345.271 71.0787 344.299 71.2469C343.327 71.4161 342.429 70.9252 342.294 70.1491C342.158 69.373 342.835 68.6074 343.807 68.4382C344.78 68.269 345.678 68.761 345.814 69.536Z" fill="#DB614D"/>
<path fill-rule="evenodd" clip-rule="evenodd" d="M329.905 69.9587C329.854 70.7442 329.013 71.3291 328.028 71.2654C327.044 71.2017 326.288 70.5123 326.339 69.7268C326.39 68.9403 327.23 68.3554 328.215 68.4202C329.2 68.4839 329.956 69.1733 329.905 69.9587Z" fill="#DB614D"/>
<path fill-rule="evenodd" clip-rule="evenodd" d="M342.408 61.4295C342.306 61.4451 342.201 61.4211 342.114 61.3543C340.882 60.41 339.034 60.7443 339.006 60.7484C338.801 60.7819 338.595 60.6503 338.556 60.4403C338.515 60.2314 338.654 60.0298 338.864 59.9901C338.944 59.9724 341.082 59.5901 342.584 60.7432C342.752 60.8727 342.785 61.1151 342.655 61.2832C342.593 61.3647 342.502 61.4148 342.408 61.4295Z" fill="#FFB878"/>
<path fill-rule="evenodd" clip-rule="evenodd" d="M327.604 61.4834C327.509 61.472 327.419 61.425 327.354 61.3456C327.218 61.1795 327.242 60.9372 327.407 60.8024C328.873 59.6044 331.017 59.9219 331.101 59.9366C331.312 59.9689 331.456 60.1653 331.423 60.3752C331.39 60.5873 331.185 60.7262 330.982 60.698C330.968 60.6938 329.086 60.4254 327.897 61.3988C327.81 61.4688 327.706 61.496 327.604 61.4834Z" fill="#FFB878"/>
<path fill-rule="evenodd" clip-rule="evenodd" d="M341.608 65.786C341.608 66.7438 341.175 67.5219 340.641 67.5219C340.108 67.5219 339.675 66.7438 339.675 65.786C339.675 64.8282 340.108 64.05 340.641 64.05C341.175 64.05 341.608 64.8272 341.608 65.786Z" fill="#1A4850"/>
<path fill-rule="evenodd" clip-rule="evenodd" d="M331.279 65.786C331.279 66.7438 330.847 67.5219 330.313 67.5219C329.779 67.5219 329.346 66.7438 329.346 65.786C329.346 64.8282 329.779 64.05 330.313 64.05C330.847 64.05 331.279 64.8282 331.279 65.786Z" fill="#1A4850"/>
<path fill-rule="evenodd" clip-rule="evenodd" d="M325.796 53.2352C325.796 53.2352 334.038 56.2465 345.856 55.3994C345.856 55.3994 348.374 58.5339 348.069 69.5909C348.069 69.5909 354.99 49.6725 334.79 49.6725C314.588 49.6725 323.689 69.1491 323.689 69.1491C323.689 69.1491 322.038 56.9672 325.796 53.2352Z" fill="#FFB878"/>
<path fill-rule="evenodd" clip-rule="evenodd" d="M336.012 70.9401L335.433 70.3573L336.962 68.8407C335.479 66.7486 335.487 61.9043 335.488 61.6891L336.31 61.6933C336.31 61.7455 336.302 66.9565 337.816 68.5942L338.084 68.8846L336.012 70.9401Z" fill="#DB614D"/>
<path fill-rule="evenodd" clip-rule="evenodd" d="M330.878 73.4642C330.878 73.4642 338.49 73.7849 342.334 72.7697C342.334 72.7697 343.014 78.294 337.114 78.5687C330.878 78.859 330.878 73.4642 330.878 73.4642Z" fill="#1A4850"/>
<path fill-rule="evenodd" clip-rule="evenodd" d="M363.409 94.3479C364.863 94.0784 364.717 97.872 363.409 96.7721C362.102 95.6733 361.956 94.6173 363.409 94.3479Z" fill="#CFD8DC"/>
<path fill-rule="evenodd" clip-rule="evenodd" d="M345.891 112.73C345.669 114.188 342.124 112.807 343.595 111.935C345.064 111.063 346.111 111.272 345.891 112.73Z" fill="#CFD8DC"/>
<path fill-rule="evenodd" clip-rule="evenodd" d="M330.297 120.645C330.297 120.645 327.99 126.547 328.121 129.883C328.253 133.217 329.346 132.782 329.346 132.782C329.346 132.782 327.597 133.469 327.265 135.391C326.934 137.313 331.799 138.725 332.133 138.725C332.467 138.725 335.9 137.421 335.9 137.421L336.618 126.513L333.58 124.609L330.297 120.645Z" fill="#EF6E4B"/>
<path fill-rule="evenodd" clip-rule="evenodd" d="M332.132 119.881C332.132 119.881 336.332 122.49 337.958 124.085C339.584 125.679 338.655 138 337.958 138.58C337.259 139.16 331.905 140.356 330.878 139.685C329.851 139.015 331.279 135.391 331.279 135.391C331.279 135.391 333.967 134.812 333.58 135.826C333.193 136.841 333.58 137.71 333.58 137.71L334.684 137.276C334.684 137.276 334.142 134.521 334.684 132.492C335.227 130.462 330.898 128.322 330.374 124.609C329.851 120.896 332.132 119.881 332.132 119.881Z" fill="#FF8B66"/>
<path fill-rule="evenodd" clip-rule="evenodd" d="M288.604 113.878C287.26 108.084 293.022 106.034 301.04 107.022C310.337 108.168 329.43 110.594 333.58 120.645C333.58 120.645 334.936 124.609 331.427 126.513C321.62 131.835 291.129 124.76 288.604 113.878Z" fill="#CE364C"/>
<path fill-rule="evenodd" clip-rule="evenodd" d="M317.688 110.039C317.688 110.039 306.607 105.446 301.088 104.98C295.567 104.515 308.722 109.329 317.688 110.039Z" fill="#A02E44"/>
<path fill-rule="evenodd" clip-rule="evenodd" d="M400.749 10.4967C399.913 11.4472 398.53 15.1468 398.53 15.1468C397.948 18.2552 397.612 19.9713 396.52 21.3981C395.439 22.8238 396.009 25.34 396.009 25.34C396.009 25.34 391.778 27.5094 388.221 24.8303C388.221 24.8303 388.593 22.3371 388.221 21.6289C387.489 20.2147 385.142 19.4605 384.339 16.608C383.539 13.743 381.132 10.5542 381.132 10.5542C381.132 10.5542 381.818 9.06995 383.073 9.97447C384.339 10.8905 385.142 13.1748 385.827 13.4077C385.967 13.4537 386.106 13.4881 386.247 13.4996C386.247 13.4996 386.257 13.4996 386.281 13.5122C386.803 13.5811 387.337 13.4652 387.664 13.1518C387.687 13.1403 387.723 13.1173 387.745 13.0829C388.896 11.7491 389.163 7.82909 389.117 6.07852C389.047 3.64277 389.14 0.280551 390.627 0.848754C392.115 1.41696 390.755 2.77271 391.905 8.14244L392.463 8.21137C392.568 8.5947 393.591 4.95361 393.836 1.53185C394.009 -0.821388 395.554 0.0486734 395.891 0.790262C396.24 1.53185 395.717 3.87465 395.613 5.57926C395.531 6.70522 395.439 7.87609 395.381 8.57172L396.031 8.93103C398.379 4.84916 397.577 3.15604 398.948 3.07561C400.308 2.99309 399.82 6.43783 399.087 7.74866C398.773 8.31687 398.472 9.49923 398.228 10.6586C400.634 7.88758 400.366 6.43783 401.47 6.61226C402.609 6.79713 401.587 9.54519 400.749 10.4967Z" fill="#FF8B66"/>
<path fill-rule="evenodd" clip-rule="evenodd" d="M390.36 16.886C389.546 14.6477 386.641 13.6272 386.281 13.5123C386.804 13.5813 387.338 13.4653 387.664 13.152C390.511 14.4273 390.36 16.886 390.36 16.886Z" fill="#EF6E4B"/>
<path fill-rule="evenodd" clip-rule="evenodd" d="M339.875 313.493C339.875 313.493 338.267 310.219 339.701 308.813C341.134 307.405 342.821 310.014 345.271 309.434C347.719 308.855 348.288 307.118 348.924 309.484C349.559 311.85 348.786 319.291 339.875 313.493Z" fill="#CFD8DC"/>
<path fill-rule="evenodd" clip-rule="evenodd" d="M349.093 313.348C349.093 313.348 342.515 315.673 339.106 313.348L339.972 316.189C339.972 316.189 347.121 316.944 348.107 315.147L349.093 313.348Z" fill="#ADBEC4"/>
<path fill-rule="evenodd" clip-rule="evenodd" d="M349.004 316.878C349.004 316.878 342.982 316.044 340.078 317.536V318.946C340.078 318.946 347.929 317.117 350.466 318.946L349.004 316.878Z" fill="#ADBEC4"/>
<path fill-rule="evenodd" clip-rule="evenodd" d="M339.788 321.871C339.788 321.871 340.955 319.031 344.619 318.827C348.284 318.623 350.756 320.635 350.756 320.635C350.756 320.635 344.945 318.246 339.788 321.871Z" fill="#ADBEC4"/>
<mask id="mask0_3519_23424" style="mask-type:alpha" maskUnits="userSpaceOnUse" x="457" y="276" width="38" height="25">
<path fill-rule="evenodd" clip-rule="evenodd" d="M457.783 276.542H494.804V300.769H457.783V276.542Z" fill="white"/>
</mask>
<g mask="url(#mask0_3519_23424)">
<path fill-rule="evenodd" clip-rule="evenodd" d="M494.805 282.412C483.24 297.812 467.505 300.769 467.505 300.769C462.938 297.128 462.821 292.814 462.821 292.814C462.821 292.814 458.416 288.895 457.836 287.015C457.254 285.136 461.613 279.477 464.228 280.058C466.029 280.452 467.075 281.89 467.551 282.737C465.39 277.877 467.122 276.184 470.189 276.603C473.386 277.031 470.364 277.784 472.653 280.347C472.815 280.533 473.002 280.685 473.2 280.824C473.618 281.113 474.118 281.31 474.687 281.415C475.187 281.508 475.744 281.531 476.326 281.496C476.628 281.484 476.942 281.449 477.255 281.403C477.848 281.31 478.452 281.16 479.08 280.962C480.044 280.661 481.044 280.231 482.021 279.698C486.018 277.518 487.704 276.776 490.749 277.553C493.781 278.318 493.736 280.614 493.736 280.614L494.805 282.412Z" fill="#CFD8DC"/>
</g>
<mask id="mask1_3519_23424" style="mask-type:alpha" maskUnits="userSpaceOnUse" x="467" y="282" width="28" height="19">
<path fill-rule="evenodd" clip-rule="evenodd" d="M467.505 282.383H494.804V300.769H467.505V282.383Z" fill="white"/>
</mask>
<g mask="url(#mask1_3519_23424)">
<path fill-rule="evenodd" clip-rule="evenodd" d="M494.805 282.412C483.24 297.812 467.505 300.769 467.505 300.769C475.536 297.324 482.916 292.814 487.959 287.26C492.992 281.704 494.805 282.412 494.805 282.412Z" fill="#ADBEC4"/>
</g>
<path fill-rule="evenodd" clip-rule="evenodd" d="M473.2 280.823C473.618 281.112 474.118 281.311 474.687 281.414C471.631 282.028 471.41 284.755 471.41 284.755L470.108 284.337C470.386 281.066 472.979 280.835 473.2 280.823Z" fill="#ADBEC4"/>
<path fill-rule="evenodd" clip-rule="evenodd" d="M475.257 285.079L473.897 285.126C473.386 283.201 474.049 282.053 474.687 281.415C475.188 281.508 475.745 281.532 476.325 281.496C474.711 283.085 475.257 285.079 475.257 285.079Z" fill="#ADBEC4"/>
<path fill-rule="evenodd" clip-rule="evenodd" d="M478.616 284.337L477.268 284.511C476.744 283.142 476.895 282.122 477.255 281.403C477.848 281.311 478.452 281.16 479.079 280.962C477.965 282.62 478.616 284.337 478.616 284.337Z" fill="#ADBEC4"/>
<path fill-rule="evenodd" clip-rule="evenodd" d="M349.213 141.335C349.213 141.335 352.197 157.406 346.163 163.809C340.127 170.214 344.12 164.951 345.92 156.694C347.719 148.438 346.349 139.741 349.213 141.335Z" fill="#CE364C"/>
<path fill-rule="evenodd" clip-rule="evenodd" d="M377.065 134.163C377.065 134.163 386.578 137.282 391.555 146.048C391.555 146.048 384.909 131.774 377.065 134.163Z" fill="#CE364C"/>
<path fill-rule="evenodd" clip-rule="evenodd" d="M129.978 14.7649C131.246 14.7847 134.922 16.2449 134.922 16.2449C137.621 17.9015 139.122 18.805 140.915 18.9543C142.7 19.1131 143.432 22.1724 143.432 22.1724C143.432 22.1724 150.472 23.7089 150.87 19.2813C150.87 19.2813 146.934 13.7235 146.658 12.9736C146.098 11.482 147.115 9.23952 145.534 6.73169C143.945 4.21551 143.192 0.295537 143.192 0.295537C143.192 0.295537 141.629 -0.193285 141.458 1.34212C141.288 2.89423 142.446 5.02082 142.158 5.68302C142.1 5.81776 142.032 5.94415 141.947 6.05486C141.947 6.05486 141.939 6.06322 141.931 6.08829C141.632 6.52175 141.187 6.83928 140.736 6.86957C140.712 6.87897 140.671 6.88941 140.63 6.88314C138.867 6.83928 135.776 4.40561 134.507 3.19505C132.745 1.50924 130.185 -0.680018 129.608 0.801071C129.031 2.2832 130.952 2.18816 134.167 6.64396L133.844 7.10353C134.059 7.43673 130.667 5.74883 127.962 3.63269C126.097 2.18189 125.705 3.90843 126.031 4.65629C126.347 5.41146 128.439 6.598 129.775 7.66547C130.665 8.36005 131.598 9.07762 132.153 9.50168L131.984 10.2245C127.375 9.21967 126.656 7.48999 125.675 8.44988C124.702 9.40141 127.587 11.3525 129.053 11.6909C129.685 11.8403 130.767 12.4106 131.791 13.0091C128.118 12.9266 127.221 11.7567 126.609 12.6895C125.983 13.6556 128.711 14.745 129.978 14.7649Z" fill="#FF8B66"/>
<path fill-rule="evenodd" clip-rule="evenodd" d="M141.7 11.3707C140.584 9.26609 141.776 6.43238 141.932 6.08875C141.633 6.52221 141.187 6.83973 140.737 6.87002C139.773 9.8322 141.7 11.3707 141.7 11.3707Z" fill="#EF6E4B"/>
<path fill-rule="evenodd" clip-rule="evenodd" d="M337.086 14.7649C335.818 14.7847 332.141 16.2449 332.141 16.2449C329.443 17.9015 327.943 18.805 326.15 18.9543C324.365 19.1131 323.631 22.1724 323.631 22.1724C323.631 22.1724 316.593 23.7089 316.195 19.2813C316.195 19.2813 320.131 13.7235 320.406 12.9736C320.966 11.482 319.95 9.23952 321.53 6.73169C323.118 4.21551 323.873 0.295537 323.873 0.295537C323.873 0.295537 325.436 -0.193285 325.606 1.34212C325.776 2.89423 324.618 5.02082 324.905 5.68302C324.965 5.81776 325.033 5.94415 325.118 6.05486C325.118 6.05486 325.125 6.06322 325.132 6.08829C325.432 6.52175 325.877 6.83928 326.329 6.86957C326.352 6.87897 326.392 6.88941 326.434 6.88314C328.197 6.83928 331.288 4.40561 332.558 3.19505C334.319 1.50924 336.88 -0.680018 337.457 0.801071C338.032 2.2832 336.112 2.18816 332.897 6.64396L333.221 7.10353C333.006 7.43673 336.397 5.74883 339.101 3.63269C340.968 2.18189 341.359 3.90843 341.034 4.65629C340.717 5.41146 338.626 6.598 337.289 7.66547C336.4 8.36005 335.467 9.07762 334.911 9.50168L335.081 10.2245C339.688 9.21967 340.409 7.48999 341.388 8.44988C342.362 9.40141 339.476 11.3525 338.012 11.6909C337.378 11.8403 336.297 12.4106 335.272 13.0091C338.945 12.9266 339.843 11.7567 340.456 12.6895C341.082 13.6556 338.354 14.745 337.086 14.7649Z" fill="#FF8B66"/>
<path fill-rule="evenodd" clip-rule="evenodd" d="M325.364 11.3707C326.48 9.26609 325.289 6.43238 325.132 6.08875C325.431 6.52221 325.877 6.83973 326.328 6.87002C327.292 9.8322 325.364 11.3707 325.364 11.3707Z" fill="#EF6E4B"/>
<path fill-rule="evenodd" clip-rule="evenodd" d="M275.224 227.681L261.701 144.131L234.623 147.147L207.545 144.131L194.023 227.681L187.527 308.713C187.527 308.713 189.592 315.427 203.1 310.789C203.1 310.789 213.122 235.629 214.671 233.974C216.221 232.318 232.134 183.226 232.134 183.226H237.112C237.112 183.226 253.025 232.318 254.575 233.974C256.125 235.629 266.145 310.789 266.145 310.789C279.654 315.427 281.719 308.713 281.719 308.713L275.224 227.681Z" fill="#0E3944"/>
<path fill-rule="evenodd" clip-rule="evenodd" d="M226.093 63.2216C227.803 64.8823 236.218 67.8789 240.662 63.2216L243.674 66.1743C243.674 66.1743 240.24 74.2357 234.21 74.5177C228.182 74.7987 223.823 67.3452 223.823 67.3452L226.093 63.2216Z" fill="#0C476B"/>
<path fill-rule="evenodd" clip-rule="evenodd" d="M249.925 62.3113C259.996 57.9839 292.537 46.483 292.537 46.483C292.537 46.483 314.412 19.1362 318.873 15.0773C318.873 15.0773 323.715 15.9473 325.133 21.9626C325.133 21.9626 311.047 52.0585 303.389 60.6745C295.733 69.2916 256.953 87.9253 256.953 87.9253L249.925 62.3113Z" fill="#0C476B"/>
<path fill-rule="evenodd" clip-rule="evenodd" d="M214.671 61.6911C217.668 59.7995 232.711 69.8423 232.711 69.8423C232.711 69.8423 252.269 59.4799 256.859 61.4864C256.859 61.4864 260.996 67.0096 262.658 81.2085C264.319 95.4073 264.429 153.838 264.429 153.838C264.429 153.838 251.281 158.48 233.494 158.48C213.218 158.48 202.31 152.678 202.31 152.678C202.31 152.678 198.691 71.7756 214.671 61.6911Z" fill="#FFB878"/>
<path fill-rule="evenodd" clip-rule="evenodd" d="M226.887 60.1733C226.887 60.1733 229.053 66.9719 226.887 69.5915C226.887 69.5915 229.137 74.3011 233.18 74.51C237.851 74.7503 239.473 69.5915 239.473 69.5915C239.473 69.5915 237.002 63.0248 239.473 60.7175L226.887 60.1733Z" fill="#EF6E4B"/>
<path fill-rule="evenodd" clip-rule="evenodd" d="M221.487 53.4815C221.487 53.4815 216.928 44.7266 217.831 35.37C218.734 26.0145 232.861 23.8691 242.383 28.4659C242.383 28.4659 239.556 25.7074 240.662 24.9418C241.768 24.1752 243.674 29.0791 243.674 29.0791C243.674 29.0791 246.682 28.1589 247.143 29.0791C247.604 29.9982 244.062 30.5017 244.062 30.5017C244.062 30.5017 250.206 33.9004 244.466 51.9942L221.487 53.4815Z" fill="#8B383E"/>
<path fill-rule="evenodd" clip-rule="evenodd" d="M220.802 47.9368C220.802 47.9368 217.402 44.5526 216.984 48.5092C216.499 53.0935 220.672 54.9401 221.487 53.482C222.303 52.0228 220.802 47.9368 220.802 47.9368Z" fill="#FF8B66"/>
<path fill-rule="evenodd" clip-rule="evenodd" d="M244.603 48.1754C244.603 48.1754 248.003 44.7902 248.42 48.7478C248.905 53.3321 244.733 55.1777 243.918 53.7206C243.102 52.2615 244.603 48.1754 244.603 48.1754Z" fill="#FF8B66"/>
<path fill-rule="evenodd" clip-rule="evenodd" d="M232.344 64.5404C224.802 64.5404 220.546 59.6251 220.546 44.8821C220.546 37.2771 224.423 32.6124 232.871 32.6124C241.318 32.6124 244.877 37.2761 244.877 44.8821C244.877 60.7239 240.135 64.5404 232.344 64.5404Z" fill="#FF8B66"/>
<path fill-rule="evenodd" clip-rule="evenodd" d="M242.378 50.1401C242.511 50.8963 241.85 51.6442 240.901 51.8092C239.954 51.9732 239.078 51.4938 238.946 50.7376C238.813 49.9813 239.475 49.2345 240.423 49.0695C241.37 48.9045 242.247 49.3839 242.378 50.1401Z" fill="#DB614D"/>
<path fill-rule="evenodd" clip-rule="evenodd" d="M226.866 50.5521C226.817 51.3177 225.997 51.8891 225.036 51.8264C224.076 51.7637 223.338 51.0921 223.389 50.3255C223.439 49.5599 224.257 48.9896 225.218 49.0512C226.178 49.1139 226.916 49.7865 226.866 50.5521Z" fill="#DB614D"/>
<path fill-rule="evenodd" clip-rule="evenodd" d="M238.929 42.49C238.83 42.49 238.732 42.4514 238.657 42.3741C237.612 41.2805 235.782 41.3275 235.754 41.3275C235.55 41.3285 235.372 41.1708 235.366 40.963C235.358 40.7551 235.522 40.5817 235.73 40.5755C235.811 40.5702 237.927 40.5201 239.202 41.855C239.345 42.0054 239.34 42.2435 239.19 42.3866C239.117 42.4566 239.023 42.49 238.929 42.49Z" fill="#8B383E"/>
<path fill-rule="evenodd" clip-rule="evenodd" d="M224.729 42.4899C224.635 42.4899 224.542 42.4565 224.469 42.3865C224.318 42.2434 224.313 42.0052 224.455 41.8548C225.73 40.52 227.845 40.5712 227.926 40.5753C228.135 40.5816 228.298 40.755 228.291 40.9628C228.284 41.1696 228.102 41.3305 227.903 41.3274C227.89 41.3242 226.036 41.2898 225.002 42.3739C224.926 42.4512 224.828 42.4899 224.729 42.4899Z" fill="#8B383E"/>
<path fill-rule="evenodd" clip-rule="evenodd" d="M238.278 46.4832C238.278 47.418 237.856 48.1752 237.336 48.1752C236.815 48.1752 236.393 47.418 236.393 46.4832C236.393 45.5483 236.815 44.79 237.336 44.79C237.856 44.79 238.278 45.5483 238.278 46.4832Z" fill="#1A4850"/>
<path fill-rule="evenodd" clip-rule="evenodd" d="M228.206 46.4832C228.206 47.418 227.784 48.1752 227.264 48.1752C226.744 48.1752 226.322 47.418 226.322 46.4832C226.321 45.5483 226.744 44.79 227.264 44.79C227.784 44.79 228.206 45.5483 228.206 46.4832Z" fill="#1A4850"/>
<path fill-rule="evenodd" clip-rule="evenodd" d="M228.206 56.482C228.206 56.482 234.857 57.3364 238.278 55.6986C238.278 55.6986 236.344 60.2171 232.711 59.8118C229.078 59.4055 228.206 56.482 228.206 56.482Z" fill="#1A4850"/>
<path fill-rule="evenodd" clip-rule="evenodd" d="M244.091 49.8461C244.091 49.8461 243.856 41.6615 240.662 35.3705C240.662 35.3705 235.032 37.9661 233.794 37.3529C232.555 36.7398 234.975 35.3705 234.975 35.3705C234.975 35.3705 225.686 38.4256 225.127 37.8125C224.569 37.1994 228.206 35.3705 228.206 35.3705L222.419 37.3529C222.419 37.3529 220.635 44.7176 221.373 49.8461C221.373 49.8461 218.887 45.5647 218.58 42.6078C218.273 39.6519 219.575 31.2239 228.291 30.6107C237.008 29.9987 241.902 31.9717 244.062 35.9648C246.221 39.9579 245.953 44.8701 244.091 49.8461Z" fill="#8B383E"/>
<path fill-rule="evenodd" clip-rule="evenodd" d="M233.658 54.1175C232.925 54.1175 232.181 53.9284 231.956 53.8658L232.17 53.096C232.961 53.3143 234.202 53.4438 234.474 53.1252C234.567 53.0145 234.53 52.7576 234.37 52.4202C233.28 50.1077 233.053 44.2512 233.044 44.0026L233.846 43.9734C233.847 44.0329 234.074 49.9145 235.095 52.0797C235.406 52.7398 235.403 53.2652 235.085 53.6402C234.776 54.0068 234.221 54.1175 233.658 54.1175Z" fill="#DB614D"/>
<path fill-rule="evenodd" clip-rule="evenodd" d="M242.003 65.3753C242.003 65.3753 255.654 107.656 256.953 142.059C256.953 142.059 261.88 143.412 267.427 135.874C272.974 128.336 269.674 68.632 259.048 58.6895C259.048 58.6895 254.225 57.5928 242.003 65.3753Z" fill="#105E99"/>
<path fill-rule="evenodd" clip-rule="evenodd" d="M244.228 72.7699C244.228 72.7699 246.671 67.1057 245.586 63.2212C244.5 59.3378 240.662 63.2212 240.662 63.2212C240.662 63.2212 242.213 69.5811 244.228 72.7699Z" fill="#0C476B"/>
<path fill-rule="evenodd" clip-rule="evenodd" d="M216.83 62.3111C206.758 57.9838 174.218 46.4829 174.218 46.4829C174.218 46.4829 152.287 18.338 147.826 14.2802C147.826 14.2802 142.306 17.3969 141.931 23.8466C141.931 23.8466 155.708 52.0584 163.365 60.6744C171.022 69.2914 209.802 87.9251 209.802 87.9251L216.83 62.3111Z" fill="#0C476B"/>
<path fill-rule="evenodd" clip-rule="evenodd" d="M224.752 65.3753C224.752 65.3753 211.101 107.656 209.802 142.059C209.802 142.059 204.875 143.412 199.328 135.874C193.782 128.336 197.081 68.632 207.708 58.6895C207.708 58.6895 212.529 57.5928 224.752 65.3753Z" fill="#105E99"/>
<path fill-rule="evenodd" clip-rule="evenodd" d="M222.527 72.7699C222.527 72.7699 220.083 67.1057 221.169 63.2212C222.254 59.3378 226.093 63.2212 226.093 63.2212C226.093 63.2212 224.542 69.5811 222.527 72.7699Z" fill="#0C476B"/>
<path fill-rule="evenodd" clip-rule="evenodd" d="M293.76 330.503H266.657C264.764 319.753 267.786 308.991 267.786 308.991L280.174 306.869C281.302 313.664 282.661 316.343 284.543 317.723H284.556C285.927 318.721 287.565 319.045 289.611 319.753C291.947 320.564 293.179 322.038 293.795 323.637C295.015 326.816 293.76 330.503 293.76 330.503Z" fill="#662C33"/>
<path fill-rule="evenodd" clip-rule="evenodd" d="M293.795 323.637C287.112 324.473 272.435 325.898 273.329 322.038C274.073 318.814 280.268 317.944 284.544 317.723H284.556C285.926 318.721 287.566 319.045 289.611 319.753C291.946 320.565 293.179 322.038 293.795 323.637Z" fill="#8B383E"/>
<path fill-rule="evenodd" clip-rule="evenodd" d="M202.995 330.503H175.893C175.893 330.503 175.032 327.975 175.428 325.296C175.754 323.116 176.915 320.831 180.041 319.753C182.389 318.941 184.19 318.639 185.666 317.259C187.27 315.752 188.468 312.969 189.479 306.869L201.867 308.991C201.867 308.991 204.878 319.753 202.995 330.503Z" fill="#662C33"/>
<path fill-rule="evenodd" clip-rule="evenodd" d="M175.427 325.296C175.753 323.116 176.915 320.832 180.042 319.753C182.388 318.941 184.191 318.639 185.666 317.259C189.095 318.314 193.894 320.252 195.382 323.185C197.451 327.209 181.611 326.572 175.427 325.296Z" fill="#8B383E"/>
<path fill-rule="evenodd" clip-rule="evenodd" d="M397.565 328.566C397.565 329.703 397.449 330.502 397.449 330.502H364.525C364.525 329.853 364.536 329.204 364.57 328.566C364.943 319.973 367.664 312.517 367.664 312.517L375.891 308.992C376.6 313.224 378.424 315.925 380.714 317.688C381.319 318.164 381.946 318.558 382.597 318.895C382.898 319.057 383.201 319.208 383.515 319.347C384.2 319.66 384.909 319.915 385.619 320.124C388.523 321.006 391.464 321.191 393.522 321.504C397.031 322.049 397.565 326.097 397.565 328.566Z" fill="#164353"/>
<path fill-rule="evenodd" clip-rule="evenodd" d="M397.565 328.566C397.565 329.703 397.449 330.502 397.449 330.502H364.525C364.525 329.852 364.536 329.204 364.57 328.566H397.565Z" fill="#225866"/>
<path fill-rule="evenodd" clip-rule="evenodd" d="M382.597 318.895L378.03 320.355L377.065 318.686L380.714 317.689C381.318 318.164 381.946 318.559 382.597 318.895Z" fill="#225866"/>
<path fill-rule="evenodd" clip-rule="evenodd" d="M385.619 320.124L382.539 322.165L380.644 321.422L383.515 319.347C384.201 319.66 384.909 319.915 385.619 320.124Z" fill="#225866"/>
<path fill-rule="evenodd" clip-rule="evenodd" d="M271.772 328.566C271.69 329.679 271.4 330.502 271.4 330.502H249.47C249.191 329.865 248.993 329.227 248.853 328.566C246.693 318.095 261.266 305.28 261.266 305.28L265.891 311.438C265.891 311.438 265.356 321.295 269.272 323.348C271.62 324.577 271.924 326.896 271.772 328.566Z" fill="#164353"/>
<path fill-rule="evenodd" clip-rule="evenodd" d="M248.854 328.566H271.772C271.69 329.679 271.4 330.502 271.4 330.502H249.47C249.191 329.865 248.993 329.227 248.854 328.566Z" fill="#225866"/>
<path fill-rule="evenodd" clip-rule="evenodd" d="M268.271 322.563C268.271 322.563 259.032 320.46 254.818 323.182V321.661C254.818 321.661 262.59 317.891 268.271 322.563Z" fill="#225866"/>
<path fill-rule="evenodd" clip-rule="evenodd" d="M266.44 320.224C266.44 320.224 260.54 317.532 254.818 320.224L255.472 318.689C255.472 318.689 262.307 316.111 266.44 320.224Z" fill="#225866"/>
<path fill-rule="evenodd" clip-rule="evenodd" d="M387.629 235.469C387.641 244.271 379.807 316.03 379.807 316.03C371.974 316.807 365.699 315.241 365.699 315.241C363.549 278.875 363.339 247.599 363.339 247.599L325.801 219.523L325.708 219.454C325.708 219.454 325.569 220.092 325.314 221.229C323.453 229.463 315.586 263.951 312.309 271.847C308.578 280.846 267.789 318.689 267.789 318.689C260.21 317.646 253.782 312.17 253.782 312.17C268.425 287.932 288.39 263.626 288.39 263.626C289.949 254.894 291.063 235.469 291.726 220.951C291.739 220.731 291.749 220.499 291.761 220.277C292.202 210.444 292.424 203.022 292.424 203.022L285.544 188.944L329.252 172.917L339.05 185.431C339.05 185.431 341.292 187.506 344.826 190.823L345.314 191.275C358.435 203.626 387.629 231.526 387.629 235.469Z" fill="#8BBDDB"/>
<path fill-rule="evenodd" clip-rule="evenodd" d="M291.726 220.951C291.738 220.73 291.749 220.498 291.76 220.277C300.966 215.291 299.421 207.337 299.396 207.255L299.966 207.138C299.99 207.22 301.64 215.767 291.726 220.951Z" fill="#6097B2"/>
<path fill-rule="evenodd" clip-rule="evenodd" d="M325.127 213.9C325.441 215.639 325.672 217.518 325.801 219.524L325.708 219.454C325.708 219.454 325.569 220.093 325.313 221.229C324.906 207.591 319.269 199.531 319.2 199.438L319.677 199.103C319.735 199.172 323.291 204.298 325.011 213.238C331.658 207.348 325.15 195.276 325.081 195.16L325.592 194.881C325.662 195.008 332.554 207.788 325.127 213.9Z" fill="#6097B2"/>
<path fill-rule="evenodd" clip-rule="evenodd" d="M345.314 191.275C345.303 191.287 345.28 191.287 345.268 191.297C345 191.403 344.686 191.449 344.362 191.449C341.143 191.449 335.738 186.949 335.482 186.729L335.866 186.289C337.62 187.772 342.513 191.333 344.826 190.822L345.314 191.275Z" fill="#6097B2"/>
<path fill-rule="evenodd" clip-rule="evenodd" d="M288.604 113.878C288.604 113.878 301.9 111.743 308.561 115.98C315.223 120.219 323.97 131.278 323.97 131.278C323.97 131.278 313.585 132.647 312.409 139.685C312.409 139.685 304.866 121.76 288.604 113.878Z" fill="#ADBEC4"/>
<path fill-rule="evenodd" clip-rule="evenodd" d="M268.602 120.798C262.979 123.832 253.577 135.222 253.152 142.227C252.738 149.059 257.81 155.343 261.229 160.685C271.898 177.354 283.133 192.082 287.906 211.633C287.937 211.757 312.312 221.408 340.919 187.097C340.919 187.097 324.755 165.395 319.17 146.919C316.897 139.399 314.584 131.41 310.218 124.781C305.408 117.48 297.172 113.184 288.604 113.878C281.355 114.465 274.144 117.808 268.602 120.798Z" fill="#CFD8DC"/>
<path fill-rule="evenodd" clip-rule="evenodd" d="M266.243 113.805C266.243 113.805 269.84 119.939 268.178 123.312C268.178 123.312 280.522 127.564 280.522 120.673C280.522 120.673 278.195 115.506 279.072 112.167L266.243 113.805Z" fill="#EF6E4B"/>
<path fill-rule="evenodd" clip-rule="evenodd" d="M293.672 155.804C293.672 155.804 286.805 157.75 285.073 160.175C283.341 162.6 281.799 168.041 281.799 168.041H293.672L295.905 163.943L298.519 158.48L293.672 155.804Z" fill="#EF6E4B"/>
<path fill-rule="evenodd" clip-rule="evenodd" d="M282.321 106.966C282.321 106.966 287.141 104.949 284.022 90.4811C281.956 80.8947 278.98 79.4648 277.057 79.3813C277.057 79.3813 274.704 75.8436 266.541 77.5367C260.952 78.6971 256.492 82.0844 254.528 88.3524C252.478 94.8951 256.577 108.921 261.976 110.316L282.321 106.966Z" fill="#164353"/>
<path fill-rule="evenodd" clip-rule="evenodd" d="M283.461 97.1894C283.461 97.1894 286.499 92.9697 287.646 97.1288C288.977 101.947 284.838 104.658 283.708 103.241C282.578 101.825 283.461 97.1894 283.461 97.1894Z" fill="#FF8B66"/>
<path fill-rule="evenodd" clip-rule="evenodd" d="M258.041 101.636C258.041 101.636 253.806 98.6144 254.059 102.921C254.351 107.909 259.142 109.15 259.756 107.447C260.371 105.743 258.041 101.636 258.041 101.636Z" fill="#FF8B66"/>
<path fill-rule="evenodd" clip-rule="evenodd" d="M274.049 116.984C282.118 115.656 285.803 109.648 283.194 93.8761C281.849 85.7406 276.876 81.4331 267.839 82.9215C258.802 84.4088 255.821 90.0251 257.166 98.1616C259.968 115.109 265.715 118.356 274.049 116.984Z" fill="#FF8B66"/>
<path fill-rule="evenodd" clip-rule="evenodd" d="M260.768 103.346C260.76 104.179 261.601 104.862 262.643 104.871C263.687 104.881 264.539 104.213 264.546 103.381C264.554 102.548 263.714 101.866 262.671 101.857C261.628 101.846 260.776 102.514 260.768 103.346Z" fill="#DB614D"/>
<path fill-rule="evenodd" clip-rule="evenodd" d="M277.436 101.055C277.626 101.867 278.602 102.332 279.619 102.096C280.635 101.86 281.305 101.011 281.117 100.201C280.927 99.39 279.949 98.9231 278.934 99.1602C277.918 99.3963 277.247 100.244 277.436 101.055Z" fill="#DB614D"/>
<path fill-rule="evenodd" clip-rule="evenodd" d="M263.039 94.5609C262.96 94.5609 262.879 94.5389 262.808 94.4898C262.623 94.3635 262.574 94.1096 262.701 93.9237C263.829 92.2724 266.094 91.9559 266.19 91.9423C266.426 91.9162 266.617 92.0708 266.647 92.2933C266.678 92.5158 266.521 92.7205 266.297 92.7518C266.277 92.7539 264.295 93.0359 263.377 94.3823C263.298 94.4982 263.17 94.5609 263.039 94.5609Z" fill="#1A4850"/>
<path fill-rule="evenodd" clip-rule="evenodd" d="M278.23 92.0598C278.143 92.0598 278.058 92.0337 277.984 91.9773C276.678 90.9934 274.715 91.3653 274.695 91.3684C274.47 91.4175 274.26 91.2692 274.216 91.0477C274.171 90.8273 274.315 90.6122 274.537 90.5694C274.632 90.5506 276.877 90.1234 278.476 91.3266C278.656 91.4624 278.692 91.7183 278.557 91.898C278.476 92.0034 278.354 92.0598 278.23 92.0598Z" fill="#1A4850"/>
<path fill-rule="evenodd" clip-rule="evenodd" d="M264.508 98.7118C264.673 99.7124 265.26 100.449 265.815 100.357C266.372 100.265 266.689 99.3803 266.524 98.3796C266.36 97.3801 265.774 96.6447 265.218 96.7356C264.661 96.8275 264.344 97.7122 264.508 98.7118Z" fill="#1A4850"/>
<path fill-rule="evenodd" clip-rule="evenodd" d="M275.283 96.9385C275.449 97.9381 276.034 98.6745 276.591 98.5825C277.147 98.4906 277.464 97.6059 277.299 96.6064C277.134 95.6068 276.549 94.8704 275.992 94.9623C275.435 95.0532 275.118 95.9379 275.283 96.9385Z" fill="#1A4850"/>
<path fill-rule="evenodd" clip-rule="evenodd" d="M278.308 106.016C278.308 106.016 271.308 107.89 267.427 107.146C267.427 107.146 270.11 110.518 273.941 109.545C277.771 108.573 278.308 106.016 278.308 106.016Z" fill="#1A4850"/>
<path fill-rule="evenodd" clip-rule="evenodd" d="M278.639 86.5564C278.639 86.5564 269.532 93.1367 258.101 93.6371L258.424 103.791C258.424 103.791 247.771 84.2022 268.843 80.7334C289.914 77.2646 283.781 99.1436 283.781 99.1436C283.781 99.1436 283.128 89.7066 278.639 86.5564Z" fill="#0E3944"/>
<path fill-rule="evenodd" clip-rule="evenodd" d="M271.19 103.288L271.132 102.41C271.144 102.409 272.36 102.315 272.676 101.564C272.807 101.255 272.288 100.269 271.831 99.4001C271.197 98.1916 270.408 96.6886 270.072 95.0185L270.937 94.8451C271.247 96.392 272.004 97.8334 272.612 98.9917C273.29 100.282 273.779 101.213 273.488 101.905C272.96 103.159 271.263 103.284 271.19 103.288Z" fill="#DB614D"/>
<path fill-rule="evenodd" clip-rule="evenodd" d="M283.58 86.5813C268.261 79.9478 253.805 93.7016 253.805 93.7016C253.805 93.7016 252.119 82.5569 255.072 79.9478C255.838 79.2636 256.663 78.661 257.523 78.1272C264.287 73.872 273.283 73.9524 277.408 75.4136C278.257 75.7155 278.907 76.0748 279.28 76.4581C281.721 78.9858 283.58 86.5813 283.58 86.5813Z" fill="#CE364C"/>
<path fill-rule="evenodd" clip-rule="evenodd" d="M281.72 84.0996C281.72 84.0996 268.855 81.5605 256.861 89.4808C256.861 89.4808 256.095 82.2906 257.523 78.1272C264.288 73.872 273.282 73.9524 277.409 75.4136C279.814 78.1512 281.72 84.0996 281.72 84.0996Z" fill="#CFD8DC"/>
<path fill-rule="evenodd" clip-rule="evenodd" d="M255.071 92.3909C255.071 92.3909 257.111 83.7488 259.859 81.3141C264.429 77.2635 277.273 75.8733 284.022 78.308C290.773 80.7427 284.022 88.1022 284.022 88.1022C284.022 88.1022 273.265 80.4116 255.071 92.3909Z" fill="#A02E44"/>
<path fill-rule="evenodd" clip-rule="evenodd" d="M274.937 149.824C274.937 149.824 280.195 157.95 289.149 162.731C289.149 162.731 300.35 153.03 314.874 153.902C314.874 153.902 302.836 175.573 292.499 177.973C287.069 179.235 267.426 166.256 267.426 166.256C267.426 166.256 271.348 152.464 274.937 149.824Z" fill="#FF8B66"/>
<path fill-rule="evenodd" clip-rule="evenodd" d="M255.575 135.092C260.387 127.276 271.486 138.83 275.264 147.082C279.041 155.334 281.799 157.084 281.799 157.084C281.799 157.084 270.708 161.708 270.786 170.002C270.786 170.002 245.076 152.148 255.575 135.092Z" fill="#ADBEC4"/>
<path fill-rule="evenodd" clip-rule="evenodd" d="M289.149 159.161C289.149 159.161 295.905 152.548 318.119 143.916L315.251 134.913C317.798 131.567 322.484 131.567 322.484 131.567C322.484 131.567 333.865 147.604 331.906 152.394C330.682 155.385 306.942 158.525 289.149 159.161Z" fill="#EF6E4B"/>
<path fill-rule="evenodd" clip-rule="evenodd" d="M313.477 146.077C313.477 146.077 313.652 145.129 314.473 143.973C315.294 142.816 315.071 140.711 315.366 140.059C315.66 139.407 317.407 136.741 318.567 136.222C319.728 135.704 321.249 134.856 321.572 136.324C321.896 137.793 319.495 137.376 318.417 139.489C318.417 139.489 320.777 138.729 322.647 139.17C324.519 139.612 325.05 141.319 322.737 141.263C320.893 141.218 318.517 142.53 318.517 142.53C318.517 142.53 320.92 142.89 320.533 143.996C319.997 145.524 317.066 144.583 313.477 146.077Z" fill="#FF8B66"/>
<path fill-rule="evenodd" clip-rule="evenodd" d="M149.182 176.269C151.168 181.342 159.302 190.04 159.302 190.04C159.302 190.04 179.174 178.154 188.341 183.154C197.509 188.155 204.794 191.207 210.74 189.029C216.684 186.851 191.19 140.585 191.19 140.585L158.135 127.999C158.135 127.999 157.414 136.34 153.637 137.823C149.86 139.305 145.833 153.076 146.103 155.685C146.373 158.294 149.182 176.269 149.182 176.269Z" fill="#3E6575"/>
<path fill-rule="evenodd" clip-rule="evenodd" d="M186.374 190.342C186.374 190.342 177.85 207.014 160.253 228.366C160.253 228.366 158.449 253.756 111.914 293.705L107.043 289.881C107.043 289.881 134.756 246.565 140.298 233.283C145.842 220.002 137.234 207.834 162.736 174.243L186.374 190.342Z" fill="#EF6E4B"/>
<path fill-rule="evenodd" clip-rule="evenodd" d="M159.244 160.84C151.907 174.864 149.444 192.794 149.444 192.794L146.103 201.205C146.103 201.205 157.955 207.583 171.641 209.903L177.129 195.407L159.244 160.84Z" fill="#662C33"/>
<path fill-rule="evenodd" clip-rule="evenodd" d="M197.513 189.029C197.513 189.029 201.147 207.389 200.548 235.029C200.548 235.029 214.865 256.095 203.05 316.204H196.852C196.852 316.204 191.788 265.063 187.914 251.205C184.04 237.348 169.734 233.095 168.96 190.961L197.513 189.029Z" fill="#FF8B66"/>
<path fill-rule="evenodd" clip-rule="evenodd" d="M201.147 208.739C201.147 208.739 189.49 210.827 168.955 209.864L168.629 207.557L168.547 206.965L166.42 192.028C166.42 192.028 164.445 189.593 162.411 185.628C162.167 185.164 161.935 184.689 161.703 184.189C158.936 178.31 156.485 169.764 159.239 160.846L163.573 161.042L164.178 161.078L178.682 161.738L179.298 161.773L184.063 161.994L184.807 162.028L187.898 162.167C187.898 162.167 203.611 176.28 200.81 202.373L201.008 206.002L201.031 206.594L201.147 208.739Z" fill="#8B383E"/>
<path fill-rule="evenodd" clip-rule="evenodd" d="M164.178 161.077C163.771 162.272 161.028 171.132 162.412 185.627C162.167 185.163 161.935 184.688 161.702 184.189C160.668 170.934 163.051 162.666 163.573 161.043C163.643 160.845 163.678 160.752 163.678 160.741L164.224 160.938C164.224 160.95 164.201 160.996 164.178 161.077Z" fill="#662C33"/>
<path fill-rule="evenodd" clip-rule="evenodd" d="M201.03 206.594C196.905 207.65 189.908 207.939 183.26 207.939C177.299 207.939 171.639 207.696 168.629 207.557L168.547 206.965C173.766 207.221 187.503 207.753 196.359 206.79L195.789 197.456C195.928 186.567 192.628 177.267 189.444 170.842C181.378 169.381 179.158 163.42 178.682 161.738C178.612 161.472 178.577 161.31 178.577 161.297L179.147 161.204C179.147 161.217 179.193 161.425 179.297 161.774C179.821 163.513 181.982 168.697 189.107 170.181C186.957 165.994 184.923 163.13 184.063 161.993C183.807 161.646 183.645 161.449 183.632 161.437L184.074 161.067C184.098 161.09 184.365 161.414 184.806 162.029C187.503 165.681 196.602 179.422 196.37 197.434L196.939 206.721C198.486 206.535 199.868 206.305 201.007 206.003L201.03 206.594Z" fill="#662C33"/>
<path fill-rule="evenodd" clip-rule="evenodd" d="M171.337 97.9254C166.711 95.3831 133.378 108.427 133.378 108.427C133.378 108.427 128.447 117.204 131.521 120.645C134.595 124.086 145.502 122.569 148.843 120.645C152.184 118.721 161.035 117.265 161.035 117.265L171.337 97.9254Z" fill="#8BBDDB"/>
<path fill-rule="evenodd" clip-rule="evenodd" d="M200.813 70.2367C200.813 70.2367 207.699 72.8887 210.217 80.8038C212.735 88.719 205.206 108.758 207.808 117.969C210.41 127.181 210.006 144.575 201.879 148.248C193.752 151.92 177.086 145.349 173.507 135.298C169.928 125.248 171.473 87.1721 178.351 74.2235C185.229 61.2739 199.157 67.7957 200.813 70.2367Z" fill="#F24052"/>
<path fill-rule="evenodd" clip-rule="evenodd" d="M192.9 104.387C194.717 106.341 199.385 102.859 199.385 102.859C199.385 102.859 199.29 120.131 194.259 121.456C189.228 122.78 176.407 107.849 176.934 103.79C177.461 99.7314 188.873 100.055 192.9 104.387Z" fill="#8BBDDB"/>
<path fill-rule="evenodd" clip-rule="evenodd" d="M173.506 100.067C173.506 100.067 178.596 104.379 187.462 106.429C196.327 108.481 201.132 104.322 205.666 110.026C212.472 118.587 201.399 134.371 195.574 142.549C193.402 145.599 188.819 154.056 187.893 162.17C187.893 162.17 172.51 166.629 159.244 160.84L158.254 142.009C158.254 142.009 149.891 116.63 173.506 100.067Z" fill="#0E3944"/>
<path fill-rule="evenodd" clip-rule="evenodd" d="M189.411 118.388C189.411 118.388 196.44 101.673 198.476 100.606C200.511 99.5389 205.673 102.1 206.71 104.386C207.746 106.673 206.71 111.661 206.71 111.661C206.71 111.661 201.166 105.347 189.411 118.388Z" fill="#8BBDDB"/>
<path fill-rule="evenodd" clip-rule="evenodd" d="M223.077 189.025C219.881 195.554 212.036 197.433 212.036 197.433C212.036 197.433 211.443 196.529 210.444 194.905C210.34 194.743 210.223 194.557 210.119 194.371C203.947 184.386 185.085 152.438 185.457 135.821C185.887 115.967 198.869 105.067 198.869 105.067C205.458 106.631 207.539 108.429 207.539 108.429C207.539 108.429 209.758 119.724 207.724 133.315C205.691 146.896 201.995 150.49 203.855 151.51C205.702 152.519 203.855 154.549 203.855 154.549C203.855 154.549 214.79 169.752 216.836 174.483C218.161 177.567 220.416 182.809 221.822 186.08C221.915 186.311 222.008 186.543 222.1 186.752C222.694 188.133 223.077 189.025 223.077 189.025Z" fill="#6097B2"/>
<path fill-rule="evenodd" clip-rule="evenodd" d="M204.081 108.427C204.081 108.427 196.251 114.218 200.812 123.067L222.516 145.487C210.603 158.153 209.424 163.353 200.812 169.192L204.081 174.243C204.081 174.243 234.238 151.116 234.283 145.487C234.302 143.078 215.862 113.928 204.081 108.427Z" fill="#FF8B66"/>
<path fill-rule="evenodd" clip-rule="evenodd" d="M200.337 169.194C200.337 169.194 196.2 169.652 193.596 170.302C190.99 170.952 187.517 171.602 187.408 172.143C187.299 172.685 193.161 172.143 193.161 172.143C193.161 172.143 188.386 174.1 188.277 174.854C188.168 175.609 194.354 174.309 194.354 174.309C194.354 174.309 190.447 176.693 190.665 177.342C190.881 177.992 195.694 176.367 195.694 176.367C195.694 176.367 194.799 178.642 193.872 179.725C193.872 179.725 194.803 180.235 196.696 178.138C198.589 176.042 201.608 176.715 204 174.854C206.391 172.994 202.515 168.913 200.337 169.194Z" fill="#FF8B66"/>
<path fill-rule="evenodd" clip-rule="evenodd" d="M178.16 102.849C178.16 102.849 172.203 106.69 168.44 115.967C164.678 125.244 152.806 142.702 150.026 147.213C147.245 151.723 149.181 176.269 149.181 176.269C149.181 176.269 145.696 161.387 144.145 155.589C142.596 149.79 149.149 135.463 150.134 134.703C151.119 133.942 156.155 135.334 155.187 129.516C154.217 123.698 167.73 98.6315 171.337 97.9254C171.337 97.9254 177.114 99.0086 178.16 102.849Z" fill="#6097B2"/>
<path fill-rule="evenodd" clip-rule="evenodd" d="M159.738 104.104C159.634 104.301 159.517 104.497 159.378 104.683C158.03 106.62 155.52 108.163 155.52 108.163C155.52 108.163 150.975 114.517 150.929 115.247C150.883 115.874 143.038 121.556 139.552 121.441H139.54C139.064 121.429 138.668 121.301 138.389 121.046C136.32 119.098 145.432 102.747 147.442 99.2217C147.57 98.9898 147.675 98.8165 147.745 98.6995C147.791 98.6065 147.826 98.5491 147.826 98.5491C147.826 98.5491 146.223 92.5882 152.917 93.7016C158.483 94.6176 159.587 99.0358 160.169 101.993C160.308 102.701 160.11 103.42 159.738 104.104Z" fill="#6097B2"/>
<path fill-rule="evenodd" clip-rule="evenodd" d="M136.364 110.283C140.963 104.252 157.144 92.5526 165.667 89.0891L167.797 93.0425C167.797 93.0425 151.329 107.49 147.46 113.67C143.59 119.851 138.798 122.406 134.218 120.349C129.64 118.29 135.397 111.552 136.364 110.283Z" fill="#FF8B66"/>
<path fill-rule="evenodd" clip-rule="evenodd" d="M158.135 102.863L157.263 103.86L156.822 104.37L155.38 106.017C155.38 106.017 151.754 110.401 151.894 112.163C151.998 113.428 145.013 119.087 139.551 121.441C137.331 122.403 135.356 122.82 134.206 122.16C130.254 119.887 131.137 113.056 133.381 108.43C135.333 104.394 143.968 99.186 146.188 97.9107C146.466 97.7373 146.641 97.6329 146.699 97.6099L146.71 97.5974L147.536 94.3971C147.536 94.3971 150.545 92.588 152.916 93.7014C152.916 93.7014 147.687 93.9218 148.546 95.9513C149.43 97.9922 156.682 102.794 158.135 102.863Z" fill="#8BBDDB"/>
<path fill-rule="evenodd" clip-rule="evenodd" d="M177.124 86.129C171.86 88.2859 172.615 93.0404 167.792 93.0404C164.805 93.0404 164.41 89.6312 164.41 89.6312C165.759 86.7202 166.618 81.7568 166.804 79.391C167.002 77.0263 167.792 77.9423 167.792 77.9423C167.792 77.7219 167.781 77.513 167.768 77.3041C167.699 75.7154 167.408 74.556 168.454 75.2402C169.64 76.0058 170.047 80.5044 170.047 80.5044C171.023 73.9419 169.57 72.9674 170.71 73.5471C172.266 74.3356 172.278 80.1336 172.278 80.3081C173.533 76.4925 173.197 74.3127 174.068 75.1817C174.951 76.0632 173.626 83.0676 173.104 85.6423C172.987 86.222 172.906 86.5813 172.906 86.5813C177.078 84.5403 177.124 86.129 177.124 86.129Z" fill="#FF8B66"/>
<path fill-rule="evenodd" clip-rule="evenodd" d="M173.103 85.642C172.987 86.2217 172.906 86.581 172.906 86.581C172.906 86.581 170.976 86.3961 169.571 88.4715C169.571 88.4715 169.965 85.6879 173.103 85.642Z" fill="#EF6E4B"/>
<path fill-rule="evenodd" clip-rule="evenodd" d="M168.083 82.6504C168.117 82.0937 168.35 78.9048 167.792 77.9418C167.792 77.7214 167.78 77.5136 167.769 77.3047C168.978 77.5595 168.211 81.9777 168.083 82.6504Z" fill="#EF6E4B"/>
<path fill-rule="evenodd" clip-rule="evenodd" d="M171.349 110.316C171.349 110.316 174.906 100.694 176.039 98.5457C177.171 96.3982 183.066 96.7659 187.527 97.5962C191.988 98.4277 192.9 104.386 192.9 104.386C192.9 104.386 179.329 97.9963 171.349 110.316Z" fill="#8BBDDB"/>
<path fill-rule="evenodd" clip-rule="evenodd" d="M194.259 91.379C194.259 91.379 189.997 99.2325 190.065 107.941C190.065 107.941 183.14 112.636 180.664 106.756C180.664 106.756 183.293 99.0518 182.022 88.6518C181.171 81.6871 194.259 91.379 194.259 91.379Z" fill="#EF6E4B"/>
<path fill-rule="evenodd" clip-rule="evenodd" d="M180.663 80.4823C180.663 80.4823 179.397 75.9805 177.142 79.1453C174.531 82.8115 177.192 86.3753 178.586 85.5251C179.979 84.6749 180.663 80.4823 180.663 80.4823Z" fill="#FF8B66"/>
<path fill-rule="evenodd" clip-rule="evenodd" d="M200.788 92.0578C200.788 92.0578 205.303 90.8034 203.76 94.3682C201.972 98.4981 197.538 98.0741 197.544 96.4447C197.55 94.8152 200.788 92.0578 200.788 92.0578Z" fill="#FF8B66"/>
<path fill-rule="evenodd" clip-rule="evenodd" d="M182.511 100.116C176.098 96.513 174.837 90.2993 181.912 77.7622C185.562 71.2958 191.097 69.1817 198.28 73.2187C205.463 77.2546 206.25 82.921 202.601 89.3874C194.998 102.858 189.135 103.839 182.511 100.116Z" fill="#FF8B66"/>
<path fill-rule="evenodd" clip-rule="evenodd" d="M197.953 92.6653C197.703 93.3724 196.782 93.691 195.897 93.3787C195.012 93.0654 194.497 92.2402 194.747 91.5331C194.998 90.827 195.919 90.5084 196.804 90.8207C197.689 91.133 198.204 91.9592 197.953 92.6653Z" fill="#DB614D"/>
<path fill-rule="evenodd" clip-rule="evenodd" d="M184.565 85.6037C184.155 86.2314 183.185 86.3254 182.398 85.8136C181.611 85.3008 181.307 84.3774 181.717 83.7497C182.127 83.123 183.098 83.0279 183.884 83.5408C184.671 84.0526 184.976 84.9759 184.565 85.6037Z" fill="#DB614D"/>
<path fill-rule="evenodd" clip-rule="evenodd" d="M198.871 84.5596C198.707 84.5596 198.557 84.4489 198.515 84.2829C198.152 82.855 196.565 82.0142 196.55 82.0069C196.37 81.9119 196.3 81.6904 196.394 81.5108C196.488 81.3311 196.709 81.2611 196.89 81.3552C196.967 81.3959 198.784 82.36 199.228 84.1032C199.277 84.2985 199.158 84.498 198.961 84.5482C198.932 84.5565 198.901 84.5596 198.871 84.5596Z" fill="#1A4850"/>
<path fill-rule="evenodd" clip-rule="evenodd" d="M190.064 78.3076C189.999 78.3076 189.934 78.2909 189.874 78.2553C189.859 78.2459 188.314 77.3299 186.904 77.7592C186.708 77.8188 186.504 77.7091 186.444 77.5148C186.385 77.3216 186.494 77.1169 186.689 77.0573C188.413 76.5298 190.181 77.5817 190.255 77.6276C190.429 77.7321 190.484 77.9566 190.379 78.1311C190.31 78.2439 190.188 78.3076 190.064 78.3076Z" fill="#1A4850"/>
<path fill-rule="evenodd" clip-rule="evenodd" d="M196.222 87.5968C195.773 88.3917 195.05 88.8345 194.609 88.5849C194.166 88.3363 194.171 87.4903 194.619 86.6965C195.067 85.9016 195.789 85.4587 196.232 85.7073C196.675 85.9559 196.67 86.802 196.222 87.5968Z" fill="#1A4850"/>
<path fill-rule="evenodd" clip-rule="evenodd" d="M187.23 82.7843C186.781 83.5792 186.058 84.022 185.617 83.7724C185.174 83.5238 185.179 82.6788 185.627 81.884C186.075 81.0891 186.798 80.6462 187.241 80.8948C187.683 81.1434 187.678 81.9895 187.23 82.7843Z" fill="#1A4850"/>
<path fill-rule="evenodd" clip-rule="evenodd" d="M184.114 90.9434C184.114 90.9434 187.794 93.7457 190.453 93.8303C190.453 93.8303 187.625 96.1282 185.593 94.6377C183.561 93.1472 184.114 90.9434 184.114 90.9434Z" fill="#1A4850"/>
<path fill-rule="evenodd" clip-rule="evenodd" d="M194.288 85.9908C194.288 85.9908 195.977 84.3614 196.668 84.9348C197.359 85.5083 196.997 87.5137 196.997 87.5137L198.475 87.5513L197.254 87.0593C197.254 87.0593 197.647 84.9777 196.887 84.5463C195.806 83.9321 194.288 85.9908 194.288 85.9908Z" fill="#1A4850"/>
<path fill-rule="evenodd" clip-rule="evenodd" d="M187.926 82.7313C187.926 82.7313 188.446 80.4459 187.597 80.1535C186.747 79.86 185.217 81.2084 185.217 81.2084L184.417 79.9676L185.472 80.7551C185.472 80.7551 187.053 79.3398 187.816 79.7649C188.903 80.3697 187.926 82.7313 187.926 82.7313Z" fill="#1A4850"/>
<path fill-rule="evenodd" clip-rule="evenodd" d="M199.984 75.8984C199.984 75.8984 197.686 72.7127 194.513 75.2424C191.34 77.7722 184.184 81.8196 180.663 80.4826C177.142 79.1446 188.366 64.1771 198.109 68.5608C207.854 72.9435 206.977 87.2123 202.924 91.7475C198.871 96.2847 200.788 92.0577 200.788 92.0577C200.788 92.0577 201.059 85.6215 202.413 81.3569C203.768 77.0922 199.984 75.8984 199.984 75.8984Z" fill="#F24052"/>
<path fill-rule="evenodd" clip-rule="evenodd" d="M189.183 89.4845C189.005 89.4845 188.819 89.4604 188.627 89.4124L188.822 88.6447C189.477 88.8108 189.8 88.5298 189.955 88.2655C190.172 87.8916 190.142 87.4101 189.969 87.2284C189.868 87.1239 189.694 87.1344 189.451 87.2618L189.084 86.5588C189.892 86.1369 190.373 86.5035 190.543 86.6821C190.98 87.1396 191.022 88.0096 190.64 88.6645C190.328 89.1972 189.805 89.4845 189.183 89.4845Z" fill="#DB614D"/>
<path fill-rule="evenodd" clip-rule="evenodd" d="M236.151 144.599C235.768 150.223 221.822 168.535 219.497 169.184C218.893 169.346 218.277 169.681 217.697 170.076C217.452 170.251 217.208 170.436 216.975 170.622C215.651 171.688 214.651 172.917 214.651 172.917C210.584 172.651 199.16 167.374 202.832 166.215C203.052 166.145 203.296 166.017 203.564 165.833C203.715 165.728 203.877 165.612 204.041 165.461C208.364 161.843 216.778 147.161 216.836 146.049C216.882 144.831 218.335 144.599 218.335 144.599C218.335 144.599 210.398 132.968 205.795 131.565C201.193 130.161 198.869 124.606 198.869 124.606C194.325 105.414 207.539 108.429 207.539 108.429C217.278 114.216 236.535 138.963 236.151 144.599Z" fill="#8BBDDB"/>
<path fill-rule="evenodd" clip-rule="evenodd" d="M217.696 170.076C217.452 170.251 217.208 170.436 216.976 170.621C210.734 170.192 205.504 167.131 203.564 165.833C203.716 165.728 203.878 165.612 204.04 165.461C206.12 166.818 211.443 169.845 217.696 170.076Z" fill="#3E6575"/>
<path fill-rule="evenodd" clip-rule="evenodd" d="M159.738 104.104C159.634 104.301 159.517 104.497 159.378 104.683C158.483 104.649 157.634 104.544 156.821 104.37C152.696 103.535 149.523 101.228 147.442 99.2216C146.966 98.7579 146.547 98.3171 146.188 97.9108C146.466 97.7374 146.64 97.633 146.699 97.61C147.001 97.9453 147.35 98.3171 147.745 98.6994C149.814 100.729 153.033 103.095 157.263 103.86C158.053 104.011 158.878 104.092 159.738 104.104Z" fill="#3E6575"/>
<path fill-rule="evenodd" clip-rule="evenodd" d="M222.1 186.753C220.183 189.988 216.638 193.896 210.444 194.905C210.339 194.742 210.223 194.557 210.118 194.371C216.475 193.421 219.997 189.303 221.822 186.079C221.914 186.312 222.007 186.544 222.1 186.753Z" fill="#3E6575"/>
<path fill-rule="evenodd" clip-rule="evenodd" d="M116.331 292.269C116.331 292.269 114.878 293.695 113.368 296.316C111.857 298.937 113.518 301.348 106.209 307.426C106.209 307.426 91.461 298.809 84.8015 287.735C84.8015 287.735 84.9177 284.569 88.1365 283.827C89.8689 283.432 94.6327 285.659 99.2123 286.517C99.8634 286.633 100.514 286.737 101.153 286.784C101.955 286.853 102.745 286.864 103.501 286.772C104.198 286.703 104.861 286.551 105.476 286.296H105.489C107.045 285.659 108.277 284.395 108.917 282.18C108.917 282.18 112.833 284.407 110.218 288.175C110.218 288.175 114.868 286.146 116.331 292.269Z" fill="#CFD8DC"/>
<path fill-rule="evenodd" clip-rule="evenodd" d="M106.208 307.426C106.208 307.426 91.4605 298.809 84.801 287.734C84.801 287.734 87.2766 287.212 89.322 290.877C91.3674 294.554 107.406 302.891 106.208 307.426Z" fill="#ADBEC4"/>
<path fill-rule="evenodd" clip-rule="evenodd" d="M106.267 290.007C105.069 291.898 105.093 288.407 103.501 286.772C104.198 286.703 104.861 286.551 105.476 286.296H105.488C106.198 287.063 107.208 288.535 106.267 290.007Z" fill="#ADBEC4"/>
<path fill-rule="evenodd" clip-rule="evenodd" d="M101.63 290.112C100.363 291.307 99.956 288.186 99.2117 286.517C99.8639 286.633 100.514 286.738 101.153 286.784C101.897 287.793 102.594 289.196 101.63 290.112Z" fill="#ADBEC4"/>
<path fill-rule="evenodd" clip-rule="evenodd" d="M207.062 330.503H186.201C186.201 330.503 185.329 327.604 186.201 324.414C186.573 323.035 188.734 321.747 190.745 319.949C191.303 319.451 191.838 318.93 192.337 318.339C192.733 317.874 193.093 317.364 193.394 316.819C193.778 316.158 194.081 315.439 194.255 314.65C194.592 313.073 194.464 311.217 193.558 308.991C193.558 308.991 200.659 307.506 203.192 311.369C203.192 311.369 203.436 309.583 205.691 310.776C205.691 310.776 205.365 314.36 205.807 317.364C206.249 320.355 209.05 321.226 207.062 330.503Z" fill="#CFD8DC"/>
<path fill-rule="evenodd" clip-rule="evenodd" d="M201.635 317.967C201.449 318.176 201.193 318.28 200.937 318.28C200.717 318.28 200.508 318.21 200.321 318.071C199.241 317.213 196.859 315.88 193.395 316.819C193.779 316.158 194.08 315.439 194.255 314.651C195.649 314.14 198.276 313.839 201.519 316.599C201.937 316.947 201.995 317.561 201.635 317.967Z" fill="#ADBEC4"/>
<path fill-rule="evenodd" clip-rule="evenodd" d="M199.88 321.423L199.764 321.597C199.485 322.025 198.927 322.165 198.485 321.91C197.067 321.075 193.883 319.498 190.745 319.95C191.303 319.451 191.837 318.929 192.337 318.338C193.883 317.979 196.8 317.782 199.67 320.159C200.042 320.472 200.147 321.016 199.88 321.423Z" fill="#ADBEC4"/>
</svg>
