<svg width="342" height="203" viewBox="0 0 432 293" fill="none" xmlns="http://www.w3.org/2000/svg">
<path fill-rule="evenodd" clip-rule="evenodd" d="M256.979 56.0257C256.979 83.59 234.872 105.936 207.599 105.936C180.329 105.936 158.221 83.59 158.221 56.0257C158.221 28.4606 180.329 6.11499 207.599 6.11499C234.872 6.11499 256.979 28.4606 256.979 56.0257Z" fill="#1B365D"/>
<path fill-rule="evenodd" clip-rule="evenodd" d="M251.77 50.7614C251.77 78.3265 229.664 100.672 202.392 100.672C175.121 100.672 153.013 78.3265 153.013 50.7614C153.013 23.1972 175.121 0.851562 202.392 0.851562C229.664 0.851562 251.77 23.1972 251.77 50.7614Z" fill="#FFB54A"/>
<path fill-rule="evenodd" clip-rule="evenodd" d="M202.392 13.2668C181.884 13.2668 165.2 30.1307 165.2 50.8593C165.2 71.5869 181.884 88.4508 202.392 88.4508C222.9 88.4508 239.584 71.5869 239.584 50.8593C239.584 30.1307 222.9 13.2668 202.392 13.2668ZM202.392 91.0564C180.463 91.0564 162.622 73.0244 162.622 50.8594C162.622 28.6944 180.463 10.6616 202.392 10.6616C224.321 10.6616 242.161 28.6944 242.161 50.8594C242.161 73.0244 224.321 91.0564 202.392 91.0564Z" fill="#FCF0E3"/>
<path fill-rule="evenodd" clip-rule="evenodd" d="M205.152 61.7631C207.86 61.3393 209.215 60.1052 209.215 58.0609V57.9454C209.215 56.9423 208.929 56.1224 208.356 55.4859C207.783 54.8501 206.715 54.2422 205.152 53.6638V61.7631ZM199.771 35.7874C198.398 35.981 197.397 36.3953 196.766 37.031C196.137 37.6676 195.822 38.4492 195.822 39.375V39.4905C195.822 40.3781 196.089 41.1388 196.623 41.7754C197.157 42.412 198.206 43.0191 199.771 43.5975V35.7874ZM199.485 68.8796C197.005 68.5713 194.61 67.9451 192.302 66.9993C189.992 66.0544 187.885 64.8499 185.977 63.383L190.442 56.7879C192.006 57.9838 193.523 58.9773 194.992 59.7676C196.461 60.5588 198.054 61.1276 199.771 61.4741V52.2762C197.711 51.697 195.907 51.0612 194.362 50.3665C192.818 49.6726 191.538 48.844 190.527 47.8792C189.516 46.9152 188.753 45.787 188.238 44.4948C187.723 43.2025 187.465 41.7087 187.465 40.0109V39.8954C187.465 38.2757 187.752 36.8106 188.324 35.4983C188.896 34.1878 189.706 33.0493 190.756 32.0853C191.805 31.1221 193.074 30.3405 194.563 29.7421C196.051 29.1446 197.691 28.7495 199.485 28.5567V25.2009H205.438V28.6722C207.497 28.9814 209.395 29.492 211.133 30.205C212.868 30.9189 214.518 31.8351 216.083 32.9529L212.249 39.7217C211.104 38.9505 209.939 38.2661 208.757 37.6678C207.574 37.0703 206.373 36.6178 205.152 36.3086V45.0445C209.501 46.2404 212.658 47.8019 214.624 49.7307C216.59 51.6596 217.572 54.2424 217.572 57.4827V57.5982C217.572 59.2179 217.275 60.6838 216.685 61.9952C216.092 63.3066 215.272 64.4443 214.223 65.4083C213.173 66.3732 211.905 67.1635 210.417 67.7801C208.929 68.3976 207.27 68.8023 205.438 68.9951V74.7226H199.485V68.8796Z" fill="#1B1B25"/>
<path fill-rule="evenodd" clip-rule="evenodd" d="M251.77 50.7614C251.77 78.3265 229.664 100.672 202.392 100.672C175.121 100.672 153.013 78.3265 153.013 50.7614C153.013 23.1972 175.121 0.851562 202.392 0.851562C229.664 0.851562 251.77 23.1972 251.77 50.7614Z" fill="#FFB54A"/>
<path fill-rule="evenodd" clip-rule="evenodd" d="M202.392 13.2668C181.884 13.2668 165.2 30.1307 165.2 50.8593C165.2 71.5869 181.884 88.4508 202.392 88.4508C222.9 88.4508 239.584 71.5869 239.584 50.8593C239.584 30.1307 222.9 13.2668 202.392 13.2668ZM202.392 91.0564C180.463 91.0564 162.622 73.0244 162.622 50.8594C162.622 28.6944 180.463 10.6616 202.392 10.6616C224.321 10.6616 242.161 28.6944 242.161 50.8594C242.161 73.0244 224.321 91.0564 202.392 91.0564Z" fill="#C48504"/>
<path fill-rule="evenodd" clip-rule="evenodd" d="M215.405 47.6195V41.0532H209.026V47.6195H204.211L198.262 41.0532H193.477V47.6195H186.168V54.1859H193.477V62.9412H199.856V54.1859H202.689L210.621 62.9412H215.405V54.1859H222.713V47.6195H215.405Z" fill="#C48504"/>
<path d="M215.405 41.0532H215.982C215.982 40.7344 215.723 40.4759 215.405 40.4759V41.0532ZM215.405 47.6195H214.827C214.827 47.9384 215.086 48.1969 215.405 48.1969V47.6195ZM209.026 41.0532V40.4759C208.707 40.4759 208.448 40.7344 208.448 41.0532H209.026ZM209.026 47.6195V48.1969C209.345 48.1969 209.603 47.9384 209.603 47.6195H209.026ZM204.211 47.6195L203.783 48.0072C203.892 48.128 204.047 48.1969 204.211 48.1969V47.6195ZM198.262 41.0532L198.69 40.6656C198.581 40.5448 198.425 40.4759 198.262 40.4759V41.0532ZM193.477 41.0532V40.4759C193.158 40.4759 192.9 40.7344 192.9 41.0532H193.477ZM193.477 47.6195V48.1969C193.796 48.1969 194.055 47.9384 194.055 47.6195H193.477ZM186.168 47.6195V47.0422C185.849 47.0422 185.591 47.3006 185.591 47.6195H186.168ZM186.168 54.1859H185.591C185.591 54.5048 185.849 54.7633 186.168 54.7633V54.1859ZM193.477 54.1859H194.055C194.055 53.867 193.796 53.6085 193.477 53.6085V54.1859ZM193.477 62.9412H192.9C192.9 63.26 193.158 63.5185 193.477 63.5185V62.9412ZM199.856 62.9412V63.5185C200.175 63.5185 200.433 63.26 200.433 62.9412H199.856ZM199.856 54.1859V53.6085C199.537 53.6085 199.279 53.867 199.279 54.1859H199.856ZM202.689 54.1859L203.117 53.7983C203.007 53.6774 202.852 53.6085 202.689 53.6085V54.1859ZM210.621 62.9412L210.193 63.3288C210.302 63.4496 210.458 63.5185 210.621 63.5185V62.9412ZM215.405 62.9412V63.5185C215.723 63.5185 215.982 63.26 215.982 62.9412H215.405ZM215.405 54.1859V53.6085C215.086 53.6085 214.827 53.867 214.827 54.1859H215.405ZM222.713 54.1859V54.7633C223.032 54.7633 223.291 54.5048 223.291 54.1859H222.713ZM222.713 47.6195H223.291C223.291 47.3006 223.032 47.0422 222.713 47.0422V47.6195ZM214.827 41.0532V47.6195H215.982V41.0532H214.827ZM209.026 41.6306H215.405V40.4759H209.026V41.6306ZM209.603 47.6195V41.0532H208.448V47.6195H209.603ZM209.026 47.0422H204.211V48.1969H209.026V47.0422ZM197.834 41.4409L203.783 48.0072L204.638 47.2319L198.69 40.6656L197.834 41.4409ZM193.477 41.6306H198.262V40.4759H193.477V41.6306ZM194.055 47.6195V41.0532H192.9V47.6195H194.055ZM193.477 47.0422H186.168V48.1969H193.477V47.0422ZM185.591 47.6195V54.1859H186.746V47.6195H185.591ZM186.168 54.7633H193.477V53.6085H186.168V54.7633ZM194.055 62.9412V54.1859H192.9V62.9412H194.055ZM199.856 62.3638H193.477V63.5185H199.856V62.3638ZM199.279 54.1859V62.9412H200.433V54.1859H199.279ZM199.856 54.7633H202.689V53.6085H199.856V54.7633ZM211.049 62.5535L203.117 53.7983L202.261 54.5736L210.193 63.3288L211.049 62.5535ZM215.405 62.3638H210.621V63.5185H215.405V62.3638ZM214.827 54.1859V62.9412H215.982V54.1859H214.827ZM215.405 54.7633H222.713V53.6085H215.405V54.7633ZM223.291 54.1859V47.6195H222.136V54.1859H223.291ZM222.713 47.0422H215.405V48.1969H222.713V47.0422Z" fill="#C48504"/>
<path fill-rule="evenodd" clip-rule="evenodd" d="M175.534 27.6618C175.534 40.1339 165.531 50.2454 153.192 50.2454C140.851 50.2454 130.848 40.1339 130.848 27.6618C130.848 15.1898 140.851 5.0791 153.192 5.0791C165.531 5.0791 175.534 15.1898 175.534 27.6618Z" fill="#1B365D"/>
<path fill-rule="evenodd" clip-rule="evenodd" d="M173.177 25.2804C173.177 37.7524 163.174 47.8631 150.835 47.8631C138.495 47.8631 128.492 37.7524 128.492 25.2804C128.492 12.8083 138.495 2.69678 150.835 2.69678C163.174 2.69678 173.177 12.8083 173.177 25.2804Z" fill="#FFB54A"/>
<path fill-rule="evenodd" clip-rule="evenodd" d="M154.708 24.1683V21.7561H152.212V24.1683H150.328L148 21.7561H146.128V24.1683H143.267V26.5804H146.128V29.7966H148.624V26.5804H149.732L152.836 29.7966H154.708V26.5804H157.568V24.1683H154.708Z" fill="#C48504"/>
<path d="M154.708 21.7561H154.958C154.958 21.618 154.846 21.5061 154.708 21.5061V21.7561ZM154.708 24.1683H154.458C154.458 24.3063 154.57 24.4183 154.708 24.4183V24.1683ZM152.212 21.7561V21.5061C152.074 21.5061 151.962 21.618 151.962 21.7561H152.212ZM152.212 24.1683V24.4183C152.35 24.4183 152.462 24.3063 152.462 24.1683H152.212ZM150.328 24.1683L150.148 24.3419C150.195 24.3907 150.26 24.4183 150.328 24.4183V24.1683ZM148 21.7561L148.18 21.5825C148.133 21.5337 148.068 21.5061 148 21.5061V21.7561ZM146.128 21.7561V21.5061C145.989 21.5061 145.878 21.618 145.878 21.7561H146.128ZM146.128 24.1683V24.4183C146.266 24.4183 146.378 24.3063 146.378 24.1683H146.128ZM143.267 24.1683V23.9183C143.129 23.9183 143.017 24.0302 143.017 24.1683H143.267ZM143.267 26.5804H143.017C143.017 26.7185 143.129 26.8304 143.267 26.8304V26.5804ZM146.128 26.5804H146.378C146.378 26.4423 146.266 26.3304 146.128 26.3304V26.5804ZM146.128 29.7966H145.878C145.878 29.9346 145.989 30.0466 146.128 30.0466V29.7966ZM148.624 29.7966V30.0466C148.762 30.0466 148.874 29.9346 148.874 29.7966H148.624ZM148.624 26.5804V26.3304C148.485 26.3304 148.374 26.4423 148.374 26.5804H148.624ZM149.732 26.5804L149.912 26.4068C149.865 26.358 149.8 26.3304 149.732 26.3304V26.5804ZM152.836 29.7966L152.656 29.9702C152.703 30.019 152.768 30.0466 152.836 30.0466V29.7966ZM154.708 29.7966V30.0466C154.846 30.0466 154.958 29.9346 154.958 29.7966H154.708ZM154.708 26.5804V26.3304C154.57 26.3304 154.458 26.4423 154.458 26.5804H154.708ZM157.568 26.5804V26.8304C157.706 26.8304 157.818 26.7185 157.818 26.5804H157.568ZM157.568 24.1683H157.818C157.818 24.0302 157.706 23.9183 157.568 23.9183V24.1683ZM154.458 21.7561V24.1683H154.958V21.7561H154.458ZM152.212 22.0061H154.708V21.5061H152.212V22.0061ZM152.462 24.1683V21.7561H151.962V24.1683H152.462ZM152.212 23.9183H150.328V24.4183H152.212V23.9183ZM147.82 21.9297L150.148 24.3419L150.507 23.9947L148.18 21.5825L147.82 21.9297ZM146.128 22.0061H148V21.5061H146.128V22.0061ZM146.378 24.1683V21.7561H145.878V24.1683H146.378ZM146.128 23.9183H143.267V24.4183H146.128V23.9183ZM143.017 24.1683V26.5804H143.517V24.1683H143.017ZM143.267 26.8304H146.128V26.3304H143.267V26.8304ZM146.378 29.7966V26.5804H145.878V29.7966H146.378ZM148.624 29.5466H146.128V30.0466H148.624V29.5466ZM148.374 26.5804V29.7966H148.874V26.5804H148.374ZM148.624 26.8304H149.732V26.3304H148.624V26.8304ZM153.016 29.623L149.912 26.4068L149.552 26.754L152.656 29.9702L153.016 29.623ZM154.708 29.5466H152.836V30.0466H154.708V29.5466ZM154.458 26.5804V29.7966H154.958V26.5804H154.458ZM154.708 26.8304H157.568V26.3304H154.708V26.8304ZM157.818 26.5804V24.1683H157.318V26.5804H157.818ZM157.568 23.9183H154.708V24.4183H157.568V23.9183Z" fill="#C48504"/>
<path fill-rule="evenodd" clip-rule="evenodd" d="M150.835 8.31494C141.555 8.31494 134.006 15.9453 134.006 25.3247C134.006 34.7033 141.555 42.3336 150.835 42.3336C160.114 42.3336 167.663 34.7033 167.663 25.3247C167.663 15.9453 160.114 8.31494 150.835 8.31494ZM150.835 43.513C140.912 43.513 132.84 35.3538 132.84 25.3248C132.84 15.2957 140.912 7.13647 150.835 7.13647C160.757 7.13647 168.829 15.2957 168.829 25.3248C168.829 35.3538 160.757 43.513 150.835 43.513Z" fill="#C48504"/>
<path fill-rule="evenodd" clip-rule="evenodd" d="M125.601 65.8331C125.601 60.4164 121.257 56.0263 115.898 56.0263C121.257 56.0263 125.601 51.6345 125.601 46.2188C125.601 51.6345 129.945 56.0263 135.303 56.0263C129.945 56.0263 125.601 60.4164 125.601 65.8331Z" fill="white"/>
<path fill-rule="evenodd" clip-rule="evenodd" d="M239.584 115.138C239.584 111.16 236.393 107.936 232.458 107.936C236.393 107.936 239.584 104.711 239.584 100.734C239.584 104.711 242.774 107.936 246.709 107.936C242.774 107.936 239.584 111.16 239.584 115.138Z" fill="white"/>
<path fill-rule="evenodd" clip-rule="evenodd" d="M193.009 149.824C193.009 142.51 187.142 136.58 179.906 136.58C187.142 136.58 193.009 130.651 193.009 123.337C193.009 130.651 198.875 136.58 206.111 136.58C198.875 136.58 193.009 142.51 193.009 149.824Z" fill="white"/>
<path fill-rule="evenodd" clip-rule="evenodd" d="M238.243 47.6412C238.243 40.7873 232.747 35.2308 225.965 35.2308C232.747 35.2308 238.243 29.6744 238.243 22.8196C238.243 29.6744 243.741 35.2308 250.522 35.2308C243.741 35.2308 238.243 40.7873 238.243 47.6412Z" fill="#FCF0E3"/>
<path fill-rule="evenodd" clip-rule="evenodd" d="M279.29 56.0257C279.29 52.2444 276.258 49.1796 272.517 49.1796C276.258 49.1796 279.29 46.1148 279.29 42.3335C279.29 46.1148 282.322 49.1796 286.063 49.1796C282.322 49.1796 279.29 52.2444 279.29 56.0257Z" fill="white"/>
<path fill-rule="evenodd" clip-rule="evenodd" d="M299.953 213.683H215.72C215.482 213.683 215.29 213.489 215.29 213.249C215.29 213.009 215.482 212.815 215.72 212.815H299.953C300.19 212.815 300.383 213.009 300.383 213.249C300.383 213.489 300.19 213.683 299.953 213.683Z" fill="white"/>
<path fill-rule="evenodd" clip-rule="evenodd" d="M299.953 233.661H228.788C228.55 233.661 228.358 233.467 228.358 233.227C228.358 232.987 228.55 232.793 228.788 232.793H299.953C300.19 232.793 300.383 232.987 300.383 233.227C300.383 233.467 300.19 233.661 299.953 233.661Z" fill="white"/>
<path fill-rule="evenodd" clip-rule="evenodd" d="M299.953 224.304H248.167C247.93 224.304 247.737 224.109 247.737 223.87C247.737 223.63 247.93 223.436 248.167 223.436H299.953C300.19 223.436 300.382 223.63 300.382 223.87C300.382 224.109 300.19 224.304 299.953 224.304Z" fill="white"/>
<path fill-rule="evenodd" clip-rule="evenodd" d="M241.709 224.304H215.719C215.482 224.304 215.29 224.109 215.29 223.87C215.29 223.63 215.482 223.436 215.719 223.436H241.709C241.946 223.436 242.138 223.63 242.138 223.87C242.138 224.109 241.946 224.304 241.709 224.304Z" fill="white"/>
<path fill-rule="evenodd" clip-rule="evenodd" d="M204.684 245.373H120.451C120.213 245.373 120.021 245.178 120.021 244.939C120.021 244.699 120.213 244.504 120.451 244.504H204.684C204.921 244.504 205.114 244.699 205.114 244.939C205.114 245.178 204.921 245.373 204.684 245.373Z" fill="white"/>
<path fill-rule="evenodd" clip-rule="evenodd" d="M191.616 265.35H120.45C120.213 265.35 120.021 265.156 120.021 264.916C120.021 264.676 120.213 264.482 120.45 264.482H191.616C191.853 264.482 192.046 264.676 192.046 264.916C192.046 265.156 191.853 265.35 191.616 265.35Z" fill="white"/>
<path fill-rule="evenodd" clip-rule="evenodd" d="M172.236 255.994H120.451C120.213 255.994 120.021 255.799 120.021 255.559C120.021 255.32 120.213 255.125 120.451 255.125H172.236C172.473 255.125 172.665 255.32 172.665 255.559C172.665 255.799 172.473 255.994 172.236 255.994Z" fill="white"/>
<path fill-rule="evenodd" clip-rule="evenodd" d="M204.685 255.994H178.694C178.457 255.994 178.264 255.799 178.264 255.559C178.264 255.32 178.457 255.125 178.694 255.125H204.685C204.922 255.125 205.114 255.32 205.114 255.559C205.114 255.799 204.922 255.994 204.685 255.994Z" fill="white"/>
<path fill-rule="evenodd" clip-rule="evenodd" d="M268.192 164.685L268.22 164.586L280.66 120.844L280.606 120.803C281.166 119.696 282.616 117.321 285.583 115.23C290.711 111.614 291.324 105.625 291.324 105.625C294.062 102.945 297.148 100.66 299.944 98.0429C300.237 97.7693 300.541 97.4697 300.626 97.078C300.721 96.6403 300.519 96.1922 300.272 95.8205C298.828 93.6597 296.176 93.3471 293.97 94.3458C292.678 94.9303 291.522 95.7623 290.44 96.6768C289.926 97.1102 288.173 98.3026 287.641 99.0963L297.536 77.7408C298.415 75.844 297.84 73.6798 296.258 72.9312C295.468 72.5569 294.569 72.6047 293.759 72.9833C293.245 73.223 292.776 73.6086 292.382 74.0906C292.413 73.9343 292.431 73.8422 292.431 73.8422C280.841 63.9912 266.541 97.5183 266.541 97.5183L262.483 107.198L228.062 171.705C223.195 181.065 226.946 192.638 236.35 197.272C236.485 197.339 236.622 197.398 236.757 197.461C239.517 199.072 242.718 199.996 246.132 199.996H313.873L328.47 164.93L268.192 164.685Z" fill="white"/>
<path fill-rule="evenodd" clip-rule="evenodd" d="M256.591 199.98C254.39 199.912 255.722 199.953 256.591 199.98V199.98Z" fill="#FF887C"/>
<path fill-rule="evenodd" clip-rule="evenodd" d="M256.603 199.98C256.911 199.989 257.158 199.997 257.158 199.997C256.947 199.991 256.77 199.985 256.603 199.98Z" fill="#FF887C"/>
<path fill-rule="evenodd" clip-rule="evenodd" d="M268.221 164.585L266.25 171.514C265.738 173.438 265.146 175.504 264.516 177.611L262.134 185.987C261.805 187.062 261.389 188.08 260.899 189.042C258.85 195.243 257.158 199.996 257.158 199.996L281.52 164.739C275.46 164.739 274.069 164.592 268.221 164.585Z" fill="#91BABA"/>
<path fill-rule="evenodd" clip-rule="evenodd" d="M278.028 101.278C277.939 101.278 277.85 101.251 277.773 101.193C277.582 101.052 277.542 100.779 277.683 100.586C282.007 94.659 287.819 97.8619 287.876 97.8949C288.082 98.0121 288.155 98.2753 288.039 98.4846C287.925 98.693 287.663 98.7677 287.456 98.6522C287.244 98.5332 282.24 95.8027 278.374 101.102C278.29 101.218 278.16 101.278 278.028 101.278Z" fill="#91BABA"/>
<path fill-rule="evenodd" clip-rule="evenodd" d="M292.628 74.0071C290.842 76.2816 289.18 78.6743 287.707 81.1616C286.973 82.4069 286.309 83.6923 285.753 85.0106C285.205 86.3194 284.763 87.7263 284.833 89.0533L284.835 89.0802C284.847 89.3191 284.665 89.524 284.428 89.537C284.192 89.5501 283.989 89.3668 283.976 89.1271V89.1158C283.929 87.5014 284.455 86.058 285.043 84.7032C285.648 83.3475 286.351 82.0517 287.121 80.8029C288.667 78.3069 290.382 75.9421 292.233 73.6771C292.324 73.5668 292.485 73.5512 292.594 73.6424C292.702 73.7327 292.718 73.8925 292.632 74.0028L292.628 74.0071Z" fill="#91BABA"/>
<path fill-rule="evenodd" clip-rule="evenodd" d="M289.641 72.7685C288.507 73.5571 287.489 74.6019 286.579 75.6866C285.667 76.7835 284.867 77.9724 284.146 79.2074C283.44 80.451 282.818 81.7433 282.288 83.0755C282.007 83.7338 281.798 84.4225 281.549 85.0938L280.933 87.1556L280.925 87.1807C280.857 87.41 280.618 87.5403 280.39 87.4708C280.164 87.4013 280.035 87.159 280.103 86.9298C280.104 86.928 280.105 86.9237 280.106 86.9219L280.776 84.8255C281.042 84.142 281.271 83.4437 281.57 82.7741C282.139 81.4211 282.8 80.1088 283.548 78.8478C284.311 77.5955 285.154 76.3918 286.112 75.2828C287.081 74.1781 288.111 73.1446 289.364 72.3074C289.487 72.2258 289.652 72.2596 289.732 72.3838C289.813 72.5063 289.781 72.6713 289.662 72.7538L289.641 72.7685Z" fill="#91BABA"/>
<path fill-rule="evenodd" clip-rule="evenodd" d="M284.956 73.1023C283.311 74.8427 281.78 76.7229 280.457 78.7212C279.804 79.7243 279.176 80.75 278.684 81.8312C278.188 82.9072 277.778 84.0258 277.598 85.167L277.598 85.1774C277.561 85.4145 277.341 85.576 277.105 85.5387C276.872 85.5005 276.711 85.279 276.749 85.0419C276.749 85.0385 276.75 85.0341 276.75 85.0306C276.98 83.7688 277.448 82.6007 277.992 81.489C278.535 80.3748 279.203 79.3413 279.895 78.3322C281.3 76.3243 282.884 74.4744 284.605 72.741C284.702 72.6428 284.861 72.6428 284.959 72.7418C285.054 72.8391 285.056 72.9963 284.963 73.0953L284.956 73.1023Z" fill="#91BABA"/>
<path fill-rule="evenodd" clip-rule="evenodd" d="M424.538 228.376L407.921 182.592C405.943 172.547 396.487 164.93 385.112 164.93L338.695 164.558L286.4 164.759V199.996H302.629L294.254 291.903L409.407 292.561L408.762 230.327L424.538 228.376Z" fill="#4E69FF"/>
<path fill-rule="evenodd" clip-rule="evenodd" d="M338.605 164.95L338.695 164.557L286.4 164.759V199.996H302.63L302.714 199.066C302.714 180.469 318.71 165.357 338.605 164.95Z" fill="#1B1B25"/>
<path fill-rule="evenodd" clip-rule="evenodd" d="M272.517 113.958C272.517 113.958 275.452 139.157 275.625 138.55C275.797 137.943 280.661 120.844 280.661 120.844L272.517 113.958Z" fill="#91BABA"/>
<path fill-rule="evenodd" clip-rule="evenodd" d="M341.062 241.529L336.668 219.142L333.277 201.869C332.879 199.837 330.908 198.505 328.897 198.908L311.922 202.312C309.913 202.715 308.594 204.707 308.993 206.739L312.405 224.124L315.112 237.913L316.778 246.399C317.176 248.431 319.148 249.763 321.158 249.361L331.183 247.35L338.133 245.957C340.143 245.554 341.461 243.561 341.062 241.529Z" fill="#1B1B25"/>
<mask id="mask0_3390_20513" style="mask-type:alpha" maskUnits="userSpaceOnUse" x="309" y="219" width="123" height="67">
<path fill-rule="evenodd" clip-rule="evenodd" d="M309.647 219.142H431.896V285.335H309.647V219.142Z" fill="white"/>
</mask>
<g mask="url(#mask0_3390_20513)">
<path fill-rule="evenodd" clip-rule="evenodd" d="M431.416 262.162L423.761 228.472L388.958 232.776L390.87 241.345L390.692 241.301L352.861 231.834L352.828 231.881C351.784 231.351 349.823 230.091 348.097 227.486C344.925 222.694 339.597 222.562 339.597 222.562C338.57 221.475 337.614 220.313 336.668 219.142L337.554 223.657L337.332 223.776C334.927 225.064 332.214 225.634 329.5 225.42C324.479 225.024 316.275 224.377 312.865 224.108C311.825 224.026 310.825 224.585 310.377 225.539C305.508 235.883 326.414 245.348 331.184 247.349H331.184C331.246 247.376 331.294 247.395 331.352 247.419C331.42 247.448 331.486 247.476 331.547 247.5C331.616 247.528 331.671 247.552 331.728 247.574C331.783 247.597 331.837 247.619 331.88 247.636C331.942 247.661 331.983 247.678 332.023 247.693C332.042 247.701 332.064 247.71 332.078 247.715C332.124 247.734 332.149 247.743 332.149 247.743L340.332 250.844L405.103 283.069C405.705 283.359 406.313 283.614 406.927 283.835C410.068 285.288 413.682 285.762 417.31 284.919C427.423 282.572 433.737 272.383 431.416 262.162Z" fill="white"/>
</g>
<path fill-rule="evenodd" clip-rule="evenodd" d="M428.949 251.301L388.959 232.776C390.295 238.654 389.516 236.06 390.694 241.301L393.415 241.982C404.93 242.768 428.949 251.301 428.949 251.301Z" fill="#91BABA"/>
<path fill-rule="evenodd" clip-rule="evenodd" d="M385.727 233.21C385.527 233.21 385.349 233.068 385.308 232.865L380.311 208.402C380.263 208.166 380.412 207.936 380.644 207.888C380.872 207.835 381.104 207.989 381.152 208.225L386.068 232.294L402.896 230.13C403.129 230.096 403.347 230.267 403.377 230.506C403.407 230.744 403.241 230.961 403.005 230.991L385.782 233.207C385.764 233.209 385.745 233.21 385.727 233.21Z" fill="#1B1B25"/>
<path fill-rule="evenodd" clip-rule="evenodd" d="M429.22 252.693C429.253 252.859 429.279 252.991 429.288 253.038C429.281 253.004 429.26 252.893 429.22 252.693Z" fill="#FF887C"/>
<path fill-rule="evenodd" clip-rule="evenodd" d="M429.288 253.039C429.292 253.06 429.293 253.063 429.288 253.039V253.039Z" fill="#FF887C"/>
<path fill-rule="evenodd" clip-rule="evenodd" d="M428.948 251.301C428.948 251.301 429.04 251.773 429.13 252.228C429.081 251.981 429.024 251.689 428.948 251.301Z" fill="#FF887C"/>
<path fill-rule="evenodd" clip-rule="evenodd" d="M429.13 252.228C429.167 252.418 429.197 252.575 429.22 252.693C429.193 252.555 429.162 252.395 429.13 252.228Z" fill="#FF887C"/>
<path fill-rule="evenodd" clip-rule="evenodd" d="M349.657 58.4738C307.38 54.1846 322.127 85.7427 324.988 88.2891L321.752 105.762C320.823 110.777 324.094 115.604 329.055 116.543L367.397 123.798C372.359 124.737 377.135 121.431 378.064 116.416L384.346 82.4999C384.925 79.3699 391.934 62.7629 349.657 58.4738Z" fill="#1B1B25"/>
<path fill-rule="evenodd" clip-rule="evenodd" d="M375.585 108.48L374.746 108.321L366.283 89.9343C364.201 89.6304 362.248 88.854 360.557 87.6963C358.932 89.4732 356.7 90.6977 354.134 90.9904C351.048 91.3438 348.132 90.2765 346.005 88.3138C343.646 90.4094 340.658 91.8293 337.299 92.2132C333.46 92.6518 329.785 91.6704 326.788 89.6825L320.893 121.516C320.078 125.914 320.972 130.225 323.078 133.785C325.171 139.023 329.678 143.137 335.475 144.486V165.508C335.475 172.81 341.387 178.784 348.611 178.784H352.755C359.979 178.784 365.891 172.81 365.891 165.508V141.638C368.021 139.273 369.562 136.312 370.188 132.936L371.264 127.124L372.103 127.282C377.079 128.224 381.913 124.879 382.845 119.849L382.94 119.338C383.872 114.308 380.562 109.422 375.585 108.48Z" fill="white"/>
<path fill-rule="evenodd" clip-rule="evenodd" d="M369.315 126.386L368.546 130.532C366.775 140.099 357.666 146.402 348.202 144.612L334.821 142.079C329.707 141.113 325.552 137.97 323.078 133.785C325.259 139.24 330.046 143.497 336.192 144.66L336.725 144.761C338.852 149.214 343.355 152.312 348.552 152.312H352.748C358.947 152.312 364.167 147.909 365.527 142.048C367.852 139.62 369.527 136.505 370.188 132.936L371.264 127.123L369.315 126.386Z" fill="#91BABA"/>
<path fill-rule="evenodd" clip-rule="evenodd" d="M195.101 179.353L160.68 114.846L156.621 105.166C156.621 105.166 142.322 71.6392 130.731 81.4894C130.731 81.4894 130.75 81.5823 130.78 81.7386C130.387 81.2566 129.918 80.871 129.404 80.6313C128.593 80.2527 127.695 80.2049 126.904 80.5801C125.323 81.3279 124.748 83.4921 125.627 85.3879L135.522 106.744C134.99 105.95 133.237 104.758 132.723 104.325C131.641 103.41 130.485 102.578 129.193 101.993C126.986 100.995 124.335 101.308 122.891 103.469C122.643 103.84 122.442 104.288 122.537 104.725C122.622 105.118 122.926 105.417 123.218 105.691C126.014 108.308 129.101 110.593 131.839 113.273C131.839 113.273 132.451 119.262 137.579 122.878C140.546 124.969 141.997 127.344 142.556 128.451L142.503 128.492L154.97 172.333L136.762 172.578V207.645H177.031C180.45 207.645 183.653 206.717 186.416 205.103C186.548 205.041 186.681 204.985 186.813 204.92C196.216 200.287 199.968 188.713 195.101 179.353Z" fill="white"/>
<path fill-rule="evenodd" clip-rule="evenodd" d="M166.006 207.645C169.998 207.521 166.006 207.645 166.006 207.645C166.006 207.645 156.648 182.199 155.041 172.233C148.841 172.233 147.898 172.512 141.698 172.512L166.006 207.645Z" fill="#91BABA"/>
<path fill-rule="evenodd" clip-rule="evenodd" d="M145.134 108.926C145.003 108.926 144.872 108.866 144.788 108.75C140.923 103.451 135.918 106.181 135.707 106.301C135.5 106.416 135.239 106.343 135.123 106.133C135.007 105.924 135.081 105.66 135.287 105.543C135.345 105.51 141.157 102.309 145.48 108.234C145.621 108.427 145.58 108.7 145.389 108.841C145.312 108.899 145.223 108.926 145.134 108.926Z" fill="#91BABA"/>
<path fill-rule="evenodd" clip-rule="evenodd" d="M130.912 81.3055C131.955 82.358 132.902 83.4758 133.807 84.6404C134.704 85.8076 135.544 87.0217 136.296 88.2957C137.037 89.5767 137.696 90.9116 138.221 92.3115C138.718 93.7211 139.07 95.194 139.187 96.7112C139.206 96.95 139.029 97.1593 138.793 97.1775C138.557 97.1967 138.349 97.0178 138.331 96.7789C138.331 96.7763 138.331 96.7746 138.331 96.7728L138.33 96.7546C138.246 95.3399 137.944 93.9373 137.494 92.5747C137.016 91.219 136.402 89.9102 135.703 88.644C134.993 87.3847 134.191 86.1741 133.331 85.0077C132.467 83.8475 131.544 82.715 130.553 81.6746L130.547 81.6685C130.448 81.5651 130.451 81.401 130.554 81.3029C130.654 81.2047 130.813 81.2065 130.912 81.3055Z" fill="#91BABA"/>
<path fill-rule="evenodd" clip-rule="evenodd" d="M133.817 79.6349C135.217 80.367 136.245 81.4578 137.206 82.6033C138.149 83.761 138.97 85.0142 139.675 86.3238C140.404 87.6239 141.006 88.9857 141.579 90.3579L142.36 92.4457L143.054 94.563C143.129 94.7905 143.007 95.0363 142.782 95.1119C142.557 95.1874 142.314 95.0641 142.239 94.8357C142.238 94.8339 142.238 94.8331 142.237 94.8305L142.231 94.8114L141.586 92.714L140.856 90.6471C140.319 89.2914 139.752 87.9427 139.064 86.6608C138.398 85.3668 137.621 84.1327 136.729 82.9968C135.842 81.8799 134.801 80.783 133.609 80.1317L133.568 80.1091C133.44 80.0388 133.391 79.8764 133.461 79.7461C133.53 79.6167 133.689 79.568 133.817 79.6349Z" fill="#91BABA"/>
<path fill-rule="evenodd" clip-rule="evenodd" d="M138.537 80.3704C139.502 81.1573 140.354 82.0283 141.161 82.9559C141.965 83.8816 142.707 84.8656 143.368 85.9034C144.034 86.9369 144.637 88.0173 145.136 89.148C145.663 90.2675 146.05 91.4477 146.403 92.6366C146.472 92.8668 146.343 93.1082 146.115 93.1777C145.889 93.2463 145.649 93.116 145.581 92.8868C145.58 92.8842 145.579 92.8816 145.578 92.879L145.572 92.8564C145.26 91.7065 144.917 90.5575 144.432 89.4633C143.976 88.3568 143.418 87.2938 142.794 86.2717C142.175 85.2451 141.476 84.2672 140.712 83.3441C139.951 82.4218 139.121 81.5359 138.229 80.7691L138.217 80.7604C138.113 80.6701 138.1 80.5103 138.189 80.4034C138.277 80.2984 138.431 80.2845 138.537 80.3704Z" fill="#91BABA"/>
<path fill-rule="evenodd" clip-rule="evenodd" d="M140.953 126.012L154.254 124.353L146.029 140.889C146.029 140.889 143.581 128.592 140.953 126.012Z" fill="#91BABA"/>
<path fill-rule="evenodd" clip-rule="evenodd" d="M87.5003 172.579L87.5021 172.595C87.2976 172.589 87.0939 172.579 86.8877 172.579H44.8573C35.7324 172.579 27.9487 178.37 24.8985 186.513L24.8942 186.512L24.8297 186.688C24.8194 186.716 24.8091 186.745 24.7988 186.773L6.92358 236.025L23.5186 238.076V292.771H113.832L120.585 207.645H136.296V172.407L87.5003 172.579Z" fill="#269264"/>
<path fill-rule="evenodd" clip-rule="evenodd" d="M136.762 172.407L88.781 172.609L88.7819 172.615C106.77 173.372 121.125 188.347 121.125 206.715L121.052 207.645H136.762V172.407Z" fill="#1B1B25"/>
<path fill-rule="evenodd" clip-rule="evenodd" d="M120.005 209.959L103.03 206.556C101.02 206.152 99.0491 207.485 98.6496 209.516L95.2591 226.79L90.8651 249.177C90.4664 251.209 91.7844 253.201 93.795 253.605L100.744 254.998L110.769 257.008C112.779 257.412 114.751 256.078 115.149 254.048L116.815 245.56L119.522 231.772L122.935 214.388C123.333 212.355 122.014 210.363 120.005 209.959Z" fill="#1B1B25"/>
<mask id="mask1_3390_20513" style="mask-type:alpha" maskUnits="userSpaceOnUse" x="0" y="226" width="123" height="67">
<path fill-rule="evenodd" clip-rule="evenodd" d="M0.26416 226.79H122.513V292.808H0.26416V226.79Z" fill="white"/>
</mask>
<g mask="url(#mask1_3390_20513)">
<path fill-rule="evenodd" clip-rule="evenodd" d="M121.784 233.012C121.572 232.562 121.236 232.205 120.834 231.957C120.761 231.849 120.702 231.741 120.624 231.633C120.624 231.633 120.472 231.653 120.218 231.685C119.923 231.597 119.612 231.556 119.295 231.581C115.885 231.85 107.681 232.497 102.66 232.893C99.9468 233.107 97.2334 232.537 94.8284 231.249L94.4271 231.033L95.2597 226.79C94.361 227.903 93.4502 229.001 92.4827 230.04C91.9921 230.068 89.1911 230.318 86.5722 232.293C85.6004 232.986 84.6441 233.904 83.8295 235.133C82.8071 236.679 81.703 237.745 80.7544 238.473C80.1993 238.877 79.7053 239.165 79.3324 239.354L79.2997 239.307L41.4648 248.774L41.2913 248.818L43.2116 240.208L8.3995 235.945L0.744713 269.635C-1.5769 279.856 4.73751 290.045 14.8505 292.392C18.4781 293.235 22.0929 292.761 25.2333 291.308C25.8477 291.087 26.456 290.832 27.0575 290.542L91.0977 258.681L99.7784 255.392C99.7784 255.392 100.13 255.256 100.743 254.998L100.616 254.973C104.577 253.342 126.786 243.639 121.784 233.012Z" fill="white"/>
</g>
<path fill-rule="evenodd" clip-rule="evenodd" d="M2.71251 260.311C2.67643 260.495 2.65409 260.607 2.64378 260.659C2.65666 260.596 2.68072 260.472 2.71251 260.311Z" fill="#FF887C"/>
<path fill-rule="evenodd" clip-rule="evenodd" d="M41.2312 248.95C42.0157 245.304 41.788 245.618 42.978 240.383L2.97876 258.949C2.97876 258.949 6.9432 257.743 12.4121 256.277C12.9199 256.09 13.4372 255.916 13.9708 255.771L41.2312 248.95Z" fill="#91BABA"/>
<path fill-rule="evenodd" clip-rule="evenodd" d="M2.80994 259.814C2.77557 259.989 2.74206 260.161 2.71285 260.311C2.73777 260.184 2.77042 260.017 2.80994 259.814Z" fill="#FF887C"/>
<path fill-rule="evenodd" clip-rule="evenodd" d="M2.64441 260.659C2.6341 260.71 2.6341 260.713 2.64441 260.659V260.659Z" fill="#FF887C"/>
<path fill-rule="evenodd" clip-rule="evenodd" d="M2.97933 258.949C2.90973 259.305 2.85646 259.577 2.81006 259.814C2.89513 259.378 2.97933 258.949 2.97933 258.949Z" fill="#FF887C"/>
<path fill-rule="evenodd" clip-rule="evenodd" d="M46.1992 240.817C46.1811 240.817 46.1639 240.816 46.1459 240.813L38.5521 239.866C38.3167 239.837 38.1491 239.62 38.1784 239.382C38.2076 239.144 38.4258 238.973 38.6569 239.004L45.8392 239.9L49.8371 214.112C49.8741 213.874 50.0932 213.716 50.3286 213.749C50.5623 213.787 50.723 214.009 50.686 214.245L46.6236 240.45C46.5901 240.663 46.408 240.817 46.1992 240.817Z" fill="#1B1B25"/>
<path fill-rule="evenodd" clip-rule="evenodd" d="M55.0715 245.342L72.2181 244.907C75.417 245.332 80.5087 242.416 79.9167 239.209L55.0715 245.342Z" fill="#91BABA"/>
<path fill-rule="evenodd" clip-rule="evenodd" d="M109.165 161.485L103.333 121.371C102.695 116.977 101.432 112.832 99.6601 109.007L102.826 108.492C102.826 108.492 100.603 75.9338 64.4759 83.7074C60.917 83.3357 57.2559 83.3974 53.5544 83.9471C36.0031 86.5543 23.8657 103.048 26.4443 120.788L29.8433 144.171C32.4219 161.911 48.7402 174.179 66.2923 171.573L106.09 165.663C108.08 165.367 109.457 163.496 109.165 161.485Z" fill="#1B1B25"/>
<path fill-rule="evenodd" clip-rule="evenodd" d="M96.3891 109.537L64.5877 114.702L56.8693 103.164C58.3858 116.037 48.9937 124.352 48.9937 124.352C48.9937 124.352 48.8975 124.22 48.7308 123.975L48.467 124.026C43.4904 124.967 40.1807 129.853 41.1121 134.883C42.0435 139.914 46.8774 143.259 51.854 142.317L52.4615 142.202C53.5493 147.025 56.0006 151.204 59.3439 154.377V174.978C59.3439 182.28 65.2553 188.255 72.4796 188.255C79.7048 188.255 85.6154 182.28 85.6154 174.978V158.71C90.848 156.275 94.9448 152.023 97.2836 146.883C97.2879 146.875 97.293 146.867 97.2982 146.86C100.14 142.047 101.33 136.21 100.229 130.268L96.3891 109.537Z" fill="white"/>
<path fill-rule="evenodd" clip-rule="evenodd" d="M81.3876 158.084C69.6051 160.313 58.2299 153.268 54.6246 142.044C54.506 141.675 52.4302 142.157 52.4834 142.383C53.597 147.164 56.0707 151.295 59.4062 154.437C60.0222 161.171 65.6639 166.491 72.48 166.491C77.5211 166.491 81.916 163.577 84.1156 159.337C90.0734 157.053 94.7424 152.49 97.2986 146.86C93.9519 152.527 88.3103 156.773 81.3876 158.084Z" fill="#91BABA"/>
</svg>
