<svg width="329" height="215" viewBox="0 0 399 285" fill="none" xmlns="http://www.w3.org/2000/svg">
<path fill-rule="evenodd" clip-rule="evenodd" d="M294.198 137.679C296.112 137.45 298.729 138.839 298.729 138.839L299.128 140.169C299.128 140.169 294.039 140.952 291.534 140.774C290.896 140.729 291.499 138.003 294.198 137.679Z" fill="#8FD6E2"/>
<path fill-rule="evenodd" clip-rule="evenodd" d="M288.061 131.401C288.133 131.579 289.369 135.444 288.967 135.825C288.764 136.016 285.685 138.098 285.685 138.098L288.061 131.401Z" fill="#8FD6E2"/>
<path fill-rule="evenodd" clip-rule="evenodd" d="M288.269 135.824L287.817 133.1L285.548 137.68L288.269 135.824Z" fill="#8FD6E2"/>
<path fill-rule="evenodd" clip-rule="evenodd" d="M301.115 136.145L298.729 138.839L302.325 145.2L306.167 140.344L301.115 136.145Z" fill="white"/>
<mask id="mask0_3519_23673" style="mask-type:alpha" maskUnits="userSpaceOnUse" x="0" y="280" width="149" height="5">
<path fill-rule="evenodd" clip-rule="evenodd" d="M0.939209 280.5H148.198V284.107H0.939209V280.5Z" fill="white"/>
</mask>
<g mask="url(#mask0_3519_23673)">
<path fill-rule="evenodd" clip-rule="evenodd" d="M148.198 282.304C148.198 283.301 115.233 284.107 74.5689 284.107C33.904 284.107 0.938965 283.301 0.938965 282.304C0.938965 281.308 33.904 280.5 74.5689 280.5C115.233 280.5 148.198 281.308 148.198 282.304Z" fill="#8E8E8F" fill-opacity="0.85"/>
</g>
<path fill-rule="evenodd" clip-rule="evenodd" d="M398.012 282.167C398.012 282.975 370.731 283.63 337.08 283.63C303.427 283.63 276.147 282.975 276.147 282.167C276.147 281.36 303.427 280.705 337.08 280.705C370.731 280.705 398.012 281.36 398.012 282.167Z" fill="#8E8E8F" fill-opacity="0.85"/>
<path fill-rule="evenodd" clip-rule="evenodd" d="M141.095 282.304H95.3078C93.5146 282.304 92.0613 280.856 92.0613 279.073V248.672C92.0613 246.887 93.5146 245.439 95.3078 245.439H141.095C142.888 245.439 144.342 246.887 144.342 248.672V279.073C144.342 280.856 142.888 282.304 141.095 282.304Z" fill="#232323"/>
<path fill-rule="evenodd" clip-rule="evenodd" d="M138.438 248.669V279.069C138.438 280.856 136.988 282.299 135.192 282.299H89.4068C87.6113 282.299 86.1611 280.856 86.1611 279.069V248.669C86.1611 247.921 86.4067 247.241 86.844 246.698C87.4272 245.927 88.3633 245.439 89.4068 245.439H135.192C136.243 245.439 137.172 245.927 137.763 246.698C138.192 247.241 138.438 247.921 138.438 248.669Z" fill="#269264"/>
<path fill-rule="evenodd" clip-rule="evenodd" d="M138.439 248.669V255.686C138.439 258.774 135.925 261.277 132.823 261.277H91.7795C88.678 261.277 86.1636 258.774 86.1636 255.686V248.669C86.1636 247.924 86.4099 247.242 86.8403 246.699C87.4296 245.928 88.3627 245.438 89.4093 245.438H135.194C136.24 245.438 137.173 245.928 137.762 246.699C138.193 247.242 138.439 247.924 138.439 248.669Z" fill="#36B37E"/>
<path fill-rule="evenodd" clip-rule="evenodd" d="M123.376 238.115C123.376 239.896 122.625 241.34 121.7 241.34C120.773 241.34 120.022 239.896 120.022 238.115C120.022 236.334 120.499 235.292 121.425 235.292C122.351 235.292 123.376 236.334 123.376 238.115Z" fill="#232323"/>
<path fill-rule="evenodd" clip-rule="evenodd" d="M126.392 248.198C123.821 241.318 120.909 239.214 113.934 239.214H113.902C102.136 239.224 100.499 247.533 100.435 247.887L96.9663 247.299C96.9855 247.184 99.0787 235.724 113.898 235.712H113.933C122.459 235.712 126.584 238.663 129.69 246.977L126.392 248.198Z" fill="#232323"/>
<path fill-rule="evenodd" clip-rule="evenodd" d="M121.425 241.34H107.31C105.581 241.34 104.18 239.945 104.18 238.225C104.18 236.504 105.581 235.11 107.31 235.11L121.425 235.292C121.425 235.292 120.446 236.158 120.6 238.521C120.728 240.491 121.425 241.34 121.425 241.34Z" fill="#FFAB00"/>
<path fill-rule="evenodd" clip-rule="evenodd" d="M98.7019 255.139C97.0315 255.139 95.678 253.792 95.678 252.13V245.439H101.725V252.13C101.725 253.792 100.372 255.139 98.7019 255.139Z" fill="#FFAB00"/>
<path fill-rule="evenodd" clip-rule="evenodd" d="M101.261 252.005C101.159 252.005 101.056 251.965 100.981 251.885L95.7905 246.362C95.6462 246.207 95.6539 245.966 95.8089 245.822C95.9639 245.679 96.2056 245.686 96.3514 245.84L101.541 251.362C101.686 251.517 101.677 251.759 101.523 251.902C101.449 251.971 101.355 252.005 101.261 252.005Z" fill="#212121"/>
<path fill-rule="evenodd" clip-rule="evenodd" d="M96.0709 252.005C95.9766 252.005 95.8829 251.971 95.8085 251.902C95.6543 251.759 95.6458 251.516 95.7909 251.362L100.98 245.84C101.125 245.685 101.368 245.678 101.523 245.822C101.678 245.966 101.685 246.207 101.541 246.362L96.351 251.885C96.2758 251.965 96.173 252.005 96.0709 252.005Z" fill="#212121"/>
<path fill-rule="evenodd" clip-rule="evenodd" d="M126.794 255.139H126.721C125.07 255.139 123.734 253.808 123.734 252.165V245.439H129.781V252.165C129.781 253.808 128.443 255.139 126.794 255.139Z" fill="#FFAB00"/>
<path fill-rule="evenodd" clip-rule="evenodd" d="M129.353 252.005C129.251 252.005 129.148 251.965 129.073 251.885L123.882 246.362C123.737 246.207 123.745 245.966 123.9 245.822C124.055 245.679 124.298 245.686 124.443 245.84L129.633 251.362C129.778 251.517 129.769 251.759 129.615 251.902C129.541 251.971 129.447 252.005 129.353 252.005Z" fill="#212121"/>
<path fill-rule="evenodd" clip-rule="evenodd" d="M124.162 252.005C124.068 252.005 123.974 251.971 123.9 251.902C123.746 251.759 123.737 251.516 123.882 251.362L129.072 245.84C129.217 245.685 129.46 245.678 129.615 245.822C129.77 245.966 129.777 246.207 129.632 246.362L124.442 251.885C124.367 251.965 124.264 252.005 124.162 252.005Z" fill="#212121"/>
<path fill-rule="evenodd" clip-rule="evenodd" d="M105.206 117.401C103.975 120.257 102.546 121.93 100.978 121.261C99.4116 120.592 98.2998 117.834 99.5306 114.978C100.761 112.122 103.029 110.349 104.596 111.018C106.164 111.687 106.436 114.545 105.206 117.401Z" fill="#232323"/>
<path fill-rule="evenodd" clip-rule="evenodd" d="M251.342 283.059C251.342 283.74 230.928 284.291 205.745 284.291C180.563 284.291 160.149 283.74 160.149 283.059C160.149 282.378 180.563 281.827 205.745 281.827C230.928 281.827 251.342 282.378 251.342 283.059Z" fill="#8E8E8F" fill-opacity="0.85"/>
<path fill-rule="evenodd" clip-rule="evenodd" d="M193.07 174.87C151.754 187.864 136.801 165.51 136.801 165.51C152.309 155.879 184.168 165.782 184.168 165.782L193.07 174.87Z" fill="#8BEAC5"/>
<path fill-rule="evenodd" clip-rule="evenodd" d="M204.95 263.7V282.28C276.55 237.09 248.825 214.815 248.825 214.815C217.713 227.652 204.95 263.7 204.95 263.7Z" fill="#269264"/>
<path fill-rule="evenodd" clip-rule="evenodd" d="M204.95 278.698V282.279C276.55 237.09 248.825 214.815 248.825 214.815L204.95 278.698Z" fill="#8BEAC5"/>
<path fill-rule="evenodd" clip-rule="evenodd" d="M205.746 263.7V282.28C134.144 237.09 161.87 214.815 161.87 214.815C192.982 227.652 205.746 263.7 205.746 263.7Z" fill="#269264"/>
<path fill-rule="evenodd" clip-rule="evenodd" d="M205.746 278.698V282.279C134.144 237.09 161.87 214.815 161.87 214.815L205.746 278.698Z" fill="#8BEAC5"/>
<path fill-rule="evenodd" clip-rule="evenodd" d="M206.187 229.102L204.934 228.221L244.588 172.326L245.841 173.207L206.187 229.102Z" fill="#00797D"/>
<path fill-rule="evenodd" clip-rule="evenodd" d="M205.037 187.045L153.663 139.276L154.711 138.159L206.084 185.929L205.037 187.045Z" fill="#00797D"/>
<path fill-rule="evenodd" clip-rule="evenodd" d="M205.701 142.806V161.132C205.685 161.115 205.658 161.097 205.64 161.08C167.825 127.921 179.876 103.15 179.876 103.15C197.715 114.988 205.701 142.806 205.701 142.806Z" fill="#8BEAC5"/>
<path fill-rule="evenodd" clip-rule="evenodd" d="M205.833 157.621L205.701 160.029L205.64 161.079C167.824 127.921 179.876 103.15 179.876 103.15L205.701 157.341L205.833 157.621Z" fill="#269264"/>
<path fill-rule="evenodd" clip-rule="evenodd" d="M205.692 142.806V161.132C205.71 161.115 205.737 161.097 205.754 161.08C243.569 127.921 231.518 103.15 231.518 103.15C213.679 114.988 205.692 142.806 205.692 142.806Z" fill="#8BEAC5"/>
<path fill-rule="evenodd" clip-rule="evenodd" d="M205.56 157.621L205.692 160.029L205.754 161.079C243.569 127.921 231.518 103.15 231.518 103.15L205.692 157.341L205.56 157.621Z" fill="#269264"/>
<path fill-rule="evenodd" clip-rule="evenodd" d="M204.793 282.442H206.328V90.9927H204.793V282.442Z" fill="#00797D"/>
<path fill-rule="evenodd" clip-rule="evenodd" d="M212.229 92.0026C212.229 95.6299 209.274 98.5698 205.631 98.5698C201.987 98.5698 199.034 95.6299 199.034 92.0026C199.034 88.3762 201.987 85.4355 205.631 85.4355C209.274 85.4355 212.229 88.3762 212.229 92.0026Z" fill="#232323"/>
<path fill-rule="evenodd" clip-rule="evenodd" d="M164.505 140.741C164.505 144.368 161.551 147.309 157.908 147.309C154.265 147.309 151.311 144.368 151.311 140.741C151.311 137.114 154.265 134.174 157.908 134.174C161.551 134.174 164.505 137.114 164.505 140.741Z" fill="#232323"/>
<path fill-rule="evenodd" clip-rule="evenodd" d="M250.957 174.317C250.957 177.944 248.002 180.884 244.359 180.884C240.716 180.884 237.763 177.944 237.763 174.317C237.763 170.69 240.716 167.75 244.359 167.75C248.002 167.75 250.957 170.69 250.957 174.317Z" fill="#232323"/>
<path d="M287.058 149.37C287.058 165.177 274.185 177.992 258.304 177.992C242.424 177.992 229.551 165.177 229.551 149.37C229.551 133.562 242.424 120.747 258.304 120.747C274.185 120.747 287.058 133.562 287.058 149.37" stroke="#36B37E" stroke-width="0.5"/>
<path fill-rule="evenodd" clip-rule="evenodd" d="M85.2388 68.1404L91.2498 97.5862L114.574 114.359L130.373 106.85L104.897 87.2498C104.897 87.2498 105.391 63.5355 102.655 56.5575C101.767 54.2898 101.12 51.893 95.2299 55.2117C93.7213 56.0618 85.4521 66.4402 85.2388 68.1404Z" fill="#232323"/>
<path d="M170.811 118.433C170.811 134.064 158.081 146.735 142.379 146.735C126.676 146.735 113.947 134.064 113.947 118.433C113.947 102.802 126.676 90.1304 142.379 90.1304C158.081 90.1304 170.811 102.802 170.811 118.433" stroke="#3077FF" stroke-width="0.5"/>
<path fill-rule="evenodd" clip-rule="evenodd" d="M287.489 150.963C287.489 166.504 274.833 179.102 259.221 179.102C243.609 179.102 230.953 166.504 230.953 150.963C230.953 135.423 243.609 122.825 259.221 122.825C274.833 122.825 287.489 135.423 287.489 150.963Z" fill="#36B37E"/>
<path fill-rule="evenodd" clip-rule="evenodd" d="M259.221 129.328C247.236 129.328 237.486 139.034 237.486 150.963C237.486 162.893 247.236 172.599 259.221 172.599C271.205 172.599 280.956 162.893 280.956 150.963C280.956 139.034 271.205 129.328 259.221 129.328ZM259.221 173.362C246.813 173.362 236.719 163.315 236.719 150.963C236.719 138.612 246.813 128.564 259.221 128.564C271.629 128.564 281.723 138.612 281.723 150.963C281.723 163.315 271.629 173.362 259.221 173.362Z" fill="#278E62"/>
<path fill-rule="evenodd" clip-rule="evenodd" d="M193.07 174.87C151.754 187.864 136.801 165.51 136.801 165.51L187.951 170.116L193.07 174.87Z" fill="#269264"/>
<path fill-rule="evenodd" clip-rule="evenodd" d="M35.7288 136.459C35.7288 136.459 47.7486 141.97 56.6333 139.709C65.5179 137.449 63.4815 129.341 63.4815 129.341L55.6895 126.041L35.7288 136.459Z" fill="#232323"/>
<path fill-rule="evenodd" clip-rule="evenodd" d="M31.1308 273.651L12.3211 279.805C11.4801 280.08 11.4072 281.23 12.2052 281.612C13.2871 282.13 15.2836 282.689 18.9521 283.088C24.5166 283.692 44.4812 280.971 44.4812 280.971L44.8372 282.61L52.7896 282.291L51.9256 270.439L34.6888 269.353L31.1308 273.651Z" fill="#161414"/>
<path fill-rule="evenodd" clip-rule="evenodd" d="M95.6529 273.651L114.624 279.858C115.382 280.105 115.479 281.141 114.774 281.514C113.746 282.057 111.735 282.664 107.831 283.088C102.267 283.692 82.3025 280.971 82.3025 280.971L81.9465 282.61L73.9941 282.291L74.8574 270.439L92.0949 269.353L95.6529 273.651Z" fill="#161414"/>
<path fill-rule="evenodd" clip-rule="evenodd" d="M94.9121 104.442L96.1858 132.202C96.4536 138.049 91.7631 142.936 85.8825 142.936H65.4736L80.7492 63.1724C81.198 58.7538 83.4363 54.986 86.6475 52.4625C92.0033 48.2532 101.829 58.3391 102.833 65.0574L94.9121 104.442Z" fill="#232323"/>
<path fill-rule="evenodd" clip-rule="evenodd" d="M88.5395 126.04L94.912 271.622L73.3015 274.588L67.3779 140.218L88.5395 126.04Z" fill="#36B37E"/>
<path fill-rule="evenodd" clip-rule="evenodd" d="M93.158 48.5769L96.6278 49.6745C99.9571 50.7277 101.617 53.8731 102.655 56.557C103.374 58.4146 103.554 63.9231 102.655 66.9698L101.116 76.958L87.8184 63.6405L93.158 48.5769Z" fill="#232323"/>
<path fill-rule="evenodd" clip-rule="evenodd" d="M88.6025 126.04C88.6025 137.708 79.1001 147.167 67.3788 147.167C55.6566 147.167 46.1543 137.708 46.1543 126.04C46.1543 114.372 55.6566 104.914 67.3788 104.914C79.1001 104.914 88.6025 114.372 88.6025 126.04Z" fill="#36B37E"/>
<path fill-rule="evenodd" clip-rule="evenodd" d="M245.68 52.9326C245.68 74.9887 227.718 92.8691 205.56 92.8691C183.403 92.8691 165.44 74.9887 165.44 52.9326C165.44 30.8765 183.403 12.9961 205.56 12.9961C227.718 12.9961 245.68 30.8765 245.68 52.9326Z" fill="#FFAB00"/>
<path fill-rule="evenodd" clip-rule="evenodd" d="M205.561 22.1607C188.515 22.1607 174.647 35.9647 174.647 52.9332C174.647 69.9009 188.515 83.7049 205.561 83.7049C222.607 83.7049 236.475 69.9009 236.475 52.9332C236.475 35.9647 222.607 22.1607 205.561 22.1607ZM205.56 84.4688C188.092 84.4688 173.88 70.3218 173.88 52.9333C173.88 35.544 188.092 21.397 205.56 21.397C223.03 21.397 237.242 35.544 237.242 52.9333C237.242 70.3218 223.03 84.4688 205.56 84.4688Z" fill="#C48504"/>
<path fill-rule="evenodd" clip-rule="evenodd" d="M191.685 10.3718L187.999 4.23015L189.316 3.44727L193.002 9.58894L191.685 10.3718Z" fill="white"/>
<path fill-rule="evenodd" clip-rule="evenodd" d="M182.435 15.67L176.886 11.1239L177.86 9.94458L183.41 14.4907L182.435 15.67Z" fill="white"/>
<path fill-rule="evenodd" clip-rule="evenodd" d="M120.025 96.7421L114.905 91.7224L115.981 90.634L121.102 95.6537L120.025 96.7421Z" fill="white"/>
<path fill-rule="evenodd" clip-rule="evenodd" d="M127.767 91.0473L124.535 84.6574L125.906 83.9707L129.137 90.3606L127.767 91.0473Z" fill="white"/>
<path fill-rule="evenodd" clip-rule="evenodd" d="M138.731 88.5346L138.416 81.3878L139.949 81.3206L140.264 88.4674L138.731 88.5346Z" fill="white"/>
<path fill-rule="evenodd" clip-rule="evenodd" d="M151.538 90.9383L150.078 90.4694L152.285 83.6609L153.745 84.1299L151.538 90.9383Z" fill="white"/>
<path fill-rule="evenodd" clip-rule="evenodd" d="M204.568 7.71582L204.515 0.74391L206.05 0.731689L206.103 7.7036L204.568 7.71582Z" fill="white"/>
<path fill-rule="evenodd" clip-rule="evenodd" d="M218.866 9.79981L217.517 9.07191L221.13 2.4353L222.479 3.16396L218.866 9.79981Z" fill="white"/>
<path fill-rule="evenodd" clip-rule="evenodd" d="M228.94 14.9045L227.715 13.9834L232.29 7.96313L233.515 8.88427L228.94 14.9045Z" fill="white"/>
<path fill-rule="evenodd" clip-rule="evenodd" d="M101.55 19.8039C100.056 26.1495 93.7185 29.8974 87.3031 28.5982C79.6668 27.0523 76.5048 17.1695 75.4044 12.3561C75.0745 10.9118 75.9699 8.95646 78.9832 7.86882L85.4117 5.02139C88.2369 3.7703 91.4734 4.4264 93.7738 6.4833C93.7814 6.48941 93.7876 6.49475 93.7945 6.50086C96.401 8.72121 102.744 14.7384 101.55 19.8039Z" fill="#282828"/>
<path fill-rule="evenodd" clip-rule="evenodd" d="M82.3973 27.3738C82.3973 27.3738 85.4696 44.6539 76.6555 46.4503L93.3345 51.2378C93.3345 51.2378 90.5069 41.9661 95.9832 37.3971C95.9832 37.3971 84.3309 30.3426 82.3973 27.3738Z" fill="white"/>
<path fill-rule="evenodd" clip-rule="evenodd" d="M82.7556 29.6726C82.7556 29.6726 82.7556 39.0253 93.2148 41.5534C93.2148 41.5534 94.9972 37.6046 96.2479 36.6308C96.2479 36.6308 84.0992 31.634 82.7556 29.6726Z" fill="#8FD6E2"/>
<path fill-rule="evenodd" clip-rule="evenodd" d="M103.171 21.9756C103.418 26.7241 102.419 30.7868 102.419 30.7868C102.027 32.0745 100.395 41.3103 94.767 40.1387C92.1068 39.5849 86.3205 36.8681 83.6027 31.9554L81.9016 27.3741C81.9016 27.3741 80.6662 9.31956 91.6026 6.98846C97.4188 5.74805 102.722 13.3906 103.171 21.9756Z" fill="white"/>
<path fill-rule="evenodd" clip-rule="evenodd" d="M84.6982 23.9622C85.8668 25.7182 85.8921 27.7499 84.7542 28.4999C83.6171 29.25 82.5098 27.5398 80.5793 26.6783C77.2523 25.195 77.7311 21.68 79.6954 21.2408C81.23 20.8971 83.5304 22.2063 84.6982 23.9622Z" fill="white"/>
<path fill-rule="evenodd" clip-rule="evenodd" d="M81.9978 13.6381C80.9381 13.5014 79.735 12.9683 78.6247 12.3374C76.8683 11.3391 76.9919 8.7758 78.8311 7.93792L84.6143 5.30207C88.0887 3.71872 91.8646 2.89917 95.685 2.89917C98.7105 2.89917 102.871 5.62744 102.068 8.53062L100.721 12.8942C100.721 12.8942 87.2132 8.14109 82.5456 15.6881C82.2763 16.1235 81.9978 13.6381 81.9978 13.6381Z" fill="#282828"/>
<path fill-rule="evenodd" clip-rule="evenodd" d="M79.9432 24.9043C79.9064 24.9043 79.8688 24.8913 79.8389 24.8661C79.288 24.4002 79.0808 23.77 79.2864 23.1796C79.4407 22.7336 79.809 22.4235 80.2018 22.4082C80.2954 22.4181 80.3653 22.4739 80.3691 22.5625C80.3722 22.6511 80.3031 22.7252 80.2141 22.7282C79.9524 22.7389 79.7023 22.962 79.5903 23.2835C79.4307 23.7448 79.6018 24.2451 80.0476 24.6217C80.1151 24.6797 80.1236 24.7805 80.066 24.8478C80.0345 24.8852 79.9885 24.9043 79.9432 24.9043Z" fill="#8FD6E2"/>
<path fill-rule="evenodd" clip-rule="evenodd" d="M81.1063 25.8862C81.0557 25.8862 81.0058 25.8625 80.9743 25.8174C80.9237 25.7449 80.9421 25.6456 81.0142 25.5944C81.1462 25.5035 81.2168 25.3958 81.2306 25.266C81.2598 24.9818 81.0081 24.6473 80.9091 24.5419C80.8485 24.4777 80.8508 24.3762 80.916 24.3158C80.9797 24.2555 81.0825 24.2578 81.1424 24.3227C81.1615 24.3425 81.6004 24.813 81.5498 25.2996C81.5268 25.5234 81.4086 25.7113 81.1991 25.8572C81.17 25.8762 81.1385 25.8862 81.1063 25.8862Z" fill="#8FD6E2"/>
<path fill-rule="evenodd" clip-rule="evenodd" d="M83.9988 13.8156C83.5576 15.7335 82.755 22.0691 82.755 22.0691L80.4707 20.8104C80.4707 20.8104 84.3049 12.4843 83.9988 13.8156Z" fill="#282828"/>
<path fill-rule="evenodd" clip-rule="evenodd" d="M97.2628 79.8648C96.0074 85.5092 94.6324 90.9238 93.6764 94.5869C92.9252 97.4344 92.421 99.2193 92.421 99.2193L87.0545 118.104L51.697 112.318L58.0074 59.0728C59.2542 49.6124 77.5714 44.5806 77.5714 44.5806L90.858 47.8107C94.8204 48.7707 99.3207 51.3806 100.251 57.407C100.901 61.5895 99.2271 71.0162 97.2628 79.8648Z" fill="#EFEFEF"/>
<path fill-rule="evenodd" clip-rule="evenodd" d="M46.1543 124.993L30.4629 273.312L52.9649 273.745L67.3788 142.936L46.1543 124.993Z" fill="#36B37E"/>
<path fill-rule="evenodd" clip-rule="evenodd" d="M97.2629 79.865C96.0076 85.5094 94.6326 90.924 93.6765 94.5871C92.3099 92.02 90.4661 88.0422 88.6299 82.5513C85.0175 71.7894 85.24 51.8994 85.24 51.8994L88.6299 51.7207C88.6299 51.7207 92.8739 66.494 94.641 73.4132C95.2395 75.7428 96.1703 77.9097 97.2629 79.865Z" fill="#90BABA"/>
<path fill-rule="evenodd" clip-rule="evenodd" d="M169.455 120.232C169.455 135.821 156.756 148.462 141.095 148.462C128.727 148.462 118.207 140.58 114.332 129.589C113.979 128.596 113.687 127.572 113.442 126.526C113.411 126.373 113.38 126.22 113.342 126.067V126.06C113.119 124.983 112.951 123.875 112.851 122.753C112.774 121.92 112.736 121.08 112.736 120.232C112.736 119.094 112.805 117.964 112.943 116.864C112.951 116.772 112.958 116.688 112.974 116.604C113.089 115.687 113.25 114.794 113.457 113.915C113.802 112.388 114.278 110.906 114.869 109.493C119.112 99.2277 129.256 92.0022 141.095 92.0022C156.756 92.0022 169.455 104.643 169.455 120.232Z" fill="#3077FF"/>
<path fill-rule="evenodd" clip-rule="evenodd" d="M141.096 96.8849C128.162 96.8849 117.64 107.359 117.64 120.233C117.64 133.108 128.162 143.582 141.096 143.582C154.03 143.582 164.552 133.108 164.552 120.233C164.552 107.359 154.03 96.8849 141.096 96.8849ZM141.096 144.346C127.739 144.346 116.873 133.529 116.873 120.233C116.873 106.938 127.739 96.1211 141.096 96.1211C154.452 96.1211 165.319 106.938 165.319 120.233C165.319 133.529 154.452 144.346 141.096 144.346Z" fill="#285CC0"/>
<path fill-rule="evenodd" clip-rule="evenodd" d="M116.396 130.222C116.242 130.398 115.452 130.146 114.332 129.588C113.979 128.596 113.687 127.572 113.442 126.526C114.738 127.664 116.864 129.672 116.396 130.222Z" fill="#262626"/>
<path fill-rule="evenodd" clip-rule="evenodd" d="M115.644 115.909C114.608 116.115 113.526 116.413 112.974 116.604C113.089 115.688 113.25 114.794 113.457 113.916C114.593 114.015 115.59 113.992 116.311 113.74C117.923 113.174 117.378 115.573 115.644 115.909Z" fill="#262626"/>
<path fill-rule="evenodd" clip-rule="evenodd" d="M123.931 125.266C123.501 126.419 113.848 123.494 113.342 123.34C113.833 123.531 122.074 126.702 121.353 127.87C120.762 128.84 115.437 126.877 113.342 126.068V126.06C113.119 124.983 112.951 123.876 112.851 122.753C112.774 121.92 112.736 121.08 112.736 120.232C112.736 119.094 112.805 117.964 112.943 116.864C114.6 117.307 119.795 119.102 121.483 120.094C123.294 121.164 124.161 122.318 121.406 121.852C118.905 121.431 115.437 120.523 114.808 120.362C115.836 120.752 124.399 123.998 123.931 125.266Z" fill="#262626"/>
<path fill-rule="evenodd" clip-rule="evenodd" d="M248.596 179.465L248.269 177.973C251.412 177.291 254.551 177.011 257.601 177.141L257.536 178.667C254.617 178.543 251.61 178.811 248.596 179.465ZM232.145 186.747L231.287 185.48C233.965 183.687 236.698 182.158 239.41 180.934L240.044 182.326C237.41 183.515 234.751 185.003 232.145 186.747ZM218.456 198.665L217.326 197.631C219.488 195.29 221.714 193.111 223.943 191.154L224.958 192.299C222.77 194.221 220.581 196.363 218.456 198.665ZM207.247 213.027L205.969 212.182C207.719 209.564 209.532 207.043 211.36 204.689L212.575 205.624C210.768 207.949 208.976 210.44 207.247 213.027ZM198.012 228.772L196.648 228.073C198.089 225.286 199.582 222.571 201.085 220.001L202.411 220.769C200.921 223.316 199.441 226.009 198.012 228.772ZM190.348 245.358L188.928 244.776C190.118 241.9 191.356 239.063 192.61 236.344L194.005 236.982C192.759 239.682 191.529 242.5 190.348 245.358Z" fill="white"/>
<path fill-rule="evenodd" clip-rule="evenodd" d="M241.814 186.641L241.126 185.276C244.002 183.841 246.974 182.797 249.962 182.171L250.278 183.666C247.419 184.264 244.571 185.266 241.814 186.641ZM227.684 197.748L226.539 196.731C228.687 194.334 230.955 192.18 233.279 190.326L234.239 191.519C231.981 193.319 229.776 195.416 227.684 197.748ZM217.382 212.666L216.03 211.943C217.544 209.142 219.159 206.483 220.831 204.037L222.101 204.897C220.457 207.299 218.869 209.912 217.382 212.666ZM210.091 229.343L208.643 228.837C209.687 225.871 210.817 222.982 212.003 220.251L213.413 220.858C212.241 223.555 211.123 226.41 210.091 229.343ZM205.056 246.872L203.56 246.53C204.264 243.475 205.036 240.476 205.854 237.616L207.329 238.034C206.519 240.869 205.755 243.843 205.056 246.872ZM201.752 264.829L200.232 264.615C200.67 261.536 201.165 258.483 201.703 255.539L203.213 255.813C202.678 258.736 202.186 261.769 201.752 264.829Z" fill="white"/>
<path fill-rule="evenodd" clip-rule="evenodd" d="M241.952 197.03L240.792 196.028C243.077 193.406 245.39 191.037 247.669 188.987L248.698 190.121C246.466 192.129 244.196 194.454 241.952 197.03ZM230.554 212.669L229.246 211.871C230.988 209.044 232.82 206.303 234.692 203.72L235.936 204.613C234.086 207.166 232.276 209.876 230.554 212.669ZM221.529 229.806L220.127 229.188C221.456 226.204 222.894 223.24 224.399 220.379L225.758 221.087C224.268 223.921 222.845 226.854 221.529 229.806ZM214.799 247.963L213.328 247.528C214.255 244.423 215.298 241.301 216.431 238.249L217.869 238.778C216.75 241.799 215.716 244.888 214.799 247.963ZM210.542 266.835L209.025 266.606C209.511 263.423 210.124 260.188 210.848 256.992L212.344 257.328C211.629 260.489 211.022 263.687 210.542 266.835Z" fill="white"/>
<path fill-rule="evenodd" clip-rule="evenodd" d="M77.5372 44.5798L77.4812 46.1311L84.8167 56.9434L86.5861 54.4878L85.2387 46.7017L77.5372 44.5798Z" fill="#90BABA"/>
<path fill-rule="evenodd" clip-rule="evenodd" d="M82.0348 40.7891L90.4606 44.7096L85.2391 54.8895L77.5376 44.5798L82.0348 40.7891Z" fill="white"/>
<path fill-rule="evenodd" clip-rule="evenodd" d="M96.0251 50.2021L92.088 56.9434L90.6831 54.8903L92.309 50.9728L96.0251 50.2021Z" fill="#90BABA"/>
<path fill-rule="evenodd" clip-rule="evenodd" d="M90.8811 52.7087C90.8811 52.7087 95.1243 67.4843 96.8914 74.4081C99.4005 84.2366 108.086 91.3025 108.086 91.3025L107.566 99.2223H98.1076C98.1076 99.2223 94.4859 94.3126 90.8788 83.5462C87.2709 72.779 87.4934 52.8875 87.4934 52.8875L90.8811 52.7087Z" fill="#FFAB00"/>
<path fill-rule="evenodd" clip-rule="evenodd" d="M92.7104 44.02L88.5923 44.0704L92.8355 54.7513L96.0252 50.2022L92.7104 44.02Z" fill="white"/>
<path fill-rule="evenodd" clip-rule="evenodd" d="M89.0861 44.0708L86.1604 53.0935L87.715 55.9524L91.0643 55.75L92.3771 53.5984L89.7399 44.0708H89.0861Z" fill="#FFE888"/>
<path fill-rule="evenodd" clip-rule="evenodd" d="M103.072 112.093C105.428 111.534 112.006 113.806 114.636 112.879C116.198 112.329 115.674 114.654 113.984 114.987C112.465 115.287 110.835 115.793 111.059 115.839C112.187 116.071 117.891 118.007 119.654 119.047C121.418 120.087 122.258 121.209 119.581 120.753C116.903 120.298 113.076 119.274 113.076 119.274C113.076 119.274 122.519 122.752 122.03 124.068C121.601 125.219 111.73 122.194 111.73 122.194C111.73 122.194 120.25 125.427 119.531 126.597C118.813 127.767 110.935 124.51 110.935 124.51C110.935 124.51 115.369 128.115 114.716 128.879C114.115 129.581 103.156 123.21 101.988 119.049C101.146 116.048 101.013 112.581 103.072 112.093Z" fill="white"/>
<path fill-rule="evenodd" clip-rule="evenodd" d="M101.671 110.876L105.548 112.483L102.505 120.154L97.7881 116.998L101.671 110.876Z" fill="white"/>
<path fill-rule="evenodd" clip-rule="evenodd" d="M77.5373 44.5798C77.5373 44.5798 76.8659 64.1223 76.0472 70.5824C74.61 81.9088 71.6421 104.151 69.7315 115.273C67.372 129.009 51.6614 138.352 37.7601 136.7L35.7283 136.459C39.1443 122.018 52.3796 98.2914 52.3796 98.2914C52.3796 98.2914 55.181 71.7465 56.8676 62.9972C57.8628 57.8324 59.2746 49.7209 69.0639 46.8651C71.9866 46.0127 74.1266 45.3933 74.155 45.4009L77.5373 44.5798Z" fill="#269264"/>
<path fill-rule="evenodd" clip-rule="evenodd" d="M62.307 65.27L71.807 103.627L70.4473 110.909C70.4473 110.909 61.3095 100.546 61.3463 81.5167C61.354 77.3853 62.307 65.27 62.307 65.27Z" fill="#232323"/>
<path fill-rule="evenodd" clip-rule="evenodd" d="M60.9399 76.3635L72.306 107.558L100.979 121.26C100.979 121.26 100.134 119.367 101.53 115.938C103.356 111.456 104.897 111.171 104.897 111.171L83.9054 96.7858L77.173 53.5764C77.173 53.5764 72.2699 53.3007 66.578 56.9967C60.1449 61.1739 57.7463 69.4099 60.9399 76.3635Z" fill="#269264"/>
<path fill-rule="evenodd" clip-rule="evenodd" d="M336.676 261.962C336.676 261.962 336.374 233.791 335.613 220.769C335.389 216.939 332.987 196.403 332.67 184.853C326.812 186.255 322.259 188.411 316.439 189.963L327.008 263.381C330.195 261.716 336.676 261.962 336.676 261.962Z" fill="white"/>
<path fill-rule="evenodd" clip-rule="evenodd" d="M337.248 267.99C336.778 270.6 334.345 272.403 331.814 272.016C329.283 271.631 327.612 269.202 328.083 266.592C328.553 263.983 330.986 262.18 333.517 262.565C336.048 262.951 337.718 265.38 337.248 267.99Z" fill="#282828"/>
<path fill-rule="evenodd" clip-rule="evenodd" d="M328.163 269.539C328.163 269.539 312.805 278.114 305.324 280.738C302.711 281.654 317.342 284.107 323.788 280.445C325.713 279.352 330.212 275.544 332.665 272.069C335.533 268.006 336.23 264.292 336.23 264.292L328.163 269.539Z" fill="#282828"/>
<path fill-rule="evenodd" clip-rule="evenodd" d="M337.169 268.337L336.229 280.804L333.904 280.906L331.846 270.733L337.169 268.337Z" fill="#282828"/>
<path fill-rule="evenodd" clip-rule="evenodd" d="M333.924 260.992C331.759 260.704 329.815 261.243 328.003 262.333C327.319 262.745 321.257 271.218 318.175 273.871C313.983 277.481 318.154 278.048 322.541 274.489C328.361 269.766 336.649 264.669 336.649 264.669L336.676 261.905C335.777 261.673 334.844 261.113 333.924 260.992Z" fill="white"/>
<path fill-rule="evenodd" clip-rule="evenodd" d="M318.6 191.398L335.417 218.411L334.814 210.904L321.251 191.398H318.6Z" fill="#8FD6E2"/>
<path fill-rule="evenodd" clip-rule="evenodd" d="M364.056 255.827C365.842 253.435 366.582 251.688 369.246 251.036C369.246 251.036 355.531 220.738 350.319 208.931C348.289 204.331 341.815 191.398 331.368 180.154C326.586 184.078 324.936 185.685 320.253 189.738L362 256.847C362.562 255.878 363.392 256.717 364.056 255.827Z" fill="white"/>
<path fill-rule="evenodd" clip-rule="evenodd" d="M372.762 256.446C373.558 258.976 372.237 261.695 369.814 262.516C367.391 263.339 364.782 261.955 363.985 259.424C363.191 256.893 364.51 254.175 366.934 253.352C369.357 252.53 371.967 253.915 372.762 256.446Z" fill="#282828"/>
<path fill-rule="evenodd" clip-rule="evenodd" d="M365.426 262.001C365.426 262.001 355.776 276.016 352.609 281.933C351.307 284.366 362.597 279.898 366.614 273.685C369.214 269.661 370.142 253.635 370.142 253.635L365.426 262.001Z" fill="#282828"/>
<path fill-rule="evenodd" clip-rule="evenodd" d="M372.853 256.79L376.278 269.16L374.576 270.141L368.975 261.707L372.853 256.79Z" fill="#282828"/>
<path fill-rule="evenodd" clip-rule="evenodd" d="M366.565 251.77C364.511 252.512 363.432 253.922 362.333 255.722C361.917 256.402 360.083 266.668 358.583 270.439C356.542 275.568 360.504 274.152 362.741 268.977C365.708 262.11 370.69 253.777 370.69 253.777L369.246 251.036C368.34 251.244 367.438 251.455 366.565 251.77Z" fill="white"/>
<path fill-rule="evenodd" clip-rule="evenodd" d="M310.666 84.261L301.66 110.274L281.593 130.324L287.444 132.899L307.481 118.647C309.297 117.356 310.708 115.58 311.553 113.525L320.877 90.8441L310.666 84.261Z" fill="#232323"/>
<path fill-rule="evenodd" clip-rule="evenodd" d="M305.012 32.6614C302.899 39.6723 306.895 47.062 313.938 49.1655C320.981 51.269 328.403 47.2911 330.516 40.2803C332.63 33.2686 328.634 25.8805 321.591 23.7762C314.549 21.6727 307.126 25.6506 305.012 32.6614Z" fill="#282828"/>
<path fill-rule="evenodd" clip-rule="evenodd" d="M305.188 51.4216L305.188 51.4285C305.28 51.5179 305.366 51.6072 305.451 51.7096C305.496 51.7577 305.535 51.8058 305.581 51.8616C305.646 51.9403 305.712 52.0128 305.775 52.0991C305.788 52.122 305.8 52.145 305.82 52.1618C306.136 52.565 306.406 52.992 306.632 53.4289C306.837 53.8352 307.007 54.2523 307.145 54.68C307.156 54.7105 307.168 54.7403 307.179 54.7709L307.179 54.7785C307.272 55.0787 307.35 55.3842 307.413 55.6958C308.555 61.131 305.122 67.3215 305.122 67.3215L323.822 65.2883C323.842 64.8041 322.852 65.2929 322.879 64.8163C317.779 60.1022 316.304 55.7012 316.343 51.3445C316.343 51.1268 316.35 50.9168 316.357 50.7067C316.387 49.9177 316.463 49.1769 316.553 48.5246L316.555 48.4955C316.671 47.6577 316.809 46.9519 316.927 46.4409L316.929 46.4264C317.045 45.93 317.135 45.6191 317.151 45.5488C316.967 45.697 316.783 45.8521 316.594 45.9934C312.46 49.212 305.49 51.3285 305.188 51.4216Z" fill="white"/>
<path fill-rule="evenodd" clip-rule="evenodd" d="M304.966 53.5735C305.024 53.6071 305.075 53.6423 305.134 53.6835C305.217 53.7423 305.301 53.7943 305.386 53.86C305.404 53.8783 305.422 53.8974 305.446 53.9081C305.86 54.2098 306.237 54.5481 306.573 54.9079C306.883 55.2424 307.703 56.673 307.645 58.0845C310.014 57.3474 315.483 52.3072 316.315 48.4011C316.492 46.4649 315.239 48.6982 315.188 48.4943C315.001 47.7275 314.871 48.1529 314.779 47.5006L314.773 47.4723C314.656 46.6345 314.596 45.918 314.57 45.3948C314.57 45.3948 314.568 45.3872 314.568 45.3803C314.476 45.1099 314.42 44.9656 314.42 44.9656C311.901 48.7884 306.577 52.4996 304.966 53.5735Z" fill="#8FD6E2"/>
<path fill-rule="evenodd" clip-rule="evenodd" d="M296.346 37.1035C295.35 46.1827 299.207 55.2909 305.49 55.9738C311.773 56.6558 318.102 48.6543 319.098 39.5744C320.092 30.4951 315.805 22.5822 309.523 21.8994C303.24 21.2173 297.341 28.0243 296.346 37.1035Z" fill="white"/>
<path fill-rule="evenodd" clip-rule="evenodd" d="M316.369 40.4178C315.023 42.2104 314.873 44.3643 316.034 45.2274C317.196 46.0913 319.229 45.3382 320.573 43.5463C321.919 41.7537 322.069 39.5998 320.907 38.7359C319.746 37.8721 317.715 38.6252 316.369 40.4178Z" fill="white"/>
<path fill-rule="evenodd" clip-rule="evenodd" d="M300.004 25.5981C300.827 27.9643 305.034 29.1604 307.508 29.6019C308.429 29.7638 309.319 30.0487 310.165 30.4146C315.503 32.7197 319.198 38.3275 319.198 38.3275L324.989 27.7237C324.989 27.7237 318.119 23.5878 312.317 20.3218L312.309 20.3233C311.049 19.6115 309.839 18.9416 308.765 18.3665C307.097 17.4759 305.288 17.4614 303.718 18.051C303.083 18.2939 302.486 18.633 301.957 19.0631C301.956 19.0562 301.949 19.0638 301.937 19.0738C301.259 19.6176 300.692 20.289 300.304 21.0619C300.277 21.1177 300.261 21.1497 300.261 21.1497L300.262 21.1513C299.615 22.4421 299.446 23.9872 300.004 25.5981Z" fill="#282828"/>
<path fill-rule="evenodd" clip-rule="evenodd" d="M333.626 115.578C336.796 114.462 339.958 113.245 342.943 111.693C337.534 96.9758 330.722 78.4438 330.722 78.4438C329.084 74.0161 326.156 62.7486 321.794 60.9033C317.27 58.9892 310.881 58.7906 305.559 66.4462C300.775 73.3279 306.369 89.1545 309.991 103.365C311.943 111.02 310.812 117.497 312.849 123.453C319.439 120.039 326.627 118.042 333.626 115.578Z" fill="#EFEFEF"/>
<path fill-rule="evenodd" clip-rule="evenodd" d="M343.221 112.448C340.62 113.79 337.882 114.881 335.14 115.88C327.75 118.57 320.091 120.581 313.112 124.219C315.586 131.389 317.55 136.209 317.55 136.209L314.472 191.398H340.912C340.912 191.398 351.019 153.127 349.46 129.419C349.445 129.381 346.649 121.773 343.221 112.448Z" fill="#269264"/>
<path fill-rule="evenodd" clip-rule="evenodd" d="M293.966 138.886C293.702 139.57 293.039 139.864 292.488 139.538L292.408 139.498C292.16 139.347 291.904 139.204 291.657 139.06C291.528 138.989 291.393 138.91 291.264 138.846C283.048 134.288 276.958 134.605 273.666 139.792C270.652 144.519 270.716 151.949 272.179 156.675C272.523 157.812 272.946 158.798 273.434 159.547C273.817 160.143 273.738 161.003 273.25 161.472C273.226 161.496 273.201 161.52 273.17 161.536L270.332 158.401C268.303 152.625 268.399 143.611 271.915 138.098C274.753 133.659 280.635 129.784 292.591 136.578C292.815 136.706 293.047 136.841 293.279 136.976C293.303 136.992 293.335 137.008 293.358 137.024L293.409 137.133C293.961 137.46 294.23 138.201 293.966 138.886Z" fill="#036D6D"/>
<path fill-rule="evenodd" clip-rule="evenodd" d="M310.972 160.447L292.454 177.75C291.375 178.761 289.801 178.913 288.57 178.236C288.466 178.189 288.37 178.125 288.275 178.061C288.059 177.926 287.867 177.75 287.682 177.552L285.821 175.499L285.637 175.293L285.237 174.847L284.853 174.425L280.881 170.05L273.169 161.537L270.331 158.402L272.177 156.676L289.937 140.088L291.263 138.847L291.879 138.274L293.277 136.977L297.793 140.422L311.156 154.615C312.739 156.27 312.643 158.887 310.972 160.447Z" fill="#00797D"/>
<path fill-rule="evenodd" clip-rule="evenodd" d="M320.692 130.095L320.877 116.477L319.718 113.673L307.717 84.634C304.763 76.4766 305.009 63.5609 313.203 60.6203C315.107 59.9405 316.81 59.6121 318.344 59.6121C323.401 59.6121 326.578 63.1943 328.849 69.4574C328.849 69.4574 335.602 89.6063 342.155 109.541C344.618 117.042 349.46 129.42 349.46 129.42L320.829 137.476L320.692 130.095Z" fill="#282828"/>
<path fill-rule="evenodd" clip-rule="evenodd" d="M335.463 113.788L320.693 130.095L320.877 116.476L319.718 113.673L325.028 106.998C325.028 106.998 313.35 85.3899 313.227 76.2932C313.211 74.8954 312.675 73.0394 313.734 70.7251C315.881 66.0201 323.129 75.3766 324.986 80.1961L337.381 104.408C338.624 107.639 337.88 111.298 335.463 113.788Z" fill="#161616"/>
<path fill-rule="evenodd" clip-rule="evenodd" d="M305.122 67.3215L301.664 73.7855C301.664 73.7855 297.304 84.7819 301.236 90.7967L310.649 104.431L309.367 90.5798L304.26 75.1535L305.122 67.3215Z" fill="#269264"/>
<path fill-rule="evenodd" clip-rule="evenodd" d="M259.981 177.11C259.981 179.09 259.532 180.694 258.978 180.694C258.425 180.694 258.26 179.792 257.862 177.11C257.572 175.152 257.421 173.527 257.975 173.527C258.529 173.527 259.981 175.131 259.981 177.11Z" fill="#232323"/>
<path fill-rule="evenodd" clip-rule="evenodd" d="M288.737 174.099L288.61 174.123L259.358 180.423C259.406 180.36 259.454 180.233 259.494 180.066C259.502 180.018 259.509 179.962 259.526 179.907C259.637 179.302 259.653 178.292 259.502 177.209C259.478 177.018 259.437 176.82 259.398 176.621C259.326 176.247 259.23 175.866 259.102 175.499V175.491C258.934 174.998 258.71 174.521 258.43 174.107C258.295 173.9 258.143 173.701 257.975 173.526L280.921 165.936L281.856 165.626L285.429 170.169L285.46 170.208L286.02 170.94L286.308 171.314L287.867 173.049L288.578 173.844L288.737 174.099Z" fill="#00797D"/>
<path fill-rule="evenodd" clip-rule="evenodd" d="M311.156 154.615L297.793 140.422L293.277 136.978L291.879 138.274L291.263 138.847L289.937 140.088L299.144 148.407L303.523 152.974C305.656 155.199 305.354 158.779 302.877 160.618L291.309 169.208C287.344 172.038 282.688 172.756 277.875 173.555L259.398 176.622C259.438 176.819 259.478 177.019 259.502 177.21C259.653 178.292 259.637 179.302 259.526 179.907C259.509 179.962 259.502 180.018 259.494 180.065C259.454 180.233 259.406 180.36 259.358 180.424L285.239 174.849L285.637 175.293L285.82 175.5L287.682 177.552C287.866 177.75 288.058 177.926 288.275 178.061C288.371 178.125 288.466 178.188 288.569 178.236C289.801 178.913 291.375 178.761 292.454 177.75L310.972 160.447C312.643 158.888 312.739 156.27 311.156 154.615Z" fill="#1E1E1E"/>
<path fill-rule="evenodd" clip-rule="evenodd" d="M280.892 164.682L278.125 166.843L276.96 165.558L270.351 158.377L272.84 156.066L280.892 164.682Z" fill="#1E1E1E"/>
<path fill-rule="evenodd" clip-rule="evenodd" d="M283.684 138.02C283.684 138.02 283.667 138.037 283.634 138.066C283.443 138.233 282.683 138.719 282.306 138.476C281.865 138.191 281.96 137.379 281.96 137.379L283.713 136.409L283.684 138.02Z" fill="white"/>
<path fill-rule="evenodd" clip-rule="evenodd" d="M281.565 137.212C281.565 137.212 281.547 137.229 281.514 137.258C281.324 137.426 280.736 137.749 280.36 137.506C279.918 137.222 279.933 136.52 279.933 136.52L281.593 135.602L281.565 137.212Z" fill="white"/>
<path fill-rule="evenodd" clip-rule="evenodd" d="M280.029 135.844C280.029 135.844 280.011 135.861 279.978 135.89C279.788 136.058 278.876 136.663 278.499 136.42C278.057 136.135 278.231 134.192 278.231 134.192L280.057 134.234L280.029 135.844Z" fill="white"/>
<path fill-rule="evenodd" clip-rule="evenodd" d="M286.263 137.742C286.263 137.742 284.967 139.068 284.605 138.804C284.205 138.512 284.357 137.566 284.04 137.626L285.756 136.676L286.263 137.742Z" fill="white"/>
<path fill-rule="evenodd" clip-rule="evenodd" d="M278.263 135.027C277.553 133.139 279.615 130.717 281.593 128.946C284.723 127.065 287.298 129.418 288.269 131.592C288.506 132.127 288.052 135.101 287.486 136.097C287.165 136.66 285.896 138.458 285.248 138.436C284.944 138.423 284.581 138.376 284.178 138.288C283.987 138.257 283.791 138.209 283.587 138.156C283.565 138.15 283.537 138.145 283.515 138.14C283.325 138.089 283.14 138.036 282.946 137.973C282.612 137.87 282.266 137.751 281.926 137.616C281.729 137.541 281.527 137.454 281.333 137.371L281.026 137.232C280.835 137.136 280.644 137.045 280.458 136.947C280.271 136.848 280.092 136.747 279.93 136.641C279.734 136.532 279.562 136.416 279.401 136.295C278.842 135.894 278.425 135.458 278.263 135.027Z" fill="white"/>
<path fill-rule="evenodd" clip-rule="evenodd" d="M283.515 138.14L284.74 136.33C284.78 136.27 284.839 136.225 284.905 136.203C284.996 136.173 285.094 136.188 285.18 136.246C285.323 136.338 285.363 136.539 285.264 136.684L284.178 138.288C283.988 138.257 283.791 138.208 283.588 138.156C283.565 138.149 283.537 138.146 283.515 138.14Z" fill="#8FD6E2"/>
<path fill-rule="evenodd" clip-rule="evenodd" d="M281.333 137.372L282.392 135.689C282.432 135.623 282.491 135.584 282.564 135.56C282.648 135.533 282.745 135.542 282.828 135.594C282.979 135.684 283.022 135.876 282.93 136.025L281.927 137.615C281.729 137.541 281.527 137.454 281.333 137.372Z" fill="#8FD6E2"/>
<path fill-rule="evenodd" clip-rule="evenodd" d="M279.402 136.295L280.303 134.859C280.341 134.792 280.402 134.753 280.474 134.729C280.558 134.702 280.655 134.71 280.739 134.762C280.888 134.853 280.932 135.044 280.841 135.194L279.93 136.641C279.734 136.533 279.562 136.416 279.402 136.295Z" fill="#8FD6E2"/>
<path fill-rule="evenodd" clip-rule="evenodd" d="M298.729 138.839C298.729 138.839 290.671 144.205 289.783 144.728C288.44 145.521 287.799 146.375 289.839 146.028C291.879 145.681 295.128 144.604 295.128 144.604C295.128 144.604 287.6 147.551 287.973 148.554C288.3 149.432 295.822 147.125 295.822 147.125C295.822 147.125 289.329 149.59 289.877 150.481C290.424 151.373 296.427 148.892 296.427 148.892C296.427 148.892 293.049 151.637 293.546 152.22C294.004 152.755 302.624 147.115 303.513 143.944C304.155 141.658 298.729 138.839 298.729 138.839Z" fill="white"/>
<path fill-rule="evenodd" clip-rule="evenodd" d="M311.667 67.8226C313.814 63.1214 320.609 63.3475 322.467 68.1694L335.314 101.508C336.56 104.741 335.812 108.4 333.395 110.891L303.99 143.096L298.729 138.839L322.962 104.097C322.962 104.097 311.285 82.4905 311.161 73.3922C311.141 71.9944 310.608 70.1407 311.667 67.8226Z" fill="#282828"/>
<path fill-rule="evenodd" clip-rule="evenodd" d="M319.376 42.7388C319.412 42.7388 319.45 42.7258 319.48 42.7006C320.031 42.2347 320.237 41.6045 320.032 41.0141C319.878 40.5681 319.51 40.258 319.117 40.2427C319.023 40.2526 318.954 40.3084 318.95 40.397C318.947 40.4856 319.016 40.5597 319.104 40.5627C319.366 40.5734 319.617 40.7964 319.729 41.118C319.888 41.5793 319.717 42.0796 319.271 42.4562C319.204 42.5142 319.195 42.6143 319.253 42.6822C319.284 42.7197 319.33 42.7388 319.376 42.7388Z" fill="#8FD6E2"/>
<path fill-rule="evenodd" clip-rule="evenodd" d="M318.212 43.7211C318.263 43.7211 318.313 43.6975 318.344 43.6524C318.395 43.5798 318.377 43.4805 318.305 43.4294C318.173 43.3385 318.102 43.2308 318.089 43.1009C318.059 42.8168 318.31 42.4823 318.41 42.3769C318.471 42.3127 318.468 42.2111 318.402 42.1508C318.339 42.0904 318.236 42.0927 318.176 42.1577C318.158 42.1775 317.718 42.648 317.769 43.1345C317.792 43.3583 317.91 43.5462 318.12 43.6921C318.148 43.7112 318.181 43.7211 318.212 43.7211Z" fill="#8FD6E2"/>
<path fill-rule="evenodd" clip-rule="evenodd" d="M214.108 39.8105V61.193H210.426L202.139 49.5856V61.193H197.229V39.8105H200.913L209.198 51.4179V39.8105H214.108Z" fill="#C48504"/>
<path fill-rule="evenodd" clip-rule="evenodd" d="M191.82 50.5021H220.848V46.6716H191.82V50.5021Z" fill="#C48504"/>
<path fill-rule="evenodd" clip-rule="evenodd" d="M191.82 55.492H220.848V51.6616H191.82V55.492Z" fill="#C48504"/>
<path fill-rule="evenodd" clip-rule="evenodd" d="M136.633 109.717L149.923 117.355L148.608 119.623L138.434 120.58L145.649 124.726L143.894 127.75L130.605 120.112L131.92 117.844L142.094 116.888L134.879 112.741L136.633 109.717Z" fill="#285CC0"/>
<path fill-rule="evenodd" clip-rule="evenodd" d="M145.686 109.386L135.317 127.263L132.936 125.894L143.305 108.017L145.686 109.386Z" fill="#285CC0"/>
<path fill-rule="evenodd" clip-rule="evenodd" d="M148.787 111.168L138.419 129.045L136.038 127.677L146.406 109.799L148.787 111.168Z" fill="#285CC0"/>
<path fill-rule="evenodd" clip-rule="evenodd" d="M267.642 152.357L254.352 159.995L253.037 157.727L257.292 148.478L250.077 152.625L248.323 149.601L261.613 141.963L262.928 144.23L258.674 153.479L265.888 149.333L267.642 152.357Z" fill="#278E62"/>
<path fill-rule="evenodd" clip-rule="evenodd" d="M263.404 160.326L253.035 142.449L255.416 141.081L265.785 158.957L263.404 160.326Z" fill="#278E62"/>
<path fill-rule="evenodd" clip-rule="evenodd" d="M260.303 162.109L249.934 144.232L252.315 142.864L262.684 160.74L260.303 162.109Z" fill="#278E62"/>
</svg>
