<svg width="242" height="44" viewBox="0 0 242 44" fill="none" xmlns="http://www.w3.org/2000/svg">
<g clip-path="url(#clip0)">
<path d="M1.76267 26.406V34.3647" stroke="#8D5998" stroke-width="1.81399" stroke-linecap="round"/>
<path d="M82.2281 13.4744V34.3641" stroke="#8D5998" stroke-width="1.81399" stroke-linecap="round"/>
<path d="M164.898 3.37122V34.364" stroke="#8D5998" stroke-width="1.81399" stroke-linecap="round"/>
<path d="M10.1179 23.8559V34.3641" stroke="#8D5998" stroke-width="1.81399" stroke-linecap="round"/>
<path d="M91.0222 11.0617V34.3644" stroke="#8D5998" stroke-width="1.81399" stroke-linecap="round"/>
<path d="M172.373 5.09628V34.364" stroke="#8D5998" stroke-width="1.81399" stroke-linecap="round"/>
<path d="M18.0289 23.3131V34.3645" stroke="#8D5998" stroke-width="1.81399" stroke-linecap="round"/>
<path d="M99.3808 8.41063V34.3643" stroke="#8D5998" stroke-width="1.81399" stroke-linecap="round"/>
<path d="M180.285 8.41063V34.3643" stroke="#8D5998" stroke-width="1.81399" stroke-linecap="round"/>
<path d="M50.1281 18.2766V34.3637" stroke="#8D5998" stroke-width="1.81399" stroke-linecap="round"/>
<path d="M131.038 5.09628V34.364" stroke="#8D5998" stroke-width="1.81399" stroke-linecap="round"/>
<path d="M213.265 5.09628V34.364" stroke="#8D5998" stroke-width="1.81399" stroke-linecap="round"/>
<path d="M25.7866 22.5522L25.5319 34.3717" stroke="#8D5998" stroke-width="1.81399" stroke-linecap="round"/>
<path d="M107.734 6.99152V34.3644" stroke="#8D5998" stroke-width="1.81399" stroke-linecap="round"/>
<path d="M188.64 6.99152V34.3644" stroke="#8D5998" stroke-width="1.81399" stroke-linecap="round"/>
<path d="M58.4851 15.1802V34.3639" stroke="#8D5998" stroke-width="1.81399" stroke-linecap="round"/>
<path d="M139.391 5.09628V34.364" stroke="#8D5998" stroke-width="1.81399" stroke-linecap="round"/>
<path d="M1.66873 42.8071V38.5662H1.64747L0.325951 39.4945V38.6335L1.66164 37.6947H2.56509V42.8071H1.66873Z" fill="#8E8E8F" fill-opacity="0.85"/>
<path d="M228.26 40.2878V39.6005H228.876C229.138 39.6005 229.351 39.5284 229.514 39.3844C229.677 39.2379 229.758 39.0501 229.758 38.821C229.758 38.5943 229.68 38.4136 229.524 38.279C229.371 38.1443 229.154 38.077 228.873 38.077C228.61 38.077 228.397 38.149 228.231 38.2931C228.066 38.4348 227.974 38.625 227.955 38.8635H227.105C227.131 38.403 227.307 38.0357 227.632 37.7617C227.961 37.4877 228.388 37.3507 228.915 37.3507C229.42 37.3507 229.834 37.4759 230.155 37.7263C230.476 37.9766 230.637 38.3002 230.637 38.697C230.637 39.0112 230.54 39.2769 230.346 39.4942C230.155 39.7091 229.9 39.8438 229.581 39.8981V39.9193C229.966 39.9477 230.272 40.0729 230.499 40.2949C230.728 40.5146 230.842 40.8015 230.842 41.1558C230.842 41.6046 230.659 41.9695 230.293 42.2506C229.929 42.5293 229.467 42.6687 228.904 42.6687C228.347 42.6687 227.897 42.5293 227.555 42.2506C227.212 41.9695 227.029 41.5999 227.005 41.1417H227.877C227.898 41.3779 228.001 41.5668 228.185 41.7085C228.369 41.8502 228.612 41.9211 228.911 41.9211C229.207 41.9211 229.448 41.8467 229.634 41.6979C229.821 41.5491 229.914 41.3566 229.914 41.1204C229.914 40.8629 229.822 40.6598 229.638 40.511C229.456 40.3622 229.207 40.2878 228.89 40.2878H228.26ZM233.471 42.6687C232.848 42.6687 232.358 42.4313 232.001 41.9565C231.647 41.4794 231.469 40.8287 231.469 40.0044C231.469 39.1848 231.648 38.5376 232.004 38.0628C232.361 37.5881 232.85 37.3507 233.471 37.3507C234.092 37.3507 234.58 37.5881 234.934 38.0628C235.289 38.5352 235.466 39.1812 235.466 40.0008C235.466 40.8228 235.289 41.4735 234.934 41.953C234.58 42.4301 234.092 42.6687 233.471 42.6687ZM233.471 41.9211C233.809 41.9211 234.071 41.7522 234.258 41.4145C234.447 41.0767 234.541 40.6067 234.541 40.0044C234.541 39.4068 234.447 38.9403 234.258 38.6049C234.069 38.2671 233.807 38.0983 233.471 38.0983C233.136 38.0983 232.871 38.2671 232.678 38.6049C232.486 38.9427 232.391 39.408 232.391 40.0008C232.391 40.6031 232.485 41.0743 232.674 41.4145C232.865 41.7522 233.131 41.9211 233.471 41.9211Z" fill="#8E8E8F" fill-opacity="0.85"/>
<path d="M220.74 3.37122V34.364" stroke="#8D5998" stroke-width="1.81399" stroke-linecap="round"/>
<path d="M33.4199 20.6779V34.3643" stroke="#8D5998" stroke-width="1.81399" stroke-linecap="round"/>
<path d="M115.649 6.99152V34.3644" stroke="#8D5998" stroke-width="1.81399" stroke-linecap="round"/>
<path d="M196.995 6.99152V34.3644" stroke="#8D5998" stroke-width="1.81399" stroke-linecap="round"/>
<path d="M66.3998 15.1802V34.3639" stroke="#8D5998" stroke-width="1.81399" stroke-linecap="round"/>
<path d="M147.746 5.09628V34.364" stroke="#8D5998" stroke-width="1.81399" stroke-linecap="round"/>
<path d="M228.654 2.01025V34.3638" stroke="#8D5998" stroke-width="1.81399" stroke-linecap="round"/>
<path d="M41.7749 18.2766V34.3637" stroke="#8D5998" stroke-width="1.81399" stroke-linecap="round"/>
<path d="M123.122 5.09628V34.364" stroke="#8D5998" stroke-width="1.81399" stroke-linecap="round"/>
<path d="M205.35 5.09628V34.364" stroke="#8D5998" stroke-width="1.81399" stroke-linecap="round"/>
<path d="M73.8731 15.1802V34.3639" stroke="#8D5998" stroke-width="1.81399" stroke-linecap="round"/>
<path d="M156.544 5.09628V34.364" stroke="#8D5998" stroke-width="1.81399" stroke-linecap="round"/>
<path d="M237.009 0.601085V34.3644" stroke="#8D5998" stroke-width="1.81399" stroke-linecap="round"/>
</g>
<defs>
<clipPath id="clip0">
<rect width="242" height="43.1914" fill="white" transform="translate(0 0.470215)"/>
</clipPath>
</defs>
</svg>
