<svg width="267" height="84" viewBox="0 0 267 84" fill="none" xmlns="http://www.w3.org/2000/svg">
<g opacity="0.1">
<path d="M1.94906 2.91395V69.3574" stroke="#8E8E8F" stroke-opacity="0.85" stroke-width="3.89781" stroke-linecap="round"/>
<path d="M90.9441 2.91395V69.3574" stroke="#8E8E8F" stroke-opacity="0.85" stroke-width="3.89781" stroke-linecap="round"/>
<path d="M182.374 2.91395V69.3574" stroke="#8E8E8F" stroke-opacity="0.85" stroke-width="3.89781" stroke-linecap="round"/>
<path d="M11.1893 2.91395V69.3574" stroke="#8E8E8F" stroke-opacity="0.85" stroke-width="3.89781" stroke-linecap="round"/>
<path d="M100.67 2.91395V69.3574" stroke="#8E8E8F" stroke-opacity="0.85" stroke-width="3.89781" stroke-linecap="round"/>
<path d="M190.64 2.91395V69.3574" stroke="#8E8E8F" stroke-opacity="0.85" stroke-width="3.89781" stroke-linecap="round"/>
<path d="M19.9423 2.91395V69.3574" stroke="#8E8E8F" stroke-opacity="0.85" stroke-width="3.89781" stroke-linecap="round"/>
<path d="M109.912 2.91395V69.3574" stroke="#8E8E8F" stroke-opacity="0.85" stroke-width="3.89781" stroke-linecap="round"/>
<path d="M199.394 2.91395V69.3574" stroke="#8E8E8F" stroke-opacity="0.85" stroke-width="3.89781" stroke-linecap="round"/>
<path d="M55.4432 2.91395V69.3574" stroke="#8E8E8F" stroke-opacity="0.85" stroke-width="3.89781" stroke-linecap="round"/>
<path d="M144.926 2.91395V69.3574" stroke="#8E8E8F" stroke-opacity="0.85" stroke-width="3.89781" stroke-linecap="round"/>
<path d="M235.868 2.91395V69.3574" stroke="#8E8E8F" stroke-opacity="0.85" stroke-width="3.89781" stroke-linecap="round"/>
<path d="M28.2099 2.91395V69.3574" stroke="#8E8E8F" stroke-opacity="0.85" stroke-width="3.89781" stroke-linecap="round"/>
<path d="M119.15 2.91395V69.3574" stroke="#8E8E8F" stroke-opacity="0.85" stroke-width="3.89781" stroke-linecap="round"/>
<path d="M208.633 2.91395V69.3574" stroke="#8E8E8F" stroke-opacity="0.85" stroke-width="3.89781" stroke-linecap="round"/>
<path d="M64.6815 2.91395V69.3574" stroke="#8E8E8F" stroke-opacity="0.85" stroke-width="3.89781" stroke-linecap="round"/>
<path d="M154.166 2.91395V69.3574" stroke="#8E8E8F" stroke-opacity="0.85" stroke-width="3.89781" stroke-linecap="round"/>
<path d="M244.134 2.91395V69.3574" stroke="#8E8E8F" stroke-opacity="0.85" stroke-width="3.89781" stroke-linecap="round"/>
<path d="M36.9627 2.91395V69.3574" stroke="#8E8E8F" stroke-opacity="0.85" stroke-width="3.89781" stroke-linecap="round"/>
<path d="M127.905 2.91395V69.3574" stroke="#8E8E8F" stroke-opacity="0.85" stroke-width="3.89781" stroke-linecap="round"/>
<path d="M217.875 2.91395V69.3574" stroke="#8E8E8F" stroke-opacity="0.85" stroke-width="3.89781" stroke-linecap="round"/>
<path d="M73.4364 2.91395V69.3574" stroke="#8E8E8F" stroke-opacity="0.85" stroke-width="3.89781" stroke-linecap="round"/>
<path d="M163.406 2.91395V69.3574" stroke="#8E8E8F" stroke-opacity="0.85" stroke-width="3.89781" stroke-linecap="round"/>
<path d="M252.887 2.91395V69.3574" stroke="#8E8E8F" stroke-opacity="0.85" stroke-width="3.89781" stroke-linecap="round"/>
<path d="M46.201 2.91395V69.3574" stroke="#8E8E8F" stroke-opacity="0.85" stroke-width="3.89781" stroke-linecap="round"/>
<path d="M136.171 2.91395V69.3574" stroke="#8E8E8F" stroke-opacity="0.85" stroke-width="3.89781" stroke-linecap="round"/>
<path d="M227.113 2.91395V69.3574" stroke="#8E8E8F" stroke-opacity="0.85" stroke-width="3.89781" stroke-linecap="round"/>
<path d="M81.7021 2.91395V69.3574" stroke="#8E8E8F" stroke-opacity="0.85" stroke-width="3.89781" stroke-linecap="round"/>
<path d="M173.132 2.91395V69.3574" stroke="#8E8E8F" stroke-opacity="0.85" stroke-width="3.89781" stroke-linecap="round"/>
<path d="M262.129 2.91395V69.3574" stroke="#8E8E8F" stroke-opacity="0.85" stroke-width="3.89781" stroke-linecap="round"/>
</g>
<g clip-path="url(#clip0)">
<path d="M1.94906 54.2288V69.3574" stroke="#3077FF" stroke-width="3.89781" stroke-linecap="round"/>
<path d="M90.9443 29.6482V69.3569" stroke="#3077FF" stroke-width="3.89781" stroke-linecap="round"/>
<path d="M182.374 10.4438V69.3574" stroke="#3077FF" stroke-width="3.89781" stroke-linecap="round"/>
<path d="M11.1893 49.3826V69.3575" stroke="#3077FF" stroke-width="3.89781" stroke-linecap="round"/>
<path d="M100.67 25.0615V69.3571" stroke="#3077FF" stroke-width="3.89781" stroke-linecap="round"/>
<path d="M190.64 13.7224V69.3569" stroke="#3077FF" stroke-width="3.89781" stroke-linecap="round"/>
<path d="M19.9423 48.3498V69.3571" stroke="#3077FF" stroke-width="3.89781" stroke-linecap="round"/>
<path d="M109.912 20.0223V69.3572" stroke="#3077FF" stroke-width="3.89781" stroke-linecap="round"/>
<path d="M199.394 20.0223V69.3572" stroke="#3077FF" stroke-width="3.89781" stroke-linecap="round"/>
<path d="M55.4432 38.7776V69.3574" stroke="#3077FF" stroke-width="3.89781" stroke-linecap="round"/>
<path d="M144.926 13.7224V69.3569" stroke="#3077FF" stroke-width="3.89781" stroke-linecap="round"/>
<path d="M235.868 13.7224V69.3569" stroke="#3077FF" stroke-width="3.89781" stroke-linecap="round"/>
<path d="M28.7269 47.2097L28.7269 69.3622" stroke="#3077FF" stroke-width="3.89781" stroke-linecap="round"/>
<path d="M119.15 17.3244V69.357" stroke="#3077FF" stroke-width="3.89781" stroke-linecap="round"/>
<path d="M208.633 17.3244V69.357" stroke="#3077FF" stroke-width="3.89781" stroke-linecap="round"/>
<path d="M64.6815 32.8911V69.3571" stroke="#3077FF" stroke-width="3.89781" stroke-linecap="round"/>
<path d="M154.166 13.7224V69.3569" stroke="#3077FF" stroke-width="3.89781" stroke-linecap="round"/>
<path d="M1.79284 81.5967V77.0404H1.77L0.350194 78.0376V77.1127L1.78523 76.104H2.75587V81.5967H1.79284Z" fill="#27292D"/>
<path d="M257.948 79.1491V78.4107H258.611C258.892 78.4107 259.121 78.3333 259.296 78.1785C259.471 78.0211 259.559 77.8194 259.559 77.5733C259.559 77.3296 259.475 77.1355 259.307 76.9909C259.142 76.8462 258.909 76.7739 258.607 76.7739C258.325 76.7739 258.096 76.8513 257.918 77.0061C257.74 77.1584 257.641 77.3626 257.621 77.6189H256.708C256.735 77.1241 256.925 76.7295 257.275 76.4351C257.627 76.1408 258.087 75.9936 258.653 75.9936C259.196 75.9936 259.64 76.1281 259.985 76.3971C260.33 76.6661 260.503 77.0137 260.503 77.44C260.503 77.7775 260.399 78.063 260.19 78.2965C259.985 78.5274 259.711 78.6721 259.368 78.7304V78.7533C259.782 78.7837 260.111 78.9182 260.354 79.1567C260.6 79.3927 260.723 79.7011 260.723 80.0817C260.723 80.5639 260.527 80.9559 260.133 81.2579C259.743 81.5573 259.245 81.7071 258.641 81.7071C258.042 81.7071 257.559 81.5573 257.191 81.2579C256.823 80.9559 256.626 80.5588 256.601 80.0665H257.537C257.56 80.3202 257.671 80.5233 257.869 80.6755C258.066 80.8278 258.327 80.9039 258.649 80.9039C258.966 80.9039 259.225 80.824 259.425 80.6641C259.626 80.5042 259.726 80.2974 259.726 80.0436C259.726 79.767 259.627 79.5488 259.429 79.3889C259.234 79.2291 258.966 79.1491 258.626 79.1491H257.948ZM263.548 81.7071C262.878 81.7071 262.351 81.452 261.968 80.942C261.587 80.4294 261.397 79.7302 261.397 78.8446C261.397 77.9641 261.589 77.2687 261.972 76.7587C262.355 76.2486 262.88 75.9936 263.548 75.9936C264.215 75.9936 264.739 76.2486 265.12 76.7587C265.5 77.2662 265.691 77.9602 265.691 78.8408C265.691 79.7239 265.5 80.423 265.12 80.9382C264.739 81.4508 264.215 81.7071 263.548 81.7071ZM263.548 80.9039C263.911 80.9039 264.192 80.7225 264.393 80.3596C264.596 79.9967 264.697 79.4917 264.697 78.8446C264.697 78.2026 264.596 77.7014 264.393 77.3411C264.19 76.9782 263.908 76.7967 263.548 76.7967C263.187 76.7967 262.903 76.9782 262.695 77.3411C262.49 77.7039 262.387 78.2039 262.387 78.8408C262.387 79.4879 262.488 79.9942 262.691 80.3596C262.897 80.7225 263.182 80.9039 263.548 80.9039Z" fill="#27292D"/>
<path d="M244.134 10.4438V69.3574" stroke="#3077FF" stroke-width="3.89781" stroke-linecap="round"/>
<path d="M36.9627 43.3409V69.3572" stroke="#3077FF" stroke-width="3.89781" stroke-linecap="round"/>
<path d="M127.905 17.3244V69.357" stroke="#3077FF" stroke-width="3.89781" stroke-linecap="round"/>
<path d="M217.875 17.3244V69.357" stroke="#3077FF" stroke-width="3.89781" stroke-linecap="round"/>
<path d="M73.4364 32.8911V69.3571" stroke="#3077FF" stroke-width="3.89781" stroke-linecap="round"/>
<path d="M163.406 13.7224V69.3569" stroke="#3077FF" stroke-width="3.89781" stroke-linecap="round"/>
<path d="M252.887 7.85645V69.3567" stroke="#3077FF" stroke-width="3.89781" stroke-linecap="round"/>
<path d="M46.201 38.7776V69.3574" stroke="#3077FF" stroke-width="3.89781" stroke-linecap="round"/>
<path d="M136.171 13.7224V69.3569" stroke="#3077FF" stroke-width="3.89781" stroke-linecap="round"/>
<path d="M227.113 13.7224V69.3569" stroke="#3077FF" stroke-width="3.89781" stroke-linecap="round"/>
<path d="M81.7021 32.8911V69.3571" stroke="#3077FF" stroke-width="3.89781" stroke-linecap="round"/>
<path d="M173.132 13.7224V69.3569" stroke="#3077FF" stroke-width="3.89781" stroke-linecap="round"/>
<path d="M262.129 5.17748V69.3575" stroke="#3077FF" stroke-width="3.89781" stroke-linecap="round"/>
</g>
<defs>
<clipPath id="clip0">
<rect width="267" height="79.0717" fill="white" transform="translate(0 4.92871)"/>
</clipPath>
</defs>
</svg>
