<svg width="197" height="85" viewBox="0 0 197 85" fill="none" xmlns="http://www.w3.org/2000/svg">
<g opacity="0.1">
<path d="M1.71747 1.93624V70" stroke="#8E8E8F" stroke-opacity="0.85" stroke-width="2" stroke-linecap="round"/>
<path d="M67.2425 1.93624V70" stroke="#8E8E8F" stroke-opacity="0.85" stroke-width="2" stroke-linecap="round"/>
<path d="M134.561 1.93624V70" stroke="#8E8E8F" stroke-opacity="0.85" stroke-width="2" stroke-linecap="round"/>
<path d="M8.52118 1.93624V70" stroke="#8E8E8F" stroke-opacity="0.85" stroke-width="2" stroke-linecap="round"/>
<path d="M74.4047 1.93624V70" stroke="#8E8E8F" stroke-opacity="0.85" stroke-width="2" stroke-linecap="round"/>
<path d="M140.647 1.93624V70" stroke="#8E8E8F" stroke-opacity="0.85" stroke-width="2" stroke-linecap="round"/>
<path d="M14.9659 1.93624V70" stroke="#8E8E8F" stroke-opacity="0.85" stroke-width="2" stroke-linecap="round"/>
<path d="M81.2084 1.93624V70" stroke="#8E8E8F" stroke-opacity="0.85" stroke-width="2" stroke-linecap="round"/>
<path d="M147.092 1.93624V70" stroke="#8E8E8F" stroke-opacity="0.85" stroke-width="2" stroke-linecap="round"/>
<path d="M41.1042 1.93624V70" stroke="#8E8E8F" stroke-opacity="0.85" stroke-width="2" stroke-linecap="round"/>
<path d="M106.988 1.93624V70" stroke="#8E8E8F" stroke-opacity="0.85" stroke-width="2" stroke-linecap="round"/>
<path d="M173.948 1.93624V70" stroke="#8E8E8F" stroke-opacity="0.85" stroke-width="2" stroke-linecap="round"/>
<path d="M21.0521 1.93624V70" stroke="#8E8E8F" stroke-opacity="0.85" stroke-width="2" stroke-linecap="round"/>
<path d="M88.0121 1.93624V70" stroke="#8E8E8F" stroke-opacity="0.85" stroke-width="2" stroke-linecap="round"/>
<path d="M153.896 1.93624V70" stroke="#8E8E8F" stroke-opacity="0.85" stroke-width="2" stroke-linecap="round"/>
<path d="M47.9079 1.93624V70" stroke="#8E8E8F" stroke-opacity="0.85" stroke-width="2" stroke-linecap="round"/>
<path d="M113.792 1.93624V70" stroke="#8E8E8F" stroke-opacity="0.85" stroke-width="2" stroke-linecap="round"/>
<path d="M180.034 1.93624V70" stroke="#8E8E8F" stroke-opacity="0.85" stroke-width="2" stroke-linecap="round"/>
<path d="M27.497 1.93624V70" stroke="#8E8E8F" stroke-opacity="0.85" stroke-width="2" stroke-linecap="round"/>
<path d="M94.4569 1.93624V70" stroke="#8E8E8F" stroke-opacity="0.85" stroke-width="2" stroke-linecap="round"/>
<path d="M160.699 1.93624V70" stroke="#8E8E8F" stroke-opacity="0.85" stroke-width="2" stroke-linecap="round"/>
<path d="M54.3526 1.93624V70" stroke="#8E8E8F" stroke-opacity="0.85" stroke-width="2" stroke-linecap="round"/>
<path d="M120.595 1.93624V70" stroke="#8E8E8F" stroke-opacity="0.85" stroke-width="2" stroke-linecap="round"/>
<path d="M186.479 1.93624V70" stroke="#8E8E8F" stroke-opacity="0.85" stroke-width="2" stroke-linecap="round"/>
<path d="M34.3005 1.93624V70" stroke="#8E8E8F" stroke-opacity="0.85" stroke-width="2" stroke-linecap="round"/>
<path d="M100.543 1.93624V70" stroke="#8E8E8F" stroke-opacity="0.85" stroke-width="2" stroke-linecap="round"/>
<path d="M167.503 1.93624V70" stroke="#8E8E8F" stroke-opacity="0.85" stroke-width="2" stroke-linecap="round"/>
<path d="M60.4388 1.93624V70" stroke="#8E8E8F" stroke-opacity="0.85" stroke-width="2" stroke-linecap="round"/>
<path d="M127.758 1.93624V70" stroke="#8E8E8F" stroke-opacity="0.85" stroke-width="2" stroke-linecap="round"/>
<path d="M193.282 1.93624V70" stroke="#8E8E8F" stroke-opacity="0.85" stroke-width="2" stroke-linecap="round"/>
</g>
<g clip-path="url(#clip0)">
<path d="M1.43797 54.5024V70" stroke="#36B37E" stroke-width="2" stroke-linecap="round"/>
<path d="M67.1005 29.3229V70" stroke="#36B37E" stroke-width="2" stroke-linecap="round"/>
<path d="M134.56 9.64965V70" stroke="#36B37E" stroke-width="2" stroke-linecap="round"/>
<path d="M8.25584 49.538V70" stroke="#36B37E" stroke-width="2" stroke-linecap="round"/>
<path d="M74.2778 24.6242V70" stroke="#36B37E" stroke-width="2" stroke-linecap="round"/>
<path d="M140.659 13.0087V70" stroke="#36B37E" stroke-width="2" stroke-linecap="round"/>
<path d="M14.7142 48.4803V70" stroke="#36B37E" stroke-width="2" stroke-linecap="round"/>
<path d="M81.0957 19.4621V70" stroke="#36B37E" stroke-width="2" stroke-linecap="round"/>
<path d="M147.118 19.4621V70" stroke="#36B37E" stroke-width="2" stroke-linecap="round"/>
<path d="M40.9075 38.6745V70" stroke="#36B37E" stroke-width="2" stroke-linecap="round"/>
<path d="M106.929 13.0087V70" stroke="#36B37E" stroke-width="2" stroke-linecap="round"/>
<path d="M174.03 13.0087V70" stroke="#36B37E" stroke-width="2" stroke-linecap="round"/>
<path d="M21.0431 47L20.8353 70.0153" stroke="#36B37E" stroke-width="2" stroke-linecap="round"/>
<path d="M87.9136 16.6985V70" stroke="#36B37E" stroke-width="2" stroke-linecap="round"/>
<path d="M153.936 16.6985V70" stroke="#36B37E" stroke-width="2" stroke-linecap="round"/>
<path d="M47.7253 32.6447V70" stroke="#36B37E" stroke-width="2" stroke-linecap="round"/>
<path d="M113.747 13.0087V70" stroke="#36B37E" stroke-width="2" stroke-linecap="round"/>
<path d="M1.83984 82.4683V77.7925H1.81641L0.359375 78.8159V77.8667L1.83203 76.8315H2.82812V82.4683H1.83984Z" fill="#8E8E8F" fill-opacity="0.85"/>
<path d="M186.711 79.4883V78.7305H187.391C187.68 78.7305 187.914 78.651 188.094 78.4922C188.273 78.3307 188.363 78.1237 188.363 77.8711C188.363 77.6211 188.277 77.4219 188.105 77.2734C187.936 77.125 187.697 77.0508 187.387 77.0508C187.098 77.0508 186.862 77.1302 186.68 77.2891C186.497 77.4453 186.396 77.6549 186.375 77.918H185.438C185.466 77.4102 185.66 77.0052 186.02 76.7031C186.382 76.401 186.853 76.25 187.434 76.25C187.991 76.25 188.447 76.388 188.801 76.6641C189.155 76.9401 189.332 77.2969 189.332 77.7344C189.332 78.0807 189.225 78.3737 189.012 78.6133C188.801 78.8503 188.52 78.9987 188.168 79.0586V79.082C188.592 79.1133 188.93 79.2513 189.18 79.4961C189.432 79.7383 189.559 80.0547 189.559 80.4453C189.559 80.9401 189.357 81.3424 188.953 81.6523C188.552 81.9596 188.042 82.1133 187.422 82.1133C186.807 82.1133 186.311 81.9596 185.934 81.6523C185.556 81.3424 185.354 80.9349 185.328 80.4297H186.289C186.312 80.6901 186.426 80.8984 186.629 81.0547C186.832 81.2109 187.099 81.2891 187.43 81.2891C187.755 81.2891 188.021 81.207 188.227 81.043C188.432 80.8789 188.535 80.6667 188.535 80.4062C188.535 80.1224 188.434 79.8984 188.23 79.7344C188.03 79.5703 187.755 79.4883 187.406 79.4883H186.711ZM192.457 82.1133C191.77 82.1133 191.229 81.8516 190.836 81.3281C190.445 80.8021 190.25 80.0846 190.25 79.1758C190.25 78.2721 190.447 77.5586 190.84 77.0352C191.233 76.5117 191.772 76.25 192.457 76.25C193.142 76.25 193.68 76.5117 194.07 77.0352C194.461 77.556 194.656 78.2682 194.656 79.1719C194.656 80.0781 194.461 80.7956 194.07 81.3242C193.68 81.8503 193.142 82.1133 192.457 82.1133ZM192.457 81.2891C192.829 81.2891 193.118 81.1029 193.324 80.7305C193.533 80.3581 193.637 79.8398 193.637 79.1758C193.637 78.5169 193.533 78.0026 193.324 77.6328C193.116 77.2604 192.827 77.0742 192.457 77.0742C192.087 77.0742 191.796 77.2604 191.582 77.6328C191.371 78.0052 191.266 78.5182 191.266 79.1719C191.266 79.8359 191.37 80.3555 191.578 80.7305C191.789 81.1029 192.082 81.2891 192.457 81.2891Z" fill="#8E8E8F" fill-opacity="0.85"/>
<path d="M180.129 9.64965V70" stroke="#36B37E" stroke-width="2" stroke-linecap="round"/>
<path d="M27.2715 43.3492V70" stroke="#36B37E" stroke-width="2" stroke-linecap="round"/>
<path d="M94.3722 16.6985V70" stroke="#36B37E" stroke-width="2" stroke-linecap="round"/>
<path d="M160.754 16.6985V70" stroke="#36B37E" stroke-width="2" stroke-linecap="round"/>
<path d="M54.1837 32.6447V70" stroke="#36B37E" stroke-width="2" stroke-linecap="round"/>
<path d="M120.565 13.0087V70" stroke="#36B37E" stroke-width="2" stroke-linecap="round"/>
<path d="M186.587 7V70" stroke="#36B37E" stroke-width="2" stroke-linecap="round"/>
<path d="M34.0896 38.6745V70" stroke="#36B37E" stroke-width="2" stroke-linecap="round"/>
<path d="M100.471 13.0087V70" stroke="#36B37E" stroke-width="2" stroke-linecap="round"/>
<path d="M167.572 13.0087V70" stroke="#36B37E" stroke-width="2" stroke-linecap="round"/>
<path d="M60.2826 32.6447V70" stroke="#36B37E" stroke-width="2" stroke-linecap="round"/>
<path d="M127.743 13.0087V70" stroke="#36B37E" stroke-width="2" stroke-linecap="round"/>
<path d="M193.405 4.25483V70" stroke="#36B37E" stroke-width="2" stroke-linecap="round"/>
</g>
<defs>
<clipPath id="clip0">
<rect width="197" height="81" fill="white" transform="translate(0 4)"/>
</clipPath>
</defs>
</svg>
