<svg width="281" height="187" viewBox="0 0 281 187" fill="none" xmlns="http://www.w3.org/2000/svg">
<path fill-rule="evenodd" clip-rule="evenodd" d="M167.125 35.4014C167.125 53.0377 152.733 67.335 134.978 67.335C117.224 67.335 102.832 53.0377 102.832 35.4014C102.832 17.7646 117.224 3.46729 134.978 3.46729C152.733 3.46729 167.125 17.7646 167.125 35.4014Z" fill="#1B365D"/>
<path fill-rule="evenodd" clip-rule="evenodd" d="M163.734 32.0327C163.734 49.6695 149.342 63.9668 131.587 63.9668C113.834 63.9668 99.4412 49.6695 99.4412 32.0327C99.4412 14.3964 113.834 0.0991211 131.587 0.0991211C149.342 0.0991211 163.734 14.3964 163.734 32.0327Z" fill="#FFB54A"/>
<path fill-rule="evenodd" clip-rule="evenodd" d="M131.586 8.04374C118.235 8.04374 107.373 18.8337 107.373 32.0963C107.373 45.3584 118.235 56.1483 131.586 56.1483C144.937 56.1483 155.799 45.3584 155.799 32.0963C155.799 18.8337 144.937 8.04374 131.586 8.04374ZM131.589 57.815C117.313 57.815 105.698 46.2777 105.698 32.096C105.698 17.9143 117.313 6.37646 131.589 6.37646C145.865 6.37646 157.48 17.9143 157.48 32.096C157.48 46.2777 145.865 57.815 131.589 57.815Z" fill="#FCF0E3"/>
<path fill-rule="evenodd" clip-rule="evenodd" d="M133.385 39.0719C135.148 38.8007 136.03 38.0111 136.03 36.703V36.6291C136.03 35.9874 135.844 35.4628 135.471 35.0555C135.098 34.6488 134.403 34.2598 133.385 33.8897V39.0719ZM129.882 22.4519C128.989 22.5758 128.336 22.8409 127.926 23.2476C127.516 23.6549 127.312 24.155 127.312 24.7474V24.8213C127.312 25.3892 127.485 25.8759 127.833 26.2832C128.18 26.6905 128.863 27.079 129.882 27.449V22.4519ZM129.698 43.6249C128.083 43.4276 126.524 43.027 125.021 42.4219C123.518 41.8173 122.146 41.0466 120.904 40.1081L123.81 35.8883C124.828 36.6535 125.816 37.2892 126.773 37.7948C127.729 38.301 128.766 38.665 129.884 38.8867V33.0017C128.543 32.631 127.368 32.2243 126.363 31.7798C125.357 31.3358 124.524 30.8057 123.866 30.1883C123.208 29.5715 122.711 28.8497 122.376 28.0229C122.04 27.1961 121.873 26.2403 121.873 25.154V25.0801C121.873 24.0438 122.059 23.1064 122.431 22.2668C122.804 21.4283 123.331 20.6998 124.015 20.083C124.698 19.4668 125.524 18.9667 126.493 18.5838C127.462 18.2015 128.53 17.9487 129.698 17.8253V15.6782H133.573V17.8992C134.914 18.097 136.149 18.4238 137.28 18.88C138.41 19.3367 139.484 19.923 140.503 20.6381L138.007 24.969C137.262 24.4755 136.503 24.0377 135.734 23.6548C134.963 23.2725 134.181 22.983 133.387 22.7852V28.3746C136.218 29.1398 138.273 30.1389 139.553 31.373C140.833 32.6071 141.472 34.2597 141.472 36.3329V36.4068C141.472 37.4431 141.279 38.3811 140.895 39.2201C140.509 40.0592 139.975 40.7871 139.292 41.4039C138.609 42.0212 137.783 42.5269 136.814 42.9214C135.846 43.3165 134.765 43.5754 133.573 43.6988V47.3634H129.698V43.6249Z" fill="#1B1B25"/>
<path fill-rule="evenodd" clip-rule="evenodd" d="M163.734 32.0327C163.734 49.6695 149.342 63.9668 131.587 63.9668C113.834 63.9668 99.4412 49.6695 99.4412 32.0327C99.4412 14.3964 113.834 0.0991211 131.587 0.0991211C149.342 0.0991211 163.734 14.3964 163.734 32.0327Z" fill="#FFB54A"/>
<path fill-rule="evenodd" clip-rule="evenodd" d="M131.586 8.04374C118.235 8.04374 107.373 18.8337 107.373 32.0963C107.373 45.3584 118.235 56.1483 131.586 56.1483C144.937 56.1483 155.799 45.3584 155.799 32.0963C155.799 18.8337 144.937 8.04374 131.586 8.04374ZM131.589 57.815C117.313 57.815 105.698 46.2777 105.698 32.096C105.698 17.9143 117.313 6.37646 131.589 6.37646C145.865 6.37646 157.48 17.9143 157.48 32.096C157.48 46.2777 145.865 57.815 131.589 57.815Z" fill="#C48504"/>
<path fill-rule="evenodd" clip-rule="evenodd" d="M140.062 30.0215V25.8203H135.909V30.0215H132.774L128.902 25.8203H125.787V30.0215H121.027V34.2229H125.787V39.8248H129.939V34.2229H131.783L136.947 39.8248H140.062V34.2229H144.819V30.0215H140.062Z" fill="#C48504"/>
<path d="M140.062 25.8203H140.659C140.659 25.4905 140.392 25.2231 140.062 25.2231V25.8203ZM140.062 30.0215H139.465C139.465 30.3514 139.732 30.6188 140.062 30.6188V30.0215ZM135.909 25.8203V25.2231C135.579 25.2231 135.312 25.4905 135.312 25.8203H135.909ZM135.909 30.0215V30.6188C136.239 30.6188 136.506 30.3514 136.506 30.0215H135.909ZM132.774 30.0215L132.335 30.4263C132.448 30.549 132.607 30.6188 132.774 30.6188V30.0215ZM128.902 25.8203L129.341 25.4155C129.228 25.2929 129.069 25.2231 128.902 25.2231V25.8203ZM125.787 25.8203V25.2231C125.457 25.2231 125.19 25.4905 125.19 25.8203H125.787ZM125.787 30.0215V30.6188C126.117 30.6188 126.384 30.3514 126.384 30.0215H125.787ZM121.027 30.0215V29.4243C120.697 29.4243 120.43 29.6917 120.43 30.0215H121.027ZM121.027 34.2229H120.43C120.43 34.5527 120.697 34.8201 121.027 34.8201V34.2229ZM125.787 34.2229H126.384C126.384 33.893 126.117 33.6256 125.787 33.6256V34.2229ZM125.787 39.8248H125.19C125.19 40.1546 125.457 40.422 125.787 40.422V39.8248ZM129.939 39.8248V40.422C130.269 40.422 130.537 40.1546 130.537 39.8248H129.939ZM129.939 34.2229V33.6256C129.61 33.6256 129.342 33.893 129.342 34.2229H129.939ZM131.783 34.2229L132.223 33.8181C132.109 33.6954 131.95 33.6256 131.783 33.6256V34.2229ZM136.947 39.8248L136.508 40.2296C136.621 40.3522 136.781 40.422 136.947 40.422V39.8248ZM140.062 39.8248V40.422C140.392 40.422 140.659 40.1546 140.659 39.8248H140.062ZM140.062 34.2229V33.6256C139.732 33.6256 139.465 33.893 139.465 34.2229H140.062ZM144.819 34.2229V34.8201C145.149 34.8201 145.416 34.5527 145.416 34.2229H144.819ZM144.819 30.0215H145.416C145.416 29.6917 145.149 29.4243 144.819 29.4243V30.0215ZM139.465 25.8203V30.0215H140.659V25.8203H139.465ZM135.909 26.4176H140.062V25.2231H135.909V26.4176ZM136.506 30.0215V25.8203H135.312V30.0215H136.506ZM135.909 29.4243H132.774V30.6188H135.909V29.4243ZM128.463 26.2251L132.335 30.4263L133.213 29.6167L129.341 25.4155L128.463 26.2251ZM125.787 26.4176H128.902V25.2231H125.787V26.4176ZM126.384 30.0215V25.8203H125.19V30.0215H126.384ZM125.787 29.4243H121.027V30.6188H125.787V29.4243ZM120.43 30.0215V34.2229H121.625V30.0215H120.43ZM121.027 34.8201H125.787V33.6256H121.027V34.8201ZM126.384 39.8248V34.2229H125.19V39.8248H126.384ZM129.939 39.2275H125.787V40.422H129.939V39.2275ZM129.342 34.2229V39.8248H130.537V34.2229H129.342ZM129.939 34.8201H131.783V33.6256H129.939V34.8201ZM137.387 39.42L132.223 33.8181L131.344 34.6277L136.508 40.2296L137.387 39.42ZM140.062 39.2275H136.947V40.422H140.062V39.2275ZM139.465 34.2229V39.8248H140.659V34.2229H139.465ZM140.062 34.8201H144.819V33.6256H140.062V34.8201ZM145.416 34.2229V30.0215H144.222V34.2229H145.416ZM144.819 29.4243H140.062V30.6188H144.819V29.4243Z" fill="#C48504"/>
<path fill-rule="evenodd" clip-rule="evenodd" d="M114.103 17.2527C114.103 25.2326 107.591 31.7022 99.5577 31.7022C91.5241 31.7022 85.012 25.2326 85.012 17.2527C85.012 9.27277 91.5241 2.80371 99.5577 2.80371C107.591 2.80371 114.103 9.27277 114.103 17.2527Z" fill="#1B365D"/>
<path fill-rule="evenodd" clip-rule="evenodd" d="M112.569 15.7298C112.569 23.7097 106.057 30.1788 98.0243 30.1788C89.9907 30.1788 83.4785 23.7097 83.4785 15.7298C83.4785 7.74989 89.9907 1.28027 98.0243 1.28027C106.057 1.28027 112.569 7.74989 112.569 15.7298Z" fill="#FFB54A"/>
<path fill-rule="evenodd" clip-rule="evenodd" d="M100.548 15.0177V13.4746H98.9227V15.0177H97.6957L96.1807 13.4746H94.9618V15.0177H93.0991V16.561H94.9618V18.6191H96.5867V16.561H97.308L99.329 18.6191H100.548V16.561H102.409V15.0177H100.548Z" fill="#C48504"/>
<path d="M100.548 13.4746H100.806C100.806 13.3318 100.69 13.216 100.548 13.216V13.4746ZM100.548 15.0177H100.289C100.289 15.1605 100.405 15.2763 100.548 15.2763V15.0177ZM98.9227 13.4746V13.216C98.7798 13.216 98.6641 13.3318 98.6641 13.4746H98.9227ZM98.9227 15.0177V15.2763C99.0655 15.2763 99.1813 15.1605 99.1813 15.0177H98.9227ZM97.6957 15.0177L97.5112 15.1988C97.5598 15.2484 97.6263 15.2763 97.6957 15.2763V15.0177ZM96.1807 13.4746L96.3652 13.2934C96.3166 13.2439 96.2501 13.216 96.1807 13.216V13.4746ZM94.9618 13.4746V13.216C94.8189 13.216 94.7032 13.3318 94.7032 13.4746H94.9618ZM94.9618 15.0177V15.2763C95.1046 15.2763 95.2204 15.1605 95.2204 15.0177H94.9618ZM93.0991 15.0177V14.7591C92.9563 14.7591 92.8405 14.8748 92.8405 15.0177H93.0991ZM93.0991 16.561H92.8405C92.8405 16.7038 92.9563 16.8196 93.0991 16.8196V16.561ZM94.9618 16.561H95.2204C95.2204 16.4182 95.1046 16.3024 94.9618 16.3024V16.561ZM94.9618 18.6191H94.7032C94.7032 18.7619 94.8189 18.8777 94.9618 18.8777V18.6191ZM96.5867 18.6191V18.8777C96.7295 18.8777 96.8453 18.7619 96.8453 18.6191H96.5867ZM96.5867 16.561V16.3024C96.4439 16.3024 96.3281 16.4182 96.3281 16.561H96.5867ZM97.308 16.561L97.4925 16.3798C97.4439 16.3303 97.3774 16.3024 97.308 16.3024V16.561ZM99.329 18.6191L99.1444 18.8003C99.1931 18.8498 99.2596 18.8777 99.329 18.8777V18.6191ZM100.548 18.6191V18.8777C100.69 18.8777 100.806 18.7619 100.806 18.6191H100.548ZM100.548 16.561V16.3024C100.405 16.3024 100.289 16.4182 100.289 16.561H100.548ZM102.409 16.561V16.8196C102.552 16.8196 102.667 16.7038 102.667 16.561H102.409ZM102.409 15.0177H102.667C102.667 14.8748 102.552 14.7591 102.409 14.7591V15.0177ZM100.289 13.4746V15.0177H100.806V13.4746H100.289ZM98.9227 13.7332H100.548V13.216H98.9227V13.7332ZM99.1813 15.0177V13.4746H98.6641V15.0177H99.1813ZM98.9227 14.7591H97.6957V15.2763H98.9227V14.7591ZM95.9961 13.6558L97.5112 15.1988L97.8802 14.8365L96.3652 13.2934L95.9961 13.6558ZM94.9618 13.7332H96.1807V13.216H94.9618V13.7332ZM95.2204 15.0177V13.4746H94.7032V15.0177H95.2204ZM94.9618 14.7591H93.0991V15.2763H94.9618V14.7591ZM92.8405 15.0177V16.561H93.3577V15.0177H92.8405ZM93.0991 16.8196H94.9618V16.3024H93.0991V16.8196ZM95.2204 18.6191V16.561H94.7032V18.6191H95.2204ZM96.5867 18.3605H94.9618V18.8777H96.5867V18.3605ZM96.3281 16.561V18.6191H96.8453V16.561H96.3281ZM96.5867 16.8196H97.308V16.3024H96.5867V16.8196ZM99.5135 18.4379L97.4925 16.3798L97.1235 16.7422L99.1444 18.8003L99.5135 18.4379ZM100.548 18.3605H99.329V18.8777H100.548V18.3605ZM100.289 16.561V18.6191H100.806V16.561H100.289ZM100.548 16.8196H102.409V16.3024H100.548V16.8196ZM102.667 16.561V15.0177H102.15V16.561H102.667ZM102.409 14.7591H100.548V15.2763H102.409V14.7591Z" fill="#C48504"/>
<path fill-rule="evenodd" clip-rule="evenodd" d="M98.0257 4.87466C91.9846 4.87466 87.07 9.75674 87.07 15.7579C87.07 21.7586 91.9846 26.6406 98.0257 26.6406C104.066 26.6406 108.981 21.7586 108.981 15.7579C108.981 9.75674 104.066 4.87466 98.0257 4.87466ZM98.0241 27.3947C91.5646 27.3947 86.3093 22.1743 86.3093 15.7574C86.3093 9.3406 91.5646 4.12012 98.0241 4.12012C104.484 4.12012 109.739 9.3406 109.739 15.7574C109.739 22.1743 104.484 27.3947 98.0241 27.3947Z" fill="#C48504"/>
<path fill-rule="evenodd" clip-rule="evenodd" d="M81.5954 41.6762C81.5954 38.2105 78.7673 35.4016 75.2791 35.4016C78.7673 35.4016 81.5954 32.5916 81.5954 29.1265C81.5954 32.5916 84.4236 35.4016 87.9118 35.4016C84.4236 35.4016 81.5954 38.2105 81.5954 41.6762Z" fill="#FFB54A"/>
<path fill-rule="evenodd" clip-rule="evenodd" d="M155.8 73.2226C155.8 70.6777 153.724 68.6145 151.162 68.6145C153.724 68.6145 155.8 66.5513 155.8 64.0063C155.8 66.5513 157.877 68.6145 160.439 68.6145C157.877 68.6145 155.8 70.6777 155.8 73.2226Z" fill="#FFB54A"/>
<path fill-rule="evenodd" clip-rule="evenodd" d="M125.481 95.4155C125.481 90.7357 121.662 86.9416 116.951 86.9416C121.662 86.9416 125.481 83.1481 125.481 78.4683C125.481 83.1481 129.3 86.9416 134.011 86.9416C129.3 86.9416 125.481 90.7357 125.481 95.4155Z" fill="#FFB54A"/>
<path fill-rule="evenodd" clip-rule="evenodd" d="M154.927 30.0368C154.927 25.6514 151.349 22.0963 146.934 22.0963C151.349 22.0963 154.927 18.5411 154.927 14.1553C154.927 18.5411 158.506 22.0963 162.921 22.0963C158.506 22.0963 154.927 25.6514 154.927 30.0368Z" fill="#FCF0E3"/>
<path fill-rule="evenodd" clip-rule="evenodd" d="M181.651 35.4008C181.651 32.9814 179.677 31.0205 177.241 31.0205C179.677 31.0205 181.651 29.0595 181.651 26.6401C181.651 29.0595 183.625 31.0205 186.06 31.0205C183.625 31.0205 181.651 32.9814 181.651 35.4008Z" fill="#FFB54A"/>
<path fill-rule="evenodd" clip-rule="evenodd" d="M195.103 136.274H140.266C140.111 136.274 139.986 136.149 139.986 135.996C139.986 135.843 140.111 135.718 140.266 135.718H195.103C195.257 135.718 195.383 135.843 195.383 135.996C195.383 136.149 195.257 136.274 195.103 136.274Z" fill="white"/>
<path fill-rule="evenodd" clip-rule="evenodd" d="M195.102 149.057H148.772C148.617 149.057 148.492 148.932 148.492 148.779C148.492 148.625 148.617 148.501 148.772 148.501H195.102C195.256 148.501 195.382 148.625 195.382 148.779C195.382 148.932 195.256 149.057 195.102 149.057Z" fill="white"/>
<path fill-rule="evenodd" clip-rule="evenodd" d="M195.102 143.069H161.388C161.234 143.069 161.108 142.945 161.108 142.792C161.108 142.638 161.234 142.514 161.388 142.514H195.102C195.256 142.514 195.381 142.638 195.381 142.792C195.381 142.945 195.256 143.069 195.102 143.069Z" fill="white"/>
<path fill-rule="evenodd" clip-rule="evenodd" d="M157.185 143.069H140.266C140.111 143.069 139.986 142.945 139.986 142.792C139.986 142.638 140.111 142.514 140.266 142.514H157.185C157.34 142.514 157.465 142.638 157.465 142.792C157.465 142.945 157.34 143.069 157.185 143.069Z" fill="white"/>
<path fill-rule="evenodd" clip-rule="evenodd" d="M133.082 156.55H78.2443C78.0893 156.55 77.9646 156.426 77.9646 156.272C77.9646 156.119 78.0893 155.995 78.2443 155.995H133.082C133.236 155.995 133.361 156.119 133.361 156.272C133.361 156.426 133.236 156.55 133.082 156.55Z" fill="white"/>
<path fill-rule="evenodd" clip-rule="evenodd" d="M124.574 169.332H78.2443C78.0899 169.332 77.9646 169.207 77.9646 169.054C77.9646 168.9 78.0899 168.776 78.2443 168.776H124.574C124.729 168.776 124.854 168.9 124.854 169.054C124.854 169.207 124.729 169.332 124.574 169.332Z" fill="white"/>
<path fill-rule="evenodd" clip-rule="evenodd" d="M111.957 163.345H78.2443C78.0899 163.345 77.9646 163.221 77.9646 163.067C77.9646 162.914 78.0899 162.79 78.2443 162.79H111.957C112.112 162.79 112.237 162.914 112.237 163.067C112.237 163.221 112.112 163.345 111.957 163.345Z" fill="white"/>
<path fill-rule="evenodd" clip-rule="evenodd" d="M133.081 163.345H116.161C116.006 163.345 115.881 163.221 115.881 163.067C115.881 162.914 116.006 162.79 116.161 162.79H133.081C133.235 162.79 133.361 162.914 133.361 163.067C133.361 163.221 133.235 163.345 133.081 163.345Z" fill="white"/>
<path fill-rule="evenodd" clip-rule="evenodd" d="M174.427 104.924L174.445 104.86L182.543 76.8731L182.508 76.847C182.873 76.139 183.817 74.6193 185.748 73.2813C189.087 70.968 189.486 67.1356 189.486 67.1356C191.268 65.4214 193.278 63.9589 195.098 62.2846C195.288 62.1096 195.486 61.9179 195.541 61.6673C195.604 61.3872 195.472 61.1005 195.311 60.8627C194.371 59.4802 192.645 59.2801 191.209 59.9192C190.367 60.2931 189.615 60.8255 188.91 61.4106C188.576 61.6878 187.435 62.4508 187.088 62.9587L193.53 49.2948C194.102 48.0813 193.728 46.6965 192.698 46.2175C192.184 45.9781 191.598 46.0086 191.071 46.2509C190.737 46.4043 190.431 46.651 190.175 46.9594C190.195 46.8593 190.206 46.8004 190.206 46.8004C182.661 40.4975 173.352 61.949 173.352 61.949L170.71 68.1425L148.301 109.416C145.132 115.404 147.575 122.809 153.697 125.774C153.785 125.817 153.874 125.854 153.962 125.894C155.759 126.925 157.842 127.517 160.065 127.517H204.166L213.669 105.081L174.427 104.924Z" fill="#B48E56"/>
<path fill-rule="evenodd" clip-rule="evenodd" d="M166.872 127.506C165.439 127.463 166.306 127.489 166.872 127.506V127.506Z" fill="#FF887C"/>
<path fill-rule="evenodd" clip-rule="evenodd" d="M166.88 127.507C167.081 127.513 167.242 127.518 167.242 127.518C167.105 127.514 166.989 127.51 166.88 127.507Z" fill="#FF887C"/>
<path fill-rule="evenodd" clip-rule="evenodd" d="M174.444 104.86L173.161 109.294C172.827 110.524 172.442 111.846 172.032 113.194L170.481 118.554C170.267 119.241 169.997 119.893 169.678 120.508C168.344 124.475 167.242 127.517 167.242 127.517L183.102 104.958C179.157 104.958 178.252 104.864 174.444 104.86Z" fill="#734E17"/>
<path fill-rule="evenodd" clip-rule="evenodd" d="M180.829 64.3547C180.771 64.3547 180.713 64.3369 180.663 64.3002C180.539 64.2096 180.512 64.0352 180.604 63.9118C183.419 60.1194 187.203 62.1687 187.24 62.1898C187.374 62.2648 187.422 62.4332 187.346 62.5671C187.272 62.7005 187.101 62.7482 186.966 62.6743C186.829 62.5982 183.571 60.8512 181.054 64.2419C181 64.3158 180.914 64.3547 180.829 64.3547Z" fill="#734E17"/>
<path fill-rule="evenodd" clip-rule="evenodd" d="M190.334 46.9061C189.172 48.3614 188.089 49.8923 187.13 51.4837C186.653 52.2805 186.22 53.1029 185.858 53.9464C185.502 54.7838 185.213 55.684 185.259 56.533L185.26 56.5503C185.268 56.7031 185.15 56.8342 184.996 56.8425C184.842 56.8509 184.71 56.7336 184.702 56.5803V56.573C184.671 55.5401 185.013 54.6165 185.396 53.7497C185.79 52.8823 186.248 52.0533 186.749 51.2542C187.755 49.6572 188.872 48.1442 190.077 46.695C190.136 46.6244 190.241 46.6144 190.312 46.6727C190.382 46.7305 190.393 46.8328 190.337 46.9034L190.334 46.9061Z" fill="#734E17"/>
<path fill-rule="evenodd" clip-rule="evenodd" d="M188.389 46.1135C187.651 46.6181 186.988 47.2866 186.396 47.9806C185.802 48.6824 185.281 49.4431 184.812 50.2332C184.352 51.029 183.947 51.8558 183.602 52.7082C183.419 53.1294 183.283 53.57 183.121 53.9996L182.72 55.3187L182.715 55.3348C182.671 55.4815 182.515 55.5649 182.367 55.5204C182.219 55.476 182.136 55.3209 182.18 55.1742C182.18 55.1731 182.181 55.1703 182.181 55.1692L182.618 53.8279C182.791 53.3905 182.94 52.9438 183.135 52.5154C183.505 51.6496 183.936 50.81 184.422 50.0032C184.919 49.2019 185.468 48.4318 186.092 47.7222C186.722 47.0154 187.393 46.3541 188.209 45.8185C188.289 45.7662 188.397 45.7879 188.449 45.8674C188.501 45.9457 188.48 46.0513 188.403 46.1041L188.389 46.1135Z" fill="#734E17"/>
<path fill-rule="evenodd" clip-rule="evenodd" d="M185.339 46.3265C184.269 47.4401 183.272 48.6431 182.41 49.9217C181.985 50.5635 181.576 51.2197 181.256 51.9115C180.933 52.6 180.666 53.3157 180.549 54.0458L180.549 54.0525C180.525 54.2042 180.382 54.3075 180.228 54.2837C180.076 54.2592 179.972 54.1175 179.996 53.9658C179.996 53.9636 179.997 53.9608 179.997 53.9586C180.147 53.1512 180.452 52.4038 180.806 51.6926C181.159 50.9797 181.594 50.3184 182.045 49.6727C182.959 48.388 183.991 47.2045 185.111 46.0954C185.174 46.0326 185.278 46.0326 185.341 46.0959C185.403 46.1582 185.404 46.2587 185.344 46.3221L185.339 46.3265Z" fill="#734E17"/>
<path fill-rule="evenodd" clip-rule="evenodd" d="M276.21 145.675L265.392 116.381C264.104 109.954 257.948 105.081 250.543 105.081L220.325 104.842L186.28 104.971V127.517H196.845L191.392 186.321L266.359 186.742L265.939 146.923L276.21 145.675Z" fill="#4E69FF"/>
<path fill-rule="evenodd" clip-rule="evenodd" d="M220.266 105.093L220.325 104.842L186.28 104.971V127.517H196.846L196.9 126.922C196.9 115.023 207.314 105.354 220.266 105.093Z" fill="#1B1B25"/>
<path fill-rule="evenodd" clip-rule="evenodd" d="M177.241 72.4678C177.241 72.4678 179.152 88.5904 179.264 88.202C179.377 87.8136 182.543 76.8731 182.543 76.8731L177.241 72.4678Z" fill="#734E17"/>
<path fill-rule="evenodd" clip-rule="evenodd" d="M221.866 154.09L219.005 139.766L216.798 128.715C216.539 127.414 215.255 126.562 213.947 126.82L202.896 128.998C201.587 129.256 200.729 130.531 200.989 131.83L203.21 142.954L204.972 151.777L206.057 157.206C206.316 158.506 207.599 159.359 208.908 159.101L215.435 157.814L219.959 156.923C221.268 156.665 222.126 155.39 221.866 154.09Z" fill="#1B1B25"/>
<mask id="mask0" mask-type="alpha" maskUnits="userSpaceOnUse" x="201" y="139" width="81" height="44">
<path fill-rule="evenodd" clip-rule="evenodd" d="M201.414 139.767H281V182.119H201.414V139.767Z" fill="white"/>
</mask>
<g mask="url(#mask0)">
<path fill-rule="evenodd" clip-rule="evenodd" d="M280.688 167.292L275.704 145.736L253.047 148.49L254.292 153.973L254.176 153.944L229.547 147.888L229.526 147.918C228.846 147.579 227.569 146.772 226.446 145.105C224.381 142.04 220.912 141.955 220.912 141.955C220.244 141.26 219.621 140.516 219.005 139.767L219.582 142.656L219.438 142.732C217.872 143.556 216.105 143.921 214.339 143.784C211.07 143.53 205.729 143.116 203.509 142.944C202.832 142.892 202.181 143.25 201.889 143.86C198.72 150.478 212.33 156.534 215.435 157.815H215.435C215.476 157.832 215.507 157.844 215.544 157.859C215.589 157.878 215.632 157.896 215.671 157.911C215.716 157.929 215.752 157.944 215.789 157.959C215.825 157.973 215.86 157.987 215.888 157.998C215.929 158.014 215.955 158.025 215.981 158.035C215.994 158.04 216.008 158.045 216.017 158.049C216.047 158.061 216.064 158.066 216.064 158.066L221.39 160.051L263.558 180.669C263.949 180.855 264.345 181.018 264.745 181.159C266.79 182.089 269.142 182.392 271.505 181.853C278.088 180.351 282.199 173.832 280.688 167.292Z" fill="#B48E56"/>
</g>
<path fill-rule="evenodd" clip-rule="evenodd" d="M279.081 160.342L253.047 148.49C253.917 152.25 253.41 150.591 254.176 153.944L255.948 154.38C263.444 154.883 279.081 160.342 279.081 160.342Z" fill="#734E17"/>
<path fill-rule="evenodd" clip-rule="evenodd" d="M250.942 148.768C250.811 148.768 250.696 148.677 250.669 148.547L247.416 132.895C247.384 132.744 247.482 132.597 247.633 132.566C247.781 132.532 247.932 132.631 247.963 132.781L251.164 148.182L262.119 146.797C262.271 146.775 262.413 146.885 262.432 147.038C262.452 147.19 262.343 147.329 262.19 147.348L250.978 148.766C250.966 148.767 250.954 148.768 250.942 148.768Z" fill="#1B1B25"/>
<path fill-rule="evenodd" clip-rule="evenodd" d="M279.258 161.234C279.279 161.34 279.296 161.424 279.302 161.455C279.297 161.433 279.283 161.362 279.258 161.234Z" fill="#FF887C"/>
<path fill-rule="evenodd" clip-rule="evenodd" d="M279.3 161.455C279.303 161.468 279.304 161.471 279.3 161.455V161.455Z" fill="#FF887C"/>
<path fill-rule="evenodd" clip-rule="evenodd" d="M279.081 160.343C279.081 160.343 279.141 160.645 279.199 160.936C279.167 160.778 279.13 160.591 279.081 160.343Z" fill="#FF887C"/>
<path fill-rule="evenodd" clip-rule="evenodd" d="M279.199 160.936C279.223 161.057 279.243 161.158 279.257 161.234C279.24 161.145 279.22 161.043 279.199 160.936Z" fill="#FF887C"/>
<path fill-rule="evenodd" clip-rule="evenodd" d="M227.461 36.9674C199.938 34.2231 209.538 54.4147 211.401 56.044L209.294 67.2234C208.69 70.4324 210.819 73.5208 214.048 74.1214L239.009 78.7635C242.24 79.3641 245.349 77.2493 245.954 74.0403L250.044 52.3399C250.421 50.3373 254.984 39.7117 227.461 36.9674Z" fill="#1B1B25"/>
<path fill-rule="evenodd" clip-rule="evenodd" d="M244.341 68.9627L243.794 68.8611L238.285 57.0965C236.929 56.902 235.658 56.4053 234.557 55.6646C233.499 56.8014 232.046 57.5849 230.376 57.7722C228.367 57.9983 226.469 57.3154 225.084 56.0596C223.548 57.4005 221.603 58.309 219.416 58.5546C216.917 58.8352 214.524 58.2073 212.573 56.9354L208.736 77.3033C208.205 80.1172 208.787 82.8755 210.158 85.1532C211.521 88.505 214.455 91.1366 218.229 92.0001V105.451C218.229 110.123 222.077 113.945 226.78 113.945H229.478C234.181 113.945 238.03 110.123 238.03 105.451V90.1781C239.416 88.6644 240.42 86.7702 240.827 84.6103L241.528 80.8912L242.074 80.9924C245.314 81.5953 248.461 79.4548 249.067 76.2364L249.129 75.9097C249.736 72.6913 247.581 69.5651 244.341 68.9627Z" fill="#B48E56"/>
<path fill-rule="evenodd" clip-rule="evenodd" d="M240.258 80.4189L239.757 83.0717C238.604 89.1929 232.674 93.2259 226.513 92.0802L217.802 90.4598C214.473 89.8414 211.768 87.8304 210.157 85.1532C211.577 88.6434 214.693 91.3672 218.694 92.1113L219.042 92.1757C220.426 95.0246 223.358 97.0072 226.741 97.0072H229.473C233.509 97.0072 236.907 94.19 237.792 90.4398C239.306 88.8862 240.396 86.8936 240.826 84.6098L241.527 80.8907L240.258 80.4189Z" fill="#734E17"/>
<path fill-rule="evenodd" clip-rule="evenodd" d="M126.842 114.309L104.433 73.0359L101.791 66.8424C101.791 66.8424 92.4814 45.391 84.9361 51.6933C84.9361 51.6933 84.9479 51.7528 84.968 51.8528C84.7118 51.5444 84.4064 51.2977 84.0719 51.1443C83.5438 50.9021 82.9593 50.8715 82.4441 51.1115C81.4149 51.59 81.0407 52.9747 81.6129 54.1877L88.0546 67.8521C87.7083 67.3437 86.5672 66.5813 86.2327 66.304C85.5279 65.7189 84.7756 65.1866 83.9343 64.812C82.4978 64.1736 80.7716 64.3736 79.8319 65.7567C79.6702 65.9939 79.5393 66.2807 79.6014 66.5602C79.6568 66.8113 79.8548 67.003 80.0444 67.1781C81.8646 68.8523 83.8744 70.3148 85.6571 72.029C85.6571 72.029 86.0554 75.8615 89.3943 78.1747C91.3258 79.5127 92.27 81.0319 92.6341 81.7404L92.5994 81.7665L100.716 109.817L88.8623 109.974V132.41H115.078C117.304 132.41 119.389 131.817 121.188 130.784C121.274 130.745 121.36 130.709 121.446 130.667C127.568 127.703 130.01 120.297 126.842 114.309Z" fill="#B48E56"/>
<path fill-rule="evenodd" clip-rule="evenodd" d="M107.9 132.41C110.5 132.331 107.9 132.41 107.9 132.41C107.9 132.41 101.808 116.13 100.762 109.753C96.7257 109.753 96.1121 109.931 92.0757 109.931L107.9 132.41Z" fill="#734E17"/>
<path fill-rule="evenodd" clip-rule="evenodd" d="M94.314 69.2481C94.2284 69.2481 94.1434 69.2092 94.0886 69.1353C91.572 65.7446 88.3137 67.4916 88.1766 67.5683C88.0418 67.6422 87.8718 67.595 87.7962 67.461C87.7207 67.3271 87.7688 67.1582 87.9031 67.0832C87.9411 67.0621 91.7247 65.0144 94.5388 68.8052C94.6306 68.9286 94.6043 69.103 94.4796 69.1936C94.4298 69.2303 94.3716 69.2481 94.314 69.2481Z" fill="#91BABA"/>
<path fill-rule="evenodd" clip-rule="evenodd" d="M85.0524 51.5755C85.7315 52.249 86.3479 52.9641 86.9369 53.7092C87.5209 54.4561 88.068 55.2329 88.5574 56.048C89.0396 56.8676 89.4692 57.7217 89.811 58.6174C90.1343 59.5193 90.3636 60.4617 90.4397 61.4324C90.452 61.5852 90.3368 61.7192 90.1829 61.7308C90.0291 61.7431 89.8943 61.6286 89.8826 61.4758C89.882 61.4741 89.882 61.473 89.882 61.4719L89.8814 61.4602C89.8272 60.555 89.6303 59.6576 89.3372 58.7858C89.0262 57.9184 88.6262 57.081 88.1715 56.2709C87.7094 55.4651 87.187 54.6905 86.627 53.9443C86.0649 53.2019 85.4636 52.4773 84.8186 51.8116L84.8147 51.8078C84.7504 51.7416 84.7526 51.6366 84.8192 51.5738C84.8846 51.511 84.9881 51.5121 85.0524 51.5755Z" fill="#91BABA"/>
<path fill-rule="evenodd" clip-rule="evenodd" d="M86.9457 50.5069C87.8575 50.9754 88.5265 51.6733 89.1518 52.4062C89.766 53.1469 90.3008 53.9487 90.7595 54.7867C91.2344 55.6185 91.6259 56.4898 91.999 57.3678L92.5075 58.7036L92.9594 60.0583C93.0081 60.2039 92.9287 60.3611 92.7821 60.4095C92.6356 60.4578 92.4773 60.3789 92.4286 60.2328C92.428 60.2317 92.428 60.2311 92.4275 60.2294L92.4236 60.2172L92.0035 58.8753L91.528 57.5528C91.1784 56.6854 90.8098 55.8224 90.3617 55.0023C89.9282 54.1743 89.422 53.3847 88.8414 52.6579C88.2641 51.9433 87.5867 51.2415 86.8103 50.8248L86.784 50.8103C86.7001 50.7653 86.6688 50.6614 86.7141 50.5781C86.7589 50.4953 86.8624 50.4642 86.9457 50.5069Z" fill="#91BABA"/>
<path fill-rule="evenodd" clip-rule="evenodd" d="M90.0175 50.9769C90.6456 51.4803 91.2005 52.0377 91.7258 52.6311C92.2493 53.2234 92.7321 53.853 93.1628 54.517C93.5963 55.1783 93.9884 55.8695 94.3134 56.593C94.6568 57.3093 94.9086 58.0644 95.1385 58.8251C95.1832 58.9724 95.0993 59.1268 94.9511 59.1713C94.8034 59.2152 94.6473 59.1318 94.6031 58.9851C94.6026 58.9835 94.602 58.9818 94.6015 58.9801L94.5975 58.9657C94.3939 58.23 94.1707 57.4949 93.8553 56.7947C93.5582 56.0868 93.1952 55.4067 92.7886 54.7526C92.3858 54.0958 91.9305 53.4702 91.4332 52.8795C90.9382 52.2894 90.3978 51.7226 89.8166 51.2319L89.8094 51.2264C89.7411 51.1686 89.7327 51.0664 89.7909 50.998C89.848 50.9308 89.9486 50.9219 90.0175 50.9769Z" fill="#91BABA"/>
<path fill-rule="evenodd" clip-rule="evenodd" d="M91.5901 80.1805L100.25 79.1187L94.8948 89.6991C94.8948 89.6991 93.3012 81.8314 91.5901 80.1805Z" fill="#734E17"/>
<path fill-rule="evenodd" clip-rule="evenodd" d="M56.7937 109.974L56.7949 109.984C56.6617 109.981 56.5292 109.974 56.3949 109.974H29.0324C23.0919 109.974 18.0246 113.679 16.0389 118.89L16.0361 118.889L15.9941 119.002C15.9874 119.019 15.9807 119.038 15.974 119.056L4.33691 150.568L15.1405 151.881V186.876H73.9361L78.3327 132.41H88.5607V109.864L56.7937 109.974Z" fill="#269264"/>
<path fill-rule="evenodd" clip-rule="evenodd" d="M88.8632 109.864L57.6265 109.994L57.627 109.998C69.3379 110.482 78.6833 120.063 78.6833 131.815L78.6352 132.41H88.8632V109.864Z" fill="#1B1B25"/>
<path fill-rule="evenodd" clip-rule="evenodd" d="M77.9544 133.891L66.9036 131.714C65.5952 131.455 64.312 132.308 64.0519 133.608L61.8447 144.66L58.9841 158.983C58.7245 160.284 59.5826 161.558 60.8915 161.817L65.4151 162.708L71.9418 163.994C73.2507 164.253 74.5339 163.399 74.7934 162.1L75.878 156.67L77.64 147.847L79.8618 136.725C80.1214 135.424 79.2628 134.15 77.9544 133.891Z" fill="#1B1B25"/>
<mask id="mask1" mask-type="alpha" maskUnits="userSpaceOnUse" x="0" y="144" width="80" height="43">
<path fill-rule="evenodd" clip-rule="evenodd" d="M0 144.66H79.5864V186.9H0V144.66Z" fill="white"/>
</mask>
<g mask="url(#mask1)">
<path fill-rule="evenodd" clip-rule="evenodd" d="M79.1109 148.64C78.9733 148.353 78.754 148.124 78.4922 147.965C78.4452 147.896 78.4066 147.828 78.3557 147.758C78.3557 147.758 78.2567 147.771 78.0917 147.791C77.8993 147.735 77.6968 147.709 77.4904 147.725C75.2708 147.897 69.93 148.311 66.6611 148.564C64.8946 148.702 63.1281 148.337 61.5624 147.512L61.3012 147.375L61.8432 144.66C61.2581 145.371 60.6652 146.074 60.0354 146.739C59.716 146.757 57.8924 146.917 56.1875 148.18C55.5548 148.624 54.9323 149.211 54.402 149.998C53.7363 150.987 53.0176 151.669 52.4 152.134C52.0387 152.393 51.717 152.577 51.4743 152.698L51.453 152.668L26.8219 158.726L26.7089 158.754L27.9591 153.245L5.29576 150.517L0.31236 172.073C-1.19905 178.613 2.91174 185.132 9.49548 186.634C11.8571 187.173 14.2104 186.87 16.2549 185.94C16.6548 185.798 17.0508 185.636 17.4424 185.449L59.1337 165.064L64.7849 162.96C64.7849 162.96 65.0137 162.873 65.4131 162.708L65.3303 162.692C67.909 161.648 82.3675 155.44 79.1109 148.64Z" fill="#B48E56"/>
</g>
<path fill-rule="evenodd" clip-rule="evenodd" d="M1.59405 166.107C1.57056 166.225 1.55601 166.297 1.5493 166.33C1.55769 166.29 1.57335 166.21 1.59405 166.107Z" fill="#FF887C"/>
<path fill-rule="evenodd" clip-rule="evenodd" d="M26.6723 158.838C27.183 156.505 27.0348 156.706 27.8095 153.357L1.76929 165.236C1.76929 165.236 4.3502 164.464 7.91057 163.526C8.24116 163.406 8.5779 163.295 8.92526 163.202L26.6723 158.838Z" fill="#734E17"/>
<path fill-rule="evenodd" clip-rule="evenodd" d="M1.65821 165.789C1.63584 165.902 1.61402 166.012 1.595 166.107C1.61122 166.026 1.63248 165.919 1.65821 165.789Z" fill="#FF887C"/>
<path fill-rule="evenodd" clip-rule="evenodd" d="M1.54953 166.33C1.54282 166.363 1.54282 166.365 1.54953 166.33V166.33Z" fill="#FF887C"/>
<path fill-rule="evenodd" clip-rule="evenodd" d="M1.76667 165.236C1.72136 165.464 1.68668 165.639 1.65647 165.79C1.71185 165.512 1.76667 165.236 1.76667 165.236Z" fill="#FF887C"/>
<path fill-rule="evenodd" clip-rule="evenodd" d="M29.9045 153.635C29.8928 153.635 29.8816 153.634 29.8698 153.633L24.9261 153.026C24.7729 153.008 24.6638 152.869 24.6828 152.717C24.7018 152.565 24.8439 152.455 24.9944 152.475L29.6701 153.048L32.2729 136.548C32.2969 136.396 32.4396 136.295 32.5928 136.316C32.745 136.34 32.8496 136.483 32.8255 136.634L30.1808 153.4C30.159 153.536 30.0404 153.635 29.9045 153.635Z" fill="#1B1B25"/>
<path fill-rule="evenodd" clip-rule="evenodd" d="M35.6809 156.53L46.8436 156.252C48.9261 156.523 52.241 154.657 51.8556 152.606L35.6809 156.53Z" fill="#734E17"/>
<path fill-rule="evenodd" clip-rule="evenodd" d="M70.8959 102.876L67.0995 77.2102C66.6839 74.3986 65.8616 71.7469 64.7082 69.2992L66.7695 68.9697C66.7695 68.9697 65.3224 48.1384 41.8027 53.1121C39.4858 52.8743 37.1023 52.9137 34.6926 53.2655C23.2664 54.9336 15.3648 65.4868 17.0435 76.8374L19.2563 91.7981C20.935 103.149 31.5585 110.998 42.9852 109.33L68.8939 105.549C70.19 105.36 71.0861 104.163 70.8959 102.876Z" fill="#1B1B25"/>
<path fill-rule="evenodd" clip-rule="evenodd" d="M62.5797 69.6391L41.8764 72.9436L36.8516 65.561C37.8389 73.7977 31.7245 79.1182 31.7245 79.1182C31.7245 79.1182 31.6618 79.0332 31.5533 78.877L31.3816 78.9092C28.1417 79.5116 25.9871 82.6378 26.5934 85.8562C27.1998 89.0746 30.3468 91.215 33.5866 90.6127L33.9821 90.5388C34.6903 93.6249 36.2861 96.2983 38.4626 98.3287V111.51C38.4626 116.182 42.3111 120.005 47.0142 120.005C51.7179 120.005 55.5658 116.182 55.5658 111.51V101.101C58.9724 99.5433 61.6394 96.8228 63.162 93.5338C63.1648 93.5288 63.1682 93.5238 63.1715 93.5194C65.0219 90.4399 65.7961 86.7047 65.0795 82.9028L62.5797 69.6391Z" fill="#B48E56"/>
<path fill-rule="evenodd" clip-rule="evenodd" d="M52.8114 100.7C45.1408 102.126 37.7354 97.6187 35.3882 90.4373C35.3111 90.2011 33.9596 90.5095 33.9943 90.654C34.7192 93.7129 36.3297 96.3562 38.5011 98.3666C38.9022 102.675 42.575 106.079 47.0124 106.079C50.2942 106.079 53.1554 104.214 54.5874 101.502C58.466 100.04 61.5056 97.1208 63.1697 93.519C60.991 97.1447 57.3182 99.8614 52.8114 100.7Z" fill="#734E17"/>
</svg>
