<svg width="335" height="240" viewBox="0 0 335 240" fill="none" xmlns="http://www.w3.org/2000/svg">
<path fill-rule="evenodd" clip-rule="evenodd" d="M247.413 115.91C249.028 115.716 251.235 116.892 251.235 116.892L251.572 118.017C251.572 118.017 247.279 118.681 245.165 118.53C244.627 118.492 245.136 116.185 247.413 115.91Z" fill="#8FD6E2"/>
<path fill-rule="evenodd" clip-rule="evenodd" d="M242.237 110.598C242.297 110.748 243.34 114.019 243.001 114.342C242.83 114.504 240.232 116.265 240.232 116.265L242.237 110.598Z" fill="#8FD6E2"/>
<path fill-rule="evenodd" clip-rule="evenodd" d="M242.413 114.34L242.031 112.034L240.117 115.91L242.413 114.34Z" fill="#8FD6E2"/>
<path fill-rule="evenodd" clip-rule="evenodd" d="M253.25 114.611L251.236 116.891L254.27 122.275L257.512 118.166L253.25 114.611Z" fill="white"/>
<mask id="mask0" mask-type="alpha" maskUnits="userSpaceOnUse" x="0" y="236" width="125" height="4">
<path fill-rule="evenodd" clip-rule="evenodd" d="M0 236.792H124.238V239.845H0V236.792Z" fill="white"/>
</mask>
<g mask="url(#mask0)">
<path fill-rule="evenodd" clip-rule="evenodd" d="M124.238 238.318C124.238 239.162 96.4267 239.845 62.1195 239.845C27.8117 239.845 0 239.162 0 238.318C0 237.475 27.8117 236.792 62.1195 236.792C96.4267 236.792 124.238 237.475 124.238 238.318Z" fill="#8E8E8F" fill-opacity="0.85"/>
</g>
<path fill-rule="evenodd" clip-rule="evenodd" d="M335 238.203C335 238.887 311.984 239.441 283.593 239.441C255.201 239.441 232.186 238.887 232.186 238.203C232.186 237.52 255.201 236.966 283.593 236.966C311.984 236.966 335 237.52 335 238.203Z" fill="#8E8E8F" fill-opacity="0.85"/>
<path fill-rule="evenodd" clip-rule="evenodd" d="M118.246 238.318H79.6159C78.103 238.318 76.877 237.093 76.877 235.583V209.852C76.877 208.341 78.103 207.116 79.6159 207.116H118.246C119.758 207.116 120.984 208.341 120.984 209.852V235.583C120.984 237.093 119.758 238.318 118.246 238.318Z" fill="#232323"/>
<path fill-rule="evenodd" clip-rule="evenodd" d="M116.003 209.85V235.58C116.003 237.093 114.779 238.314 113.264 238.314H74.6367C73.1219 238.314 71.8984 237.093 71.8984 235.58V209.85C71.8984 209.217 72.1056 208.641 72.4746 208.182C72.9666 207.529 73.7563 207.116 74.6367 207.116H113.264C114.151 207.116 114.935 207.529 115.433 208.182C115.796 208.641 116.003 209.217 116.003 209.85Z" fill="#269264"/>
<path fill-rule="evenodd" clip-rule="evenodd" d="M116.006 209.85V215.789C116.006 218.402 113.885 220.522 111.267 220.522H76.6403C74.0237 220.522 71.9023 218.402 71.9023 215.789V209.85C71.9023 209.219 72.1101 208.642 72.4733 208.183C72.9705 207.53 73.7577 207.115 74.6407 207.115H113.268C114.151 207.115 114.937 207.53 115.434 208.183C115.798 208.642 116.006 209.219 116.006 209.85Z" fill="#36B37E"/>
<path fill-rule="evenodd" clip-rule="evenodd" d="M103.296 200.918C103.296 202.425 102.663 203.647 101.882 203.647C101.101 203.647 100.467 202.425 100.467 200.918C100.467 199.41 100.869 198.528 101.65 198.528C102.432 198.528 103.296 199.41 103.296 200.918Z" fill="#232323"/>
<path fill-rule="evenodd" clip-rule="evenodd" d="M105.839 209.452C103.67 203.629 101.213 201.848 95.3286 201.848H95.3014C85.3755 201.856 83.9941 208.888 83.9404 209.188L81.0137 208.691C81.0299 208.593 82.7958 198.894 95.2989 198.884H95.328C102.521 198.884 106.001 201.382 108.621 208.418L105.839 209.452Z" fill="#232323"/>
<path fill-rule="evenodd" clip-rule="evenodd" d="M101.65 203.647H89.7421C88.2836 203.647 87.1016 202.467 87.1016 201.011C87.1016 199.554 88.2836 198.374 89.7421 198.374L101.65 198.529C101.65 198.529 100.825 199.261 100.954 201.262C101.062 202.929 101.65 203.647 101.65 203.647Z" fill="#FFAB00"/>
<path fill-rule="evenodd" clip-rule="evenodd" d="M82.4809 215.327C81.0716 215.327 79.9297 214.186 79.9297 212.78V207.117H85.0315V212.78C85.0315 214.186 83.8896 215.327 82.4809 215.327Z" fill="#FFAB00"/>
<path fill-rule="evenodd" clip-rule="evenodd" d="M84.6396 212.674C84.5535 212.674 84.4667 212.64 84.4033 212.572L80.0246 207.897C79.9029 207.767 79.9094 207.562 80.0401 207.44C80.1709 207.319 80.3748 207.325 80.4978 207.456L84.8759 212.13C84.9982 212.26 84.9911 212.465 84.861 212.587C84.7982 212.645 84.7192 212.674 84.6396 212.674Z" fill="#212121"/>
<path fill-rule="evenodd" clip-rule="evenodd" d="M80.2612 212.674C80.1816 212.674 80.1026 212.644 80.0398 212.586C79.9097 212.465 79.9026 212.26 80.0249 212.129L84.403 207.455C84.5253 207.324 84.7299 207.318 84.8607 207.44C84.9914 207.562 84.9979 207.766 84.8762 207.897L80.4975 212.571C80.434 212.639 80.3473 212.674 80.2612 212.674Z" fill="#212121"/>
<path fill-rule="evenodd" clip-rule="evenodd" d="M106.179 215.327H106.118C104.725 215.327 103.598 214.2 103.598 212.81V207.117H108.699V212.81C108.699 214.2 107.571 215.327 106.179 215.327Z" fill="#FFAB00"/>
<path fill-rule="evenodd" clip-rule="evenodd" d="M108.337 212.674C108.251 212.674 108.165 212.64 108.101 212.572L103.722 207.897C103.6 207.767 103.607 207.562 103.737 207.44C103.868 207.319 104.073 207.325 104.195 207.456L108.574 212.13C108.696 212.26 108.689 212.465 108.559 212.587C108.496 212.645 108.417 212.674 108.337 212.674Z" fill="#212121"/>
<path fill-rule="evenodd" clip-rule="evenodd" d="M103.958 212.674C103.879 212.674 103.8 212.644 103.737 212.586C103.607 212.465 103.6 212.26 103.722 212.129L108.101 207.455C108.223 207.324 108.428 207.318 108.559 207.44C108.689 207.562 108.696 207.766 108.573 207.897L104.195 212.571C104.131 212.639 104.045 212.674 103.958 212.674Z" fill="#212121"/>
<path fill-rule="evenodd" clip-rule="evenodd" d="M87.9661 98.7466C86.9278 101.164 85.7224 102.58 84.3998 102.013C83.0779 101.447 82.1399 99.1125 83.1783 96.6954C84.2166 94.2783 86.1302 92.7778 87.4521 93.3441C88.7747 93.9104 89.0045 96.3295 87.9661 98.7466Z" fill="#232323"/>
<path fill-rule="evenodd" clip-rule="evenodd" d="M211.257 238.957C211.257 239.533 194.035 240 172.789 240C151.543 240 134.32 239.533 134.32 238.957C134.32 238.381 151.543 237.914 172.789 237.914C194.035 237.914 211.257 238.381 211.257 238.957Z" fill="#8E8E8F" fill-opacity="0.85"/>
<path fill-rule="evenodd" clip-rule="evenodd" d="M162.096 147.388C127.239 158.386 114.623 139.466 114.623 139.466C127.707 131.314 154.586 139.696 154.586 139.696L162.096 147.388Z" fill="#8BEAC5"/>
<path fill-rule="evenodd" clip-rule="evenodd" d="M172.117 222.572V238.298C232.524 200.051 209.134 181.197 209.134 181.197C182.885 192.062 172.117 222.572 172.117 222.572Z" fill="#269264"/>
<path fill-rule="evenodd" clip-rule="evenodd" d="M172.117 235.267V238.297C232.524 200.05 209.134 181.196 209.134 181.196L172.117 235.267Z" fill="#8BEAC5"/>
<path fill-rule="evenodd" clip-rule="evenodd" d="M172.789 222.572V238.298C112.381 200.051 135.772 181.197 135.772 181.197C162.02 192.062 172.789 222.572 172.789 222.572Z" fill="#269264"/>
<path fill-rule="evenodd" clip-rule="evenodd" d="M172.789 235.267V238.297C112.381 200.05 135.772 181.196 135.772 181.196L172.789 235.267Z" fill="#8BEAC5"/>
<path fill-rule="evenodd" clip-rule="evenodd" d="M173.161 193.289L172.104 192.543L205.559 145.234L206.616 145.98L173.161 193.289Z" fill="#00797D"/>
<path fill-rule="evenodd" clip-rule="evenodd" d="M172.192 157.693L128.85 117.262L129.734 116.316L173.076 156.748L172.192 157.693Z" fill="#00797D"/>
<path fill-rule="evenodd" clip-rule="evenodd" d="M172.754 120.25V135.762C172.74 135.747 172.718 135.732 172.703 135.717C140.799 107.652 150.966 86.6865 150.966 86.6865C166.016 96.7061 172.754 120.25 172.754 120.25Z" fill="#8BEAC5"/>
<path fill-rule="evenodd" clip-rule="evenodd" d="M172.866 132.789L172.754 134.827L172.703 135.716C140.799 107.651 150.966 86.6855 150.966 86.6855L172.754 132.552L172.866 132.789Z" fill="#269264"/>
<path fill-rule="evenodd" clip-rule="evenodd" d="M172.744 120.25V135.762C172.759 135.747 172.782 135.732 172.796 135.717C204.7 107.652 194.533 86.6865 194.533 86.6865C179.482 96.7061 172.744 120.25 172.744 120.25Z" fill="#8BEAC5"/>
<path fill-rule="evenodd" clip-rule="evenodd" d="M172.635 132.789L172.746 134.827L172.798 135.716C204.701 107.651 194.535 86.6855 194.535 86.6855L172.746 132.552L172.635 132.789Z" fill="#269264"/>
<path fill-rule="evenodd" clip-rule="evenodd" d="M171.986 238.435H173.281V76.3955H171.986V238.435Z" fill="#00797D"/>
<path fill-rule="evenodd" clip-rule="evenodd" d="M178.261 77.2507C178.261 80.3207 175.769 82.809 172.695 82.809C169.621 82.809 167.129 80.3207 167.129 77.2507C167.129 74.1813 169.621 71.6924 172.695 71.6924C175.769 71.6924 178.261 74.1813 178.261 77.2507Z" fill="#232323"/>
<path fill-rule="evenodd" clip-rule="evenodd" d="M137.997 118.501C137.997 121.571 135.505 124.06 132.431 124.06C129.358 124.06 126.865 121.571 126.865 118.501C126.865 115.431 129.358 112.942 132.431 112.942C135.505 112.942 137.997 115.431 137.997 118.501Z" fill="#232323"/>
<path fill-rule="evenodd" clip-rule="evenodd" d="M210.932 146.92C210.932 149.99 208.44 152.478 205.366 152.478C202.292 152.478 199.801 149.99 199.801 146.92C199.801 143.85 202.292 141.361 205.366 141.361C208.44 141.361 210.932 143.85 210.932 146.92Z" fill="#232323"/>
<path d="M241.39 125.806C241.39 139.185 230.53 150.031 217.131 150.031C203.734 150.031 192.873 139.185 192.873 125.806C192.873 112.426 203.734 101.58 217.131 101.58C230.53 101.58 241.39 112.426 241.39 125.806" stroke="#36B37E" stroke-width="0.674871"/>
<path fill-rule="evenodd" clip-rule="evenodd" d="M71.1211 57.0531L76.1925 81.9756L95.8708 96.1719L109.199 89.8165L87.7063 73.227C87.7063 73.227 88.1226 53.1556 85.8148 47.2495C85.0651 45.3301 84.5194 43.3015 79.5503 46.1104C78.2776 46.8299 71.3011 55.6141 71.1211 57.0531Z" fill="#232323"/>
<path d="M143.315 99.6207C143.315 112.851 132.575 123.575 119.327 123.575C106.079 123.575 95.3398 112.851 95.3398 99.6207C95.3398 86.3909 106.079 75.666 119.327 75.666C132.575 75.666 143.315 86.3909 143.315 99.6207" stroke="#3077FF" stroke-width="0.674871"/>
<path fill-rule="evenodd" clip-rule="evenodd" d="M241.753 127.154C241.753 140.307 231.076 150.97 217.904 150.97C204.732 150.97 194.055 140.307 194.055 127.154C194.055 114.001 204.732 103.338 217.904 103.338C231.076 103.338 241.753 114.001 241.753 127.154Z" fill="#36B37E"/>
<path fill-rule="evenodd" clip-rule="evenodd" d="M217.905 108.842C207.794 108.842 199.568 117.057 199.568 127.154C199.568 137.251 207.794 145.465 217.905 145.465C228.016 145.465 236.242 137.251 236.242 127.154C236.242 117.057 228.016 108.842 217.905 108.842ZM217.904 146.113C207.436 146.113 198.92 137.608 198.92 127.154C198.92 116.701 207.436 108.196 217.904 108.196C228.373 108.196 236.889 116.701 236.889 127.154C236.889 137.608 228.373 146.113 217.904 146.113Z" fill="#278E62"/>
<path fill-rule="evenodd" clip-rule="evenodd" d="M162.096 147.388C127.239 158.386 114.623 139.466 114.623 139.466L157.777 143.364L162.096 147.388Z" fill="#269264"/>
<path fill-rule="evenodd" clip-rule="evenodd" d="M29.3516 114.878C29.3516 114.878 39.4924 119.542 46.9881 117.628C54.4838 115.715 52.7657 108.853 52.7657 108.853L46.1919 106.06L29.3516 114.878Z" fill="#232323"/>
<path fill-rule="evenodd" clip-rule="evenodd" d="M25.4716 230.995L9.60233 236.204C8.89283 236.436 8.83133 237.41 9.50458 237.733C10.4173 238.171 12.1018 238.645 15.1968 238.982C19.8914 239.493 36.7349 237.191 36.7349 237.191L37.0353 238.577L43.7445 238.308L43.0155 228.276L28.4734 227.357L25.4716 230.995Z" fill="#161414"/>
<path fill-rule="evenodd" clip-rule="evenodd" d="M79.9096 230.995L95.9148 236.248C96.5544 236.458 96.6366 237.334 96.0417 237.65C95.1742 238.11 93.4775 238.623 90.1838 238.982C85.4898 239.493 68.6463 237.191 68.6463 237.191L68.3459 238.577L61.6367 238.308L62.365 228.276L76.9078 227.357L79.9096 230.995Z" fill="#161414"/>
<path fill-rule="evenodd" clip-rule="evenodd" d="M79.2837 87.7784L80.3583 111.274C80.5842 116.223 76.6269 120.36 71.6656 120.36H54.4473L67.3348 52.8486C67.7135 49.1088 69.6018 45.9198 72.311 43.7839C76.8296 40.2213 85.1196 48.7578 85.9663 54.4441L79.2837 87.7784Z" fill="#232323"/>
<path fill-rule="evenodd" clip-rule="evenodd" d="M73.9061 106.06L79.2824 229.278L61.0503 231.788L56.0527 118.059L73.9061 106.06Z" fill="#36B37E"/>
<path fill-rule="evenodd" clip-rule="evenodd" d="M77.8018 40.4951L80.7292 41.4241C83.538 42.3156 84.9383 44.9777 85.8141 47.2494C86.4207 48.8216 86.5722 53.4839 85.8141 56.0626L84.5155 64.5164L73.2969 53.2447L77.8018 40.4951Z" fill="#232323"/>
<path fill-rule="evenodd" clip-rule="evenodd" d="M73.9588 106.06C73.9588 115.935 65.942 123.942 56.053 123.942C46.1633 123.942 38.1465 115.935 38.1465 106.06C38.1465 96.1845 46.1633 88.1787 56.053 88.1787C65.942 88.1787 73.9588 96.1845 73.9588 106.06Z" fill="#36B37E"/>
<path fill-rule="evenodd" clip-rule="evenodd" d="M206.482 44.1815C206.482 62.8495 191.327 77.9832 172.633 77.9832C153.94 77.9832 138.785 62.8495 138.785 44.1815C138.785 25.5136 153.94 10.3799 172.633 10.3799C191.327 10.3799 206.482 25.5136 206.482 44.1815Z" fill="#FFAB00"/>
<path fill-rule="evenodd" clip-rule="evenodd" d="M172.633 18.1357C158.252 18.1357 146.552 29.8193 146.552 44.1811C146.552 58.5423 158.252 70.2259 172.633 70.2259C187.015 70.2259 198.714 58.5423 198.714 44.1811C198.714 29.8193 187.015 18.1357 172.633 18.1357ZM172.634 70.8733C157.897 70.8733 145.906 58.8995 145.906 44.1821C145.906 29.464 157.897 17.4902 172.634 17.4902C187.373 17.4902 199.363 29.464 199.363 44.1821C199.363 58.8995 187.373 70.8733 172.634 70.8733Z" fill="#C48504"/>
<path fill-rule="evenodd" clip-rule="evenodd" d="M160.928 8.15967L157.818 2.96145L158.93 2.29883L162.04 7.49704L160.928 8.15967Z" fill="white"/>
<path fill-rule="evenodd" clip-rule="evenodd" d="M153.123 12.6437L148.441 8.79599L149.264 7.79785L153.946 11.6456L153.123 12.6437Z" fill="white"/>
<path fill-rule="evenodd" clip-rule="evenodd" d="M100.47 81.2616L96.1504 77.013L97.0586 76.0918L101.378 80.3404L100.47 81.2616Z" fill="white"/>
<path fill-rule="evenodd" clip-rule="evenodd" d="M107.002 76.4416L104.275 71.0333L105.432 70.4521L108.158 75.8605L107.002 76.4416Z" fill="white"/>
<path fill-rule="evenodd" clip-rule="evenodd" d="M116.25 74.3148L115.984 68.2659L117.278 68.209L117.544 74.2579L116.25 74.3148Z" fill="white"/>
<path fill-rule="evenodd" clip-rule="evenodd" d="M127.058 76.349L125.826 75.952L127.689 70.1895L128.921 70.5864L127.058 76.349Z" fill="white"/>
<path fill-rule="evenodd" clip-rule="evenodd" d="M171.797 5.91127L171.752 0.0103434L173.047 0L173.091 5.90092L171.797 5.91127Z" fill="white"/>
<path fill-rule="evenodd" clip-rule="evenodd" d="M183.859 7.67461L182.721 7.05853L185.769 1.44141L186.907 2.05813L183.859 7.67461Z" fill="white"/>
<path fill-rule="evenodd" clip-rule="evenodd" d="M192.357 11.9962L191.324 11.2165L195.184 6.12109L196.217 6.90073L192.357 11.9962Z" fill="white"/>
<path fill-rule="evenodd" clip-rule="evenodd" d="M84.8826 16.1426C83.6216 21.5134 78.2751 24.6856 72.8626 23.586C66.4201 22.2775 63.7523 13.9129 62.824 9.83892C62.5457 8.61646 63.3011 6.96151 65.8433 6.04095L71.2668 3.63093C73.6504 2.57202 76.3809 3.12733 78.3217 4.86826C78.3282 4.87343 78.3334 4.87796 78.3392 4.88313C80.5382 6.7624 85.8893 11.8552 84.8826 16.1426Z" fill="#282828"/>
<path fill-rule="evenodd" clip-rule="evenodd" d="M68.7231 22.5498C68.7231 22.5498 71.3151 37.1754 63.8789 38.6959L77.9505 42.7479C77.9505 42.7479 75.565 34.9005 80.1851 31.0334C80.1851 31.0334 70.3544 25.0626 68.7231 22.5498Z" fill="#B48E56"/>
<path fill-rule="evenodd" clip-rule="evenodd" d="M69.0254 24.4961C69.0254 24.4961 69.0254 32.412 77.8495 34.5518C77.8495 34.5518 79.3533 31.2096 80.4085 30.3854C80.4085 30.3854 70.1589 26.1562 69.0254 24.4961Z" fill="#734E17"/>
<path fill-rule="evenodd" clip-rule="evenodd" d="M86.2509 17.9809C86.46 21.9999 85.6171 25.4385 85.6171 25.4385C85.2864 26.5284 83.9094 34.3455 79.1611 33.3538C76.9167 32.8851 72.035 30.5856 69.7421 26.4276L68.3069 22.5501C68.3069 22.5501 67.2646 7.26895 76.4914 5.29595C81.3983 4.24609 85.8729 10.7146 86.2509 17.9809Z" fill="#B48E56"/>
<path fill-rule="evenodd" clip-rule="evenodd" d="M70.667 19.6615C71.6529 21.1477 71.6743 22.8673 70.7142 23.5021C69.7549 24.1369 68.8207 22.6895 67.192 21.9603C64.3851 20.7049 64.789 17.7298 66.4462 17.3581C67.7409 17.0672 69.6817 18.1752 70.667 19.6615Z" fill="#734E17"/>
<path fill-rule="evenodd" clip-rule="evenodd" d="M68.3889 10.9242C67.4949 10.8085 66.4798 10.3573 65.5431 9.82332C64.0613 8.97839 64.1656 6.80885 65.7173 6.09968L70.5964 3.86874C73.5276 2.52862 76.7132 1.83496 79.9364 1.83496C82.4889 1.83496 85.9989 4.14413 85.3218 6.60134L84.185 10.2946C84.185 10.2946 72.789 6.27164 68.8511 12.6594C68.6239 13.0278 68.3889 10.9242 68.3889 10.9242Z" fill="#282828"/>
<path fill-rule="evenodd" clip-rule="evenodd" d="M66.6531 20.4593C66.622 20.4593 66.5903 20.4483 66.565 20.427C66.1002 20.0327 65.9255 19.4993 66.099 18.9996C66.2291 18.6221 66.5398 18.3596 66.8712 18.3467C66.9502 18.3551 67.0091 18.4023 67.0124 18.4773C67.015 18.5523 66.9567 18.615 66.8816 18.6175C66.6609 18.6266 66.4498 18.8154 66.3553 19.0875C66.2207 19.478 66.365 19.9014 66.7411 20.2201C66.7981 20.2693 66.8052 20.3546 66.7567 20.4115C66.7301 20.4432 66.6913 20.4593 66.6531 20.4593Z" fill="#B48E56"/>
<path fill-rule="evenodd" clip-rule="evenodd" d="M67.635 21.2908C67.5923 21.2908 67.5502 21.2708 67.5236 21.2327C67.4809 21.1712 67.4964 21.0872 67.5573 21.0439C67.6686 20.967 67.7282 20.8758 67.7398 20.7659C67.7644 20.5254 67.5521 20.2423 67.4686 20.1531C67.4175 20.0988 67.4194 20.0128 67.4744 19.9617C67.5282 19.9106 67.6149 19.9126 67.6654 19.9675C67.6816 19.9843 68.0519 20.3826 68.0091 20.7944C67.9897 20.9838 67.89 21.1428 67.7133 21.2663C67.6887 21.2824 67.6622 21.2908 67.635 21.2908Z" fill="#B48E56"/>
<path fill-rule="evenodd" clip-rule="evenodd" d="M70.0761 11.0732C69.7039 12.6965 69.0268 18.0589 69.0268 18.0589L67.0996 16.9935C67.0996 16.9935 70.3344 9.94642 70.0761 11.0732Z" fill="#282828"/>
<path fill-rule="evenodd" clip-rule="evenodd" d="M81.2667 66.9773C80.2077 71.7547 79.0476 76.3375 78.241 79.4379C77.6072 81.8479 77.1819 83.3587 77.1819 83.3587L72.6543 99.3425L42.8242 94.4456L48.1481 49.3793C49.2 41.3722 64.6537 37.1133 64.6537 37.1133L75.8633 39.8472C79.2062 40.6598 83.0029 42.8688 83.7882 47.9694C84.3358 51.5094 82.924 59.488 81.2667 66.9773Z" fill="#EFEFEF"/>
<path fill-rule="evenodd" clip-rule="evenodd" d="M38.1466 105.173L24.9082 230.708L43.8925 231.074L56.0531 120.36L38.1466 105.173Z" fill="#36B37E"/>
<path fill-rule="evenodd" clip-rule="evenodd" d="M81.2668 66.9772C80.2077 71.7545 79.0476 76.3373 78.241 79.4377C77.0881 77.265 75.5325 73.8982 73.9834 69.2508C70.9356 60.1421 71.1234 43.3075 71.1234 43.3075L73.9834 43.1562C73.9834 43.1562 77.5639 55.6602 79.0547 61.5165C79.5597 63.4882 80.3449 65.3222 81.2668 66.9772Z" fill="#90BABA"/>
<path fill-rule="evenodd" clip-rule="evenodd" d="M142.171 101.143C142.171 114.338 131.457 125.037 118.245 125.037C107.809 125.037 98.934 118.365 95.6649 109.062C95.3671 108.222 95.1211 107.356 94.9139 106.47C94.888 106.341 94.8621 106.212 94.8298 106.082V106.076C94.642 105.164 94.4996 104.227 94.4155 103.277C94.3507 102.572 94.3184 101.861 94.3184 101.143C94.3184 100.18 94.3766 99.2233 94.4931 98.2924C94.4996 98.2148 94.5061 98.1437 94.519 98.0726C94.6161 97.2968 94.7521 96.5405 94.9269 95.7971C95.2182 94.5041 95.6195 93.25 96.118 92.054C99.6979 83.3655 108.256 77.25 118.245 77.25C131.457 77.25 142.171 87.949 142.171 101.143Z" fill="#3077FF"/>
<path fill-rule="evenodd" clip-rule="evenodd" d="M118.247 81.3813C107.335 81.3813 98.4581 90.2463 98.4581 101.143C98.4581 112.04 107.335 120.905 118.247 120.905C129.159 120.905 138.036 112.04 138.036 101.143C138.036 90.2463 129.159 81.3813 118.247 81.3813ZM118.247 121.552C106.978 121.552 97.8105 112.397 97.8105 101.144C97.8105 89.8906 106.978 80.7354 118.247 80.7354C129.515 80.7354 138.683 89.8906 138.683 101.144C138.683 112.397 129.515 121.552 118.247 121.552Z" fill="#285CC0"/>
<path fill-rule="evenodd" clip-rule="evenodd" d="M97.4083 109.599C97.2789 109.747 96.6121 109.534 95.6669 109.062C95.3692 108.222 95.1232 107.355 94.916 106.47C96.01 107.433 97.8032 109.133 97.4083 109.599Z" fill="#262626"/>
<path fill-rule="evenodd" clip-rule="evenodd" d="M96.7723 97.484C95.8984 97.6585 94.9856 97.9106 94.5195 98.0723C94.6166 97.2965 94.7526 96.5401 94.9274 95.7967C95.8855 95.8807 96.727 95.8613 97.3355 95.648C98.695 95.169 98.2353 97.1995 96.7723 97.484Z" fill="#262626"/>
<path fill-rule="evenodd" clip-rule="evenodd" d="M103.763 105.403C103.401 106.379 95.257 103.903 94.8298 103.773C95.2441 103.935 102.197 106.618 101.588 107.608C101.09 108.429 96.597 106.767 94.8298 106.082V106.075C94.642 105.164 94.4996 104.227 94.4155 103.276C94.3507 102.572 94.3184 101.86 94.3184 101.143C94.3184 100.179 94.3766 99.2229 94.4931 98.292C95.8914 98.6669 100.274 100.186 101.698 101.026C103.226 101.932 103.957 102.908 101.633 102.513C99.5231 102.157 96.597 101.389 96.0662 101.253C96.9337 101.582 104.158 104.33 103.763 105.403Z" fill="#262626"/>
<path fill-rule="evenodd" clip-rule="evenodd" d="M208.942 151.277L208.666 150.013C211.318 149.436 213.967 149.199 216.54 149.309L216.485 150.601C214.022 150.496 211.485 150.723 208.942 151.277ZM195.064 157.44L194.34 156.367C196.599 154.85 198.905 153.555 201.193 152.52L201.727 153.698C199.505 154.704 197.262 155.963 195.064 157.44ZM183.513 167.527L182.561 166.652C184.384 164.671 186.262 162.826 188.143 161.17L188.999 162.139C187.153 163.766 185.307 165.578 183.513 167.527ZM174.056 179.683L172.979 178.967C174.454 176.752 175.984 174.618 177.527 172.625L178.552 173.417C177.027 175.384 175.515 177.493 174.056 179.683ZM166.264 193.009L165.113 192.418C166.329 190.059 167.589 187.76 168.856 185.585L169.976 186.235C168.718 188.391 167.47 190.671 166.264 193.009ZM159.799 207.047L158.602 206.554C159.605 204.121 160.65 201.72 161.708 199.418L162.884 199.958C161.834 202.243 160.795 204.628 159.799 207.047Z" fill="white"/>
<path fill-rule="evenodd" clip-rule="evenodd" d="M203.221 157.351L202.641 156.195C205.067 154.981 207.575 154.097 210.096 153.567L210.362 154.833C207.95 155.339 205.547 156.187 203.221 157.351ZM191.298 166.752L190.332 165.891C192.145 163.862 194.058 162.039 196.018 160.47L196.828 161.479C194.924 163.003 193.063 164.778 191.298 166.752ZM182.607 179.378L181.467 178.767C182.744 176.396 184.107 174.145 185.518 172.075L186.589 172.802C185.202 174.835 183.863 177.048 182.607 179.378ZM176.457 193.493L175.236 193.065C176.117 190.554 177.07 188.109 178.071 185.798L179.26 186.312C178.271 188.594 177.328 191.011 176.457 193.493ZM172.208 208.33L170.945 208.041C171.539 205.455 172.19 202.917 172.88 200.496L174.125 200.849C173.442 203.249 172.797 205.766 172.208 208.33ZM169.42 223.529L168.139 223.348C168.508 220.741 168.925 218.157 169.38 215.666L170.654 215.898C170.202 218.372 169.787 220.939 169.42 223.529Z" fill="white"/>
<path fill-rule="evenodd" clip-rule="evenodd" d="M203.334 166.143L202.356 165.295C204.284 163.076 206.235 161.071 208.158 159.336L209.026 160.295C207.143 161.995 205.228 163.963 203.334 166.143ZM193.718 179.379L192.615 178.704C194.085 176.312 195.631 173.992 197.21 171.805L198.259 172.561C196.699 174.722 195.171 177.016 193.718 179.379ZM186.105 193.884L184.922 193.361C186.043 190.835 187.256 188.327 188.526 185.905L189.673 186.504C188.416 188.903 187.215 191.385 186.105 193.884ZM180.427 209.252L179.186 208.884C179.968 206.255 180.848 203.613 181.803 201.03L183.017 201.478C182.073 204.035 181.201 206.65 180.427 209.252ZM176.835 225.225L175.555 225.03C175.965 222.336 176.482 219.599 177.093 216.894L178.355 217.178C177.752 219.853 177.24 222.56 176.835 225.225Z" fill="white"/>
<path fill-rule="evenodd" clip-rule="evenodd" d="M64.6234 37.1113L64.5762 38.4243L70.7649 47.5756L72.2577 45.4973L71.1209 38.9072L64.6234 37.1113Z" fill="#90BABA"/>
<path fill-rule="evenodd" clip-rule="evenodd" d="M68.4172 33.9043L75.5258 37.2226L71.1205 45.8387L64.623 37.1127L68.4172 33.9043Z" fill="white"/>
<path fill-rule="evenodd" clip-rule="evenodd" d="M80.2237 41.8711L76.9021 47.5768L75.7168 45.8391L77.0885 42.5234L80.2237 41.8711Z" fill="#90BABA"/>
<path fill-rule="evenodd" clip-rule="evenodd" d="M75.8838 43.9922C75.8838 43.9922 79.4636 56.498 80.9545 62.3582C83.0714 70.6769 90.3994 76.6574 90.3994 76.6574L89.9605 83.3605H81.9806C81.9806 83.3605 78.925 79.2051 75.8818 70.0925C72.838 60.9793 73.0257 44.1435 73.0257 44.1435L75.8838 43.9922Z" fill="#FFAB00"/>
<path fill-rule="evenodd" clip-rule="evenodd" d="M77.4255 36.6377L73.9512 36.6804L77.531 45.7205L80.2221 41.8702L77.4255 36.6377Z" fill="white"/>
<path fill-rule="evenodd" clip-rule="evenodd" d="M74.3668 36.6807L71.8984 44.3173L73.21 46.7371L76.0357 46.5657L77.1433 44.7447L74.9183 36.6807H74.3668Z" fill="#FFE888"/>
<path fill-rule="evenodd" clip-rule="evenodd" d="M86.1662 94.2547C88.1543 93.7815 93.7034 95.7047 95.9225 94.9199C97.2405 94.4545 96.7984 96.4229 95.3723 96.7048C94.0905 96.9582 92.7155 97.3862 92.9045 97.4256C93.8562 97.6221 98.6686 99.2603 100.156 100.141C101.644 101.021 102.353 101.97 100.094 101.585C97.8354 101.2 94.6064 100.333 94.6064 100.333C94.6064 100.333 102.573 103.277 102.16 104.391C101.799 105.365 93.471 102.804 93.471 102.804C93.471 102.804 100.659 105.541 100.053 106.531C99.4467 107.521 92.7997 104.765 92.7997 104.765C92.7997 104.765 96.5407 107.816 95.9898 108.462C95.483 109.057 86.2368 103.665 85.2515 100.142C84.5414 97.6027 84.4287 94.6678 86.1662 94.2547Z" fill="#B48E56"/>
<path fill-rule="evenodd" clip-rule="evenodd" d="M84.9872 93.2246L88.2576 94.5848L85.6909 101.077L81.7109 98.4054L84.9872 93.2246Z" fill="white"/>
<path fill-rule="evenodd" clip-rule="evenodd" d="M64.6246 37.1113C64.6246 37.1113 64.0582 53.6518 63.3675 59.1195C62.155 68.706 59.651 87.5316 58.0391 96.9448C56.0485 108.571 42.7939 116.478 31.0658 115.081L29.3516 114.876C32.2336 102.654 43.3998 82.572 43.3998 82.572C43.3998 82.572 45.7633 60.1048 47.1862 52.6995C48.0258 48.3281 49.2169 41.4627 57.4759 39.0455C59.9417 38.3241 61.7471 37.7998 61.7711 37.8063L64.6246 37.1113Z" fill="#269264"/>
<path fill-rule="evenodd" clip-rule="evenodd" d="M51.7754 54.624L59.7903 87.0888L58.6432 93.2522C58.6432 93.2522 50.9339 84.481 50.9649 68.375C50.9714 64.8782 51.7754 54.624 51.7754 54.624Z" fill="#232323"/>
<path fill-rule="evenodd" clip-rule="evenodd" d="M50.6202 64.0142L60.2094 90.4171L84.3998 102.014C84.3998 102.014 83.687 100.411 84.8652 97.5094C86.4053 93.716 87.7058 93.4748 87.7058 93.4748L69.9955 81.2993L64.3156 44.7276C64.3156 44.7276 60.179 44.4942 55.3769 47.6224C49.9495 51.1579 47.9259 58.1288 50.6202 64.0142Z" fill="#269264"/>
<path fill-rule="evenodd" clip-rule="evenodd" d="M283.253 221.101C283.253 221.101 282.998 197.257 282.356 186.236C282.167 182.994 280.141 165.613 279.873 155.837C274.931 157.024 271.09 158.849 266.18 160.162L275.096 222.302C277.785 220.893 283.253 221.101 283.253 221.101Z" fill="#B48E56"/>
<path fill-rule="evenodd" clip-rule="evenodd" d="M283.733 226.203C283.336 228.412 281.284 229.938 279.148 229.611C277.013 229.285 275.603 227.229 276.001 225.02C276.397 222.811 278.45 221.285 280.585 221.611C282.72 221.938 284.13 223.994 283.733 226.203Z" fill="#282828"/>
<path fill-rule="evenodd" clip-rule="evenodd" d="M276.068 227.514C276.068 227.514 263.111 234.772 256.8 236.993C254.596 237.768 266.939 239.844 272.378 236.745C274.002 235.82 277.797 232.597 279.867 229.656C282.287 226.216 282.875 223.073 282.875 223.073L276.068 227.514Z" fill="#282828"/>
<path fill-rule="evenodd" clip-rule="evenodd" d="M283.666 226.497L282.873 237.049L280.912 237.135L279.176 228.524L283.666 226.497Z" fill="#282828"/>
<path fill-rule="evenodd" clip-rule="evenodd" d="M280.931 220.28C279.105 220.036 277.464 220.492 275.936 221.414C275.358 221.763 270.244 228.935 267.644 231.18C264.107 234.236 267.626 234.716 271.327 231.703C276.238 227.706 283.23 223.392 283.23 223.392L283.253 221.052C282.495 220.856 281.707 220.383 280.931 220.28Z" fill="#B48E56"/>
<path fill-rule="evenodd" clip-rule="evenodd" d="M268.004 161.377L282.192 184.24L281.683 177.886L270.24 161.377H268.004Z" fill="#734E17"/>
<path fill-rule="evenodd" clip-rule="evenodd" d="M306.352 215.909C307.858 213.885 308.483 212.406 310.73 211.854C310.73 211.854 299.159 186.21 294.762 176.217C293.05 172.324 287.588 161.377 278.773 151.86C274.739 155.182 273.347 156.542 269.396 159.972L304.617 216.772C305.092 215.952 305.791 216.663 306.352 215.909Z" fill="#B48E56"/>
<path fill-rule="evenodd" clip-rule="evenodd" d="M313.697 216.432C314.369 218.574 313.254 220.875 311.21 221.57C309.166 222.267 306.965 221.095 306.293 218.953C305.622 216.811 306.736 214.51 308.781 213.814C310.825 213.118 313.027 214.291 313.697 216.432Z" fill="#282828"/>
<path fill-rule="evenodd" clip-rule="evenodd" d="M307.509 221.134C307.509 221.134 299.367 232.997 296.695 238.005C295.596 240.064 305.122 236.282 308.51 231.023C310.704 227.618 311.487 214.054 311.487 214.054L307.509 221.134Z" fill="#282828"/>
<path fill-rule="evenodd" clip-rule="evenodd" d="M313.776 216.724L316.665 227.194L315.229 228.024L310.504 220.886L313.776 216.724Z" fill="#282828"/>
<path fill-rule="evenodd" clip-rule="evenodd" d="M308.468 212.475C306.735 213.102 305.825 214.296 304.897 215.82C304.547 216.395 302.999 225.084 301.734 228.276C300.012 232.617 303.355 231.419 305.242 227.038C307.745 221.227 311.948 214.174 311.948 214.174L310.729 211.854C309.966 212.029 309.204 212.208 308.468 212.475Z" fill="#B48E56"/>
<path fill-rule="evenodd" clip-rule="evenodd" d="M261.309 70.6982L253.711 92.7155L236.781 109.685L241.717 111.864L258.622 99.802C260.154 98.7095 261.344 97.2065 262.057 95.4669L269.924 76.2701L261.309 70.6982Z" fill="#232323"/>
<path fill-rule="evenodd" clip-rule="evenodd" d="M256.537 27.0248C254.755 32.9587 258.126 39.2132 264.068 40.9936C270.01 42.7739 276.272 39.4072 278.055 33.4733C279.838 27.5387 276.467 21.2855 270.525 19.5045C264.583 17.7241 258.321 21.0909 256.537 27.0248Z" fill="#282828"/>
<path fill-rule="evenodd" clip-rule="evenodd" d="M256.688 42.9033L256.688 42.9091C256.766 42.9847 256.838 43.0604 256.91 43.147C256.948 43.1877 256.981 43.2284 257.02 43.2756C257.074 43.3422 257.13 43.4036 257.184 43.4767C257.194 43.4961 257.204 43.5155 257.221 43.5297C257.488 43.871 257.716 44.2324 257.906 44.6022C258.08 44.9461 258.223 45.2991 258.339 45.6611C258.349 45.687 258.359 45.7122 258.368 45.738L258.368 45.7445C258.447 45.9985 258.512 46.2571 258.565 46.5209C259.529 51.1211 256.633 56.3607 256.633 56.3607L272.409 54.6398C272.426 54.23 271.591 54.6437 271.614 54.2403C267.311 50.2503 266.066 46.5254 266.099 42.838C266.1 42.6537 266.106 42.476 266.111 42.2982C266.137 41.6304 266.201 41.0033 266.276 40.4512L266.278 40.4267C266.376 39.7175 266.493 39.1202 266.592 38.6877L266.594 38.6754C266.692 38.2552 266.768 37.9921 266.781 37.9326C266.626 38.058 266.471 38.1893 266.311 38.3089C262.823 41.0331 256.943 42.8244 256.688 42.9033Z" fill="#B48E56"/>
<path fill-rule="evenodd" clip-rule="evenodd" d="M256.5 44.7241C256.549 44.7526 256.592 44.7823 256.641 44.8172C256.712 44.867 256.782 44.911 256.854 44.9665C256.869 44.9821 256.885 44.9982 256.905 45.0073C257.254 45.2626 257.572 45.549 257.856 45.8535C258.117 46.1366 258.809 47.3475 258.76 48.5421C260.759 47.9183 265.373 43.6523 266.074 40.3463C266.224 38.7075 265.167 40.5977 265.123 40.4251C264.966 39.7761 264.857 40.1362 264.778 39.5841L264.774 39.5602C264.675 38.851 264.624 38.2446 264.602 37.8018C264.602 37.8018 264.601 37.7953 264.6 37.7895C264.523 37.5607 264.476 37.4385 264.476 37.4385C262.351 40.674 257.859 43.8152 256.5 44.7241Z" fill="#734E17"/>
<path fill-rule="evenodd" clip-rule="evenodd" d="M249.223 30.7843C248.384 38.4689 251.637 46.1779 256.938 46.7559C262.239 47.3332 267.579 40.5608 268.419 32.8757C269.258 25.1911 265.641 18.4938 260.341 17.9158C255.04 17.3385 250.063 23.0998 249.223 30.7843Z" fill="#B48E56"/>
<path fill-rule="evenodd" clip-rule="evenodd" d="M266.119 33.5898C264.984 35.1071 264.858 36.9301 265.837 37.6606C266.817 38.3917 268.532 37.7543 269.666 36.2377C270.802 34.7205 270.929 32.8974 269.948 32.1663C268.969 31.4351 267.255 32.0726 266.119 33.5898Z" fill="#734E17"/>
<path fill-rule="evenodd" clip-rule="evenodd" d="M252.313 21.0463C253.007 23.0491 256.557 24.0614 258.644 24.4351C259.421 24.5721 260.172 24.8133 260.886 25.1229C265.389 27.0739 268.506 31.8203 268.506 31.8203L273.393 22.8454C273.393 22.8454 267.596 19.3448 262.701 16.5805L262.694 16.5818C261.632 15.9793 260.611 15.4124 259.704 14.9256C258.297 14.1718 256.771 14.1595 255.447 14.6586C254.911 14.8642 254.407 15.1512 253.961 15.5152C253.96 15.5094 253.955 15.5158 253.944 15.5242C253.372 15.9845 252.894 16.5527 252.567 17.207C252.543 17.2542 252.53 17.2813 252.53 17.2813L252.531 17.2826C251.985 18.3751 251.843 19.6829 252.313 21.0463Z" fill="#282828"/>
<path fill-rule="evenodd" clip-rule="evenodd" d="M280.679 97.2042C283.353 96.2597 286.021 95.2292 288.539 93.9156C283.976 81.4595 278.229 65.7744 278.229 65.7744C276.847 62.0268 274.377 52.4902 270.696 50.9283C266.88 49.3083 261.489 49.1402 257 55.6197C252.963 61.4444 257.683 74.8397 260.739 86.8672C262.386 93.3461 261.431 98.8287 263.15 103.87C268.71 100.98 274.774 99.2896 280.679 97.2042Z" fill="#B48E56"/>
<path fill-rule="evenodd" clip-rule="evenodd" d="M288.773 94.5547C286.579 95.6905 284.269 96.6143 281.955 97.4599C275.721 99.7367 269.259 101.439 263.371 104.518C265.458 110.586 267.115 114.666 267.115 114.666L264.518 161.377H286.825C286.825 161.377 295.352 128.985 294.037 108.919C294.024 108.887 291.665 102.447 288.773 94.5547Z" fill="#269264"/>
<path fill-rule="evenodd" clip-rule="evenodd" d="M247.219 116.931C246.996 117.51 246.437 117.759 245.972 117.483L245.904 117.45C245.695 117.322 245.479 117.201 245.271 117.079C245.162 117.019 245.048 116.952 244.94 116.897C238.008 113.039 232.87 113.308 230.092 117.698C227.55 121.699 227.604 127.988 228.837 131.988C229.128 132.95 229.485 133.785 229.897 134.419C230.22 134.923 230.153 135.651 229.741 136.048C229.721 136.068 229.7 136.088 229.674 136.102L227.28 133.449C225.568 128.56 225.649 120.931 228.615 116.265C231.009 112.507 235.972 109.228 246.059 114.978C246.248 115.086 246.444 115.201 246.639 115.315C246.66 115.329 246.686 115.342 246.706 115.356L246.749 115.448C247.215 115.724 247.442 116.352 247.219 116.931Z" fill="#036D6D"/>
<path fill-rule="evenodd" clip-rule="evenodd" d="M261.567 135.181L245.944 149.826C245.034 150.682 243.705 150.81 242.667 150.237C242.58 150.197 242.499 150.143 242.418 150.089C242.236 149.975 242.074 149.826 241.918 149.659L240.347 147.921L240.192 147.746L239.855 147.369L239.531 147.012L236.18 143.308L229.673 136.103L227.279 133.45L228.837 131.989L243.82 117.949L244.939 116.899L245.458 116.414L246.638 115.316L250.448 118.232L261.722 130.245C263.057 131.645 262.976 133.861 261.567 135.181Z" fill="#00797D"/>
<path fill-rule="evenodd" clip-rule="evenodd" d="M269.767 109.491L269.923 97.9642L268.945 95.5917L258.82 71.0131C256.328 64.1089 256.536 53.1772 263.449 50.6883C265.055 50.1129 266.492 49.835 267.786 49.835C272.052 49.835 274.732 52.8669 276.649 58.1679C276.649 58.1679 282.346 75.2216 287.874 92.0943C289.952 98.4426 294.038 108.919 294.038 108.919L269.882 115.738L269.767 109.491Z" fill="#282828"/>
<path fill-rule="evenodd" clip-rule="evenodd" d="M282.228 95.689L269.766 109.491L269.922 97.9645L268.944 95.592L273.424 89.9419C273.424 89.9419 263.572 71.6534 263.468 63.954C263.455 62.771 263.002 61.2001 263.896 59.2413C265.708 55.2591 271.822 63.1783 273.389 67.2575L283.846 87.7504C284.895 90.4849 284.267 93.5815 282.228 95.689Z" fill="#161616"/>
<path fill-rule="evenodd" clip-rule="evenodd" d="M256.63 56.3613L253.712 61.8324C253.712 61.8324 250.034 71.1395 253.351 76.2304L261.293 87.7704L260.211 76.0468L255.902 62.9902L256.63 56.3613Z" fill="#269264"/>
<path fill-rule="evenodd" clip-rule="evenodd" d="M218.547 149.284C218.547 150.96 218.167 152.317 217.7 152.317C217.233 152.317 217.095 151.554 216.759 149.284C216.514 147.627 216.386 146.251 216.854 146.251C217.321 146.251 218.547 147.609 218.547 149.284Z" fill="#232323"/>
<path fill-rule="evenodd" clip-rule="evenodd" d="M242.809 146.735L242.702 146.755L218.023 152.088C218.063 152.034 218.104 151.926 218.137 151.786C218.144 151.745 218.15 151.698 218.164 151.651C218.258 151.139 218.272 150.284 218.144 149.368C218.124 149.206 218.089 149.038 218.056 148.87C217.995 148.553 217.915 148.231 217.806 147.92V147.913C217.665 147.496 217.476 147.092 217.24 146.742C217.125 146.567 216.997 146.399 216.855 146.25L236.215 139.826L237.004 139.563L240.018 143.409L240.044 143.442L240.517 144.062L240.76 144.378L242.074 145.846L242.675 146.519L242.809 146.735Z" fill="#00797D"/>
<path fill-rule="evenodd" clip-rule="evenodd" d="M261.722 130.245L250.448 118.232L246.638 115.316L245.458 116.413L244.939 116.898L243.82 117.949L251.587 124.99L255.283 128.856C257.082 130.738 256.827 133.768 254.738 135.325L244.977 142.596C241.632 144.991 237.704 145.599 233.644 146.275L218.055 148.87C218.089 149.038 218.122 149.207 218.143 149.368C218.271 150.284 218.257 151.139 218.163 151.651C218.149 151.698 218.143 151.745 218.136 151.785C218.102 151.927 218.062 152.035 218.021 152.089L239.857 147.37L240.192 147.746L240.347 147.921L241.918 149.658C242.073 149.826 242.235 149.975 242.418 150.088C242.499 150.143 242.58 150.196 242.666 150.237C243.705 150.81 245.034 150.681 245.944 149.826L261.567 135.181C262.976 133.861 263.057 131.645 261.722 130.245Z" fill="#1E1E1E"/>
<path fill-rule="evenodd" clip-rule="evenodd" d="M236.19 138.765L233.855 140.594L232.873 139.507L227.297 133.429L229.397 131.473L236.19 138.765Z" fill="#1E1E1E"/>
<path fill-rule="evenodd" clip-rule="evenodd" d="M238.542 116.199C238.542 116.199 238.527 116.214 238.499 116.238C238.339 116.38 237.697 116.791 237.379 116.585C237.007 116.344 237.087 115.656 237.087 115.656L238.567 114.836L238.542 116.199Z" fill="#B48E56"/>
<path fill-rule="evenodd" clip-rule="evenodd" d="M236.756 115.514C236.756 115.514 236.74 115.529 236.713 115.554C236.553 115.695 236.057 115.969 235.739 115.764C235.366 115.523 235.379 114.928 235.379 114.928L236.78 114.151L236.756 115.514Z" fill="#B48E56"/>
<path fill-rule="evenodd" clip-rule="evenodd" d="M235.459 114.357C235.459 114.357 235.444 114.372 235.417 114.396C235.256 114.538 234.486 115.05 234.169 114.845C233.796 114.604 233.943 112.959 233.943 112.959L235.483 112.995L235.459 114.357Z" fill="#B48E56"/>
<path fill-rule="evenodd" clip-rule="evenodd" d="M240.718 115.962C240.718 115.962 239.624 117.085 239.318 116.862C238.981 116.614 239.11 115.814 238.842 115.864L240.29 115.061L240.718 115.962Z" fill="#B48E56"/>
<path fill-rule="evenodd" clip-rule="evenodd" d="M233.972 113.665C233.373 112.067 235.113 110.017 236.782 108.518C239.422 106.926 241.595 108.918 242.414 110.758C242.614 111.21 242.231 113.728 241.754 114.571C241.483 115.048 240.412 116.569 239.866 116.551C239.609 116.54 239.302 116.5 238.963 116.425C238.802 116.399 238.636 116.358 238.464 116.313C238.445 116.308 238.422 116.304 238.403 116.3C238.243 116.257 238.087 116.212 237.924 116.159C237.641 116.072 237.349 115.971 237.063 115.856C236.897 115.793 236.726 115.719 236.562 115.65L236.304 115.532C236.142 115.45 235.982 115.373 235.824 115.29C235.667 115.207 235.515 115.121 235.379 115.031C235.213 114.939 235.068 114.841 234.933 114.739C234.461 114.399 234.109 114.03 233.972 113.665Z" fill="#B48E56"/>
<path fill-rule="evenodd" clip-rule="evenodd" d="M238.402 116.3L239.436 114.768C239.47 114.718 239.52 114.679 239.575 114.661C239.652 114.636 239.735 114.648 239.807 114.697C239.928 114.776 239.961 114.945 239.878 115.068L238.962 116.425C238.801 116.4 238.635 116.358 238.464 116.314C238.444 116.308 238.421 116.305 238.402 116.3Z" fill="#734E17"/>
<path fill-rule="evenodd" clip-rule="evenodd" d="M236.561 115.65L237.455 114.226C237.488 114.17 237.538 114.136 237.599 114.116C237.67 114.093 237.752 114.101 237.822 114.145C237.949 114.221 237.985 114.384 237.908 114.51L237.062 115.856C236.895 115.793 236.724 115.72 236.561 115.65Z" fill="#734E17"/>
<path fill-rule="evenodd" clip-rule="evenodd" d="M234.932 114.739L235.692 113.523C235.724 113.467 235.775 113.433 235.836 113.413C235.907 113.39 235.989 113.397 236.059 113.442C236.186 113.518 236.222 113.68 236.145 113.807L235.377 115.032C235.212 114.94 235.067 114.841 234.932 114.739Z" fill="#734E17"/>
<path fill-rule="evenodd" clip-rule="evenodd" d="M251.236 116.892C251.236 116.892 244.438 121.433 243.689 121.876C242.556 122.547 242.015 123.27 243.736 122.977C245.457 122.683 248.198 121.771 248.198 121.771C248.198 121.771 241.847 124.266 242.162 125.115C242.437 125.857 248.783 123.905 248.783 123.905C248.783 123.905 243.306 125.991 243.768 126.746C244.229 127.501 249.294 125.4 249.294 125.4C249.294 125.4 246.444 127.724 246.863 128.217C247.25 128.67 254.522 123.897 255.273 121.213C255.814 119.278 251.236 116.892 251.236 116.892Z" fill="#B48E56"/>
<path fill-rule="evenodd" clip-rule="evenodd" d="M262.151 56.7848C263.963 52.8058 269.696 52.9971 271.264 57.0783L282.102 85.2958C283.154 88.0323 282.522 91.1288 280.483 93.2376L255.675 120.495L251.236 116.892L271.681 87.4873C271.681 87.4873 261.83 69.1995 261.725 61.4988C261.708 60.3158 261.258 58.7468 262.151 56.7848Z" fill="#282828"/>
<path fill-rule="evenodd" clip-rule="evenodd" d="M268.656 35.5541C268.687 35.5541 268.719 35.5431 268.744 35.5217C269.209 35.1274 269.383 34.5941 269.21 34.0943C269.08 33.7168 268.77 33.4543 268.438 33.4414C268.359 33.4498 268.3 33.497 268.297 33.572C268.294 33.647 268.353 33.7097 268.427 33.7123C268.648 33.7213 268.86 33.9101 268.954 34.1823C269.089 34.5727 268.944 34.9962 268.568 35.3149C268.511 35.364 268.504 35.4487 268.553 35.5062C268.579 35.5379 268.617 35.5541 268.656 35.5541Z" fill="#B48E56"/>
<path fill-rule="evenodd" clip-rule="evenodd" d="M267.672 36.3856C267.715 36.3856 267.758 36.3655 267.784 36.3274C267.826 36.266 267.812 36.1819 267.751 36.1386C267.639 36.0617 267.579 35.9705 267.568 35.8606C267.544 35.6201 267.755 35.337 267.839 35.2478C267.891 35.1935 267.888 35.1075 267.833 35.0564C267.779 35.0054 267.692 35.0073 267.642 35.0623C267.626 35.0791 267.255 35.4773 267.298 35.8891C267.318 36.0785 267.417 36.2375 267.595 36.361C267.619 36.3772 267.646 36.3856 267.672 36.3856Z" fill="#B48E56"/>
<path fill-rule="evenodd" clip-rule="evenodd" d="M179.845 33.0762V51.1739H176.739L169.748 41.3496V51.1739H165.605V33.0762H168.713L175.703 42.9005V33.0762H179.845Z" fill="#C48504"/>
<path fill-rule="evenodd" clip-rule="evenodd" d="M161.039 42.1248H185.529V38.8828H161.039V42.1248Z" fill="#C48504"/>
<path fill-rule="evenodd" clip-rule="evenodd" d="M161.039 46.3475H185.529V43.1055H161.039V46.3475Z" fill="#C48504"/>
<path fill-rule="evenodd" clip-rule="evenodd" d="M114.483 92.2432L125.695 98.7078L124.585 100.627L116.001 101.437L122.089 104.946L120.609 107.506L109.396 101.041L110.506 99.1215L119.09 98.3122L113.003 94.8025L114.483 92.2432Z" fill="#285CC0"/>
<path fill-rule="evenodd" clip-rule="evenodd" d="M122.116 91.9632L113.368 107.094L111.359 105.936L120.107 90.8047L122.116 91.9632Z" fill="#285CC0"/>
<path fill-rule="evenodd" clip-rule="evenodd" d="M124.733 93.4719L115.985 108.603L113.977 107.445L122.724 92.3135L124.733 93.4719Z" fill="#285CC0"/>
<path fill-rule="evenodd" clip-rule="evenodd" d="M225.01 128.333L213.798 134.798L212.688 132.879L216.278 125.05L210.191 128.56L208.711 126.001L219.924 119.536L221.033 121.455L217.444 129.284L223.53 125.774L225.01 128.333Z" fill="#278E62"/>
<path fill-rule="evenodd" clip-rule="evenodd" d="M221.432 135.079L212.684 119.948L214.692 118.79L223.441 133.921L221.432 135.079Z" fill="#278E62"/>
<path fill-rule="evenodd" clip-rule="evenodd" d="M218.819 136.588L210.07 121.457L212.079 120.299L220.827 135.429L218.819 136.588Z" fill="#278E62"/>
</svg>
